<svg width="246" height="361" viewBox="0 0 246 361" fill="none" xmlns="http://www.w3.org/2000/svg">
<path d="M168.736 348.924L108.179 267.909L45.9851 348.924L78.7185 356.698V360.79H9.56908V356.698L36.5742 348.924L102.859 261.362L34.9375 168.072L11.6149 160.298V156.206H103.678V160.298L79.1277 168.072L135.184 244.177L193.286 168.072L160.552 160.298V156.206H229.702V160.298L203.106 168.072L140.503 250.724L212.926 348.924L236.248 356.698V360.79H143.776V356.698L168.736 348.924Z" fill="#B11818"/>
<path fill-rule="evenodd" clip-rule="evenodd" d="M135.406 243.887L135.184 244.177L79.1279 168.072L103.678 160.298L103.678 156.206L11.6152 156.206V160.298L34.9378 168.072L102.86 261.362L36.5744 348.924L9.56934 356.699L9.56934 360.79H78.7188V356.699L45.9853 348.924L108.179 267.909L168.736 348.924L143.777 356.699V360.79L236.249 360.79L236.249 356.699L212.926 348.924L140.503 250.724L140.532 250.685L135.406 243.887Z" fill="#2843CE"/>
</svg>
