<svg width="688" height="286" viewBox="0 0 688 286" fill="none" xmlns="http://www.w3.org/2000/svg">
<mask id="path-1-inside-1_128_7584" fill="white">
<path fill-rule="evenodd" clip-rule="evenodd" d="M666.408 0.154253L524.599 0.154295L524.599 0.154587C524.599 12.0727 514.937 21.7343 503.019 21.7343C491.101 21.7343 481.439 12.0727 481.439 0.154587L481.439 0.154294L22.0997 0.154287C22.0997 12.0723 12.4384 21.7337 0.520508 21.734L0.520508 263.735C12.4384 263.736 22.0997 273.397 22.0997 285.315L481.439 285.315C481.439 273.397 491.101 263.735 503.019 263.735C514.937 263.735 524.599 273.397 524.599 285.315L666.408 285.315C666.408 273.397 676.07 263.735 687.988 263.735H687.988L687.988 21.734C687.988 21.734 687.988 21.734 687.988 21.734C676.07 21.734 666.408 12.0724 666.408 0.154253Z"/>
</mask>
<path fill-rule="evenodd" clip-rule="evenodd" d="M666.408 0.154253L524.599 0.154295L524.599 0.154587C524.599 12.0727 514.937 21.7343 503.019 21.7343C491.101 21.7343 481.439 12.0727 481.439 0.154587L481.439 0.154294L22.0997 0.154287C22.0997 12.0723 12.4384 21.7337 0.520508 21.734L0.520508 263.735C12.4384 263.736 22.0997 273.397 22.0997 285.315L481.439 285.315C481.439 273.397 491.101 263.735 503.019 263.735C514.937 263.735 524.599 273.397 524.599 285.315L666.408 285.315C666.408 273.397 676.07 263.735 687.988 263.735H687.988L687.988 21.734C687.988 21.734 687.988 21.734 687.988 21.734C676.07 21.734 666.408 12.0724 666.408 0.154253Z" fill="white"/>
<path d="M666.408 0.154297L667.95 0.154297V-1.38711L666.408 -1.38711V0.154297ZM524.599 0.154338V-1.38707L523.057 -1.38707V0.154338L524.599 0.154338ZM481.439 0.154631L479.898 0.154631L481.439 0.154631ZM481.439 0.154338L482.981 0.154338V-1.38707L481.439 -1.38707V0.154338ZM22.0997 0.154331L22.0997 -1.38708L20.5583 -1.38708L20.5583 0.154331L22.0997 0.154331ZM0.520508 21.734L0.520473 20.1926L-1.0209 20.1927L-1.0209 21.734L0.520508 21.734ZM0.520508 263.735H-1.0209L-1.0209 265.277L0.520472 265.277L0.520508 263.735ZM22.0997 285.315H20.5583L20.5583 286.856H22.0997L22.0997 285.315ZM481.439 285.315V286.856H482.981V285.315H481.439ZM524.599 285.315H523.057V286.856H524.599V285.315ZM666.408 285.315V286.856H667.95V285.315H666.408ZM687.988 263.735V265.277H689.53V263.735H687.988ZM687.988 21.734H689.53V20.1926H687.988V21.734ZM666.408 -1.38711L524.599 -1.38707V1.69575L666.408 1.6957V-1.38711ZM523.057 0.154338V0.154631L526.14 0.154631V0.154338L523.057 0.154338ZM523.057 0.154631C523.057 11.2215 514.086 20.1929 503.019 20.1929V23.2757C515.789 23.2757 526.14 12.9241 526.14 0.154631L523.057 0.154631ZM503.019 20.1929C491.952 20.1929 482.981 11.2215 482.981 0.154631L479.898 0.154631C479.898 12.9241 490.25 23.2757 503.019 23.2757V20.1929ZM482.981 0.154631V0.154338L479.898 0.154338V0.154631L482.981 0.154631ZM481.439 -1.38707L22.0997 -1.38708L22.0997 1.69574L481.439 1.69575V-1.38707ZM20.5583 0.154331C20.5583 11.221 11.5871 20.1924 0.520473 20.1926L0.520543 23.2754C13.2897 23.2752 23.6411 12.9236 23.6411 0.154331L20.5583 0.154331ZM-1.0209 21.734L-1.0209 263.735H2.06192L2.06192 21.734L-1.0209 21.734ZM0.520472 265.277C11.5871 265.277 20.5583 274.248 20.5583 285.315H23.6411C23.6411 272.546 13.2897 262.194 0.520543 262.194L0.520472 265.277ZM22.0997 286.856L481.439 286.856V283.773L22.0997 283.774L22.0997 286.856ZM482.981 285.315C482.981 274.248 491.952 265.277 503.019 265.277V262.194C490.25 262.194 479.898 272.545 479.898 285.315H482.981ZM503.019 265.277C514.086 265.277 523.057 274.248 523.057 285.315H526.14C526.14 272.545 515.788 262.194 503.019 262.194V265.277ZM524.599 286.856L666.408 286.856V283.774L524.599 283.773V286.856ZM667.95 285.315C667.95 274.248 676.921 265.277 687.988 265.277V262.194C675.218 262.194 664.867 272.546 664.867 285.315H667.95ZM687.988 265.277H687.988V262.194H687.988V265.277ZM689.53 263.735L689.53 21.734L686.447 21.734L686.447 263.735H689.53ZM687.988 20.1926H687.988H687.988C687.988 20.1926 687.988 20.1926 687.988 20.1926C687.988 20.1926 687.988 20.1926 687.988 20.1926C687.988 20.1926 687.988 20.1926 687.988 20.1926C687.988 20.1926 687.988 20.1926 687.988 20.1926C687.988 20.1926 687.988 20.1926 687.988 20.1926C687.988 20.1926 687.988 20.1926 687.988 20.1926H687.988V23.2754H687.988C687.988 23.2754 687.988 23.2754 687.988 23.2754C687.988 23.2754 687.988 23.2754 687.988 23.2754C687.988 23.2754 687.988 23.2754 687.988 23.2754C687.988 23.2754 687.988 23.2754 687.988 23.2754C687.988 23.2754 687.988 23.2754 687.988 23.2754C687.988 23.2754 687.988 23.2754 687.988 23.2754H687.988H687.988V20.1926ZM687.988 20.1926C676.921 20.1926 667.95 11.2211 667.95 0.154297L664.867 0.154297C664.867 12.9237 675.218 23.2754 687.988 23.2754V20.1926Z" fill="#2843CE" mask="url(#path-1-inside-1_128_7584)"/>
<rect x="559.281" y="255.257" width="2.26382" height="93.9486" transform="rotate(-90 559.281 255.257)" fill="#2843CE"/>
<rect x="559.281" y="250.729" width="2.26382" height="93.9486" transform="rotate(-90 559.281 250.729)" fill="#2843CE"/>
<rect x="559.28" y="237.713" width="2.26382" height="87.7231" transform="rotate(-90 559.28 237.713)" fill="#2843CE"/>
<rect x="559.28" y="216.206" width="2.26382" height="87.7231" transform="rotate(-90 559.28 216.206)" fill="#2843CE"/>
<rect x="559.28" y="186.776" width="2.26382" height="87.7231" transform="rotate(-90 559.28 186.776)" fill="#2843CE"/>
<rect x="559.28" y="179.419" width="2.26382" height="87.7231" transform="rotate(-90 559.28 179.419)" fill="#2843CE"/>
<rect x="559.281" y="147.726" width="2.26382" height="93.9486" transform="rotate(-90 559.281 147.726)" fill="#2843CE"/>
<rect x="559.28" y="142.632" width="2.26382" height="93.9486" transform="rotate(-90 559.28 142.632)" fill="#2843CE"/>
<rect x="559.28" y="125.653" width="2.26382" height="87.7231" transform="rotate(-90 559.28 125.653)" fill="#2843CE"/>
<rect x="559.28" y="91.6958" width="2.26382" height="87.7231" transform="rotate(-90 559.28 91.6958)" fill="#2843CE"/>
<rect x="559.281" y="36.7979" width="2.26382" height="93.9486" transform="rotate(-90 559.281 36.7979)" fill="#2843CE"/>
<rect x="559.28" y="86.6025" width="2.26382" height="87.7231" transform="rotate(-90 559.28 86.6025)" fill="#2843CE"/>
<rect x="559.28" y="31.7046" width="2.26382" height="93.9486" transform="rotate(-90 559.28 31.7046)" fill="#2843CE"/>
<rect x="559.28" y="43.0234" width="2.26382" height="87.7231" transform="rotate(-90 559.28 43.0234)" fill="#2843CE"/>
<rect x="559.28" y="162.441" width="2.26382" height="87.7231" transform="rotate(-90 559.28 162.441)" fill="#2843CE"/>
<rect x="559.28" y="244.504" width="3.96169" height="87.7231" transform="rotate(-90 559.28 244.504)" fill="#2843CE"/>
<rect x="559.28" y="232.619" width="4.52764" height="87.7231" transform="rotate(-90 559.28 232.619)" fill="#2843CE"/>
<rect x="559.28" y="208.849" width="6.79147" height="87.7231" transform="rotate(-90 559.28 208.849)" fill="#2843CE"/>
<rect x="559.281" y="137.539" width="6.79147" height="87.7231" transform="rotate(-90 559.281 137.539)" fill="#2843CE"/>
<rect x="559.281" y="103.581" width="6.79147" height="87.7231" transform="rotate(-90 559.281 103.581)" fill="#2843CE"/>
<rect x="559.281" y="79.2446" width="6.79147" height="87.7231" transform="rotate(-90 559.281 79.2446)" fill="#2843CE"/>
<rect x="559.28" y="52.645" width="6.79147" height="87.7231" transform="rotate(-90 559.28 52.645)" fill="#2843CE"/>
<rect x="559.28" y="223.563" width="4.52764" height="87.7231" transform="rotate(-90 559.28 223.563)" fill="#2843CE"/>
<rect x="559.281" y="194.134" width="4.52764" height="87.7231" transform="rotate(-90 559.281 194.134)" fill="#2843CE"/>
<rect x="559.281" y="172.062" width="4.52764" height="87.7231" transform="rotate(-90 559.281 172.062)" fill="#2843CE"/>
<rect x="559.281" y="120.56" width="4.52764" height="87.7231" transform="rotate(-90 559.281 120.56)" fill="#2843CE"/>
<rect x="559.28" y="69.6235" width="4.52764" height="87.7231" transform="rotate(-90 559.28 69.6235)" fill="#2843CE"/>
<rect x="559.281" y="60.0024" width="4.52764" height="87.7231" transform="rotate(-90 559.281 60.0024)" fill="#2843CE"/>
<rect x="559.281" y="113.202" width="4.52764" height="87.7231" transform="rotate(-90 559.281 113.202)" fill="#2843CE"/>
<mask id="mask0_128_7584" style="mask-type:alpha" maskUnits="userSpaceOnUse" x="0" y="0" width="688" height="286">
<mask id="path-32-inside-2_128_7584" fill="white">
<path fill-rule="evenodd" clip-rule="evenodd" d="M666.408 0.154253L524.599 0.154295L524.599 0.154587C524.599 12.0727 514.937 21.7343 503.019 21.7343C491.101 21.7343 481.439 12.0727 481.439 0.154587L481.439 0.154294L22.0997 0.154287C22.0997 12.0723 12.4384 21.7337 0.520508 21.734L0.520508 263.735C12.4384 263.736 22.0997 273.397 22.0997 285.315L481.439 285.315C481.439 273.397 491.101 263.735 503.019 263.735C514.937 263.735 524.599 273.397 524.599 285.315L666.408 285.315C666.408 273.397 676.07 263.735 687.988 263.735H687.988L687.988 21.734C687.988 21.734 687.988 21.734 687.988 21.734C676.07 21.734 666.408 12.0724 666.408 0.154253Z"/>
</mask>
<path fill-rule="evenodd" clip-rule="evenodd" d="M666.408 0.154253L524.599 0.154295L524.599 0.154587C524.599 12.0727 514.937 21.7343 503.019 21.7343C491.101 21.7343 481.439 12.0727 481.439 0.154587L481.439 0.154294L22.0997 0.154287C22.0997 12.0723 12.4384 21.7337 0.520508 21.734L0.520508 263.735C12.4384 263.736 22.0997 273.397 22.0997 285.315L481.439 285.315C481.439 273.397 491.101 263.735 503.019 263.735C514.937 263.735 524.599 273.397 524.599 285.315L666.408 285.315C666.408 273.397 676.07 263.735 687.988 263.735H687.988L687.988 21.734C687.988 21.734 687.988 21.734 687.988 21.734C676.07 21.734 666.408 12.0724 666.408 0.154253Z" fill="#D9D9D9"/>
<path d="M666.408 0.154297L667.95 0.154297V-1.38711L666.408 -1.38711V0.154297ZM524.599 0.154338V-1.38707L523.057 -1.38707V0.154338L524.599 0.154338ZM481.439 0.154631L479.898 0.154631L481.439 0.154631ZM481.439 0.154338L482.981 0.154338V-1.38707L481.439 -1.38707V0.154338ZM22.0997 0.154331L22.0997 -1.38708L20.5583 -1.38708L20.5583 0.154331L22.0997 0.154331ZM0.520508 21.734L0.520473 20.1926L-1.0209 20.1927L-1.0209 21.734L0.520508 21.734ZM0.520508 263.735H-1.0209L-1.0209 265.277L0.520472 265.277L0.520508 263.735ZM22.0997 285.315H20.5583L20.5583 286.856H22.0997L22.0997 285.315ZM481.439 285.315V286.856H482.981V285.315H481.439ZM524.599 285.315H523.057V286.856H524.599V285.315ZM666.408 285.315V286.856H667.95V285.315H666.408ZM687.988 263.735V265.277H689.53V263.735H687.988ZM687.988 21.734H689.53V20.1926H687.988V21.734ZM666.408 -1.38711L524.599 -1.38707V1.69575L666.408 1.6957V-1.38711ZM523.057 0.154338V0.154631L526.14 0.154631V0.154338L523.057 0.154338ZM523.057 0.154631C523.057 11.2215 514.086 20.1929 503.019 20.1929V23.2757C515.789 23.2757 526.14 12.9241 526.14 0.154631L523.057 0.154631ZM503.019 20.1929C491.952 20.1929 482.981 11.2215 482.981 0.154631L479.898 0.154631C479.898 12.9241 490.25 23.2757 503.019 23.2757V20.1929ZM482.981 0.154631V0.154338L479.898 0.154338V0.154631L482.981 0.154631ZM481.439 -1.38707L22.0997 -1.38708L22.0997 1.69574L481.439 1.69575V-1.38707ZM20.5583 0.154331C20.5583 11.221 11.5871 20.1924 0.520473 20.1926L0.520543 23.2754C13.2897 23.2752 23.6411 12.9236 23.6411 0.154331L20.5583 0.154331ZM-1.0209 21.734L-1.0209 263.735H2.06192L2.06192 21.734L-1.0209 21.734ZM0.520472 265.277C11.5871 265.277 20.5583 274.248 20.5583 285.315H23.6411C23.6411 272.546 13.2897 262.194 0.520543 262.194L0.520472 265.277ZM22.0997 286.856L481.439 286.856V283.773L22.0997 283.774L22.0997 286.856ZM482.981 285.315C482.981 274.248 491.952 265.277 503.019 265.277V262.194C490.25 262.194 479.898 272.545 479.898 285.315H482.981ZM503.019 265.277C514.086 265.277 523.057 274.248 523.057 285.315H526.14C526.14 272.545 515.788 262.194 503.019 262.194V265.277ZM524.599 286.856L666.408 286.856V283.774L524.599 283.773V286.856ZM667.95 285.315C667.95 274.248 676.921 265.277 687.988 265.277V262.194C675.218 262.194 664.867 272.546 664.867 285.315H667.95ZM687.988 265.277H687.988V262.194H687.988V265.277ZM689.53 263.735L689.53 21.734L686.447 21.734L686.447 263.735H689.53ZM687.988 20.1926H687.988H687.988C687.988 20.1926 687.988 20.1926 687.988 20.1926C687.988 20.1926 687.988 20.1926 687.988 20.1926C687.988 20.1926 687.988 20.1926 687.988 20.1926C687.988 20.1926 687.988 20.1926 687.988 20.1926C687.988 20.1926 687.988 20.1926 687.988 20.1926C687.988 20.1926 687.988 20.1926 687.988 20.1926H687.988V23.2754H687.988C687.988 23.2754 687.988 23.2754 687.988 23.2754C687.988 23.2754 687.988 23.2754 687.988 23.2754C687.988 23.2754 687.988 23.2754 687.988 23.2754C687.988 23.2754 687.988 23.2754 687.988 23.2754C687.988 23.2754 687.988 23.2754 687.988 23.2754C687.988 23.2754 687.988 23.2754 687.988 23.2754H687.988H687.988V20.1926ZM687.988 20.1926C676.921 20.1926 667.95 11.2211 667.95 0.154297L664.867 0.154297C664.867 12.9237 675.218 23.2754 687.988 23.2754V20.1926Z" fill="#425CE0" mask="url(#path-32-inside-2_128_7584)"/>
</mask>
<g mask="url(#mask0_128_7584)">
<line x1="500.321" y1="20.9634" x2="500.321" y2="264.506" stroke="#2843CE" stroke-width="0.770704" stroke-dasharray="12.33 12.33"/>
<path d="M44.2634 159.87L19.4141 279.82L30.0638 283.369L29.8769 285.238H-13.4693L-13.0956 283.369L-0.390696 279.82L24.4587 159.87L13.0616 156.32L13.4353 154.452H56.5947L56.221 156.32L44.2634 159.87Z" fill="#2843CE"/>
<path d="M50.5842 232.182L48.9569 231.263C54.8274 219.845 61.2983 212.584 68.3697 209.48C71.6773 208.028 74.555 207.921 77.0028 209.159C79.4006 210.283 81.0583 212.821 81.9759 216.771L96.6075 285.436C97.6614 290.007 99.7281 291.616 102.808 290.264C105.431 289.113 108.084 285.704 110.766 280.038L112.222 281.031C106.579 292.35 100.166 299.586 92.98 302.74C89.6724 304.191 86.7627 304.38 84.2509 303.306C81.8031 302.068 80.1774 299.449 79.3738 295.449L64.7422 226.783C63.6884 222.213 61.6787 220.578 58.7133 221.88C55.9759 223.082 53.2662 226.515 50.5842 232.182ZM57.4427 197.136C54.6166 195.656 52.7698 192.998 51.9022 189.162C51.0346 185.326 51.4689 181.667 53.205 178.184C55.0551 174.652 57.691 172.134 61.1127 170.632C64.6484 169.081 67.8293 169.045 70.6554 170.525C73.4816 172.005 75.3284 174.663 76.196 178.499C76.9495 182.385 76.4582 186.07 74.7221 189.552C72.986 193.035 70.3501 195.552 66.8144 197.104C63.3927 198.606 60.2688 198.617 57.4427 197.136Z" fill="#2843CE"/>
<path d="M168.456 117.214V280.157L184.192 284.98V287.518H125.055V284.98L141.552 280.157V117.214L125.055 112.392V109.854H184.192V112.392L168.456 117.214ZM115.411 95.133L112.111 92.0873C120.571 83.7964 127.086 78.0434 131.654 74.8286C136.223 71.6137 140.199 70.0063 143.583 70.0063C146.967 70.0063 151.789 71.9521 158.05 75.8438C164.48 79.7355 169.556 81.6813 173.278 81.6813C180.723 81.6813 188.083 77.8742 195.359 70.2601L198.405 73.3057C183.177 88.5341 172.348 96.1482 165.918 96.1482C163.041 96.1482 158.388 94.2024 151.958 90.3107C145.529 86.2498 140.283 84.2194 136.223 84.2194C129.624 84.2194 122.686 87.8572 115.411 95.133Z" fill="#B11818"/>
<path d="M195.971 244.738L195.083 243.851C197.45 241.434 199.3 239.757 200.632 238.819C202.013 237.882 203.221 237.414 204.257 237.414C205.194 237.414 206.576 237.981 208.401 239.115C210.226 240.25 211.705 240.817 212.84 240.817C214.862 240.817 217.032 239.707 219.351 237.488L220.239 238.375C215.849 242.765 212.667 244.96 210.694 244.96C209.806 244.96 208.425 244.393 206.551 243.259C204.676 242.124 203.172 241.557 202.038 241.557C200.114 241.557 198.092 242.617 195.971 244.738ZM199.226 287.429V286.689L203.665 285.284V252.877L199.226 251.915V251.101L210.398 249.917L211.36 250.953V285.284L215.799 286.689V287.429H199.226Z" fill="#B11818"/>
<path d="M394.819 49.6734L495.568 -24.8466L489.868 -34.8162L491.285 -36.1135L524.338 -6.55321L522.779 -5.38334L510.67 -11.3406L409.921 63.1793L416.191 73.6586L414.632 74.8285L381.721 45.3956L383.28 44.2258L394.819 49.6734ZM388.529 82.5113C385.581 84.6611 382.207 85.6615 378.409 85.5124C374.61 85.3633 371.334 84.0571 368.58 81.5938C365.92 79.2153 364.685 76.4868 364.874 73.408C365.063 70.3292 366.632 67.7149 369.58 65.5651C372.519 63.2354 375.887 62.1451 379.686 62.2942C383.484 62.4432 386.713 63.707 389.372 66.0854C392.127 68.5487 393.41 71.3198 393.22 74.3986C393.031 77.4773 391.467 80.1816 388.529 82.5113Z" fill="#B11818"/>
<path d="M479.067 38.0396L478.889 38.7576C473.91 37.7238 470.455 36.0216 468.524 33.6508C467.62 32.5419 467.275 31.455 467.489 30.3899C467.665 29.3561 468.458 28.4553 469.868 27.6877L494.528 14.8477C496.161 13.9625 496.556 13.0037 495.715 11.9713C494.999 11.0918 493.417 10.4397 490.971 10.0148L491.197 9.35414C496.112 10.3114 499.552 11.9946 501.515 14.4036C502.418 15.5125 502.798 16.603 502.653 17.6751C502.44 18.7401 501.612 19.6373 500.17 20.3667L475.511 33.2067C473.878 34.0919 473.466 35.0316 474.277 36.0258C475.024 36.9435 476.621 37.6148 479.067 38.0396Z" fill="#B11818"/>
<path d="M293.121 279.144L293.608 279.752C288.738 283.812 284.435 285.841 280.701 285.841C275.992 285.841 274.206 283.365 275.343 278.413C276.723 271.837 281.594 265.465 289.955 259.295H269.62L269.863 258.077L278.143 255.764L294.339 177.586L286.911 175.273L287.155 174.055H315.284L315.04 175.273L307.247 177.586L291.051 255.764L297.992 258.077L297.87 259.295H291.66C289.062 262.136 286.87 265.14 285.084 268.306C283.298 271.553 282.162 274.273 281.675 276.465C280.944 280.118 282.203 281.944 285.45 281.944C288.291 281.944 290.848 281.011 293.121 279.144Z" fill="#B11818"/>
<path d="M319.01 278.157L319.306 278.527C316.445 280.944 313.83 282.152 311.463 282.152C308.651 282.152 307.566 280.648 308.207 277.639C308.997 273.939 311.561 270.363 315.902 266.911C314.373 267.355 313.263 267.576 312.573 267.576C311.142 267.576 310.057 267.182 309.317 266.393C308.627 265.554 308.454 264.346 308.799 262.767L314.422 235.54C314.768 233.715 314.299 232.802 313.017 232.802C311.833 232.802 310.304 233.616 308.429 235.244L307.985 234.652C311.931 231.446 315.433 229.843 318.492 229.843C319.922 229.843 320.983 230.262 321.673 231.101C322.364 231.89 322.561 233.074 322.265 234.652L316.642 261.879C316.297 263.704 316.79 264.617 318.122 264.617C319.256 264.617 320.761 263.803 322.635 262.175L323.005 262.767C321.377 264.099 319.725 265.184 318.048 266.023C316.469 267.749 315.138 269.574 314.052 271.498C312.967 273.471 312.277 275.148 311.981 276.529C311.586 278.699 312.351 279.784 314.274 279.784C316.001 279.784 317.579 279.242 319.01 278.157ZM316.494 223.628C315.705 222.641 315.458 221.384 315.754 219.854C316.05 218.325 316.79 217.068 317.974 216.081C319.207 215.095 320.563 214.601 322.043 214.601C323.572 214.601 324.731 215.095 325.52 216.081C326.31 217.068 326.556 218.325 326.26 219.854C325.915 221.384 325.151 222.641 323.967 223.628C322.783 224.614 321.426 225.108 319.897 225.108C318.418 225.108 317.283 224.614 316.494 223.628Z" fill="#2843CE"/>
<path d="M500.707 197.454H372V286.085" stroke="#2843CE" stroke-width="1.54141"/>
<path d="M450.099 147.612V195.112L454.687 196.517V197.257H437.448V196.517L442.257 195.112V147.612L437.448 146.206V145.466H454.687V146.206L450.099 147.612ZM450.617 135.996C450.617 134.762 450.963 133.776 451.653 133.036C452.393 132.296 453.33 131.926 454.465 131.926C455.648 131.926 456.586 132.296 457.276 133.036C457.967 133.727 458.312 134.615 458.312 135.7C458.312 137.87 457.03 139.547 454.465 140.731C451.9 141.915 449.138 142.507 446.178 142.507C443.219 142.507 440.456 141.915 437.891 140.731C435.327 139.547 434.044 137.87 434.044 135.7C434.044 134.565 434.414 133.653 435.154 132.962C435.844 132.272 436.757 131.926 437.891 131.926C439.026 131.926 439.938 132.296 440.629 133.036C441.369 133.776 441.739 134.762 441.739 135.996C441.739 137.278 441.887 138.314 442.183 139.103C442.479 139.892 442.898 140.435 443.441 140.731C443.983 141.027 444.427 141.224 444.772 141.323C445.167 141.372 445.635 141.397 446.178 141.397C446.721 141.397 447.165 141.372 447.51 141.323C447.904 141.224 448.373 141.027 448.916 140.731C449.458 140.435 449.877 139.892 450.173 139.103C450.469 138.314 450.617 137.278 450.617 135.996ZM485.18 152.421C485.476 151.632 485.624 150.62 485.624 149.387C485.624 148.154 485.969 147.168 486.66 146.428C487.4 145.688 488.337 145.318 489.471 145.318C490.606 145.318 491.518 145.688 492.209 146.428C492.899 147.118 493.245 148.006 493.245 149.091C493.245 151.262 491.962 152.939 489.397 154.123C486.882 155.306 484.144 155.898 481.185 155.898C478.176 155.898 475.389 155.306 472.824 154.123C470.308 152.939 469.051 151.237 469.051 149.017C469.051 147.932 469.396 147.044 470.086 146.354C470.777 145.663 471.69 145.318 472.824 145.318C474.008 145.318 474.945 145.688 475.636 146.428C476.375 147.168 476.745 148.154 476.745 149.387C476.745 150.62 476.893 151.632 477.189 152.421C477.485 153.21 477.904 153.753 478.447 154.049C478.99 154.345 479.434 154.542 479.779 154.64C480.124 154.69 480.593 154.714 481.185 154.714C481.727 154.714 482.171 154.69 482.516 154.64C482.911 154.542 483.38 154.345 483.922 154.049C484.465 153.753 484.884 153.21 485.18 152.421ZM473.934 197.257V196.517L478.373 195.112V162.705L473.934 161.743V160.929L485.106 159.746L486.068 160.781V195.112L490.507 196.517V197.257H473.934Z" fill="#2843CE"/>
<path d="M59.5092 23.7291L60.6005 23.9312C59.5039 31.4784 57.2684 36.8057 53.8939 39.913C52.3155 41.3664 50.7193 41.9813 49.1053 41.7577C47.5414 41.5885 46.1209 40.4827 44.8437 38.4403L23.3834 2.68278C21.9101 0.318137 20.4386 -0.187597 18.9691 1.16558C17.7172 2.31829 16.8841 4.74494 16.4698 8.44553L15.4601 8.16828C16.4479 0.721295 18.6562 -4.58091 22.0851 -7.73833C23.6635 -9.19174 25.2619 -9.85891 26.8802 -9.73983C28.4942 -9.51621 29.9125 -8.35815 31.1353 -6.26564L52.5956 29.4919C54.0689 31.8565 55.5132 32.3873 56.9283 31.0842C58.2346 29.8814 59.0949 27.4297 59.5092 23.7291ZM62.413 44.7411C64.2862 45.0278 65.8364 46.1651 67.0635 48.153C68.2906 50.141 68.7521 52.2807 68.4482 54.572C68.0899 56.9135 67.0943 58.8361 65.4615 60.3396C63.7742 61.8932 61.994 62.5267 60.1208 62.2401C58.2476 61.9534 56.6975 60.8161 55.4704 58.8281C54.2977 56.79 53.8633 54.6253 54.1673 52.3339C54.4712 50.0425 55.4667 48.12 57.154 46.5664C58.7868 45.0628 60.5398 44.4544 62.413 44.7411ZM3.28874 -10.948L0.709272 -15.06C-0.977986 -13.5064 -1.27192 -10.8219 -0.17253 -7.00651C0.926858 -3.19116 3.51119 2.073 7.58045 8.78595L31.6137 48.8123C32.9782 51.2771 34.3952 51.833 35.8648 50.4798C37.1166 49.3271 38.0042 46.8503 38.5274 43.0495L39.537 43.3268C38.4404 50.874 36.2049 56.2012 32.8304 59.3085C31.252 60.762 29.6558 61.3769 28.0418 61.1532C26.4779 60.984 25.0846 59.8532 23.8618 57.7607L-0.910263 16.6043C-5.02103 9.62785 -6.98079 3.18513 -6.78956 -2.72384C-6.59832 -8.63281 -4.21674 -13.6922 0.355185 -17.9021C3.07657 -20.408 5.48487 -21.6701 7.58009 -21.6885C9.62088 -21.6567 11.2298 -20.6741 12.4067 -18.7405C13.3875 -17.1293 13.7618 -15.4121 13.5296 -13.589C13.2472 -11.8203 12.4801 -10.3597 11.2283 -9.20695C9.92201 -8.00412 8.54137 -7.53743 7.08636 -7.80686C5.58122 -8.13071 4.31535 -9.17777 3.28874 -10.948ZM41.4312 64.0615C43.3044 64.3482 44.8545 65.4855 46.0816 67.4734C47.3087 69.4614 47.7703 71.6011 47.4664 73.8924C47.108 76.2339 46.0852 78.1815 44.398 79.7352C42.7652 81.2387 41.0121 81.8471 39.1389 81.5605C37.2657 81.2738 35.7156 80.1365 34.4885 78.1485C33.2614 76.1606 32.8271 73.9958 33.1854 71.6543C33.4893 69.3629 34.4577 67.4655 36.0905 65.962C37.7778 64.4083 39.558 63.7748 41.4312 64.0615Z" fill="#2843CE"/>
<path d="M302.619 69.4185L302.619 -46.3628L291.438 -49.7893L291.438 -51.5928L333.458 -51.5928L333.458 -49.7893L321.736 -46.3628L321.736 69.4185L333.458 72.8451L333.458 74.6485L291.438 74.6485L291.438 72.8451L302.619 69.4185ZM334.54 91.7813L334.54 97.1916L289.815 97.1916L289.815 91.7813L334.54 91.7813Z" fill="#2843CE"/>
<path d="M278.65 86.5439L278.65 91.9542L233.924 91.9542L233.924 86.5439L278.65 86.5439ZM276.486 -20.7612L276.486 -18.9578L265.665 -15.5312L265.665 63.4598L276.486 65.8042L276.486 67.788L249.254 70.6735L246.909 68.1487L246.909 -15.5312L236.088 -18.9578L236.088 -20.7612L276.486 -20.7612Z" fill="#2843CE"/>
</g>
</svg>
