<svg width="182" height="258" viewBox="0 0 182 258" fill="none" xmlns="http://www.w3.org/2000/svg">
<path d="M122.184 131.219V118.711C121.214 118.129 120.148 117.838 118.984 117.838C111.421 117.838 105.991 125.014 102.694 139.364L99.2032 154.782C96.4881 166.612 90.1854 174.757 80.2948 179.217H85.531C101.433 179.217 113.166 181.642 120.73 186.49C128.293 191.338 133.432 199.483 136.147 210.925L139.638 226.052C141.771 234.779 143.807 240.985 145.747 244.669C147.686 248.354 150.498 250.196 154.183 250.196C157.092 250.196 160.001 249.13 162.91 246.997L165.237 249.033C159.613 254.657 151.08 257.469 139.638 257.469C130.523 257.469 124.026 255.142 120.148 250.487C116.269 245.639 112.972 237.979 110.257 227.506L106.185 209.762C103.858 200.453 100.367 193.762 95.7124 189.69C91.058 185.617 83.6886 183.581 73.6042 183.581H58.7684V247.578L75.3496 253.105V256.014H11.0612V253.105L28.5151 247.578L28.5151 119.002L11.0612 113.475V110.566H76.2223V113.475L58.7684 119.002L58.7684 178.927C67.8832 178.927 75.3496 176.793 81.1675 172.527C87.1794 168.066 91.058 162.151 92.8034 154.782L96.0033 139.655C100.27 119.293 110.839 109.111 127.711 109.111C135.081 109.111 141.286 110.856 146.329 114.347C151.371 117.838 153.892 123.268 153.892 130.638C153.892 136.068 152.437 140.237 149.528 143.146C146.813 145.861 143.129 147.219 138.474 147.219C133.626 147.219 129.65 145.764 126.548 142.855C123.639 139.946 122.184 136.068 122.184 131.219Z" fill="#2843CE"/>
<mask id="mask0_128_7909" style="mask-type:alpha" maskUnits="userSpaceOnUse" x="119" y="98" width="63" height="69">
<ellipse cx="150.394" cy="132.748" rx="31.0125" ry="34.1138" fill="#D9D9D9"/>
</mask>
<g mask="url(#mask0_128_7909)">
<path d="M122.184 131.22V118.711C121.214 118.129 120.148 117.838 118.984 117.838C111.421 117.838 105.991 125.014 102.694 139.365L99.2032 154.782C96.4881 166.612 90.1854 174.757 80.2948 179.218H85.531C101.433 179.218 113.166 181.642 120.73 186.49C128.293 191.338 133.432 199.484 136.147 210.926L139.638 226.052C141.771 234.779 143.807 240.985 145.747 244.67C147.686 248.354 150.498 250.197 154.183 250.197C157.092 250.197 160.001 249.13 162.91 246.997L165.237 249.033C159.613 254.657 151.08 257.469 139.638 257.469C130.523 257.469 124.026 255.142 120.148 250.488C116.269 245.639 112.972 237.979 110.257 227.507L106.185 209.762C103.858 200.453 100.367 193.763 95.7124 189.69C91.058 185.617 83.6886 183.581 73.6042 183.581H58.7684L58.7684 247.579L75.3496 253.106V256.015H11.0612V253.106L28.5151 247.579L28.5151 119.002L11.0612 113.475V110.566L76.2223 110.566V113.475L58.7684 119.002L58.7684 178.927C67.8832 178.927 75.3496 176.794 81.1675 172.527C87.1794 168.067 91.058 162.152 92.8034 154.782L96.0033 139.656C100.27 119.293 110.839 109.111 127.711 109.111C135.081 109.111 141.286 110.857 146.329 114.348C151.371 117.838 153.892 123.268 153.892 130.638C153.892 136.068 152.437 140.237 149.528 143.146C146.813 145.861 143.129 147.219 138.474 147.219C133.626 147.219 129.65 145.764 126.548 142.855C123.639 139.946 122.184 136.068 122.184 131.22Z" fill="#B11818"/>
</g>
</svg>
