<svg width="654" height="1003" viewBox="0 0 654 1003" fill="none" xmlns="http://www.w3.org/2000/svg">
<path d="M637.881 62.2091L620.153 61.9059L632.407 74.7461L631.715 76.3298L607.116 76.1689L605.147 78.3993L604.707 78.2072L608.971 68.4416L609.411 68.6336L609.191 71.418L628.474 71.8768L618.798 61.8904L613.378 61.8283L611.486 63.8828L611.046 63.6907L615.329 53.8811L615.769 54.0731L615.433 57.1214L634.64 57.7562L621.119 44.1006L618.708 47.3428L618.268 47.1507L621.495 39.7605L621.935 39.9525L621.56 43.0888L638.592 60.5815L637.881 62.2091Z" fill="#2843CE"/>
<path d="M366.022 738.88L366.011 738.677C362.774 738.747 359.902 737.662 357.396 735.424C355.773 733.975 354.886 732.518 354.735 731.053C354.609 729.61 355.121 728.244 356.272 726.955C357.444 725.642 358.883 725.04 360.589 725.147C362.319 725.276 363.885 725.732 365.289 726.514C366.715 727.272 369.073 728.691 372.363 730.771C372.432 730.79 372.479 730.81 372.502 730.831C372.55 730.874 372.598 730.917 372.646 730.959C372.715 730.978 372.773 731.009 372.821 731.051L375.826 727.686C376.956 726.421 377.528 725.108 377.541 723.747C377.579 722.408 377.013 721.216 375.844 720.172C374.889 719.319 373.761 718.805 372.459 718.629L369.869 721.529C369.23 722.245 368.515 722.637 367.726 722.704C366.936 722.772 366.219 722.518 365.575 721.942C364.954 721.388 364.612 720.739 364.547 719.994C364.504 719.226 364.802 718.484 365.441 717.768C366.635 716.432 368.275 715.988 370.363 716.436C372.496 716.882 374.517 717.958 376.427 719.663C378.742 721.731 380.086 723.853 380.458 726.03C380.876 728.205 380.37 730.092 378.942 731.691L369.191 742.611C368.658 743.208 368.678 743.762 369.251 744.273C369.776 744.742 370.287 744.963 370.784 744.934L370.811 745.409C369.591 745.478 368.217 744.83 366.689 743.466C365.09 742.038 364.868 740.509 366.022 738.88ZM366.746 737.854L372.341 731.588L372.305 731.556L372.27 731.524L372.234 731.492L372.166 731.496L372.13 731.464L372.094 731.432L372.059 731.4L372.023 731.368L371.987 731.336C368.835 729.293 366.673 728.135 365.502 727.861C363.733 727.44 362.06 728.113 360.482 729.879C359.502 730.977 359.018 732.046 359.032 733.088C359.045 734.13 359.518 735.067 360.448 735.898C362.143 737.411 364.242 738.063 366.746 737.854Z" fill="#B11818"/>
<path d="M526.496 361.064C524.704 362.792 522.304 363.656 519.296 363.656C515.968 363.656 513.28 362.76 511.232 360.968C509.216 359.176 508.208 356.728 508.208 353.624C508.208 350.456 509.264 347.928 511.376 346.04C513.52 344.12 516.32 343.16 519.776 343.16C523.712 343.16 526.688 344.44 528.704 347C530.72 349.528 531.728 353.144 531.728 357.848C531.728 369.848 525.008 376.296 511.568 377.192L511.088 376.712C513.872 376.296 516.24 375.64 518.192 374.744C520.144 373.816 521.68 372.664 522.8 371.288C523.952 369.88 524.8 368.376 525.344 366.776C525.92 365.144 526.304 363.24 526.496 361.064ZM526.64 358.808C526.64 354.232 526.096 350.6 525.008 347.912C523.92 345.224 522.224 343.88 519.92 343.88C517.872 343.88 516.224 344.776 514.976 346.568C513.76 348.36 513.152 350.744 513.152 353.72C513.152 356.568 513.808 358.776 515.12 360.344C516.432 361.912 518.096 362.696 520.112 362.696C521.584 362.696 522.896 362.344 524.048 361.64C525.2 360.936 526.064 359.992 526.64 358.808Z" fill="#2843CE"/>
<path d="M565.344 220.416L568.224 221.04V221.568L560.976 222.144L560.352 221.52L560.496 218.784L560.352 218.64C559.2 219.824 557.808 220.72 556.176 221.328C554.576 221.936 552.976 222.24 551.376 222.24C548.912 222.24 547.024 221.552 545.712 220.176C544.432 218.8 543.792 216.96 543.792 214.656V199.584L540.912 198.96V198.432L548.16 197.664L548.784 198.336V213.84C548.784 218.352 550.448 220.608 553.776 220.608C556.336 220.608 558.528 219.6 560.352 217.584V199.584L557.472 198.96V198.432L564.672 197.664L565.344 198.336V220.416Z" fill="#2843CE"/>
<path d="M494.323 308.561L492.97 308.07L494.999 302.475L486.135 295.942L486.675 294.453L495.539 300.986L498.648 292.412L489.784 285.879L490.324 284.39L499.188 290.923L500.529 287.223L501.883 287.714L500.394 291.82L508.437 297.8L510.335 292.566L511.734 293.073L509.689 298.713L518.508 305.23L517.968 306.719L509.149 300.203L506.04 308.776L514.859 315.293L514.319 316.782L505.5 310.265L504.158 313.966L502.759 313.458L504.248 309.352L496.205 303.372L494.323 308.561ZM496.745 301.883L504.788 307.863L507.897 299.289L499.854 293.309L496.745 301.883Z" fill="#B11818"/>
<path d="M458.955 319.74L462.076 322.657C462.801 323.334 463.188 324.068 463.237 324.859C463.287 325.649 463.006 326.372 462.394 327.027C461.804 327.658 461.114 327.998 460.323 328.048C459.554 328.074 458.819 327.759 458.118 327.104C456.645 325.727 456.251 323.805 456.937 321.337C457.623 318.868 458.928 316.605 460.85 314.548C463.057 312.186 465.366 310.84 467.777 310.509C470.188 310.178 472.353 310.909 474.27 312.7C475.836 314.164 476.675 315.868 476.786 317.811C476.874 319.732 476.263 321.745 474.954 323.85C477.227 322.12 479.448 321.173 481.615 321.009C483.783 320.845 485.709 321.55 487.392 323.123C489.38 324.98 490.227 327.26 489.934 329.964C489.639 332.623 488.29 335.239 485.887 337.811C483.833 340.009 481.599 341.556 479.184 342.453C476.768 343.305 474.812 343.031 473.315 341.633C472.614 340.978 472.262 340.276 472.259 339.529C472.233 338.76 472.515 338.06 473.105 337.429C473.716 336.774 474.418 336.445 475.211 336.441C476.025 336.413 476.783 336.727 477.484 337.382L480.605 340.299C482.087 339.932 483.418 339.117 484.598 337.854C486.149 336.194 486.892 334.392 486.826 332.447C486.758 330.457 485.801 328.599 483.954 326.873C481.966 325.016 479.914 324.237 477.796 324.535C475.699 324.81 473.679 325.988 471.735 328.068L470.325 329.577L469.624 328.921L471 327.448C472.683 325.648 473.537 323.796 473.563 321.894C473.589 319.991 472.643 318.144 470.726 316.352C468.972 314.714 467.235 313.878 465.513 313.846C463.79 313.769 462.283 314.42 460.994 315.799C459.858 317.015 459.178 318.329 458.955 319.74Z" fill="#2843CE"/>
<path d="M429.005 794.355L428.525 794.352L427.632 791.466L406.608 791.332L405.966 794.208L405.438 794.205L404.716 786.952L405.392 786.332L427.664 786.474L428.594 783.6L429.074 783.603L429.005 794.355ZM400.751 791.583C400.106 792.219 399.288 792.533 398.296 792.527C397.305 792.521 396.491 792.196 395.855 791.551C395.219 790.907 394.904 790.089 394.91 789.097C394.917 788.105 395.242 787.291 395.886 786.656C396.53 785.988 397.348 785.657 398.34 785.663C399.332 785.669 400.146 786.011 400.782 786.687C401.418 787.331 401.732 788.149 401.726 789.141C401.72 790.133 401.395 790.947 400.751 791.583Z" fill="#B11818"/>
<path d="M525.5 282.124L524.453 281.771L525.127 279.77C522.186 278.678 519.757 277.066 517.841 274.935L515.612 274.185L517.482 268.635L518.3 268.911C518.134 270.408 518.246 271.779 518.637 273.025C519.038 274.241 519.627 275.25 520.403 276.051C521.22 276.833 522.023 277.458 522.811 277.926C523.599 278.394 524.448 278.781 525.357 279.087L530.105 265.593C529.206 264.953 528.55 264.495 528.136 264.221C527.732 263.916 527.146 263.448 526.379 262.819C525.612 262.189 525.062 261.666 524.73 261.25C524.397 260.834 524.004 260.297 523.551 259.637C523.108 258.948 522.821 258.294 522.692 257.677C522.592 257.069 522.559 256.366 522.592 255.567C522.625 254.767 522.789 253.928 523.086 253.048C523.974 250.41 525.564 248.548 527.854 247.462C530.144 246.376 533.008 246.395 536.445 247.519L537.165 245.533L538.256 245.901L537.521 247.932C539.998 248.901 542.128 250.396 543.913 252.415L546.142 253.166L544.258 258.761L543.439 258.485C543.595 257.018 543.503 255.687 543.163 254.492C542.853 253.307 542.34 252.324 541.624 251.543C540.938 250.771 540.232 250.162 539.504 249.714C538.818 249.247 538.085 248.865 537.307 248.569L532.866 261.154L532.957 261.185C534.179 262.069 535.133 262.795 535.819 263.364C536.516 263.903 537.298 264.639 538.165 265.572C539.073 266.486 539.708 267.358 540.069 268.189C540.472 269 540.716 269.977 540.804 271.121C540.902 272.234 540.746 273.398 540.338 274.611C539.429 277.31 537.763 279.197 535.341 280.272C532.96 281.327 529.904 281.277 526.174 280.122L525.5 282.124ZM535.92 274.946C536.532 273.126 536.431 271.623 535.615 270.437C534.839 269.23 533.316 267.839 531.044 266.264L526.419 279.394C528.744 280.009 530.728 279.934 532.37 279.17C534.052 278.386 535.235 276.978 535.92 274.946ZM527.596 252.44C527.044 254.078 527.116 255.469 527.81 256.615C528.545 257.74 529.918 259.03 531.927 260.483L536.2 248.247C534.178 247.735 532.376 247.871 530.795 248.655C529.254 249.419 528.188 250.681 527.596 252.44Z" fill="#2843CE"/>
<path d="M209.575 927.095L209.723 926.639L212.744 926.661L214.539 921.137L200.295 916.51L200.518 915.826C204.748 911.917 208.125 908.304 210.65 904.986C213.205 901.677 215.135 898.014 216.44 893.997L221.188 895.539C219.794 899.83 217.5 903.526 214.306 906.627C211.121 909.698 206.9 912.801 201.642 915.938L214.835 920.224L218.483 908.994L223.941 906.174L224.373 907.021L219.583 921.766L222.87 922.834L222.573 923.747L219.286 922.679L217.492 928.203L219.949 929.96L219.801 930.417L209.575 927.095Z" fill="#B11818"/>
<path d="M496.232 500.928C493.992 498.72 492.872 495.76 492.872 492.048C492.872 488.336 493.992 485.376 496.232 483.168C498.472 480.928 501.4 479.808 505.016 479.808C508.6 479.808 511.512 480.928 513.752 483.168C515.992 485.408 517.112 488.368 517.112 492.048C517.112 495.76 515.992 498.72 513.752 500.928C511.544 503.136 508.632 504.24 505.016 504.24C501.4 504.24 498.472 503.136 496.232 500.928ZM498.008 492.048C498.008 495.728 498.648 498.56 499.928 500.544C501.208 502.528 502.904 503.52 505.016 503.52C507.16 503.52 508.856 502.528 510.104 500.544C511.384 498.56 512.024 495.728 512.024 492.048C512.024 488.336 511.384 485.488 510.104 483.504C508.856 481.52 507.16 480.528 505.016 480.528C502.904 480.528 501.208 481.52 499.928 483.504C498.648 485.488 498.008 488.336 498.008 492.048Z" fill="#B11818"/>
<path d="M2.11249 848.8C2.11249 846.176 2.76849 844.08 4.08049 842.512C5.39249 840.912 7.08849 840.112 9.16849 840.112C11.2485 840.112 12.9285 840.912 14.2085 842.512C15.5205 844.08 16.1765 846.176 16.1765 848.8C16.1765 851.456 15.5205 853.568 14.2085 855.136C12.9285 856.704 11.2485 857.488 9.16849 857.488C7.08849 857.488 5.39249 856.704 4.08049 855.136C2.76849 853.568 2.11249 851.456 2.11249 848.8ZM6.48049 842.896C5.80849 844.272 5.47249 846.24 5.47249 848.8C5.47249 851.36 5.80849 853.328 6.48049 854.704C7.15249 856.08 8.04849 856.768 9.16849 856.768C10.2885 856.768 11.1845 856.08 11.8565 854.704C12.5285 853.328 12.8645 851.36 12.8645 848.8C12.8645 846.24 12.5285 844.272 11.8565 842.896C11.1845 841.52 10.2885 840.832 9.16849 840.832C8.04849 840.832 7.15249 841.52 6.48049 842.896ZM8.54449 874H6.67249L26.6405 840.4H28.5125L8.54449 874ZM18.9605 865.6C18.9605 862.976 19.6165 860.88 20.9285 859.312C22.2405 857.712 23.9365 856.912 26.0165 856.912C28.0965 856.912 29.7765 857.712 31.0565 859.312C32.3685 860.88 33.0245 862.976 33.0245 865.6C33.0245 868.256 32.3685 870.368 31.0565 871.936C29.7765 873.504 28.0965 874.288 26.0165 874.288C23.9365 874.288 22.2405 873.504 20.9285 871.936C19.6165 870.368 18.9605 868.256 18.9605 865.6ZM23.3285 859.696C22.6565 861.072 22.3205 863.04 22.3205 865.6C22.3205 868.16 22.6565 870.128 23.3285 871.504C24.0005 872.88 24.8965 873.568 26.0165 873.568C27.1365 873.568 28.0325 872.88 28.7045 871.504C29.3765 870.128 29.7125 868.16 29.7125 865.6C29.7125 863.04 29.3765 861.072 28.7045 859.696C28.0325 858.32 27.1365 857.632 26.0165 857.632C24.8965 857.632 24.0005 858.32 23.3285 859.696Z" fill="#B11818"/>
<path d="M363.205 934.721L365.958 937.797C367.514 937.52 368.817 936.913 369.866 935.974C371.511 934.501 372.244 932.729 372.064 930.657C371.887 928.539 370.838 926.408 368.917 924.262C366.89 921.996 364.75 920.733 362.498 920.473C360.249 920.167 358.075 920.953 355.977 922.831C354.189 924.431 353.105 926.196 352.726 928.123L351.949 928.046L342.867 915.884C347.85 911.423 351.77 907.55 354.626 904.264L357.379 907.339L346.22 917.327L352.197 927.244C352.896 924.858 354.366 922.662 356.607 920.656C359.516 918.052 362.352 916.782 365.113 916.844C367.874 916.907 370.311 918.118 372.424 920.479C374.601 922.911 375.52 925.545 375.181 928.382C374.867 931.197 373.303 933.864 370.489 936.382C368.391 938.26 366.228 939.466 364 940C361.751 940.51 359.986 940.049 358.705 938.619C358.044 937.88 357.745 937.138 357.809 936.393C357.851 935.625 358.195 934.953 358.838 934.377C359.53 933.758 360.27 933.482 361.06 933.548C361.828 933.591 362.543 933.982 363.205 934.721Z" fill="#2843CE"/>
<path d="M340.69 802.428L340.259 802.216L340.714 799.229L313.244 785.694L311.411 788.001L310.937 787.768L313.452 780.927L314.331 780.664L316.635 781.96L316.828 781.895C315.781 779.024 315.95 776.182 317.336 773.369C318.708 770.585 320.688 768.956 323.276 768.483C325.877 767.982 328.771 768.516 331.958 770.086C335.603 771.882 337.978 774.194 339.082 777.021C340.157 779.834 339.882 782.891 338.255 786.192C337.308 788.115 336.093 789.604 334.61 790.657L342.92 794.752L345.648 791.28L346.078 791.492L340.69 802.428ZM317.775 782.361L333.965 790.339C335.461 789.257 336.541 788.041 337.206 786.692C338.267 784.539 338.205 782.457 337.02 780.446C335.82 778.392 333.613 776.573 330.398 774.989C327.498 773.561 324.905 772.96 322.616 773.188C320.299 773.402 318.688 774.428 317.783 776.265C316.835 778.188 316.833 780.22 317.775 782.361Z" fill="#2843CE"/>
<path d="M335.36 746.16H336.08L343.856 755.664L343.376 756.192L335.696 749.76L328.064 756.192L327.584 755.664L335.36 746.16Z" fill="#B11818"/>
<path d="M329.325 820.021C331.731 819.382 334.304 819.858 337.044 821.447C339.922 823.118 341.782 825.269 342.622 827.902C343.462 830.536 343.103 833.195 341.545 835.879C339.955 838.62 337.795 840.27 335.064 840.832C332.361 841.409 329.529 840.839 326.568 839.121C323.108 837.113 321.131 834.431 320.637 831.074C320.143 827.716 321.077 824.003 323.437 819.935C326.392 814.842 330.11 811.782 334.59 810.756C339.07 809.73 344.145 810.547 349.815 813.208L349.99 813.864C345.202 812.233 341.159 811.996 337.861 813.153C334.578 814.283 331.733 816.572 329.325 820.021ZM328.151 821.948C325.903 825.823 324.587 829.24 324.202 832.199C323.861 835.146 324.687 837.197 326.68 838.353C328.396 839.349 330.2 839.397 332.091 838.496C333.982 837.596 335.667 835.872 337.144 833.326C338.605 830.807 339.178 828.513 338.862 826.443C338.547 824.373 337.503 822.824 335.732 821.796C334.486 821.073 333.167 820.733 331.773 820.776C330.423 820.806 329.216 821.197 328.151 821.948Z" fill="#B11818"/>
<path d="M494.416 455.8H492.832L478.048 415H479.632L494.416 455.8Z" fill="#2843CE"/>
<path d="M527.539 227.876C525.001 231.723 522.227 234.417 519.217 235.958L519.932 243.33L521.632 245.372L521.368 245.772L514.797 241.437L514.27 237.007C510.901 237.698 507.613 236.986 504.408 234.871C501.443 232.915 499.564 230.621 498.77 227.989C498.02 225.348 498.448 222.812 500.051 220.381C500.791 219.259 501.626 218.372 502.554 217.72C503.51 217.085 504.56 216.685 505.704 216.52C506.875 216.372 507.953 216.336 508.938 216.411C509.941 216.459 511.127 216.609 512.495 216.86C512.23 213.541 512.785 210.841 514.16 208.757C515.34 206.968 516.813 205.926 518.578 205.634C520.387 205.332 522.4 205.913 524.617 207.375C526.674 208.732 527.883 210.182 528.246 211.724C528.653 213.258 528.372 214.759 527.402 216.228C525.64 218.899 522.353 219.932 517.539 219.325L519.132 234.867C521.778 233.354 524.273 230.821 526.617 227.269L524.609 224.909L524.847 224.548L530.736 228.433L530.499 228.794L527.539 227.876ZM506.163 234.477C508.728 236.168 511.415 236.657 514.225 235.942L512.575 219.615C510.728 219.509 509.096 219.716 507.679 220.238C506.261 220.759 504.989 221.875 503.861 223.584C502.433 225.748 501.919 227.747 502.319 229.583C502.745 231.436 504.026 233.067 506.163 234.477ZM518.786 210.199C517.623 211.962 517.165 214.458 517.411 217.688C519.579 218.006 521.42 218.032 522.937 217.768C524.471 217.476 525.669 216.676 526.533 215.367C527.308 214.192 527.52 212.97 527.168 211.703C526.86 210.426 526.091 209.383 524.863 208.572C522.539 207.039 520.513 207.582 518.786 210.199Z" fill="#2843CE"/>
<path d="M412.904 738.128C412.904 741.616 410.984 744.192 407.144 745.856C409.512 746.816 411.32 747.952 412.568 749.264C413.816 750.576 414.44 752.4 414.44 754.736C414.44 757.616 413.448 759.936 411.464 761.696C409.512 763.424 406.472 764.288 402.344 764.288C398.632 764.288 395.848 763.552 393.992 762.08C392.136 760.576 391.208 758.56 391.208 756.032C391.208 753.824 391.848 752.064 393.128 750.752C394.408 749.408 396.136 748.288 398.312 747.392C396.392 746.592 394.92 745.6 393.896 744.416C392.904 743.2 392.408 741.504 392.408 739.328C392.408 736.608 393.272 734.4 395 732.704C396.728 730.976 399.416 730.112 403.064 730.112C406.296 730.112 408.744 730.848 410.408 732.32C412.072 733.76 412.904 735.696 412.904 738.128ZM402.344 748.832C400.776 748.288 399.832 747.968 399.512 747.872C398.104 748.672 397.048 749.632 396.344 750.752C395.64 751.872 395.288 753.456 395.288 755.504C395.288 760.848 397.784 763.52 402.776 763.52C405.24 763.52 407.16 762.896 408.536 761.648C409.912 760.368 410.6 758.592 410.6 756.32C410.6 754.176 409.992 752.64 408.776 751.712C407.56 750.752 405.416 749.792 402.344 748.832ZM403.736 744.608C403.992 744.704 404.584 744.912 405.512 745.232C406.696 744.4 407.576 743.456 408.152 742.4C408.728 741.344 409.016 740 409.016 738.368C409.016 735.968 408.456 734.128 407.336 732.848C406.248 731.536 404.696 730.88 402.68 730.88C400.664 730.88 399.064 731.488 397.88 732.704C396.696 733.92 396.104 735.504 396.104 737.456C396.104 739.376 396.68 740.816 397.832 741.776C398.984 742.704 400.952 743.648 403.736 744.608Z" fill="#2843CE"/>
<path d="M73.6698 909.1L103.764 878.644L100.581 874.217L100.918 873.875L107.952 880.825L75.9009 913.261L68.8674 906.311L69.2047 905.97L73.6698 909.1Z" fill="#2843CE"/>
<path d="M494.688 429.328C494.144 428.752 493.872 428.048 493.872 427.216C493.872 426.384 494.144 425.68 494.688 425.104C495.264 424.528 495.968 424.24 496.8 424.24C497.664 424.24 498.368 424.528 498.912 425.104C499.488 425.68 499.776 426.384 499.776 427.216C499.776 428.048 499.488 428.752 498.912 429.328C498.368 429.904 497.664 430.192 496.8 430.192C495.968 430.192 495.264 429.904 494.688 429.328ZM494.688 410.896C494.144 410.32 493.872 409.616 493.872 408.784C493.872 407.952 494.144 407.248 494.688 406.672C495.264 406.096 495.968 405.808 496.8 405.808C497.664 405.808 498.368 406.096 498.912 406.672C499.488 407.248 499.776 407.952 499.776 408.784C499.776 409.616 499.488 410.32 498.912 410.896C498.368 411.472 497.664 411.76 496.8 411.76C495.968 411.76 495.264 411.472 494.688 410.896Z" fill="#2843CE"/>
<path d="M220.064 886H215.072C215.072 883.152 215.52 880.32 216.416 877.504C217.344 874.688 218.384 872.32 219.536 870.4C220.688 868.448 222.096 866.064 223.76 863.248C225.456 860.4 226.784 857.936 227.744 855.856H211.088L209.168 860.272H208.4V852.4H229.712V853.12C229.072 855.04 227.76 858.432 225.776 863.296C223.824 868.16 222.384 872.304 221.456 875.728C220.528 879.152 220.064 882.576 220.064 886Z" fill="#2843CE"/>
<path d="M308.44 717.392V760.208L313.816 761.12V761.6H303.928V716H313.816V716.48L308.44 717.392Z" fill="#2843CE"/>
<path d="M425.024 549.568L424.448 548.992C425.152 548.288 425.744 547.488 426.224 546.592C426.736 545.728 426.992 545.04 426.992 544.528C426.992 544.272 426.928 544.096 426.8 544C425.968 544 425.264 543.728 424.688 543.184C424.144 542.64 423.872 541.968 423.872 541.168C423.872 540.336 424.144 539.648 424.688 539.104C425.264 538.528 425.968 538.24 426.8 538.24C427.632 538.24 428.336 538.528 428.912 539.104C429.488 539.648 429.776 540.448 429.776 541.504C429.776 543.712 428.192 546.4 425.024 549.568ZM424.688 524.896C424.144 524.32 423.872 523.616 423.872 522.784C423.872 521.952 424.144 521.248 424.688 520.672C425.264 520.096 425.968 519.808 426.8 519.808C427.664 519.808 428.368 520.096 428.912 520.672C429.488 521.248 429.776 521.952 429.776 522.784C429.776 523.616 429.488 524.32 428.912 524.896C428.368 525.472 427.664 525.76 426.8 525.76C425.968 525.76 425.264 525.472 424.688 524.896Z" fill="#2843CE"/>
<path d="M228.08 818.121L229.28 816.747C235.755 816.584 240.285 816.335 242.871 816.002C249.637 815.116 254.579 812.889 257.695 809.323C259.19 807.612 259.918 805.953 259.877 804.346C259.837 802.738 259.058 801.271 257.54 799.945C256.407 798.955 255.054 798.388 253.479 798.245L250.353 801.823C249.721 802.546 248.999 802.935 248.186 802.99C247.397 803.066 246.666 802.809 245.991 802.219C245.34 801.651 244.979 800.995 244.906 800.251C244.854 799.483 245.144 798.738 245.776 798.015C247.081 796.521 248.911 795.911 251.265 796.183C253.644 796.476 256.002 797.644 258.339 799.687C260.941 801.961 262.492 804.272 262.99 806.619C263.488 808.967 262.821 811.189 260.99 813.286C259.895 814.539 258.49 815.563 256.774 816.359C255.104 817.152 253.429 817.707 251.75 818.024C250.094 818.362 248.055 818.556 245.632 818.606C243.253 818.653 241.199 818.621 239.468 818.511C237.737 818.4 235.559 818.218 232.934 817.964L244.97 828.482L249.104 826.23L249.719 826.767L244.634 832.586L228.08 818.121Z" fill="#2843CE"/>
<path d="M451.824 430.432L441.36 407.392L438.528 406.48V406H449.472V406.48L446.544 407.392L454.416 424.816L462.192 407.392L458.208 406.48V406H466.32V406.48L463.248 407.392L453.072 430C451.472 433.52 450.096 436.016 448.944 437.488C447.824 438.96 446.496 439.696 444.96 439.696C443.904 439.696 442.928 439.408 442.032 438.832C441.168 438.288 440.736 437.408 440.736 436.192C440.736 435.36 440.96 434.704 441.408 434.224C441.856 433.776 442.448 433.552 443.184 433.552C443.952 433.552 444.576 433.792 445.056 434.272C445.536 434.752 445.776 435.392 445.776 436.192V438.112C445.968 438.208 446.144 438.256 446.304 438.256C447.168 438.256 448.016 437.584 448.848 436.24C449.712 434.928 450.704 432.992 451.824 430.432Z" fill="#B11818"/>
<path d="M93.0219 855.255C93.4093 851.394 94.7508 847.211 97.0466 842.706C99.3423 838.201 101.938 834.658 104.835 832.075C107.76 829.507 111.203 827.509 115.163 826.079L115.437 826.811C109.968 830.777 105.192 836.765 101.109 844.777C97.0265 852.788 94.9877 860.171 94.9931 866.926L94.2402 867.135C93.0691 863.091 92.663 859.13 93.0219 855.255Z" fill="#2843CE"/>
<path d="M353.92 867.146L354.168 866.735L358.049 868.015L373.768 842.013L369.825 839.63L370.197 839.013L378.624 842.425L378.81 843.323L362.321 870.598L365.3 873.464L365.052 873.875L353.92 867.146Z" fill="#2843CE"/>
<path d="M188.864 786.96V786.576C191.968 785.84 194.4 783.808 196.16 780.48L196.784 781.104V786H204.656V786.96H196.784V803.808C196.784 805.344 197.12 806.56 197.792 807.456C198.464 808.32 199.456 808.752 200.768 808.752C202.208 808.752 203.488 808.192 204.608 807.072L205.136 807.6C203.44 809.36 201.264 810.24 198.608 810.24C196.4 810.24 194.704 809.648 193.52 808.464C192.368 807.28 191.792 805.728 191.792 803.808V786.96H188.864Z" fill="#B11818"/>
<path d="M588.997 221.285C587.59 224.914 585.165 228.58 581.722 232.283C578.28 235.986 574.8 238.672 571.284 240.339C567.79 242.029 563.943 243.018 559.742 243.307L559.715 242.561C566.127 240.176 572.361 235.726 578.418 229.211C584.475 222.696 588.459 216.154 590.371 209.586L591.117 209.559C591.135 213.769 590.428 217.678 588.997 221.285Z" fill="#2843CE"/>
<path d="M257.066 866.282L255.874 865.238L293.877 844.286L295.069 845.329L257.066 866.282Z" fill="#2843CE"/>
<path d="M310.631 844.544L293.889 831.827L291.65 833.743L291.23 833.424L295.002 827.188L295.915 827.097L299.192 829.767L299.393 829.739C299.33 829.611 299.238 829.441 299.118 829.229C299.017 828.991 298.876 828.543 298.694 827.882C298.507 827.177 298.392 826.508 298.351 825.874C298.304 825.195 298.383 824.431 298.586 823.581C298.809 822.705 299.192 821.911 299.734 821.197C300.682 819.949 301.858 819.194 303.261 818.934C304.684 818.648 306.007 818.97 307.23 819.899C308.096 820.557 308.581 821.267 308.685 822.03C308.764 822.773 308.542 823.488 308.019 824.176C307.458 824.915 306.774 825.34 305.967 825.45C305.179 825.535 304.39 825.277 303.6 824.677L300.543 822.354C300.344 822.404 300.138 822.569 299.925 822.85C299.499 823.41 299.236 824.074 299.135 824.842C299.028 825.564 299.056 826.268 299.218 826.954C299.381 827.64 299.581 828.275 299.821 828.859C300.061 829.443 300.272 829.905 300.456 830.245L300.769 830.785L313.651 840.569L316.99 837.681L317.372 837.971L309.997 847.68L309.615 847.389L310.631 844.544Z" fill="#2843CE"/>
<path d="M490.192 540.112L490.768 540.688C489.168 542.288 487.04 543.504 484.384 544.336C481.728 545.168 478.864 545.584 475.792 545.584C469.712 545.584 464.944 544.048 461.488 540.976C458.032 537.904 456.304 533.68 456.304 528.304C456.304 523.056 457.968 518.928 461.296 515.92C464.624 512.912 469.36 511.408 475.504 511.408C481.584 511.408 486.144 512.864 489.184 515.776C492.224 518.656 493.744 522.496 493.744 527.296C493.744 530.688 492.96 533.36 491.392 535.312C489.856 537.264 487.632 538.24 484.72 538.24C481.776 538.24 480.096 537.344 479.68 535.552L479.536 535.504C477.776 537.328 475.584 538.24 472.96 538.24C470.336 538.24 468.32 537.344 466.912 535.552C465.536 533.76 464.848 531.392 464.848 528.448C464.848 524.992 465.792 522.352 467.68 520.528C469.568 518.704 472.24 517.792 475.696 517.792C477.52 517.792 479.312 518.112 481.072 518.752L483.184 517.648L483.856 518.368V535.168C483.856 536.48 484.4 537.136 485.488 537.136C486.704 537.136 487.68 536.32 488.416 534.688C489.184 533.056 489.568 530.816 489.568 527.968C489.568 517.6 484.88 512.416 475.504 512.416C470.576 512.416 466.848 513.824 464.32 516.64C461.824 519.424 460.576 523.264 460.576 528.16C460.576 533.152 461.936 537.056 464.656 539.872C467.408 542.72 471.584 544.144 477.184 544.144C479.712 544.144 482.16 543.824 484.528 543.184C486.896 542.544 488.784 541.52 490.192 540.112ZM479.488 534.544V519.52C478.016 518.816 476.72 518.464 475.6 518.464C473.616 518.464 472.08 519.28 470.992 520.912C469.936 522.512 469.408 524.816 469.408 527.824C469.408 530.544 469.904 532.72 470.896 534.352C471.92 535.984 473.296 536.8 475.024 536.8C476.688 536.8 478.176 536.048 479.488 534.544Z" fill="#2843CE"/>
<path d="M334.688 927.328C334.144 926.752 333.872 926.048 333.872 925.216C333.872 924.384 334.144 923.68 334.688 923.104C335.264 922.528 335.968 922.24 336.8 922.24C337.664 922.24 338.368 922.528 338.912 923.104C339.488 923.68 339.776 924.384 339.776 925.216C339.776 926.048 339.488 926.752 338.912 927.328C338.368 927.904 337.664 928.192 336.8 928.192C335.968 928.192 335.264 927.904 334.688 927.328Z" fill="#2843CE"/>
<path d="M437.584 576.557L421.591 581.541C422.61 584.81 424.149 587.112 426.207 588.448C428.256 589.753 430.748 589.949 433.68 589.035C436.369 588.197 438.333 586.596 439.574 584.232L440.25 584.625C438.609 587.75 435.91 589.899 432.153 591.07C428.303 592.27 425.042 592.13 422.369 590.65C419.695 589.17 417.83 586.735 416.773 583.344C415.65 579.739 415.819 576.518 417.282 573.683C418.775 570.838 421.202 568.892 424.563 567.844C427.557 566.911 430.283 567 432.74 568.111C435.198 569.222 436.851 571.137 437.698 573.856C437.927 574.59 438.041 575.224 438.04 575.761L437.584 576.557ZM424.96 568.475C423.158 569.036 421.876 570.408 421.114 572.589C420.343 574.74 420.431 577.495 421.377 580.853L433.352 576.367C432.372 573.22 431.156 570.985 429.704 569.661C428.252 568.337 426.671 567.941 424.96 568.475Z" fill="#2843CE"/>
<path d="M595.776 113.944V113.176L603.504 105.784L604.032 106.264L599.376 113.56L604.032 120.856L603.504 121.336L595.776 113.944ZM603.216 113.944V113.176L610.944 105.784L611.424 106.264L606.768 113.56L611.424 120.856L610.944 121.336L603.216 113.944Z" fill="#2843CE"/>
<path d="M523.282 162.161L530.663 178.578L533.27 178.406L533.466 178.844L524.054 183.075L523.857 182.637L526.11 180.625L517.489 161.45L514.606 162.061L514.39 161.58L520.686 157.907L521.53 158.264L522.6 160.994L522.79 161.066C523.294 159.612 524.115 158.278 525.253 157.064C526.421 155.837 527.662 154.929 528.975 154.338C531.602 153.157 533.879 153.502 535.808 155.372C536.431 153.793 537.371 152.371 538.626 151.105C539.868 149.809 541.189 148.847 542.59 148.217C546.618 146.406 549.76 148.011 552.017 153.031L557.981 166.296L560.982 165.947L561.178 166.385L551.766 170.616L551.569 170.179L553.428 168.343L547.799 155.822C545.778 151.328 543.44 149.677 540.784 150.871C539.85 151.291 538.977 151.964 538.166 152.89C537.341 153.788 536.739 154.83 536.361 156.017C537.141 156.895 537.807 157.946 538.358 159.172L544.322 172.437L546.929 172.265L547.125 172.703L538.107 176.757L537.91 176.319L539.769 174.484L534.14 161.963C532.119 157.468 529.839 155.792 527.3 156.933C526.366 157.353 525.535 158.042 524.809 159.001C524.068 159.93 523.56 160.983 523.282 162.161Z" fill="#B11818"/>
<path d="M576.554 130.721L579.359 129.598L579.664 129.969L571.39 136.761L571.085 136.39L572.733 133.857L567.525 127.513L565.809 125.196L565.607 125.176C565.38 128.177 564.042 130.683 561.593 132.693C559.169 134.683 556.669 135.369 554.092 134.752C551.515 134.134 549.11 132.465 546.877 129.744C544.258 126.554 543.089 123.415 543.37 120.327C543.676 117.22 545.424 114.356 548.615 111.737C550.272 110.377 552.173 109.314 554.317 108.547L555.424 105.962L556.333 106.085L576.554 130.721ZM564.906 124.322L553.455 110.372C551.596 110.78 550.098 111.451 548.96 112.385C547.105 113.908 546.3 115.852 546.544 118.218C546.794 120.539 548.055 123.085 550.329 125.855C552.38 128.353 554.504 129.983 556.703 130.745C558.926 131.487 560.83 131.208 562.413 129.909C564.07 128.549 564.901 126.686 564.906 124.322Z" fill="#2843CE"/>
<path d="M572.163 92.4061L571.086 92.8148C568.831 87.9544 566.919 84.0423 565.35 81.0782C563.769 78.0842 562.704 76.1782 562.154 75.3601C561.622 74.5007 561.317 73.9663 561.238 73.7568C560.931 72.949 560.945 72.1737 561.279 71.4308C561.602 70.658 562.167 70.1184 562.975 69.8119C563.783 69.5055 564.564 69.5343 565.318 69.8985C566.061 70.2327 566.586 70.8037 566.892 71.6116C566.972 71.821 567.083 72.4292 567.225 73.4361C567.386 74.4018 567.862 76.5142 568.654 79.7734C569.445 83.0326 570.615 87.2435 572.163 92.4061ZM572.748 101.528C572.035 101.182 571.531 100.62 571.236 99.8423C570.941 99.0644 570.946 98.3097 571.25 97.5782C571.584 96.8353 572.14 96.3164 572.918 96.0212C573.696 95.7261 574.442 95.7514 575.155 96.097C575.897 96.4312 576.416 96.9873 576.712 97.7652C577.007 98.5431 576.987 99.3034 576.653 100.046C576.349 100.778 575.807 101.291 575.03 101.586C574.252 101.881 573.491 101.862 572.748 101.528Z" fill="#2843CE"/>
<path d="M309.784 938.464V956.608L312.328 957.52V958H301.912V957.52L304.792 956.608V935.584L301.912 934.96V934.432L309.16 933.664L309.784 934.336L309.64 937.264L309.784 937.408C310.968 936.288 312.424 935.408 314.152 934.768C315.88 934.128 317.56 933.808 319.192 933.808C321.656 933.808 323.48 934.544 324.664 936.016C325.88 937.456 326.488 939.472 326.488 942.064V956.608L329.368 957.52V958H318.952V957.52L321.496 956.608V942.88C321.496 940.64 321.096 938.848 320.296 937.504C319.496 936.16 318.248 935.488 316.552 935.488C315.368 935.488 314.152 935.76 312.904 936.304C311.656 936.848 310.616 937.568 309.784 938.464Z" fill="#2843CE"/>
<path d="M439.366 520.294L435.96 516.322L436.726 515.666C439.815 517.991 442.83 517.893 445.769 515.372C447.178 514.164 448.026 512.868 448.314 511.483C448.626 510.077 448.292 508.803 447.313 507.662C446.439 506.641 445.461 506.215 444.382 506.381C443.303 506.548 441.725 507.142 439.65 508.163C438.661 508.632 437.908 508.983 437.391 509.215C436.898 509.427 436.198 509.669 435.293 509.939C434.39 510.165 433.635 510.244 433.028 510.174C432.42 510.105 431.733 509.893 430.966 509.54C430.223 509.165 429.529 508.601 428.883 507.848C427.487 506.22 426.906 504.485 427.138 502.642C427.373 500.754 428.584 498.872 430.77 496.998C432.495 495.519 434.362 494.55 436.372 494.091L436.606 492.816L437.283 492.867L440.657 496.803L439.929 497.428C438.773 496.522 437.61 496.002 436.44 495.866C435.274 495.686 434.304 495.759 433.53 496.086C432.78 496.391 432.065 496.836 431.385 497.419C430.146 498.481 429.433 499.641 429.246 500.897C429.059 502.154 429.392 503.28 430.246 504.276C431.038 505.199 431.937 505.609 432.943 505.504C433.974 505.379 435.383 504.908 437.171 504.092C438.132 503.689 438.835 503.403 439.279 503.233C439.702 503.038 440.345 502.804 441.205 502.529C442.069 502.21 442.774 502.048 443.319 502.045C443.864 502.041 444.485 502.078 445.183 502.154C445.905 502.209 446.568 502.441 447.172 502.851C447.779 503.215 448.354 503.713 448.895 504.345C450.312 505.997 450.854 507.808 450.521 509.78C450.167 511.727 448.764 513.753 446.31 515.857C444.343 517.544 442.332 518.615 440.277 519.07L440.043 520.346L439.366 520.294Z" fill="#2843CE"/>
<path d="M222.915 980.525C220.887 975.754 220.4 971.458 221.454 967.638C222.537 963.805 224.904 961.112 228.556 959.56C232.208 958.008 235.775 958.179 239.256 960.071C242.768 961.952 245.537 965.278 247.565 970.049C249.605 974.849 250.084 979.166 249.001 982.999C247.935 986.79 245.576 989.461 241.924 991.013C238.242 992.578 234.667 992.428 231.198 990.565C227.716 988.672 224.955 985.325 222.915 980.525ZM227.774 978.46C229.839 983.319 232.1 986.757 234.556 988.773C237.013 990.788 239.374 991.314 241.642 990.351C243.88 989.399 245.126 987.34 245.379 984.173C245.662 980.993 244.771 976.973 242.706 972.114C240.653 967.284 238.384 963.867 235.898 961.864C233.429 959.819 231.076 959.272 228.838 960.223C226.57 961.187 225.316 963.267 225.075 966.464C224.822 969.631 225.721 973.63 227.774 978.46Z" fill="#2843CE"/>
<path d="M193.068 979.413L168.885 959.023L166.551 960.822L166.148 960.482L170.233 954.446L171.149 954.402L178.965 960.992L181.147 963.021L181.35 963.003C181.024 959.966 181.871 957.248 183.893 954.85C185.893 952.477 188.207 951.372 190.832 951.535C193.478 951.673 196.159 952.887 198.874 955.177C202.055 957.858 203.765 960.745 204.005 963.835C204.266 966.901 203.014 970.074 200.25 973.352C198.002 976.018 195.608 978.039 193.068 979.413ZM182.157 963.684L196.249 975.566C197.889 974.563 199.102 973.597 199.885 972.668C201.474 970.784 201.945 968.711 201.298 966.45C200.652 964.189 198.946 961.893 196.182 959.562C193.711 957.478 191.327 956.284 189.03 955.98C186.729 955.631 184.929 956.227 183.63 957.768C182.227 959.432 181.736 961.404 182.157 963.684Z" fill="#2843CE"/>
<path d="M294.76 977H278.008C278.008 980.424 278.792 983.08 280.36 984.968C281.928 986.824 284.248 987.752 287.32 987.752C290.136 987.752 292.488 986.808 294.376 984.92L294.904 985.496C292.408 987.992 289.192 989.24 285.256 989.24C281.224 989.24 278.152 988.136 276.04 985.928C273.928 983.72 272.872 980.84 272.872 977.288C272.872 973.512 273.992 970.488 276.232 968.216C278.504 965.944 281.4 964.808 284.92 964.808C288.056 964.808 290.632 965.704 292.648 967.496C294.664 969.288 295.672 971.608 295.672 974.456C295.672 975.224 295.592 975.864 295.432 976.376L294.76 977ZM285.112 965.528C283.224 965.528 281.592 966.456 280.216 968.312C278.84 970.136 278.104 972.792 278.008 976.28L290.776 975.56C290.776 972.264 290.28 969.768 289.288 968.072C288.296 966.376 286.904 965.528 285.112 965.528ZM276.328 959.72C276.328 958.856 276.616 958.136 277.192 957.56C277.768 956.952 278.504 956.648 279.4 956.648C280.296 956.648 281.032 956.952 281.608 957.56C282.184 958.136 282.472 958.856 282.472 959.72C282.472 960.616 282.184 961.352 281.608 961.928C281.032 962.504 280.296 962.792 279.4 962.792C278.504 962.792 277.768 962.504 277.192 961.928C276.616 961.352 276.328 960.616 276.328 959.72ZM287.08 959.72C287.08 958.856 287.368 958.136 287.944 957.56C288.552 956.952 289.288 956.648 290.152 956.648C291.048 956.648 291.784 956.952 292.36 957.56C292.968 958.136 293.272 958.856 293.272 959.72C293.272 960.616 292.968 961.352 292.36 961.928C291.784 962.504 291.048 962.792 290.152 962.792C289.288 962.792 288.552 962.504 287.944 961.928C287.368 961.352 287.08 960.616 287.08 959.72Z" fill="#B11818"/>
<path d="M516.82 429.092L521.899 415.259L517.597 414.934L511.317 419.917L512.393 422.74L512.017 423.038L505.334 414.615L505.71 414.317L508.215 416.006L532.957 396.376L531.656 393.732L532.07 393.403L537.176 398.604L537.038 399.511L518.612 414.129L534.919 415.529L533.336 412.067L533.712 411.769L538.784 418.161L538.408 418.46L535.724 416.545L526.544 415.863L520.632 431.889L521.611 434.359L521.235 434.657L516.82 429.092Z" fill="#2843CE"/>
<path d="M294.176 879.139L295.103 853.851L292.977 851.771L293.191 851.341L302.983 856.229L302.769 856.658L299.742 856.166L299.003 875.272L313.742 863.155L310.585 860.56L310.799 860.13L318.058 863.753L317.843 864.182L314.687 863.626L295.486 879.31C292.482 881.745 290.136 883.364 288.448 884.166C286.789 884.983 285.272 885.049 283.897 884.363C282.953 883.891 282.208 883.197 281.664 882.282C281.133 881.409 281.14 880.429 281.683 879.341C282.055 878.597 282.548 878.11 283.163 877.88C283.764 877.679 284.394 877.743 285.052 878.072C285.739 878.415 286.191 878.909 286.406 879.552C286.621 880.196 286.55 880.876 286.192 881.592L285.335 883.31C285.464 883.481 285.6 883.603 285.743 883.674C286.516 884.06 287.575 883.838 288.92 883.007C290.279 882.219 292.031 880.93 294.176 879.139Z" fill="#2843CE"/>
<path d="M262.134 893.437L243.012 888.786L239.579 894.571L238.553 894.321L240.3 887.138L243.145 887.83C243.813 887.795 244.508 887.306 245.231 886.362C245.994 885.395 246.672 884.094 247.267 882.46L252.889 867.674L250.26 866.294L250.363 865.874L270.465 870.763L270.362 871.183L267.394 871.202L262.221 892.47L265.346 893.23L263.599 900.413L262.573 900.163L262.134 893.437ZM253.82 867.703L248.327 882.57C247.183 885.651 245.937 887.521 244.591 888.182L257.371 891.29L262.589 869.836L253.82 867.703Z" fill="#B11818"/>
<path d="M260.912 757.52L263.792 756.608V735.392L260.912 734.48V734H271.328V734.48L268.784 735.392V749.744L268.64 753.44L268.784 753.584L280.496 736.256V735.392L277.952 734.48V734H288.368V734.48L285.488 735.392V756.608L288.368 757.52V758H277.952V757.52L280.496 756.608V742.256L280.64 738.56L280.496 738.416L268.784 755.744V756.608L271.328 757.52V758H260.912V757.52Z" fill="#2843CE"/>
<path d="M486.912 388V387.52L489.792 386.608V355.024L486.912 354.4V353.872L494.16 353.104L494.784 353.776V386.608L497.664 387.52V388H486.912Z" fill="#2843CE"/>
<path d="M306.266 897.736L304.265 898.241C304.211 898.42 304.208 898.603 304.255 898.789C304.56 899.999 305.928 900.577 308.357 900.525L310.965 900.461C312.967 900.417 314.525 901.096 315.638 902.498L315.426 901.661C314.784 899.117 314.697 897.142 315.167 895.736C315.638 894.33 316.733 893.178 318.454 892.282L320.733 891.112C322.043 890.418 322.953 889.842 323.464 889.383C323.976 888.924 324.157 888.399 324.008 887.81C323.89 887.344 323.602 886.922 323.143 886.543L323.375 886.088C324.502 886.761 325.297 888.012 325.759 889.843C326.127 891.301 326.017 892.434 325.43 893.243C324.811 894.059 323.718 894.896 322.153 895.754L319.478 897.122C318.083 897.871 317.154 898.7 316.69 899.609C316.227 900.518 316.199 901.779 316.606 903.392L317.206 905.766L327.444 903.18L327.658 900.304L328.124 900.187L330.721 910.472L330.256 910.589L328.666 908.02L308.096 913.215L307.917 916.231L307.452 916.348L304.819 905.924L305.285 905.806L306.874 908.375L316.461 905.954C316.093 904.496 315.45 903.387 314.532 902.629C313.576 901.848 312.473 901.466 311.223 901.484L308.674 901.584C305.244 901.724 303.188 900.444 302.506 897.745C302.208 896.566 302.237 895.503 302.592 894.555C302.946 893.607 303.713 892.985 304.892 892.687C305.761 892.467 306.487 892.532 307.07 892.88C307.614 893.204 307.98 893.739 308.168 894.483C308.364 895.259 308.292 895.954 307.952 896.568C307.604 897.151 307.042 897.54 306.266 897.736Z" fill="#2843CE"/>
<path d="M196.027 872.384L196.755 870.453C196.688 870.359 196.535 870.267 196.295 870.176C195.217 869.77 194.017 870.548 192.695 872.512L191.258 874.689C190.161 876.327 188.759 877.234 187.05 877.411L187.949 877.75C190.254 878.619 191.834 879.643 192.69 880.821C193.545 881.999 193.834 883.544 193.557 885.457L193.215 887.996C193.006 889.456 192.929 890.522 192.984 891.192C193.069 891.874 193.38 892.317 193.919 892.52C194.398 892.701 194.895 892.7 195.408 892.517L195.604 892.95C194.468 893.514 193.017 893.462 191.25 892.796C189.903 892.287 189.08 891.567 188.783 890.633C188.496 889.67 188.463 888.307 188.684 886.543L189.134 883.584C189.317 882.011 189.182 880.78 188.731 879.892C188.309 879.014 187.35 878.293 185.853 877.729L183.698 876.915L179.97 886.796L182.163 888.598L181.994 889.047L172.113 885.319L172.283 884.87L175.299 885.033L179.027 875.153L176.871 874.34C175.374 873.775 174.163 873.677 173.237 874.046C172.311 874.415 171.412 875.256 170.541 876.569L168.879 879.071C167.909 880.552 166.999 881.56 166.148 882.094C165.308 882.598 164.199 882.59 162.822 882.07C161.056 881.404 159.932 880.484 159.451 879.311L159.884 879.115C160.209 879.614 160.581 879.942 161 880.101C161.539 880.304 162.066 880.178 162.58 879.722C163.094 879.266 163.754 878.421 164.562 877.186L165.937 875.037C167.023 873.429 168.261 872.46 169.651 872.129C171.071 871.81 172.949 872.091 175.284 872.972L176.137 873.294C174.971 872.033 174.518 870.425 174.776 868.471L175.135 865.887C175.439 863.539 175.053 862.162 173.975 861.756C173.765 861.676 173.589 861.644 173.447 861.659L172.718 863.59C172.436 864.339 171.986 864.853 171.367 865.132C170.748 865.412 170.065 865.411 169.316 865.128C167.73 864.53 167.258 863.377 167.902 861.67C168.331 860.533 169.037 859.841 170.018 859.596C171.012 859.321 172.047 859.387 173.125 859.793C175.61 860.731 176.604 862.901 176.106 866.305L175.764 868.843C175.455 871.566 176.633 873.429 179.298 874.435L182.788 865.183L180.416 863.313L180.585 862.864L190.645 866.66L190.475 867.109L187.459 866.945L183.969 876.197C186.633 877.202 188.749 876.581 190.315 874.333L191.735 872.201C193.61 869.317 195.79 868.344 198.275 869.281C199.352 869.688 200.158 870.317 200.692 871.168C201.267 872.001 201.34 872.986 200.911 874.124C200.595 874.962 200.142 875.527 199.554 875.818C198.976 876.079 198.328 876.074 197.61 875.803C196.831 875.509 196.302 875.053 196.023 874.434C195.743 873.816 195.744 873.132 196.027 872.384Z" fill="#2843CE"/>
<path d="M178.706 820.569L173.067 817.185L161.929 835.748L163.929 838.012L163.683 838.424L154.463 832.892L154.71 832.48L157.649 833.18L168.787 814.617L163.148 811.234L159.674 814.131L159.015 813.736L161.707 809.25L181.176 820.931L178.484 825.417L177.784 824.998L178.706 820.569Z" fill="#2843CE"/>
<path d="M420.024 725.568L419.448 724.992C420.152 724.288 420.744 723.488 421.224 722.592C421.736 721.728 421.992 721.04 421.992 720.528C421.992 720.272 421.928 720.096 421.8 720C420.968 720 420.264 719.728 419.688 719.184C419.144 718.64 418.872 717.968 418.872 717.168C418.872 716.336 419.144 715.648 419.688 715.104C420.264 714.528 420.968 714.24 421.8 714.24C422.632 714.24 423.336 714.528 423.912 715.104C424.488 715.648 424.776 716.448 424.776 717.504C424.776 719.712 423.192 722.4 420.024 725.568ZM419.688 700.896C419.144 700.32 418.872 699.616 418.872 698.784C418.872 697.952 419.144 697.248 419.688 696.672C420.264 696.096 420.968 695.808 421.8 695.808C422.664 695.808 423.368 696.096 423.912 696.672C424.488 697.248 424.776 697.952 424.776 698.784C424.776 699.616 424.488 700.32 423.912 700.896C423.368 701.472 422.664 701.76 421.8 701.76C420.968 701.76 420.264 701.472 419.688 700.896Z" fill="#2843CE"/>
<path d="M365.059 797.361L366.023 794.497L348.894 781.978L346.458 783.765L346.071 783.482L352.189 775.111L352.576 775.395L351.84 777.948L359.745 783.726L366.628 774.309L358.723 768.531L356.513 770.008L356.126 769.725L362.244 761.354L362.631 761.638L361.668 764.501L378.797 777.02L381.232 775.233L381.62 775.516L375.502 783.887L375.114 783.604L375.851 781.05L367.442 774.904L360.559 784.321L368.968 790.467L371.177 788.99L371.565 789.273L365.447 797.644L365.059 797.361Z" fill="#2843CE"/>
<path d="M397.565 876.571L397.256 875.663L406.935 872.369C405.761 869.219 404.209 866.992 402.279 865.689C400.378 864.375 398.307 864.1 396.065 864.862C394.581 865.368 393.372 866.286 392.439 867.617C391.496 868.919 391.219 870.686 391.607 872.92L390.653 873.245L388.751 867.656L389.051 867.047L390.329 867.524C391.777 866.018 393.667 864.867 395.999 864.074C399.907 862.744 403.252 862.789 406.034 864.208C408.846 865.617 410.855 868.094 412.061 871.639C413.267 875.183 413.206 878.331 411.877 881.081C410.538 883.802 407.96 885.811 404.143 887.11C401.81 887.904 399.606 888.181 397.53 887.941C395.474 887.66 394.188 886.763 393.673 885.248C393.425 884.521 393.452 883.853 393.751 883.244C394.051 882.635 394.549 882.212 395.246 881.975C395.973 881.727 396.652 881.784 397.281 882.144C397.941 882.494 398.426 883.123 398.735 884.032L399.647 886.713C401.278 886.936 402.714 886.836 403.956 886.413C406.168 885.661 407.54 884.129 408.072 881.818C408.634 879.498 408.358 876.651 407.244 873.278L397.565 876.571Z" fill="#2843CE"/>
<path d="M68.4898 903.894L58.6395 912.681L58.3838 912.395L60.0218 909.904L45.739 893.893L42.9828 895.13L42.6632 894.772L50.6868 887.614L51.0063 887.972L49.4643 890.57L55.4074 897.233L59.3834 893.686C61.437 891.854 63.524 890.828 65.6443 890.609C67.7645 890.39 69.517 891.057 70.9016 892.609C72.2862 894.161 72.7491 895.978 72.2904 898.06C71.8342 900.096 70.5674 902.041 68.4898 903.894ZM58.8801 895.357L56.0145 897.913L63.9387 906.796L66.8043 904.24C68.0938 903.09 68.7798 901.792 68.8623 900.346C68.9448 898.9 68.347 897.461 67.0689 896.028C65.7908 894.595 64.4288 893.838 62.983 893.755C61.5372 893.673 60.1696 894.207 58.8801 895.357Z" fill="#B11818"/>
<path d="M352.024 843.44L351.448 842.864C352.12 842.192 352.712 841.408 353.224 840.512C353.736 839.616 353.992 838.928 353.992 838.448C353.992 838.192 353.928 838.016 353.8 837.92C352.968 837.92 352.264 837.648 351.688 837.104C351.144 836.56 350.872 835.872 350.872 835.04C350.872 834.208 351.144 833.52 351.688 832.976C352.264 832.432 352.968 832.16 353.8 832.16C354.632 832.16 355.336 832.448 355.912 833.024C356.488 833.568 356.776 834.368 356.776 835.424C356.776 837.6 355.192 840.272 352.024 843.44Z" fill="#2843CE"/>
<path d="M385.193 809.05L376.895 804.617L366.694 823.71L370.074 826.55L369.848 826.974L359.095 821.228L359.321 820.805L362.291 821.358L372.402 802.433L370.201 800.441L370.404 800.06L387.678 809.289L385.212 813.904L384.535 813.542L385.193 809.05Z" fill="#2843CE"/>
<path d="M121.768 955.848L122.104 955.512C122.584 955.864 123.064 956.04 123.544 956.04C124.152 956.04 124.6 955.768 124.888 955.224C125.208 954.68 125.576 953.672 125.992 952.2L126.664 949.944C127.464 947.352 129.288 945.8 132.136 945.288C129.832 945.064 127.992 944.424 126.616 943.368C125.272 942.28 124.6 940.888 124.6 939.192C124.6 937.304 125.448 935.8 127.144 934.68C128.84 933.56 131.064 933 133.816 933H147.4V933.432L144.52 934.152V955.608L147.4 956.52V957H136.648V956.52L139.528 955.608V945.72H137.128C135.464 945.72 134.184 946.056 133.288 946.728C132.424 947.4 131.784 948.456 131.368 949.896L130.696 952.44C130.44 953.304 130.216 953.976 130.024 954.456C129.864 954.904 129.608 955.384 129.256 955.896C128.904 956.376 128.456 956.728 127.912 956.952C127.4 957.144 126.744 957.24 125.944 957.24C124.088 957.24 122.696 956.776 121.768 955.848ZM135.544 944.808H139.528V933.912H135.544C133.752 933.912 132.328 934.376 131.272 935.304C130.216 936.232 129.688 937.576 129.688 939.336C129.688 941.096 130.216 942.456 131.272 943.416C132.328 944.344 133.752 944.808 135.544 944.808Z" fill="#2843CE"/>
<path d="M130.319 895.703L130.467 895.826C131.978 895.21 133.66 895.089 135.512 895.464C137.389 895.86 139.152 896.743 140.8 898.114C143.531 900.386 145.017 903.078 145.257 906.192C145.522 909.326 144.458 912.332 142.064 915.211C139.69 918.065 136.959 919.622 133.87 919.883C130.805 920.165 127.846 919.119 124.992 916.745C118.866 911.65 119.221 904.994 126.055 896.776C128.019 894.414 129.954 892.589 131.858 891.301C133.807 890.009 135.568 889.267 137.141 889.077C138.759 888.883 140.298 888.935 141.756 889.233C143.24 889.551 144.607 890.084 145.857 890.833C147.132 891.602 148.28 892.349 149.301 893.073C150.346 893.818 151.337 894.454 152.271 894.981C153.23 895.529 154.026 895.775 154.656 895.717L154.706 896.632C153.416 897.182 152.14 897.391 150.878 897.257C149.616 897.123 148.481 896.761 147.472 896.172C146.464 895.583 145.437 894.916 144.392 894.171C143.371 893.447 142.348 892.825 141.323 892.306C140.298 891.787 139.235 891.464 138.132 891.338C137.051 891.187 135.838 891.469 134.495 892.183C133.172 892.873 131.78 894.046 130.319 895.703ZM134.568 897.801C132.34 898.528 130.049 900.306 127.696 903.136C125.343 905.965 124.011 908.541 123.702 910.865C123.393 913.188 124.038 915.015 125.637 916.345C127.236 917.675 129.138 917.966 131.341 917.218C133.57 916.491 135.86 914.713 138.213 911.883C140.587 909.029 141.928 906.441 142.238 904.117C142.571 901.814 141.939 899.998 140.34 898.668C138.74 897.338 136.817 897.049 134.568 897.801Z" fill="#2843CE"/>
<path d="M412.44 654.608L405.336 645.104L398.04 654.608L401.88 655.52V656H393.768V655.52L396.936 654.608L404.712 644.336L396.744 633.392L394.008 632.48V632H404.808V632.48L401.928 633.392L408.504 642.32L415.32 633.392L411.48 632.48V632H419.592V632.48L416.472 633.392L409.128 643.088L417.624 654.608L420.36 655.52V656H409.512V655.52L412.44 654.608Z" fill="#2843CE"/>
<path d="M281.968 802.144V800.992C283.152 801.088 284.192 801.136 285.088 801.136C288.512 801.136 290.224 799.424 290.224 796C290.224 794.208 289.792 792.864 288.928 791.968C288.096 791.04 286.912 790.576 285.376 790.576C283.872 790.576 282.416 791.056 281.008 792.016C279.6 792.944 278.72 794.528 278.368 796.768H277.36V790.864L277.84 790.384L278.896 791.248C281.008 790.288 283.456 789.808 286.24 789.808C289.056 789.808 291.28 790.352 292.912 791.44C294.544 792.528 295.36 793.984 295.36 795.808C295.36 797.28 294.832 798.528 293.776 799.552C292.72 800.576 291.264 801.248 289.408 801.568C291.552 801.856 293.232 802.544 294.448 803.632C295.696 804.688 296.32 806.048 296.32 807.712C296.32 809.728 295.392 811.328 293.536 812.512C291.712 813.664 289.168 814.24 285.904 814.24C283.28 814.24 280.992 813.808 279.04 812.944C277.12 812.048 276.16 810.816 276.16 809.248C276.16 808.48 276.4 807.856 276.88 807.376C277.36 806.896 277.968 806.656 278.704 806.656C279.472 806.656 280.096 806.928 280.576 807.472C281.088 808.016 281.344 808.768 281.344 809.728V812.512C282.656 813.152 284.032 813.472 285.472 813.472C287.264 813.472 288.656 812.976 289.648 811.984C290.672 810.96 291.184 809.488 291.184 807.568C291.184 803.856 289.184 802 285.184 802C284.256 802 283.184 802.048 281.968 802.144Z" fill="#2843CE"/>
<path d="M54.7845 851.392V856.528C54.7845 860.912 56.3045 863.104 59.3445 863.104C61.7445 863.104 63.7605 862.4 65.3925 860.992V851.392L62.8965 850.48V850H73.2645V850.48L70.3845 851.392V872.608L73.2645 873.52V874H62.5125V873.52L65.3925 872.608V861.952C63.1845 863.744 60.4165 864.64 57.0885 864.64C54.6885 864.64 52.8645 863.984 51.6165 862.672C50.4005 861.36 49.7925 859.552 49.7925 857.248V851.392L46.9125 850.48V850H57.2805V850.48L54.7845 851.392Z" fill="#B11818"/>
<path d="M110.912 814.52L113.792 813.608V792.392L110.912 791.48V791H121.28V791.48L118.784 792.392V802.232H123.488C123.648 798.776 124.784 796.008 126.896 793.928C129.008 791.848 131.728 790.808 135.056 790.808C138.48 790.808 141.264 791.928 143.408 794.168C145.552 796.408 146.624 799.368 146.624 803.048C146.624 806.76 145.552 809.72 143.408 811.928C141.296 814.136 138.512 815.24 135.056 815.24C131.632 815.24 128.848 814.152 126.704 811.976C124.592 809.8 123.52 806.872 123.488 803.192H118.784V813.608L121.28 814.52V815H110.912V814.52ZM130.352 794.552C129.168 796.536 128.576 799.368 128.576 803.048C128.576 806.728 129.168 809.56 130.352 811.544C131.536 813.528 133.104 814.52 135.056 814.52C137.008 814.52 138.56 813.528 139.712 811.544C140.896 809.56 141.488 806.728 141.488 803.048C141.488 799.336 140.912 796.488 139.76 794.504C138.608 792.52 137.04 791.528 135.056 791.528C133.104 791.528 131.536 792.536 130.352 794.552Z" fill="#2843CE"/>
<path d="M336.24 716.904V712.776C334.896 711.944 333.536 711.528 332.16 711.528C329.92 711.528 328.16 712.504 326.88 714.456C325.632 716.376 325.008 718.984 325.008 722.28C325.008 725.928 325.76 728.76 327.264 730.776C328.768 732.792 330.992 733.8 333.936 733.8C336.72 733.8 339.072 732.84 340.992 730.92L341.52 731.496C339.024 733.992 335.84 735.24 331.968 735.24C328.032 735.24 325.024 734.152 322.944 731.976C320.896 729.768 319.872 726.808 319.872 723.096C319.872 719.288 320.928 716.296 323.04 714.12C325.152 711.912 328.16 710.808 332.064 710.808C334.784 710.808 337.152 711.368 339.168 712.488C341.184 713.576 342.192 715.08 342.192 717C342.192 717.992 341.92 718.76 341.376 719.304C340.832 719.816 340.112 720.072 339.216 720.072C338.32 720.072 337.6 719.784 337.056 719.208C336.512 718.632 336.24 717.864 336.24 716.904Z" fill="#2843CE"/>
<path d="M265.824 790H228.912V789.616L231.792 788.848V767.392L228.912 766.48V766H239.232V766.48L236.784 767.392V789.04H246.24V767.392L243.84 766.48V766H253.68V766.48L251.232 767.392V789.04H260.688V767.392L258.24 766.48V766H268.56V766.48L265.68 767.392V789.04H268.848V796.432H267.792L265.824 790Z" fill="#B11818"/>
<path d="M415.952 597.392L416.96 618.608L419.84 619.52V620H409.088V619.52L411.968 618.608L411.008 599.552L401.984 620H400.592L391.376 599.456L390.368 618.704L393.248 619.616V620H386.624V619.616L389.504 618.704L390.56 597.392L387.68 596.48V596H395.024L403.28 614.72L411.584 596H418.832V596.48L415.952 597.392Z" fill="#B11818"/>
<path d="M353.684 972.087L352.726 971.447C353.589 969.753 354.535 968.422 355.566 967.456C356.596 966.489 357.617 965.825 358.629 965.462C359.668 965.117 360.671 964.825 361.639 964.586C362.624 964.321 363.61 963.882 364.596 963.271C365.626 962.651 366.523 961.768 367.287 960.624C368.389 958.974 368.83 957.364 368.61 955.793C368.407 954.195 367.534 952.881 365.991 951.85C364.847 951.085 363.529 950.725 362.038 950.768L359.532 954.519C358.981 955.344 358.306 955.836 357.507 955.995C356.735 956.172 355.976 956.012 355.231 955.514C354.512 955.034 354.069 954.43 353.901 953.702C353.751 952.947 353.96 952.144 354.529 951.293C355.578 949.723 357.247 948.953 359.537 948.981C361.871 949.001 364.236 949.811 366.631 951.411C369.398 953.26 371.18 955.316 371.976 957.58C372.791 959.817 372.496 961.987 371.092 964.089C370.292 965.287 369.279 966.169 368.054 966.735C366.873 967.293 365.639 967.643 364.352 967.784C363.082 967.898 361.804 968.025 360.517 968.166C359.257 968.325 358.005 968.701 356.762 969.294C355.545 969.905 354.519 970.836 353.684 972.087ZM346.676 977.911C346.544 977.13 346.708 976.393 347.171 975.702C347.633 975.01 348.25 974.576 349.022 974.399C349.821 974.24 350.567 974.391 351.258 974.854C351.95 975.316 352.376 975.946 352.535 976.745C352.694 977.544 352.542 978.289 352.08 978.981C351.618 979.673 350.987 980.099 350.188 980.258C349.389 980.417 348.644 980.265 347.952 979.803C347.26 979.341 346.835 978.71 346.676 977.911Z" fill="#B11818"/>
<path d="M546.451 95.6214L546.179 94.9546L550.948 68.7535L540.324 73.083L540.568 77.7521L539.812 78.0601L537.838 73.215L555.351 66.0776L555.623 66.7444L550.899 92.9274L562.145 88.3442L561.901 83.6751L562.657 83.3672L564.631 88.2123L546.451 95.6214Z" fill="#2843CE"/>
<path d="M342.229 669.35L339.799 670.179L339.493 669.809L347.07 663.532L347.376 663.902L346.073 666.166L359.883 682.837L367.165 676.804L353.355 660.133L350.888 660.993L350.582 660.623L358.529 654.04L358.836 654.409L357.199 656.949L370.887 673.472L373.595 672.226L373.84 672.522L343.307 697.814L343.062 697.519L344.79 695.09L331.102 678.567L328.303 679.702L327.997 679.332L335.944 672.749L336.25 673.118L334.947 675.382L348.757 692.053L356.039 686.021L342.229 669.35Z" fill="#2843CE"/>
<path d="M383.274 910.657L373.609 898.176L371.033 899.653L370.734 899.341L384.923 885.704L385.222 886.015L383.645 888.53L398.513 904L401.221 902.661L401.554 903.007L394.079 910.192L393.746 909.846L394.948 907.426L379.947 891.818L374.168 897.372L383.901 909.855C387.013 913.832 387.577 916.774 385.593 918.681C384.855 919.39 384.02 919.815 383.09 919.955C382.137 920.072 381.25 919.703 380.43 918.85C379.831 918.227 379.538 917.599 379.551 916.965C379.541 916.309 379.801 915.725 380.332 915.215C380.909 914.661 381.537 914.391 382.215 914.404C382.872 914.394 383.477 914.678 384.032 915.255L385.162 916.431C385.345 916.345 385.471 916.268 385.54 916.201C385.887 915.869 385.854 915.212 385.444 914.23C385.056 913.227 384.333 912.036 383.274 910.657Z" fill="#2843CE"/>
<path d="M457.792 594.232V572.584L454.912 571.96V571.432L462.16 570.664L462.784 571.336V594.232C462.784 596.568 462.16 598.568 460.912 600.232C459.696 601.896 457.856 603.432 455.392 604.84L454.864 604.312C456.816 601.496 457.792 598.136 457.792 594.232ZM457.504 566.728C456.864 566.088 456.544 565.272 456.544 564.28C456.544 563.288 456.864 562.472 457.504 561.832C458.144 561.192 458.96 560.872 459.952 560.872C460.944 560.872 461.76 561.192 462.4 561.832C463.072 562.472 463.408 563.288 463.408 564.28C463.408 565.272 463.072 566.088 462.4 566.728C461.76 567.368 460.944 567.688 459.952 567.688C458.96 567.688 458.144 567.368 457.504 566.728Z" fill="#B11818"/>
<path d="M425.44 835H400.912V834.616L403.792 833.848V812.392L400.912 811.48V811H411.28V811.48L408.784 812.392V834.04H420.304V812.392L417.76 811.48V811H428.176V811.48L425.296 812.392V834.04H428.464V841.432H427.408L425.44 835Z" fill="#2843CE"/>
<path d="M387.784 685.464V703.608L390.328 704.52V705H379.912V704.52L382.792 703.608V672.024L379.912 671.4V670.872L387.16 670.104L387.784 670.776V681L387.64 684.264L387.784 684.408C389 683.256 390.456 682.376 392.152 681.768C393.88 681.128 395.56 680.808 397.192 680.808C399.656 680.808 401.48 681.544 402.664 683.016C403.88 684.456 404.488 686.472 404.488 689.064V703.608L407.368 704.52V705H396.952V704.52L399.496 703.608V689.88C399.496 684.952 397.912 682.488 394.744 682.488C393.624 682.488 392.408 682.76 391.096 683.304C389.784 683.848 388.68 684.568 387.784 685.464Z" fill="#2843CE"/>
<path d="M272.712 921.439L274.067 918.897C274.443 918.191 274.942 917.732 275.563 917.519C276.212 917.321 276.876 917.403 277.553 917.764C278.203 918.11 278.613 918.6 278.782 919.234C278.967 919.84 278.894 920.454 278.563 921.075C277.901 922.318 276.655 922.887 274.825 922.782C273.024 922.693 271.261 922.189 269.539 921.271C268.494 920.714 267.531 920.038 266.65 919.242C265.768 918.446 265.098 917.527 264.638 916.484C264.222 915.428 264.239 914.477 264.691 913.629C265.022 913.008 265.49 912.605 266.096 912.42C266.731 912.251 267.373 912.339 268.022 912.685C268.672 913.031 269.081 913.521 269.251 914.156C269.449 914.805 269.36 915.483 268.983 916.189L267.629 918.73C268.239 919.491 268.996 920.111 269.9 920.593C270.804 921.075 271.741 921.357 272.712 921.439ZM245.031 938.071L248.002 938.621L257.979 919.897L255.866 917.738L256.092 917.314L265.284 922.213L265.058 922.636L262.384 922.245L255.635 934.911L253.77 938.105L253.829 938.3L272.314 928.515L272.72 927.752L270.904 925.751L271.13 925.328L280.322 930.226L280.097 930.649L277.126 930.1L267.149 948.824L269.262 950.983L269.036 951.407L259.844 946.508L260.069 946.085L262.743 946.476L269.493 933.81L271.358 930.616L271.298 930.421L252.814 940.206L252.407 940.968L254.224 942.97L253.998 943.393L244.805 938.495L245.031 938.071Z" fill="#2843CE"/>
<path d="M116.912 871.52L119.792 870.608V849.152L116.912 848.432V848H144.32V848.432L141.44 849.152V870.608L144.32 871.52V872H133.952V871.52L136.448 870.608V848.96H124.784V870.608L127.28 871.52V872H116.912V871.52Z" fill="#B11818"/>
<path d="M453.264 627.488H451.2C453.6 628.928 454.8 631.008 454.8 633.728C454.8 636.096 453.872 637.984 452.016 639.392C450.16 640.768 447.728 641.456 444.72 641.456C442.192 641.456 440.112 640.976 438.48 640.016C437.584 641.04 437.136 642.144 437.136 643.328C437.136 645.088 438.4 645.968 440.928 645.968H449.04C454.16 645.968 456.72 647.936 456.72 651.872C456.72 654.4 455.6 656.336 453.36 657.68C451.12 659.056 447.808 659.744 443.424 659.744C440.32 659.744 437.904 659.376 436.176 658.64C434.448 657.936 433.584 656.88 433.584 655.472C433.584 653.648 435.056 651.888 438 650.192C435.76 649.552 434.64 648.032 434.64 645.632C434.64 644.544 434.896 643.568 435.408 642.704C435.92 641.808 436.752 640.8 437.904 639.68C435.76 638.24 434.688 636.256 434.688 633.728C434.688 631.36 435.616 629.472 437.472 628.064C439.328 626.624 441.744 625.904 444.72 625.904C445.104 625.904 445.68 625.936 446.448 626H456.528V626.48L453.264 627.488ZM440.88 628.448C439.92 629.664 439.44 631.408 439.44 633.68C439.44 635.952 439.92 637.696 440.88 638.912C441.84 640.128 443.12 640.736 444.72 640.736C446.32 640.736 447.6 640.128 448.56 638.912C449.552 637.696 450.048 635.952 450.048 633.68C450.048 631.44 449.552 629.712 448.56 628.496C447.6 627.248 446.32 626.624 444.72 626.624C443.12 626.624 441.84 627.232 440.88 628.448ZM440.88 650.528C440.496 650.528 440.016 650.496 439.44 650.432C438.192 651.84 437.568 653.184 437.568 654.464C437.568 656.096 438.144 657.248 439.296 657.92C440.48 658.592 442.192 658.928 444.432 658.928C447.28 658.928 449.52 658.48 451.152 657.584C452.816 656.688 453.648 655.44 453.648 653.84C453.648 652.88 453.312 652.08 452.64 651.44C451.968 650.832 450.928 650.528 449.52 650.528H440.88Z" fill="#2843CE"/>
<path d="M91.0645 931.336L90.4885 930.76C92.3445 928.904 93.7845 927.624 94.8085 926.92C95.8645 926.216 96.7925 925.864 97.5925 925.864C98.3285 925.864 99.4005 926.28 100.808 927.112C102.248 927.912 103.4 928.312 104.264 928.312C106.056 928.312 107.784 927.48 109.448 925.816L110.024 926.344C106.728 929.704 104.264 931.384 102.632 931.384C101.96 931.384 100.888 930.984 99.4165 930.184C97.9445 929.352 96.7605 928.936 95.8645 928.936C94.2645 928.936 92.6645 929.736 91.0645 931.336Z" fill="#B11818"/>
<path d="M162.912 911H177.216C179.616 911 181.552 911.528 183.024 912.584C184.496 913.64 185.232 915.08 185.232 916.904C185.232 918.408 184.72 919.672 183.696 920.696C182.672 921.688 181.28 922.344 179.52 922.664C181.664 922.952 183.344 923.64 184.56 924.728C185.808 925.784 186.432 927.112 186.432 928.712C186.432 930.664 185.584 932.2 183.888 933.32C182.224 934.44 180 935 177.216 935H162.912V934.616L165.792 933.848V912.152L162.912 911.432V911ZM175.68 923.096H170.784V934.136H175.68C177.408 934.136 178.768 933.672 179.76 932.744C180.784 931.784 181.296 930.408 181.296 928.616C181.296 926.824 180.784 925.464 179.76 924.536C178.768 923.576 177.408 923.096 175.68 923.096ZM170.784 922.184H175.68C177.056 922.184 178.144 921.752 178.944 920.888C179.744 919.992 180.144 918.712 180.144 917.048C180.144 915.384 179.744 914.12 178.944 913.256C178.144 912.36 177.056 911.912 175.68 911.912H170.784V922.184Z" fill="#B11818"/>
<path d="M442.642 684.772L444.06 681.886C445.062 679.846 446.47 678.577 448.284 678.078C450.14 677.564 452.304 677.914 454.774 679.128C456.44 679.946 457.706 680.96 458.573 682.171C459.44 683.381 459.57 684.604 458.964 685.839C458.625 686.528 458.149 686.99 457.535 687.223C456.95 687.47 456.327 687.432 455.667 687.107C454.949 686.754 454.465 686.214 454.217 685.486C453.983 684.729 454.07 683.934 454.48 683.101L455.623 680.775C455.276 680.319 454.916 680 454.542 679.816C453.566 679.336 452.529 679.487 451.433 680.267C450.379 681.033 449.415 682.306 448.54 684.087L446.974 687.275L453.953 690.704L453.53 691.566L446.55 688.137L437.004 707.566L440.48 710.29L440.268 710.721L429.325 705.344L429.537 704.913L432.524 705.365L442.07 685.935L439.485 684.665L439.654 684.321L442.642 684.772Z" fill="#2843CE"/>
<path d="M433.557 773.461L432.581 772.337L446.245 760.472L447.22 761.596L433.557 773.461ZM438.057 778.643L437.113 777.556L450.777 765.691L451.721 766.778L438.057 778.643Z" fill="#B11818"/>
<path d="M582.061 154.838L572.651 145.582L572.92 145.308L575.512 146.78L590.558 131.484L589.144 128.814L589.481 128.472L597.146 136.012L596.809 136.354L594.117 134.985L587.856 141.349L591.654 145.086C593.616 147.016 594.775 149.031 595.132 151.133C595.489 153.234 594.938 155.026 593.479 156.509C592.021 157.992 590.238 158.572 588.131 158.25C586.069 157.928 584.046 156.791 582.061 154.838ZM589.954 144.692L587.216 142L578.868 150.486L581.606 153.179C582.838 154.391 584.178 154.991 585.626 154.979C587.074 154.967 588.471 154.276 589.818 152.908C591.164 151.539 591.831 150.13 591.82 148.682C591.808 147.234 591.186 145.904 589.954 144.692ZM610.85 151.444L595.972 166.57L597.386 169.239L597.049 169.582L589.384 162.042L589.721 161.699L592.413 163.069L607.291 147.944L605.878 145.274L606.214 144.932L613.879 152.472L613.543 152.814L610.85 151.444Z" fill="#B11818"/>
<path d="M493.995 468.915L496.763 467.905L497.045 468.351L491.265 472.683L490.404 472.489L489.245 470.383L489.046 470.338C488.449 473.288 486.812 475.609 484.133 477.301C481.482 478.976 478.924 479.361 476.461 478.457C473.98 477.526 471.783 475.545 469.869 472.515C467.699 469.078 466.89 465.88 467.443 462.92C468.005 459.915 469.856 457.422 472.994 455.44C474.644 454.397 476.458 453.763 478.434 453.536L473.052 445.014L470.283 446.024L470.002 445.578L475.679 441.084L476.565 441.319L493.995 468.915ZM488.456 469.404L478.793 454.105C476.888 454.324 475.327 454.818 474.109 455.587C472.08 456.869 471.04 458.698 470.991 461.076C470.951 463.41 471.888 466.092 473.802 469.123C475.527 471.855 477.434 473.736 479.522 474.764C481.636 475.775 483.559 475.733 485.291 474.64C487.104 473.495 488.159 471.75 488.456 469.404Z" fill="#B11818"/>
<path d="M326.824 876.896V875.456H337.72V876.896H326.824Z" fill="#2843CE"/>
<path d="M571.493 45.3468C571.757 43.344 572.828 41.4968 574.706 39.8053C576.989 37.7497 579.384 37.0142 581.891 37.5988C584.401 38.1381 586.844 39.7276 589.221 42.3673C591.962 45.4112 593.369 48.3853 593.444 51.2894C593.497 54.1698 592.251 56.7556 589.706 59.0467C588.636 60.0102 587.361 60.7705 585.882 61.3274L591.888 67.9979L594.639 66.7485L594.96 67.1052L586.97 74.2997L586.648 73.943L588.178 71.3382L582.75 65.3098L581.894 64.1433L581.69 64.1326C581.389 65.9975 580.275 67.7971 578.349 69.5315C576.066 71.587 573.669 72.3451 571.16 71.8058C568.629 71.2426 566.175 69.6412 563.799 67.0016C561.058 63.9576 559.65 60.9836 559.576 58.0794C559.525 55.1538 560.784 52.5348 563.352 50.2222C564.423 49.2587 565.685 48.5092 567.141 47.9737L560.621 40.7325L558.063 42.1959L557.71 41.8035L562.547 36.415L563.496 36.4647L570.273 43.9913L571.29 45.3361L571.493 45.3468ZM579.19 67.0945C580.284 66.1095 580.914 64.8963 581.08 63.4549L567.623 48.5087C566.379 48.8967 565.353 49.4547 564.544 50.1827C562.951 51.6174 562.379 53.4454 562.829 55.6668C563.279 57.8883 564.735 60.3664 567.198 63.1012C569.467 65.6219 571.67 67.2555 573.806 68.0019C575.945 68.7031 577.739 68.4006 579.19 67.0945ZM573.997 42.3172C572.879 43.3235 572.237 44.5474 572.071 45.9889L585.4 60.7923C586.692 60.3615 587.718 59.8035 588.479 59.1183C590.072 57.6837 590.643 55.8783 590.19 53.702C589.74 51.4805 588.273 48.9905 585.789 46.232C583.52 43.7112 581.349 42.1133 579.277 41.4383C577.184 40.7395 575.424 41.0324 573.997 42.3172Z" fill="#2843CE"/>
<path d="M453.29 750.161L432.35 736.778L429.476 737.549L429.216 737.146L438.406 731.205L438.667 731.608L436.703 733.963L452.773 744.322L449.844 725.468L446.003 726.865L445.743 726.462L452.555 722.058L452.816 722.461L450.731 724.895L454.459 749.406L453.29 750.161Z" fill="#B11818"/>
<path d="M189.914 828.272L190.391 828.328L190.963 831.294L199.831 832.328L200.448 827.036C200.767 824.303 201.645 822.166 203.081 820.626C204.52 819.054 206.273 818.389 208.339 818.629C210.405 818.87 211.96 819.905 213.003 821.735C214.014 823.56 214.359 825.855 214.036 828.621L212.507 841.732L212.126 841.687L211.697 838.738L189.956 836.202L189.278 842.019L193.349 843.992L193.26 844.755L188.063 844.148L189.914 828.272ZM201.176 828.667L200.737 832.434L212.561 833.813L213 830.046C213.204 828.298 212.857 826.856 211.958 825.72C211.06 824.585 209.657 823.906 207.75 823.683C205.843 823.461 204.322 823.799 203.186 824.697C202.05 825.596 201.38 826.919 201.176 828.667Z" fill="#2843CE"/>
<path d="M621.054 22.3171L623.312 20.5296C623.94 20.0331 624.58 19.8115 625.235 19.8649C625.909 19.9433 626.485 20.2836 626.961 20.8858C627.418 21.4629 627.597 22.076 627.499 22.7252C627.426 23.3545 627.113 23.8877 626.561 24.3246C625.457 25.1985 624.088 25.2214 622.453 24.3933C620.838 23.5904 619.424 22.4236 618.213 20.8931C617.478 19.9647 616.866 18.9595 616.377 17.8775C615.888 16.7955 615.641 15.6847 615.637 14.5453C615.678 13.411 616.074 12.546 616.827 11.9501C617.379 11.5132 617.97 11.3313 618.599 11.4046C619.248 11.5029 619.801 11.8406 620.258 12.4177C620.715 12.9948 620.894 13.6079 620.796 14.2571C620.717 14.9313 620.365 15.5167 619.737 16.0133L617.479 17.8007C617.734 18.7416 618.179 19.6135 618.815 20.4164C619.451 21.2193 620.197 21.8529 621.054 22.3171ZM589.03 26.4845L591.533 28.1766L608.168 15.0089L607.096 12.1847L607.472 11.8868L613.937 20.0538L613.56 20.3518L611.266 18.9231L600.013 27.8306L597.026 30.0116L597.002 30.2139L617.858 28.6425L618.535 28.1063L617.671 25.5456L618.048 25.2476L624.513 33.4147L624.136 33.7126L621.634 32.0205L604.998 45.1882L606.071 48.0124L605.694 48.3103L599.23 40.1432L599.606 39.8453L601.9 41.274L613.153 32.3664L616.141 30.1854L616.164 29.9832L595.309 31.5545L594.631 32.0908L595.495 34.6515L595.119 34.9494L588.654 26.7824L589.03 26.4845Z" fill="#B11818"/>
</svg>
