<svg width="610" height="841" viewBox="0 0 610 841" fill="none" xmlns="http://www.w3.org/2000/svg">
<path d="M1000.83 347.193C1000.83 618.91 777.065 839.212 501.001 839.212C224.937 839.212 1.175 618.91 1.175 347.193C1.175 75.4764 224.937 -144.825 501.001 -144.825C777.065 -144.825 1000.83 75.4764 1000.83 347.193Z" fill="white" stroke="#2843CE" stroke-width="2.35"/>
<mask id="mask0_128_7256" style="mask-type:alpha" maskUnits="userSpaceOnUse" x="0" y="-146" width="1002" height="986">
<path d="M1000.35 347.193C1000.35 618.65 776.801 838.736 501.002 838.736C225.203 838.736 1.65137 618.65 1.65137 347.193C1.65137 75.7363 225.203 -144.35 501.002 -144.35C776.801 -144.35 1000.35 75.7363 1000.35 347.193Z" fill="white" stroke="#2843CE" stroke-width="2"/>
</mask>
<g mask="url(#mask0_128_7256)">
<rect x="549.095" y="855.036" width="4.84558" height="72.5222" transform="rotate(176.749 549.095 855.036)" fill="#2843CE"/>
<rect x="607.529" y="843.557" width="4.84558" height="72.5223" transform="rotate(172.35 607.529 843.557)" fill="#2843CE"/>
<rect x="286.063" y="804.576" width="4.84558" height="72.5222" transform="rotate(-153.353 286.063 804.576)" fill="#2843CE"/>
<rect x="345.948" y="824.728" width="4.84558" height="72.5222" transform="rotate(-163.493 345.948 824.728)" fill="#2843CE"/>
<rect x="403.036" y="839.252" width="4.84558" height="72.5223" transform="rotate(-166.545 403.036 839.252)" fill="#2843CE"/>
<rect x="453.24" y="839.81" width="4.84558" height="72.5222" transform="rotate(-172.9 453.24 839.81)" fill="#2843CE"/>
<rect width="4.84558" height="72.5223" transform="matrix(0.00998476 0.99995 0.99995 -0.00998476 -7.41016 298.846)" fill="#2843CE"/>
<rect width="4.84558" height="72.5223" transform="matrix(0.407126 0.913372 0.913372 -0.407126 36.3008 546.61)" fill="#2843CE"/>
<rect width="4.84558" height="72.5223" transform="matrix(0.807533 0.589823 0.589823 -0.807533 199.629 763.035)" fill="#2843CE"/>
<rect width="4.84558" height="72.5223" transform="matrix(-0.0667465 0.99777 0.99777 0.0667465 0.147461 246.284)" fill="#2843CE"/>
<rect width="4.84558" height="72.5223" transform="matrix(0.279949 0.960015 0.960015 -0.279949 12.9639 499.683)" fill="#2843CE"/>
<rect width="4.84558" height="72.5223" transform="matrix(0.759911 0.650027 0.650027 -0.759911 156.797 721.662)" fill="#2843CE"/>
<rect width="4.84558" height="72.5223" transform="matrix(-0.144203 0.989548 0.989548 0.144203 14.0723 200.151)" fill="#2843CE"/>
<rect width="4.84558" height="72.5223" transform="matrix(0.136059 0.990701 0.990701 -0.136059 -5.14941 441.425)" fill="#2843CE"/>
<rect width="4.84558" height="72.5223" transform="matrix(0.685109 0.728441 0.728441 -0.685109 108.809 683.88)" fill="#2843CE"/>
<rect width="4.84558" height="72.5223" transform="matrix(-0.351904 0.936036 0.936036 0.351904 36.6289 148.99)" fill="#2843CE"/>
<rect width="4.84558" height="72.5223" transform="matrix(0.078317 0.996928 0.996928 -0.078317 -8.45801 386.056)" fill="#2843CE"/>
<rect width="4.84558" height="72.5223" transform="matrix(0.582622 0.812743 0.812743 -0.582622 75.6963 636.042)" fill="#2843CE"/>
<rect width="4.84558" height="72.5223" transform="matrix(-0.517268 0.855823 0.855823 0.517268 76.5312 66.418)" fill="#2843CE"/>
<rect width="4.84558" height="72.5223" transform="matrix(-0.581391 0.813624 0.813624 0.581391 114.019 20.1465)" fill="#2843CE"/>
<rect width="4.84558" height="72.5223" transform="matrix(-0.635739 0.771904 0.771904 0.635739 154.603 -23.1216)" fill="#2843CE"/>
<rect width="14.3143" height="72.5223" transform="matrix(-0.5 0.866025 0.866025 0.5 46.1973 97.3428)" fill="#2843CE"/>
<rect x="246.254" y="790.796" width="14.3143" height="72.5223" transform="rotate(-150.4 246.254 790.796)" fill="#2843CE"/>
<rect x="47.498" y="604.059" width="14.3143" height="72.5223" transform="rotate(-120 47.498 604.059)" fill="#2843CE"/>
<rect x="52.0527" y="340.035" width="14.3143" height="57.9079" transform="rotate(90 52.0527 340.035)" fill="#2843CE"/>
<rect x="493.844" y="792.888" width="14.3143" height="49.4495" fill="#2843CE"/>
</g>
<circle cx="500.676" cy="347.519" r="447.449" fill="white" stroke="#2843CE" stroke-width="2.35"/>
<path d="M537.381 463.042C537.639 462.859 537.879 462.651 538.097 462.422C541.57 464.206 545.469 464.996 549.362 464.705C553.256 464.414 556.993 463.052 560.162 460.771L564.366 459.595C564.366 459.595 564.484 468.331 570.811 474.021C577.139 479.711 586.952 478.697 600.32 492.058C609.401 501.138 620.114 511.848 626.062 517.78C622.316 510.262 615.552 496.708 609.824 485.214C601.38 468.29 605.429 459.296 602.062 451.514C598.694 443.732 590.427 440.826 590.427 440.826L592.875 437.21C596.043 434.929 598.52 431.816 600.03 428.215C601.54 424.614 602.025 420.666 601.432 416.806C601.72 416.67 601.995 416.507 602.253 416.32C603.277 415.559 603.992 414.456 604.268 413.211C604.545 411.965 604.363 410.663 603.757 409.541C603.15 408.419 602.16 407.553 600.967 407.102C599.774 406.651 598.458 406.645 597.261 407.085C594.78 403.873 591.428 401.441 587.604 400.08C583.781 398.718 579.646 398.484 575.693 399.406L575.984 399.196C575.333 397.454 574.104 395.987 572.502 395.041C571.012 394.257 569.32 393.941 567.648 394.135C563.757 394.355 561.058 396.475 559.546 397.604C557.026 399.581 555.013 402.13 553.676 405.04C552.885 404.507 552.146 403.901 551.467 403.231C545.317 397.164 545.917 387.431 546.334 380.652C546.68 375.114 547.788 369.651 549.627 364.416L540.428 369.702C538.173 366.274 534.677 363.854 530.675 362.951C534.125 356.794 535.372 349.644 534.208 342.682C533.044 335.721 529.54 329.365 524.275 324.664C519.009 319.964 512.297 317.202 505.249 316.833C498.2 316.464 491.237 318.511 485.51 322.636C479.782 326.761 475.634 332.717 473.75 339.519C471.866 346.321 472.36 353.563 475.149 360.046C477.938 366.53 482.857 371.868 489.091 375.177C495.325 378.487 502.501 379.571 509.435 378.249C509.031 382.321 510.214 386.392 512.737 389.614L504.767 396.629C510.316 396.555 515.849 397.246 521.209 398.683C527.772 400.436 537.188 402.955 540.998 410.707C541.416 411.564 541.756 412.457 542.014 413.375C538.83 413.721 535.775 414.822 533.102 416.587C531.536 417.642 528.68 419.555 527.244 423.171C526.527 424.695 526.29 426.401 526.565 428.062C526.948 429.884 527.951 431.516 529.403 432.682L529.693 432.472C527.566 435.929 526.477 439.925 526.557 443.983C526.636 448.042 527.881 451.991 530.142 455.362C529.345 456.359 528.934 457.609 528.984 458.884C529.034 460.158 529.542 461.373 530.415 462.303C531.288 463.234 532.467 463.818 533.736 463.95C535.005 464.081 536.279 463.751 537.324 463.019L537.381 463.042ZM599.951 468.822C602.228 479.21 605.951 484.947 604.394 486.125C602.9 487.257 599.293 482.382 588.904 476.987C588.904 476.987 587.765 476.396 575.302 470.883L577.177 468.731C578.112 468.806 579.053 468.663 579.923 468.312C580.794 467.96 581.571 467.411 582.192 466.708C582.814 466.004 583.263 465.165 583.504 464.258C583.745 463.351 583.771 462.4 583.581 461.48L584.903 459.975L586.409 459.339C587.226 459.831 588.149 460.123 589.1 460.19C590.052 460.257 591.006 460.098 591.885 459.726C592.763 459.354 593.541 458.779 594.155 458.048C594.768 457.318 595.2 456.452 595.415 455.523L598.284 454.307C598.345 459.189 598.904 464.053 599.951 468.822ZM595.609 447.509L593.067 449.268C592.054 448.537 590.839 448.139 589.59 448.128C588.34 448.116 587.118 448.492 586.091 449.203C585.065 449.915 584.283 450.927 583.855 452.101C583.427 453.274 583.373 454.552 583.701 455.757L580.958 457.66C579.952 457.007 578.775 456.667 577.576 456.684C576.376 456.702 575.209 457.076 574.223 457.759C573.237 458.441 572.476 459.402 572.038 460.519C571.599 461.635 571.503 462.857 571.761 464.028L568.708 466.147C567.642 464.588 566.963 462.799 566.728 460.926C566.261 456.804 568.545 455.367 569.339 449.856C570.054 444.914 568.606 442.782 570.103 441.632C571.6 440.481 573.251 442.251 578.234 443.112C584.038 444.112 585.795 442.478 590.09 443.987C592.16 444.753 594.042 445.954 595.609 447.509ZM577.447 418.028C578.402 417.338 579.18 416.433 579.721 415.386C580.261 414.34 580.548 413.181 580.558 412.003C580.568 410.825 580.301 409.662 579.779 408.606C579.257 407.55 578.493 406.632 577.551 405.926C581.045 405.394 584.616 406.054 587.69 407.798C590.763 409.542 593.161 412.27 594.496 415.542C595.832 418.814 596.028 422.44 595.053 425.837C594.078 429.234 591.988 432.204 589.121 434.269C586.253 436.335 582.774 437.375 579.243 437.224C575.712 437.072 572.335 435.737 569.655 433.434C566.975 431.13 565.147 427.992 564.467 424.524C563.787 421.056 564.293 417.46 565.904 414.314C566.277 415.431 566.906 416.445 567.742 417.274C568.578 418.103 569.597 418.724 570.717 419.088C571.837 419.451 573.026 419.547 574.19 419.367C575.353 419.187 576.458 418.736 577.416 418.051L577.447 418.028ZM492.145 356.102C490.504 353.824 489.575 351.11 489.477 348.304C489.378 345.497 490.114 342.725 491.591 340.337C493.068 337.949 495.22 336.052 497.775 334.887C500.33 333.722 503.173 333.341 505.944 333.792C508.716 334.243 511.291 335.505 513.345 337.42C515.399 339.334 516.839 341.815 517.484 344.548C518.128 347.281 517.947 350.144 516.964 352.774C515.981 355.404 514.241 357.684 511.962 359.325C508.907 361.526 505.103 362.423 501.386 361.818C497.67 361.214 494.345 359.158 492.145 356.102ZM524.86 390.393C522.662 388.921 520.376 387.328 519.728 384.547C518.94 381.226 520.797 377.258 523.937 375.205C526.664 373.425 530.58 372.962 533.355 374.677C535.82 376.196 536.603 378.92 537.278 381.393C539.331 388.919 543.849 400.114 542.471 401.106C541.093 402.099 529.195 393.316 524.86 390.393ZM548.229 409.724L558.955 411.469L557.211 422.195L546.501 420.439L548.229 409.724ZM535.328 436.344C535.702 437.461 536.333 438.474 537.17 439.302C538.008 440.131 539.028 440.75 540.149 441.112C541.27 441.473 542.46 441.566 543.623 441.383C544.787 441.199 545.891 440.745 546.846 440.057C547.802 439.369 548.583 438.465 549.125 437.42C549.667 436.375 549.957 435.216 549.969 434.039C549.982 432.861 549.717 431.697 549.197 430.64C548.677 429.584 547.916 428.664 546.975 427.956C550.469 427.424 554.04 428.084 557.114 429.828C560.187 431.572 562.585 434.3 563.92 437.572C565.256 440.844 565.452 444.47 564.477 447.867C563.502 451.264 561.412 454.234 558.545 456.299C555.677 458.365 552.198 459.405 548.667 459.254C545.136 459.102 541.759 457.767 539.079 455.463C536.399 453.16 534.571 450.022 533.891 446.554C533.211 443.086 533.717 439.49 535.328 436.344Z" fill="#2843CE"/>
<path d="M489.828 351.079C491.627 358.711 499.272 363.44 506.904 361.641C514.535 359.842 519.264 352.197 517.465 344.565C515.666 336.933 508.021 332.205 500.389 334.004C492.758 335.802 488.029 343.447 489.828 351.079Z" stroke="#2843CE" stroke-width="0.650651" stroke-miterlimit="10"/>
<path d="M575.292 470.89L577.166 468.738C578.102 468.814 579.042 468.67 579.913 468.319C580.784 467.968 581.56 467.418 582.182 466.715C582.803 466.011 583.252 465.172 583.493 464.265C583.734 463.358 583.761 462.407 583.57 461.488L584.892 459.982L586.398 459.346C587.216 459.838 588.138 460.13 589.09 460.197C590.042 460.264 590.996 460.105 591.874 459.733C592.753 459.361 593.53 458.786 594.144 458.055C594.758 457.325 595.19 456.46 595.405 455.53L598.273 454.314C598.324 459.195 598.872 464.059 599.907 468.829C602.185 479.216 605.908 484.954 604.351 486.132C602.857 487.264 599.25 482.389 588.861 476.994C588.893 476.994 587.754 476.403 575.292 470.89Z" stroke="#2843CE" stroke-width="0.650651" stroke-miterlimit="10"/>
<path d="M568.707 466.146C567.641 464.588 566.962 462.798 566.727 460.925C566.26 456.803 568.545 455.366 569.338 449.855C570.053 444.914 568.606 442.781 570.103 441.631C571.599 440.481 573.251 442.25 578.233 443.112C584.037 444.112 585.795 442.477 590.089 443.987C592.163 444.749 594.048 445.948 595.619 447.501L593.077 449.26C592.064 448.529 590.849 448.131 589.599 448.12C588.35 448.108 587.128 448.484 586.101 449.195C585.074 449.907 584.293 450.919 583.865 452.093C583.437 453.266 583.383 454.544 583.711 455.749L580.968 457.652C579.962 456.999 578.785 456.659 577.586 456.676C576.386 456.694 575.219 457.068 574.233 457.751C573.247 458.433 572.486 459.394 572.048 460.51C571.609 461.627 571.513 462.849 571.771 464.02L568.707 466.146Z" stroke="#2843CE" stroke-width="0.650651" stroke-miterlimit="10"/>
<path d="M536.569 452.73C534.874 450.377 533.862 447.603 533.643 444.711C533.424 441.82 534.007 438.925 535.328 436.344C535.702 437.461 536.333 438.474 537.17 439.302C538.008 440.13 539.028 440.75 540.149 441.111C541.27 441.473 542.46 441.566 543.623 441.382C544.787 441.199 545.891 440.745 546.846 440.057C547.802 439.368 548.583 438.465 549.125 437.42C549.667 436.374 549.956 435.216 549.969 434.039C549.981 432.861 549.717 431.697 549.197 430.64C548.677 429.583 547.916 428.664 546.975 427.955C549.74 427.535 552.568 427.859 555.167 428.893C557.766 429.928 560.042 431.636 561.762 433.843C563.481 436.049 564.582 438.674 564.951 441.447C565.319 444.22 564.943 447.041 563.859 449.62C562.776 452.199 561.025 454.443 558.787 456.121C556.549 457.798 553.904 458.85 551.125 459.167C548.346 459.483 545.532 459.054 542.974 457.923C540.416 456.791 538.205 454.999 536.569 452.73V452.73Z" stroke="#2843CE" stroke-width="0.650651" stroke-miterlimit="10"/>
<path d="M567.159 430.698C565.462 428.345 564.449 425.569 564.231 422.677C564.012 419.785 564.598 416.888 565.923 414.308C566.297 415.425 566.928 416.438 567.765 417.266C568.603 418.095 569.623 418.714 570.744 419.076C571.865 419.437 573.055 419.53 574.218 419.347C575.382 419.163 576.486 418.709 577.441 418.021C578.397 417.333 579.178 416.429 579.72 415.384C580.262 414.339 580.552 413.18 580.564 412.003C580.577 410.825 580.312 409.661 579.792 408.604C579.272 407.548 578.511 406.628 577.57 405.92C580.335 405.5 583.163 405.825 585.761 406.861C588.359 407.897 590.635 409.606 592.353 411.813C594.072 414.02 595.172 416.645 595.539 419.418C595.907 422.191 595.529 425.011 594.445 427.59C593.361 430.168 591.61 432.412 589.371 434.089C587.133 435.766 584.488 436.816 581.709 437.132C578.929 437.448 576.116 437.018 573.558 435.886C571.001 434.755 568.79 432.962 567.155 430.692L567.159 430.698Z" stroke="#2843CE" stroke-width="0.650651" stroke-miterlimit="10"/>
<path d="M557.213 422.189L558.957 411.464L548.232 409.72L546.488 420.445L557.213 422.189Z" stroke="#2843CE" stroke-width="0.650651" stroke-miterlimit="10"/>
<path d="M519.743 384.568C518.955 381.247 520.812 377.279 523.952 375.226C526.679 373.446 530.595 372.983 533.37 374.698C535.835 376.217 536.618 378.941 537.293 381.414C539.346 388.94 543.864 400.135 542.486 401.127C541.108 402.12 529.195 393.316 524.86 390.392C522.677 388.942 520.391 387.349 519.743 384.568Z" stroke="#2843CE" stroke-width="0.650651" stroke-miterlimit="10"/>
<path d="M833.61 347.194C833.61 530.171 685.423 678.501 502.628 678.501C319.833 678.501 171.646 530.171 171.646 347.194C171.646 164.216 319.833 15.8859 502.628 15.8859C685.423 15.8859 833.61 164.216 833.61 347.194Z" stroke="#2843CE" stroke-width="2.35"/>
<path d="M439.036 16.5459V14.9908L451.943 12.0362V-86.3988H437.015V-88.7314L466.094 -93.3965L468.116 -91.2194V12.0362L481.178 14.9908V16.5459L439.036 16.5459ZM492.6 16.5459V10.6367C508.047 -3.56615 518.569 -13.8295 524.167 -20.1534C538.785 -36.7407 546.094 -52.7059 546.094 -68.0491C546.094 -75.4097 544.331 -81.0079 540.806 -84.8437C537.282 -88.6795 532.254 -90.5974 525.722 -90.5974C520.85 -90.5974 516.34 -89.0942 512.193 -86.0878V-70.6927C512.193 -67.5826 511.26 -65.0945 509.394 -63.2284C507.632 -61.3624 505.299 -60.4293 502.396 -60.4293C499.597 -60.4293 497.317 -61.2587 495.554 -62.9174C493.792 -64.6798 492.911 -67.1161 492.911 -70.2262C492.911 -76.6538 496.073 -82.0446 502.396 -86.3988C508.824 -90.7529 517.066 -92.93 527.122 -92.93C538.318 -92.93 547.027 -90.5974 553.247 -85.9323C559.467 -81.2671 562.577 -74.4248 562.577 -65.4055C562.577 -60.0147 561.333 -54.5201 558.845 -48.9219C556.461 -43.4274 553.558 -38.5031 550.137 -34.1489C546.819 -29.7948 542.258 -24.9741 536.452 -19.6869C530.75 -14.5034 525.67 -10.2011 521.213 -6.77993C516.755 -3.35881 511.053 0.839838 504.107 5.81602L555.89 5.81602L561.178 -8.4905H563.821V16.5459L492.6 16.5459Z" fill="#2843CE"/>
<path d="M285.176 92.1079L284.361 90.7834L293.806 81.5041L242.231 -2.33753L229.515 5.48435L228.293 3.49758L250.617 -15.7123L253.48 -14.9172L307.581 73.0304L320.255 68.7028L321.07 70.0274L285.176 92.1079ZM332.387 63.0655L331.573 61.7409L341.018 52.4617L289.442 -31.3799L276.727 -23.5581L275.505 -25.5448L297.829 -44.7547L300.692 -43.9596L354.793 43.988L367.467 39.6604L368.282 40.9849L332.387 63.0655Z" fill="#B11818"/>
<path d="M181.707 251.04L180.312 250.352L183.372 237.47L95.0917 193.926L88.488 207.315L86.396 206.283L95.0757 178.14L97.9224 177.29L190.526 222.965L198.954 212.557L200.349 213.245L181.707 251.04ZM157.552 176.974C142.49 169.545 132.215 160.026 126.728 148.419C121.286 136.718 121.408 125.104 127.095 113.575C132.782 102.046 141.9 94.9257 154.45 92.215C167.045 89.4112 180.874 91.7239 195.936 99.1532C211.091 106.628 221.389 116.216 226.831 127.916C232.226 139.478 232.08 151.023 226.393 162.552C220.661 174.174 211.566 181.364 199.109 184.12C186.559 186.831 172.707 184.449 157.552 176.974ZM165.119 161.633C180.46 169.2 193.276 172.862 203.567 172.621C213.859 172.38 220.77 168.68 224.301 161.52C227.786 154.454 226.493 146.765 220.421 138.453C214.394 130.047 203.71 122.061 188.369 114.494C173.121 106.973 160.329 103.38 149.991 103.714C139.607 103.91 132.672 107.54 129.187 114.606C125.656 121.766 126.973 129.524 133.138 137.883C139.211 146.195 149.871 154.112 165.119 161.633Z" fill="#2843CE"/>
<path d="M283.152 730.787L269.124 722.739C273.716 714.736 279.54 707.5 286.598 701.032C293.746 694.615 300.486 689.637 306.818 686.099C313.203 682.471 321.003 678.042 330.219 672.811C339.576 667.542 347.28 662.759 353.331 658.462L306.527 631.61L294.012 640.923L291.854 639.685L304.545 617.564L364.433 651.923L363.272 653.947C358.378 658.31 349.223 665.727 335.806 676.196C322.479 686.717 311.752 696.041 303.624 704.166C295.496 712.292 288.672 721.166 283.152 730.787Z" fill="#B11818"/>
<path d="M172.802 492.083C162.943 497.605 158.701 507.11 160.077 520.599C153.615 515.425 147.542 512.113 141.857 510.663C136.173 509.212 130.03 510.336 123.427 514.035C115.286 518.594 110.299 525.071 108.466 533.465C106.672 541.718 109.042 551.679 115.578 563.347C121.454 573.839 127.942 580.542 135.041 583.458C142.23 586.323 149.398 585.755 156.543 581.752C162.784 578.257 166.746 573.661 168.428 567.966C170.2 562.221 170.63 555.563 169.718 547.994C175.019 552.155 180.153 554.745 185.121 555.765C190.128 556.644 195.707 555.361 201.858 551.916C209.546 547.609 214.419 541.672 216.477 534.103C218.626 526.483 216.813 517.517 211.037 507.206C205.921 498.07 199.965 492.316 193.17 489.943C186.465 487.52 179.676 488.233 172.802 492.083ZM159.264 538.877C163.284 542.448 165.683 544.61 166.461 545.362C166.429 550.609 165.388 555.113 163.336 558.876C161.285 562.639 157.365 566.142 151.577 569.384C136.472 577.845 124.967 575.02 117.064 560.91C113.164 553.945 111.888 547.53 113.237 541.665C114.676 535.749 118.607 530.993 125.029 527.396C131.089 524.002 136.393 523.289 140.941 525.257C145.58 527.174 151.688 531.714 159.264 538.877ZM169 528.256C168.323 527.684 166.798 526.34 164.425 524.224C164.902 519.56 166.177 515.578 168.25 512.278C170.323 508.978 173.666 506.036 178.279 503.453C185.062 499.653 191.15 498.323 196.541 499.462C201.972 500.461 206.283 503.809 209.475 509.507C212.666 515.205 213.481 520.69 211.918 525.962C210.355 531.234 206.815 535.415 201.298 538.505C195.871 541.545 190.889 542.196 186.352 540.46C181.905 538.673 176.121 534.605 169 528.256Z" fill="#2843CE"/>
<path d="M120.026 327.674C125.625 333.48 128.424 341.255 128.424 351C128.424 361.782 125.521 370.49 119.715 377.125C113.91 383.656 105.979 386.922 95.9231 386.922C85.6597 386.922 77.4698 383.5 71.3532 376.658C65.133 369.712 62.0229 360.641 62.0229 349.445C62.0229 336.693 66.1697 327.052 74.4633 320.521C82.6533 313.989 94.368 310.724 109.608 310.724C148.484 310.724 169.374 332.495 172.276 376.036L170.721 377.591C169.374 368.572 167.248 360.9 164.346 354.576C161.339 348.253 157.607 343.276 153.149 339.648C148.588 335.916 143.715 333.168 138.532 331.406C133.244 329.54 127.076 328.296 120.026 327.674ZM112.718 327.207C97.8928 327.207 86.1262 328.97 77.4179 332.495C68.7096 336.019 64.3554 341.514 64.3554 348.978C64.3554 355.613 67.2582 360.952 73.0638 364.995C78.8693 368.935 86.5927 370.905 96.2341 370.905C105.461 370.905 112.614 368.779 117.694 364.529C122.774 360.278 125.314 354.887 125.314 348.356C125.314 343.587 124.173 339.337 121.893 335.605C119.612 331.873 116.553 329.074 112.718 327.207Z" fill="#2843CE"/>
<path d="M480.938 731.643C486.64 725.941 494.623 723.09 504.886 723.09C515.668 723.09 524.376 726.096 531.011 732.109C537.646 738.122 540.964 746.156 540.964 756.212C540.964 766.476 537.594 774.614 530.856 780.627C524.221 786.64 515.357 789.646 504.264 789.646C491.305 789.646 481.405 785.344 474.563 776.739C467.72 768.135 464.299 756.212 464.299 740.973C464.299 721.898 469.742 707.28 480.627 697.12C491.513 686.961 507.063 681 527.279 679.237L528.834 680.792C512.765 684.006 501.051 689.915 493.69 698.52C486.329 707.021 482.079 718.062 480.938 731.643ZM480.783 738.951C480.783 753.465 482.649 765.18 486.381 774.096C490.217 782.908 495.867 787.314 503.331 787.314C509.759 787.314 514.891 784.514 518.726 778.916C522.562 773.318 524.48 765.75 524.48 756.212C524.48 746.778 522.355 739.418 518.104 734.131C513.854 728.844 508.411 726.2 501.776 726.2C497.111 726.2 492.861 727.392 489.025 729.777C485.293 732.057 482.545 735.116 480.783 738.951Z" fill="#2843CE"/>
<path d="M514.571 324.933V316.548H525.031V306.557H516.957L520.834 299.264C521.141 298.92 521.412 298.548 521.644 298.154C522.652 296.382 523.161 294.393 523.122 292.38C523.122 289.069 521.886 286.179 520.088 284.808C519.504 284.327 518.783 284.021 518.016 283.927C517.883 283.918 517.75 283.918 517.617 283.927C514.584 283.927 512.119 287.723 512.119 292.405C512.119 295.742 513.374 298.607 515.192 300.008C515.834 300.531 516.641 300.836 517.486 300.877C516.02 301.584 514.465 302.111 512.858 302.446C511.395 302.761 509.899 302.919 508.399 302.917C497.815 302.917 489.238 295.283 489.238 285.862C489.238 276.442 497.815 268.814 508.399 268.814C510.165 268.814 511.924 269.035 513.629 269.471L513.688 269.378L513.838 269.527C513.771 269.502 513.701 269.483 513.629 269.471C512.585 271.272 512.055 273.301 512.093 275.357C512.093 280.039 514.558 283.834 517.591 283.834C517.724 283.844 517.857 283.844 517.99 283.834C518.708 283.747 519.387 283.472 519.951 283.04C521.808 281.682 523.096 278.761 523.096 275.381C523.096 275.245 523.096 275.108 523.096 274.972C523.004 272.051 521.958 269.521 520.428 268.113L518.885 265.124L523.527 261.353L518.905 255.083L525.116 251.982L514.76 250.99C514.76 250.99 517.839 235.2 513.512 228.043C513.479 227.981 513.433 227.907 513.394 227.845L520.186 222.995L519.637 220.831L524.822 218.009C511.688 217.308 501.247 206.021 501.247 192.197C501.247 179.658 509.831 169.208 521.219 166.845V163.384H516.244V158.336H509.275V116.077H518.428C518.428 116.077 508.34 102.638 508.092 87.4996C507.844 72.3612 508.092 38.1338 508.092 38.1338H504.294C504.294 38.1338 504.542 72.3674 504.294 87.4996C504.045 102.632 493.958 116.077 493.958 116.077H502.973V139.818C502.973 149.039 501.3 153.393 500.162 155.278C499.906 155.751 499.57 156.18 499.168 156.55C493.781 163.756 490.284 175.403 490.284 188.538C490.217 195.487 491.255 202.405 493.363 209.06L485.655 208.037L489.212 216.769L479.484 221.631L485.446 225.005C483.145 232.744 491.513 241.576 491.513 241.576L478.229 267.573L484.276 266.873L487.061 274.308C485.224 277.795 484.279 281.642 484.302 285.54C484.263 289.944 485.478 294.276 487.819 298.08L492.167 306.557H484.76V316.53H495.22V324.915C489.973 327.031 485.658 330.803 483.005 335.591C480.353 340.379 479.526 345.89 480.665 351.19C481.804 356.49 484.838 361.254 489.254 364.675C493.67 368.097 499.197 369.966 504.898 369.966C510.6 369.966 516.127 368.097 520.543 364.675C524.959 361.254 527.993 356.49 529.132 351.19C530.27 345.89 529.444 340.379 526.791 335.591C524.139 330.803 519.824 327.031 514.577 324.915L514.571 324.933ZM488.734 256.944L496.083 241.96L497.39 239.318C496.502 238.714 495.765 237.93 495.233 237.024C494.701 236.119 494.386 235.112 494.311 234.078C494.153 232.26 494.761 230.456 496 229.062C497.24 227.667 499.011 226.795 500.927 226.636C502.049 226.561 503.175 226.741 504.21 227.159C505.245 227.577 506.161 228.223 506.883 229.042C511.138 232.825 512.184 239.889 508.975 246.562C505.013 254.798 495.945 259.523 488.885 257.018L488.734 256.944ZM504.889 357.257C502.648 357.252 500.459 356.617 498.599 355.432C496.739 354.247 495.291 352.566 494.438 350.601C493.585 348.635 493.366 346.474 493.808 344.39C494.249 342.307 495.332 340.394 496.92 338.894C498.507 337.394 500.528 336.375 502.726 335.964C504.924 335.553 507.202 335.77 509.27 336.587C511.338 337.404 513.105 338.785 514.346 340.554C515.588 342.324 516.248 344.402 516.244 346.528C516.245 347.941 515.952 349.341 515.381 350.646C514.81 351.952 513.973 353.138 512.918 354.136C511.863 355.134 510.611 355.924 509.233 356.462C507.855 357 506.379 357.274 504.889 357.269V357.257Z" fill="#2843CE"/>
<circle cx="502.953" cy="347.193" r="14.965" fill="white"/>
<rect width="16.9169" height="16.9169" transform="matrix(-0.0468979 0.9989 0.9989 0.0468979 228.761 65.7002)" fill="#2843CE"/>
<rect width="16.9169" height="16.9169" transform="matrix(0.707107 0.707107 0.707107 -0.707107 122.939 268.681)" fill="#2843CE"/>
<rect width="16.9169" height="16.9169" transform="matrix(0.854729 0.519075 0.519075 -0.854729 123.315 452.435)" fill="#2843CE"/>
<rect width="16.9169" height="16.9169" transform="matrix(0.540111 -0.841594 -0.841594 -0.540111 616.113 721.03)" fill="#2843CE"/>
<rect x="385.238" y="721.03" width="16.9169" height="16.9169" transform="rotate(-122.691 385.238 721.03)" fill="#2843CE"/>
<rect x="228.76" y="629.075" width="16.9169" height="16.9169" transform="rotate(-92.688 228.76 629.075)" fill="#2843CE"/>
<path d="M236.524 160.052L259.089 165.773L260.806 164.502L261.062 164.694L256.426 170.857L256.17 170.665L256.954 168.611L250.147 166.855L244.338 174.578L247.836 180.733L250.015 178.848L250.271 179.04L246.847 183.592L246.591 183.4L247.413 181.296L235.89 160.896L236.524 160.052ZM238.164 163.728L243.974 173.944L249.437 166.681L238.164 163.728Z" fill="#AC1D1D"/>
<path d="M261.231 164.058L262.019 162.204L251.281 152.998L249.57 154.06L249.327 153.852L253.826 148.604L254.069 148.812L253.447 150.471L258.403 154.721L263.465 148.817L258.509 144.568L256.964 145.436L256.721 145.227L261.22 139.98L261.463 140.188L260.675 142.042L271.413 151.248L273.124 150.186L273.367 150.394L268.868 155.642L268.625 155.433L269.246 153.774L263.975 149.255L258.913 155.158L264.185 159.678L265.73 158.81L265.973 159.018L261.474 164.266L261.231 164.058Z" fill="#AC1D1D"/>
<path d="M284.94 138.205L275.872 147.687L278.064 151.599L277.578 152.108L274.016 148.702L275.365 147.291C275.568 146.894 275.517 146.33 275.214 145.597C274.91 144.834 274.386 144.009 273.642 143.12L266.986 134.94L265.313 135.996L265.104 135.797L274.636 125.829L274.845 126.028L273.864 127.747L284.411 137.832L285.892 136.282L289.454 139.688L288.967 140.197L284.94 138.205ZM267.314 134.412L274.06 142.545C275.455 144.234 276.119 145.577 276.051 146.574L282.111 140.237L271.472 130.064L267.314 134.412Z" fill="#AC1D1D"/>
<path d="M291.041 141.033L290.821 140.801L291.799 139.04L277.775 124.203L276.093 125.22L275.852 124.964L279.011 121.273L279.622 121.312L280.761 122.657L280.896 122.661C280.909 120.624 281.674 118.888 283.194 117.451C284.697 116.03 286.313 115.472 288.04 115.777C289.782 116.067 291.466 117.073 293.093 118.794C294.954 120.763 295.902 122.759 295.935 124.782C295.954 126.79 295.072 128.636 293.289 130.321C292.251 131.303 291.146 131.951 289.975 132.265L294.218 136.754L296.728 135.217L296.948 135.45L291.041 141.033ZM281.38 123.173L289.645 131.917C290.832 131.588 291.789 131.079 292.518 130.39C293.681 129.291 294.125 127.976 293.851 126.444C293.578 124.882 292.621 123.233 290.98 121.496C289.5 119.93 288.018 118.953 286.535 118.564C285.037 118.16 283.792 118.427 282.8 119.365C281.761 120.346 281.288 121.616 281.38 123.173Z" fill="#AC1D1D"/>
<path d="M307.393 106.927L298.887 114.163C300.366 115.901 301.911 116.911 303.523 117.193C305.121 117.458 306.7 116.927 308.26 115.6C309.69 114.384 310.476 112.888 310.619 111.114L311.136 111.179C310.947 113.524 309.853 115.547 307.854 117.247C305.807 118.989 303.77 119.755 301.744 119.546C299.718 119.337 297.937 118.331 296.403 116.527C294.772 114.61 294.034 112.591 294.19 110.469C294.363 108.334 295.343 106.506 297.13 104.986C298.722 103.631 300.418 102.974 302.215 103.013C304.013 103.052 305.527 103.795 306.757 105.241C307.089 105.631 307.325 105.99 307.465 106.319L307.393 106.927ZM297.538 105.269C296.58 106.084 296.152 107.26 296.255 108.797C296.344 110.318 297.118 111.984 298.576 113.797L304.748 107.916C303.324 106.243 301.994 105.189 300.758 104.757C299.522 104.324 298.448 104.495 297.538 105.269Z" fill="#AC1D1D"/>
<path d="M311.234 90.2301L310.067 88.7052C309.743 88.2816 309.603 87.852 309.645 87.4163C309.705 86.9678 309.938 86.5879 310.345 86.2768C310.735 85.9787 311.145 85.866 311.577 85.9386C311.996 85.9944 312.347 86.2086 312.633 86.5814C313.203 87.3269 313.203 88.24 312.633 89.3207C312.08 90.3884 311.287 91.3176 310.253 92.1084C309.626 92.588 308.95 92.9848 308.223 93.299C307.496 93.6131 306.753 93.7653 305.994 93.7555C305.238 93.7158 304.666 93.4418 304.277 92.9334C303.992 92.5607 303.877 92.165 303.933 91.7463C304.005 91.3146 304.237 90.9497 304.626 90.6516C305.016 90.3535 305.427 90.2407 305.858 90.3134C306.307 90.3731 306.693 90.6148 307.017 91.0384L308.184 92.5633C308.814 92.4037 309.4 92.1165 309.942 91.7017C310.484 91.2869 310.915 90.7964 311.234 90.2301ZM313.659 111.622L314.814 109.973L306.22 98.7392L304.326 99.4229L304.132 99.1687L309.647 94.9495L309.841 95.2036L308.864 96.717L314.677 104.316L316.098 106.332L316.233 106.35L315.415 92.4303L315.065 91.9728L313.349 92.5204L313.154 92.2663L318.669 88.047L318.864 88.3012L317.708 89.9507L326.302 101.184L328.197 100.501L328.391 100.755L322.876 104.974L322.681 104.72L323.659 103.206L317.845 95.6072L316.425 93.5919L316.29 93.574L317.108 107.493L317.458 107.951L319.174 107.403L319.369 107.657L313.853 111.876L313.659 111.622Z" fill="#AC1D1D"/>
<path d="M338.906 77.1188L338.159 75.9631C338.034 75.9673 337.918 76.0041 337.811 76.0736C337.112 76.5251 337.039 77.5123 337.591 79.035L338.189 80.6679C338.645 81.923 338.549 83.0518 337.901 84.0545L338.385 83.7418C339.854 82.7924 341.083 82.3158 342.071 82.3122C343.059 82.3085 344.021 82.7542 344.955 83.6493L346.18 84.8384C346.898 85.5173 347.457 85.9691 347.856 86.1938C348.255 86.4184 348.625 86.4207 348.966 86.2007C349.234 86.0271 349.439 85.7548 349.581 85.384L349.917 85.4332C349.734 86.2886 349.113 87.0579 348.056 87.7411C347.214 88.2853 346.475 88.4582 345.838 88.2597C345.191 88.0434 344.429 87.5325 343.553 86.727L342.117 85.3307C341.346 84.6096 340.624 84.1999 339.951 84.1015C339.278 84.0031 338.475 84.255 337.544 84.8571L336.173 85.7429L339.994 91.6557L341.856 91.1763L342.029 91.4451L336.09 95.2835L335.916 95.0147L337.199 93.462L329.522 81.5826L327.579 82.1141L327.406 81.8453L333.426 77.9548L333.6 78.2236L332.317 79.7763L335.895 85.3129C336.737 84.7686 337.3 84.1258 337.582 83.3842C337.871 82.6132 337.877 81.8351 337.598 81.05L336.99 79.4614C336.169 77.3253 336.537 75.7536 338.096 74.7462C338.777 74.3062 339.455 74.097 340.129 74.1184C340.803 74.1399 341.36 74.491 341.8 75.1719C342.125 75.6736 342.239 76.1457 342.144 76.5881C342.055 77.0011 341.796 77.3465 341.366 77.6244C340.918 77.9139 340.464 78.0169 340.003 77.9334C339.561 77.8383 339.195 77.5668 338.906 77.1188Z" fill="#AC1D1D"/>
<path d="M352.493 82.3965C350.466 81.8584 348.84 80.5148 347.613 78.3656C346.386 76.2164 346.056 74.1324 346.624 72.1137C347.18 70.0765 348.505 68.4604 350.599 67.2654C352.674 66.0809 354.73 65.767 356.767 66.3236C358.805 66.8803 360.431 68.2239 361.648 70.3546C362.874 72.5038 363.204 74.5877 362.637 76.6064C362.088 78.6145 360.767 80.2161 358.673 81.4111C356.58 82.6062 354.52 82.9346 352.493 82.3965ZM350.587 76.6682C351.803 78.7988 353.109 80.227 354.506 80.9527C355.903 81.6784 357.213 81.6922 358.435 80.9942C359.677 80.2857 360.331 79.1508 360.398 77.5897C360.483 76.0179 359.918 74.1667 358.702 72.0361C357.475 69.8869 356.163 68.4495 354.766 67.7238C353.388 66.9875 352.078 66.9737 350.837 67.6822C349.614 68.3802 348.96 69.5151 348.875 71.0868C348.789 72.6585 349.36 74.519 350.587 76.6682Z" fill="#AC1D1D"/>
<path d="M367.855 75.6248L369.309 74.2313L363.062 61.5417L361.071 61.8442L360.93 61.5571L367.131 58.5043L367.272 58.7913L366.048 60.0718L368.931 65.9285L375.908 62.4941L373.024 56.6373L371.263 56.8268L371.121 56.5397L377.323 53.4868L377.464 53.7739L376.01 55.1674L382.257 67.857L384.248 67.5545L384.39 67.8416L378.188 70.8945L378.047 70.6074L379.271 69.3269L376.204 63.097L369.228 66.5314L372.295 72.7614L374.056 72.5719L374.198 72.859L367.996 75.9119L367.855 75.6248Z" fill="#AC1D1D"/>
<path d="M390.001 52.3459L388.928 49.8116C387.886 49.6502 386.943 49.7483 386.098 50.1059C384.723 50.6881 383.896 51.7447 383.618 53.2758C383.351 54.7789 383.646 56.5421 384.502 58.5656C385.45 60.8052 386.648 62.3483 388.096 63.1951C389.543 64.0418 391.17 64.0826 392.978 63.3174C394.687 62.5938 395.881 61.3932 396.561 59.7154L397.035 59.9318C396.151 62.1129 394.521 63.7066 392.144 64.713C389.727 65.736 387.598 65.8498 385.755 65.0546C383.924 64.2313 382.526 62.6803 381.561 60.4014C380.572 58.0637 380.442 55.9524 381.173 54.0676C381.896 52.1631 383.456 50.7035 385.852 49.6888C387.522 48.9819 389.122 48.7102 390.65 48.8738C392.171 49.0178 393.18 49.6791 393.68 50.8578C393.937 51.4668 393.97 52.009 393.777 52.4844C393.576 52.9401 393.201 53.2844 392.651 53.5173C392.101 53.7502 391.584 53.7605 391.1 53.5483C390.617 53.336 390.25 52.9352 390.001 52.3459Z" fill="#AC1D1D"/>
<path d="M409.143 41.5952L405.011 43.0618L409.839 56.6623L411.852 56.5929L411.959 56.8945L405.204 59.2924L405.097 58.9909L406.703 57.7756L401.875 44.1751L397.744 45.6417L397.761 48.6575L397.279 48.8288L396.112 45.5418L410.376 40.4782L411.543 43.7652L411.03 43.9472L409.143 41.5952Z" fill="#AC1D1D"/>
<path d="M426.992 50.1532L426.873 50.0879C425.769 51.9426 424.142 53.1831 421.991 53.8094C420.598 54.215 419.461 54.2018 418.58 53.7696C417.719 53.3315 417.127 52.5594 416.805 51.4534C416.477 50.3268 416.645 49.3004 417.308 48.3739C417.992 47.4415 418.803 46.7165 419.741 46.1989C420.673 45.6608 422.309 44.8291 424.647 43.7036C424.682 43.6712 424.71 43.652 424.73 43.6461C424.771 43.6341 424.812 43.6222 424.853 43.6103C424.888 43.5779 424.926 43.5557 424.967 43.5438L424.126 40.6557C423.81 39.5702 423.27 38.7832 422.505 38.2948C421.762 37.8004 420.888 37.6993 419.884 37.9916C419.065 38.2302 418.376 38.6864 417.816 39.3604L418.541 41.849C418.72 42.4634 418.689 43.0057 418.448 43.4758C418.207 43.9459 417.81 44.2615 417.257 44.4225C416.725 44.5776 416.237 44.542 415.793 44.3157C415.344 44.0689 415.029 43.6382 414.85 43.0238C414.516 41.8768 414.845 40.7923 415.836 39.7704C416.842 38.7221 418.164 37.9593 419.802 37.4821C421.789 36.9035 423.464 36.8936 424.826 37.4522C426.203 37.9844 427.092 38.9366 427.491 40.309L430.22 49.6797C430.37 50.1918 430.69 50.3762 431.181 50.233C431.632 50.1018 431.937 49.8907 432.097 49.5998L432.375 49.7523C431.983 50.4663 431.131 51.0143 429.82 51.396C428.448 51.7957 427.505 51.3814 426.992 50.1532ZM426.667 49.3813L425.101 44.0046L425.071 44.0136L425.04 44.0225L425.009 44.0315L424.988 44.0711L424.957 44.0801L424.926 44.089L424.895 44.098L424.865 44.1069L424.834 44.1159C422.565 45.1765 421.147 45.9896 420.578 46.5551C419.715 47.4064 419.504 48.5898 419.946 50.1055C420.22 51.0477 420.654 51.699 421.248 52.0594C421.842 52.4197 422.538 52.4836 423.337 52.2509C424.791 51.8274 425.901 50.8709 426.667 49.3813Z" fill="#AC1D1D"/>
<path d="M433.881 49.7536L435.623 48.7416L432.539 34.9379L430.532 34.7631L430.463 34.4508L437.208 32.9438L437.278 33.2561L435.787 34.2123L437.21 40.5833L444.799 38.8879L443.376 32.5169L441.619 32.2863L441.549 31.974L448.295 30.4671L448.365 30.7794L446.624 31.7913L449.707 45.5951L451.714 45.7698L451.783 46.0821L445.038 47.5891L444.968 47.2768L446.459 46.3207L444.945 39.5437L437.356 41.2391L438.87 48.016L440.627 48.2466L440.697 48.5589L433.951 50.0659L433.881 49.7536Z" fill="#AC1D1D"/>
<path d="M465.604 28.2878L461.272 28.9621L463.492 43.2224L465.483 43.5278L465.532 43.844L458.449 44.9464L458.4 44.6303L460.204 43.7342L457.984 29.4739L453.652 30.1481L453.11 33.1148L452.604 33.1936L452.068 29.7471L467.024 27.4192L467.56 30.8657L467.023 30.9494L465.604 28.2878Z" fill="#AC1D1D"/>
<path d="M470.906 42.6365L472.762 41.8551L471.465 27.7706L469.498 27.3413L469.468 27.0226L476.383 26.3859L476.413 26.7045L474.779 27.4655L475.657 36.9932L475.787 39.4556L475.892 39.5424L482.607 27.3231L482.555 26.7495L480.81 26.2996L480.781 25.981L487.695 25.3442L487.725 25.6629L485.869 26.4444L487.165 40.5288L489.133 40.9582L489.162 41.2768L482.248 41.9136L482.218 41.5949L483.851 40.834L482.974 31.3063L482.844 28.8438L482.739 28.757L476.024 40.9763L476.076 41.5499L477.821 41.9998L477.85 42.3185L470.936 42.9552L470.906 42.6365Z" fill="#AC1D1D"/>
<path d="M488.828 40.905L490.73 40.2428L490.328 26.1045L488.392 25.5512L488.383 25.2313L495.292 25.0353L495.301 25.3551L493.655 26.0101L493.84 32.5355L501.613 32.3149L501.428 25.7895L499.747 25.229L499.738 24.9091L506.647 24.713L506.656 25.0329L504.754 25.6951L505.156 39.8334L507.092 40.3867L507.101 40.7066L500.192 40.9027L500.183 40.5828L501.829 39.9278L501.632 32.9866L493.859 33.2072L494.056 40.1484L495.737 40.709L495.746 41.0288L488.837 41.2249L488.828 40.905Z" fill="#AC1D1D"/>
<path d="M511.818 38.6992C510.378 37.175 509.702 35.1764 509.79 32.7033C509.878 30.2302 510.694 28.2847 512.238 26.8666C513.784 25.4273 515.761 24.7504 518.17 24.836C520.558 24.9209 522.472 25.7361 523.911 27.2815C525.35 28.8269 526.027 30.8255 525.939 33.2773C525.852 35.7504 525.035 37.696 523.491 39.114C521.967 40.5328 520.001 41.1994 517.592 41.1138C515.183 41.0281 513.258 40.2233 511.818 38.6992ZM513.211 32.8249C513.124 35.2767 513.484 37.1787 514.289 38.5308C515.095 39.883 516.202 40.5841 517.609 40.6341C519.037 40.6848 520.191 40.0641 521.069 38.7718C521.969 37.4803 522.462 35.6086 522.55 33.1568C522.637 30.6837 522.278 28.7711 521.473 27.419C520.688 26.0676 519.582 25.3665 518.153 25.3157C516.746 25.2657 515.593 25.8865 514.693 27.178C513.793 28.4695 513.299 30.3518 513.211 32.8249Z" fill="#AC1D1D"/>
<path d="M529.89 25.4351L539.383 26.3413C540.975 26.4933 542.227 26.9664 543.137 27.7604C544.047 28.5545 544.444 29.5568 544.328 30.7673C544.233 31.7654 543.813 32.5718 543.069 33.1865C542.326 33.78 541.361 34.1272 540.173 34.228C541.577 34.555 542.649 35.118 543.387 35.9171C544.148 36.697 544.478 37.6178 544.377 38.6797C544.253 39.9751 543.593 40.9408 542.397 41.5766C541.221 42.2145 539.71 42.4452 537.862 42.2689L528.369 41.3627L528.394 41.1079L530.354 40.7806L531.728 26.3821L529.862 25.7218L529.89 25.4351ZM537.597 34.2715L534.348 33.9613L533.648 41.288L536.898 41.5982C538.044 41.7076 538.976 41.4859 539.693 40.9328C540.434 40.3606 540.861 39.4798 540.974 38.2906C541.088 37.1013 540.834 36.1663 540.213 35.4856C539.616 34.7856 538.744 34.3809 537.597 34.2715ZM534.406 33.3561L537.655 33.6662C538.568 33.7534 539.317 33.5356 539.903 33.0129C540.491 32.469 540.837 31.6448 540.943 30.5405C541.048 29.4362 540.863 28.572 540.386 27.9479C539.912 27.3026 539.219 26.9364 538.305 26.8492L535.056 26.539L534.406 33.3561Z" fill="#AC1D1D"/>
<path d="M329.421 594.401L337.609 599.29C338.982 600.111 339.91 601.075 340.392 602.182C340.873 603.29 340.802 604.365 340.179 605.409C339.665 606.27 338.94 606.819 338.004 607.055C337.078 607.273 336.057 607.172 334.941 606.754C336.069 607.652 336.796 608.62 337.12 609.658C337.473 610.689 337.377 611.662 336.83 612.578C336.163 613.696 335.152 614.285 333.799 614.346C332.463 614.419 330.999 613.979 329.406 613.027L321.218 608.138L321.349 607.918L323.26 608.463L330.676 596.045L329.274 594.648L329.421 594.401ZM332.595 605.689L329.793 604.015L326.019 610.334L328.822 612.008C329.811 612.598 330.748 612.798 331.633 612.606C332.547 612.406 333.31 611.794 333.923 610.768C334.535 609.742 334.707 608.789 334.438 607.908C334.199 607.019 333.584 606.279 332.595 605.689ZM330.104 603.493L332.907 605.167C333.694 605.637 334.465 605.762 335.218 605.541C335.982 605.301 336.649 604.705 337.217 603.753C337.786 602.8 337.989 601.94 337.827 601.172C337.675 600.386 337.205 599.758 336.418 599.287L333.615 597.614L330.104 603.493Z" fill="#B11818"/>
<path d="M345.13 621.851L337.31 617.815L337.427 617.588L339.368 618.013L345.929 605.302L344.501 603.882L344.648 603.597L351.018 606.885L350.871 607.169L348.886 606.829L346.156 612.118L349.313 613.747C350.943 614.588 352.079 615.643 352.721 616.911C353.364 618.178 353.367 619.428 352.731 620.66C352.095 621.893 351.074 622.614 349.669 622.825C348.292 623.027 346.779 622.702 345.13 621.851ZM348.152 613.832L345.877 612.658L342.238 619.71L344.513 620.884C345.536 621.413 346.508 621.53 347.428 621.237C348.348 620.943 349.101 620.227 349.688 619.09C350.275 617.953 350.422 616.924 350.128 616.004C349.835 615.085 349.176 614.361 348.152 613.832ZM362.791 614.005L356.304 626.574L357.732 627.995L357.585 628.279L351.215 624.992L351.362 624.707L353.347 625.048L359.834 612.479L358.407 611.058L358.553 610.774L364.923 614.061L364.776 614.346L362.791 614.005Z" fill="#B11818"/>
<path d="M376.213 620.053L374.98 618.866L375.105 618.571L381.139 621.145L381.014 621.439L379.274 621.358L373.612 634.633L379.411 637.106L385.073 623.831L383.81 622.632L383.936 622.338L390.264 625.037L390.139 625.331L388.134 625.137L382.523 638.294L384.088 639.519L383.987 639.754L359.674 629.384L359.775 629.149L361.742 629.431L367.353 616.274L365.826 614.962L365.951 614.667L372.28 617.366L372.154 617.661L370.414 617.58L364.753 630.855L370.551 633.328L376.213 620.053Z" fill="#B11818"/>
<path d="M402.789 637.842L392.257 634.126C391.498 636.278 391.401 638.122 391.968 639.657C392.542 641.172 393.795 642.27 395.726 642.951C397.497 643.576 399.185 643.504 400.791 642.736L400.995 643.215C398.872 644.231 396.573 644.302 394.099 643.429C391.564 642.534 389.878 641.159 389.04 639.302C388.202 637.445 388.177 635.401 388.965 633.168C389.802 630.794 391.177 629.141 393.09 628.21C395.022 627.285 397.095 627.214 399.307 627.994C401.279 628.69 402.7 629.825 403.57 631.399C404.439 632.972 404.558 634.655 403.927 636.445C403.756 636.928 403.564 637.312 403.35 637.599L402.789 637.842ZM399.268 628.49C398.081 628.071 396.85 628.292 395.573 629.154C394.303 629.995 393.251 631.502 392.417 633.673L400.604 636.053C401.335 633.981 401.577 632.302 401.329 631.015C401.082 629.729 400.395 628.887 399.268 628.49Z" fill="#B11818"/>
<path d="M409.704 643.415L413.734 633.694L412.028 632.691L412.109 632.415L424.695 636.12L424.614 636.397L422.636 636.315L418.596 650.036L420.266 651.162L420.176 651.469L413.545 649.516L413.636 649.21L415.434 649.105L419.511 635.261L414.384 633.752L410.376 643.513C409.103 646.629 407.586 647.929 405.826 647.41C405.171 647.218 404.649 646.875 404.261 646.382C403.878 645.869 403.798 645.234 404.021 644.477C404.184 643.925 404.45 643.547 404.821 643.345C405.198 643.122 405.622 643.08 406.093 643.219C406.604 643.37 406.968 643.644 407.185 644.041C407.408 644.418 407.444 644.862 407.293 645.374L406.986 646.417C407.096 646.495 407.182 646.542 407.244 646.56C407.551 646.651 407.92 646.415 408.353 645.853C408.806 645.297 409.256 644.484 409.704 643.415Z" fill="#B11818"/>
<path d="M423.487 651.792C423.23 651.33 423.17 650.831 423.307 650.293C423.443 649.755 423.735 649.345 424.181 649.062C424.648 648.785 425.15 648.714 425.687 648.851C426.246 648.993 426.653 649.294 426.91 649.756C427.188 650.223 427.258 650.725 427.122 651.262C426.985 651.8 426.683 652.208 426.217 652.485C425.771 652.768 425.268 652.839 424.71 652.697C424.173 652.56 423.765 652.258 423.487 651.792ZM426.514 639.882C426.257 639.421 426.197 638.921 426.333 638.384C426.47 637.846 426.761 637.436 427.207 637.153C427.674 636.875 428.176 636.805 428.714 636.941C429.272 637.083 429.68 637.385 429.936 637.846C430.214 638.313 430.285 638.815 430.148 639.353C430.011 639.89 429.71 640.298 429.243 640.576C428.797 640.859 428.295 640.929 427.736 640.787C427.199 640.651 426.791 640.349 426.514 639.882Z" fill="#B11818"/>
<path d="M437.103 655.591L437.335 654.398C441.012 652.134 443.54 650.473 444.918 649.415C448.521 646.636 450.624 643.698 451.225 640.598C451.513 639.111 451.377 637.911 450.815 636.998C450.253 636.085 449.313 635.501 447.993 635.245C447.009 635.054 446.039 635.181 445.083 635.626L444.48 638.736C444.358 639.364 444.072 639.83 443.622 640.134C443.193 640.442 442.685 640.539 442.099 640.425C441.533 640.315 441.105 640.058 440.814 639.654C440.527 639.229 440.444 638.703 440.566 638.074C440.818 636.776 441.668 635.811 443.116 635.179C444.585 634.551 446.336 634.434 448.367 634.828C450.629 635.267 452.297 636.08 453.371 637.266C454.444 638.452 454.805 639.956 454.451 641.778C454.24 642.867 453.773 643.928 453.051 644.962C452.354 645.978 451.575 646.859 450.713 647.605C449.872 648.354 448.762 649.15 447.382 649.99C446.027 650.814 444.832 651.484 443.798 652C442.763 652.517 441.447 653.142 439.848 653.875L450.309 655.904L451.938 653.221L452.472 653.325L451.491 658.382L437.103 655.591Z" fill="#B11818"/>
<path d="M460.37 647.871C461.693 646.869 463.4 646.512 465.492 646.801C467.69 647.105 469.381 647.963 470.564 649.375C471.747 650.788 472.197 652.519 471.914 654.569C471.625 656.661 470.709 658.225 469.166 659.261C467.645 660.3 465.753 660.663 463.492 660.351C460.85 659.986 458.953 658.831 457.801 656.884C456.648 654.937 456.286 652.411 456.715 649.304C457.252 645.416 458.773 642.589 461.278 640.825C463.783 639.06 467.121 638.283 471.291 638.493L471.565 638.853C468.199 639.056 465.644 639.931 463.902 641.478C462.162 643.003 460.985 645.134 460.37 647.871ZM460.132 649.356C459.724 652.315 459.774 654.755 460.284 656.678C460.818 658.582 461.846 659.639 463.367 659.849C464.678 660.03 465.802 659.604 466.742 658.571C467.681 657.538 468.285 656.049 468.554 654.105C468.819 652.182 468.593 650.621 467.876 649.424C467.158 648.227 466.123 647.535 464.771 647.348C463.82 647.216 462.92 647.34 462.071 647.718C461.246 648.078 460.6 648.624 460.132 649.356Z" fill="#B11818"/>
<path d="M475.187 661.154C474.864 660.736 474.729 660.251 474.783 659.699C474.837 659.147 475.064 658.698 475.462 658.351C475.882 658.007 476.368 657.861 476.92 657.916C477.493 657.972 477.941 658.209 478.265 658.626C478.609 659.046 478.755 659.532 478.7 660.084C478.646 660.636 478.409 661.084 477.99 661.429C477.591 661.776 477.105 661.921 476.532 661.865C475.98 661.81 475.532 661.574 475.187 661.154Z" fill="#B11818"/>
<path d="M481.595 651.101C481.794 647.65 482.772 644.939 484.531 642.968C486.311 640.998 488.522 640.088 491.163 640.24C493.804 640.392 495.885 641.548 497.406 643.708C498.948 645.87 499.62 648.676 499.422 652.126C499.222 655.598 498.232 658.319 496.452 660.289C494.694 662.239 492.495 663.139 489.854 662.987C487.192 662.833 485.1 661.687 483.577 659.548C482.056 657.388 481.395 654.572 481.595 651.101ZM485.109 651.303C484.907 654.817 485.242 657.539 486.114 659.47C486.986 661.401 488.242 662.413 489.882 662.507C491.5 662.601 492.853 661.738 493.941 659.92C495.05 658.104 495.705 655.438 495.907 651.924C496.108 648.431 495.762 645.719 494.869 643.787C493.998 641.835 492.754 640.813 491.135 640.719C489.495 640.625 488.131 641.498 487.042 643.337C485.954 645.155 485.31 647.81 485.109 651.303Z" fill="#B11818"/>
<path d="M503.047 663.403L503.045 662.187C506.218 659.258 508.379 657.142 509.528 655.838C512.53 652.419 514.027 649.131 514.021 645.973C514.018 644.459 513.653 643.308 512.926 642.52C512.199 641.732 511.164 641.339 509.82 641.342C508.817 641.344 507.89 641.655 507.038 642.275L507.044 645.443C507.045 646.083 506.854 646.596 506.471 646.98C506.109 647.365 505.63 647.558 505.032 647.559C504.456 647.56 503.987 647.391 503.623 647.05C503.26 646.688 503.077 646.187 503.076 645.547C503.074 644.224 503.722 643.114 505.022 642.215C506.343 641.317 508.038 640.865 510.107 640.861C512.411 640.857 514.204 641.333 515.486 642.291C516.768 643.248 517.411 644.655 517.414 646.511C517.416 647.62 517.163 648.751 516.653 649.904C516.164 651.036 515.569 652.05 514.867 652.948C514.186 653.845 513.249 654.839 512.057 655.929C510.885 656.998 509.842 657.886 508.926 658.592C508.01 659.297 506.838 660.164 505.411 661.19L516.067 661.169L517.149 658.223L517.693 658.222L517.703 663.374L503.047 663.403Z" fill="#B11818"/>
<path d="M520.981 662.762C520.604 662.393 520.405 661.931 520.383 661.376C520.362 660.822 520.525 660.346 520.873 659.949C521.242 659.55 521.703 659.34 522.257 659.319C522.833 659.297 523.309 659.47 523.687 659.84C524.085 660.209 524.295 660.671 524.316 661.225C524.338 661.779 524.164 662.256 523.795 662.654C523.447 663.052 522.986 663.262 522.41 663.284C521.856 663.305 521.38 663.131 520.981 662.762Z" fill="#B11818"/>
<path d="M525.878 663.113L525.79 661.9C528.749 658.755 530.755 656.492 531.81 655.11C534.563 651.488 535.825 648.103 535.596 644.954C535.486 643.443 535.041 642.32 534.261 641.585C533.48 640.851 532.42 640.532 531.079 640.629C530.079 640.702 529.176 641.078 528.37 641.757L528.599 644.916C528.645 645.555 528.491 646.079 528.136 646.49C527.802 646.899 527.337 647.126 526.741 647.169C526.167 647.211 525.686 647.074 525.3 646.76C524.912 646.425 524.695 645.938 524.648 645.3C524.553 643.98 525.121 642.827 526.354 641.839C527.609 640.849 529.268 640.28 531.332 640.13C533.629 639.963 535.452 640.312 536.798 641.177C538.144 642.041 538.884 643.399 539.019 645.25C539.099 646.357 538.926 647.503 538.498 648.689C538.091 649.852 537.569 650.906 536.931 651.851C536.315 652.794 535.451 653.851 534.338 655.023C533.245 656.172 532.267 657.131 531.403 657.899C530.539 658.668 529.431 659.615 528.08 660.739L538.708 659.968L539.58 656.952L540.122 656.913L540.496 662.052L525.878 663.113Z" fill="#B11818"/>
<path d="M543.635 650.562C543.18 647.136 543.629 644.289 544.985 642.021C546.362 639.75 548.361 638.441 550.983 638.092C553.605 637.743 555.867 638.486 557.768 640.321C559.691 642.152 560.88 644.781 561.335 648.207C561.794 651.654 561.335 654.513 559.958 656.784C558.6 659.03 556.61 660.328 553.988 660.677C551.344 661.028 549.073 660.298 547.175 658.484C545.274 656.649 544.094 654.009 543.635 650.562ZM547.125 650.097C547.589 653.587 548.431 656.197 549.651 657.929C550.872 659.66 552.296 660.418 553.924 660.201C555.531 659.987 556.698 658.885 557.423 656.895C558.169 654.902 558.31 652.16 557.846 648.671C557.385 645.203 556.533 642.605 555.292 640.876C554.069 639.123 552.654 638.354 551.046 638.568C549.418 638.784 548.243 639.898 547.52 641.91C546.795 643.9 546.663 646.629 547.125 650.097Z" fill="#B11818"/>
<path d="M565.117 658.867L565.06 658.552L567.564 657.478L563.935 637.55L560.912 638.101L560.826 637.628L566.542 635.612L567.031 635.978L570.838 656.882L573.591 656.999L573.649 657.314L565.117 658.867Z" fill="#B11818"/>
<path d="M586.844 654.493L586.771 654.181L588.504 653.154L587.627 649.382L577.902 651.644L577.794 651.176C578.864 647.489 579.548 644.263 579.848 641.499C580.168 638.731 580.009 635.975 579.371 633.233L582.613 632.479C583.294 635.409 583.256 638.309 582.5 641.178C581.739 644.028 580.397 647.253 578.474 650.853L587.482 648.759L585.699 641.092L587.845 637.603L588.383 637.938L590.724 648.005L592.968 647.484L593.113 648.107L590.869 648.629L591.745 652.4L593.753 652.558L593.826 652.869L586.844 654.493Z" fill="#B11818"/>
</svg>
