<svg width="290" height="441" viewBox="0 0 290 441" fill="none" xmlns="http://www.w3.org/2000/svg">
<path d="M165.241 163.604C177.795 152.881 194.404 147.519 215.066 147.519C240.174 147.519 258.744 156.15 270.775 173.412C283.068 190.412 289.214 213.428 289.214 242.46C289.214 275.938 281.499 301.7 266.067 319.747C250.636 337.532 228.928 346.425 200.942 346.425C189.173 346.425 177.272 344.071 165.241 339.363V412.727L188.78 420.181V424.104H100.901V420.181L124.44 412.727V346.425L125.617 334.655L124.44 333.478C112.409 343.155 95.8007 347.994 74.6154 347.994C49.507 347.994 30.8064 339.494 18.5137 322.493C6.22107 305.231 0.0747335 282.084 0.0747335 253.053C0.0747335 219.575 7.79035 193.813 23.2216 175.766C38.9144 157.719 60.8842 148.696 89.1312 148.696C100.901 148.696 112.67 151.05 124.44 155.758V76.1167L100.901 71.0165V66.701L159.749 60.4239L165.241 65.9164V148.696L164.064 162.427L165.241 163.604ZM93.0544 337.794C105.086 337.794 115.547 333.871 124.44 326.024V161.642C114.763 157.196 105.478 154.973 96.5853 154.973C79.0617 154.973 65.5921 162.95 56.1764 178.904C46.7607 194.859 42.0529 217.875 42.0529 247.953C42.0529 275.677 46.4992 297.646 55.3918 313.862C64.5459 329.817 77.1001 337.794 93.0544 337.794ZM197.019 158.896C184.726 158.896 174.134 162.819 165.241 170.666V333.478C175.442 337.925 184.726 340.148 193.096 340.148C210.619 340.148 223.958 332.301 233.112 316.609C242.528 300.654 247.236 277.507 247.236 247.168C247.236 219.444 242.79 197.866 233.897 182.435C225.005 166.742 212.712 158.896 197.019 158.896Z" fill="#2843CE"/>
<mask id="mask0_128_7919" style="mask-type:alpha" maskUnits="userSpaceOnUse" x="145" y="355" width="87" height="86">
<circle cx="188.645" cy="397.978" r="42.6616" fill="#D9D9D9"/>
</mask>
<g mask="url(#mask0_128_7919)">
<path d="M165.241 163.604C177.795 152.881 194.404 147.519 215.066 147.519C240.174 147.519 258.744 156.15 270.775 173.412C283.068 190.412 289.214 213.428 289.214 242.46C289.214 275.938 281.499 301.7 266.067 319.747C250.636 337.532 228.928 346.425 200.942 346.425C189.173 346.425 177.272 344.071 165.241 339.363V412.727L188.78 420.181V424.104H100.901V420.181L124.44 412.727V346.425L125.617 334.655L124.44 333.478C112.409 343.155 95.8007 347.994 74.6154 347.994C49.507 347.994 30.8064 339.494 18.5137 322.493C6.22107 305.231 0.0747335 282.084 0.0747335 253.053C0.0747335 219.575 7.79035 193.813 23.2216 175.766C38.9144 157.719 60.8842 148.696 89.1312 148.696C100.901 148.696 112.67 151.05 124.44 155.758V76.1167L100.901 71.0165V66.701L159.749 60.4239L165.241 65.9164V148.696L164.064 162.427L165.241 163.604ZM93.0544 337.794C105.086 337.794 115.547 333.871 124.44 326.024V161.642C114.763 157.196 105.478 154.973 96.5853 154.973C79.0617 154.973 65.5921 162.95 56.1764 178.904C46.7607 194.859 42.0529 217.875 42.0529 247.953C42.0529 275.677 46.4992 297.646 55.3918 313.862C64.5459 329.817 77.1001 337.794 93.0544 337.794ZM197.019 158.896C184.726 158.896 174.134 162.819 165.241 170.666V333.478C175.442 337.925 184.726 340.148 193.096 340.148C210.619 340.148 223.958 332.301 233.112 316.609C242.528 300.654 247.236 277.507 247.236 247.168C247.236 219.444 242.79 197.866 233.897 182.435C225.005 166.742 212.712 158.896 197.019 158.896Z" fill="#B11818"/>
</g>
</svg>
