<svg width="538" height="2336" viewBox="0 0 538 2336" fill="none" xmlns="http://www.w3.org/2000/svg">
<path d="M427.069 248.266H27.8413V647.731H427.069V248.266Z" stroke="#2843CE" stroke-width="2.35253" stroke-miterlimit="10"/>
<path d="M-29.2954 209.717V56.7134H484.205V209.717" stroke="#2843CE" stroke-width="2.35253" stroke-miterlimit="10"/>
<path d="M-29.2954 56.6749C-15.1593 47.8719 -1.88816 37.749 10.3402 26.4419C70.0424 -28.7361 89.841 -98.3983 97.1937 -135.988H369.09C373.149 -101.195 387.395 -25.9005 448.361 29.8906C459.411 39.9908 471.43 48.9752 484.244 56.7132" stroke="#2843CE" stroke-width="2.35253" stroke-miterlimit="10"/>
<path d="M536.134 209.718H-81.2231V682.218H536.134V209.718Z" stroke="#2843CE" stroke-width="2.35253" stroke-miterlimit="10"/>
<path d="M-53.1147 682.217V727.394H506.953V682.217" stroke="#2843CE" stroke-width="2.35253" stroke-miterlimit="10"/>
<path d="M-20.9468 727.395V2295.22H475.819V727.395" stroke="#2843CE" stroke-width="2.35253" stroke-miterlimit="10"/>
<path d="M485.278 209.718V682.218" stroke="#2843CE" stroke-width="2.35253" stroke-miterlimit="10"/>
<path d="M516.987 209.718V682.218" stroke="#2843CE" stroke-width="2.35253" stroke-miterlimit="10"/>
<path d="M141.081 -21.2251C142.747 -21.2253 144.396 -20.8939 145.933 -20.2504C147.469 -19.6068 148.862 -18.6639 150.031 -17.4764C151.2 -16.289 152.121 -14.8808 152.741 -13.3338C153.361 -11.7867 153.667 -10.1317 153.642 -8.46518V3.87323H128.75V-8.84839C128.745 -10.4719 129.06 -12.0804 129.678 -13.5818C130.295 -15.0832 131.203 -16.4479 132.348 -17.5977C133.494 -18.7475 134.855 -19.6598 136.353 -20.2822C137.852 -20.9047 139.459 -21.2251 141.081 -21.2251V-21.2251Z" fill="white" stroke="#2843CE" stroke-width="2.35253" stroke-miterlimit="10"/>
<path d="M198.6 -21.225C200.263 -21.2202 201.908 -20.8851 203.44 -20.2393C204.972 -19.5934 206.361 -18.6497 207.526 -17.4628C208.691 -16.2758 209.608 -14.8693 210.226 -13.3248C210.843 -11.7803 211.148 -10.1284 211.123 -8.46512V3.8733H186.231V-8.84833C186.226 -10.4751 186.542 -12.0868 187.162 -13.5907C187.782 -15.0946 188.693 -16.461 189.843 -17.6113C190.992 -18.7616 192.358 -19.673 193.861 -20.2932C195.364 -20.9134 196.975 -21.2301 198.6 -21.225V-21.225Z" fill="white" stroke="#2843CE" stroke-width="2.35253" stroke-miterlimit="10"/>
<path d="M256.082 -21.2251C257.747 -21.2253 259.396 -20.8939 260.933 -20.2504C262.47 -19.6068 263.863 -18.6639 265.032 -17.4764C266.201 -16.289 267.122 -14.8808 267.742 -13.3338C268.362 -11.7867 268.668 -10.1317 268.642 -8.46518V3.87323H243.751V-8.84839C243.746 -10.4719 244.061 -12.0804 244.678 -13.5818C245.296 -15.0832 246.203 -16.4479 247.349 -17.5977C248.494 -18.7475 249.855 -19.6598 251.354 -20.2822C252.852 -20.9047 254.459 -21.2251 256.082 -21.2251V-21.2251Z" fill="white" stroke="#2843CE" stroke-width="2.35253" stroke-miterlimit="10"/>
<path d="M313.563 -21.2251C316.894 -21.2251 320.089 -19.9009 322.444 -17.5439C324.8 -15.1869 326.123 -11.9901 326.123 -8.65678V3.68163H301.232V-8.84839C301.226 -10.4719 301.542 -12.0804 302.159 -13.5818C302.777 -15.0832 303.684 -16.4479 304.83 -17.5977C305.975 -18.7475 307.336 -19.6598 308.835 -20.2822C310.333 -20.9047 311.94 -21.2251 313.563 -21.2251V-21.2251Z" fill="white" stroke="#2843CE" stroke-width="2.35253" stroke-miterlimit="10"/>
<path d="M15.8552 80.126C19.1666 80.1563 22.332 81.4938 24.6629 83.8476C26.9937 86.2013 28.3013 89.3808 28.3011 92.6943V176.343H3.40924V92.5028C3.4041 90.8696 3.72308 89.2516 4.34768 87.7426C4.97228 86.2337 5.89007 84.8638 7.04782 83.7125C8.20557 82.5612 9.58025 81.6513 11.0921 81.0357C12.604 80.42 14.223 80.1108 15.8552 80.126V80.126Z" fill="white" stroke="#2843CE" stroke-width="2.35253" stroke-miterlimit="10"/>
<path d="M62.7667 80.1255C66.0981 80.1255 69.293 81.4497 71.6486 83.8067C74.0042 86.1637 75.3276 89.3605 75.3276 92.6938V176.342H50.5123V92.5023C50.5021 89.2365 51.7862 86.0999 54.0833 83.7799C56.3804 81.4599 59.503 80.1458 62.7667 80.1255Z" fill="white" stroke="#2843CE" stroke-width="2.35253" stroke-miterlimit="10"/>
<path d="M109.832 80.1255C113.163 80.1255 116.358 81.4497 118.714 83.8067C121.07 86.1637 122.393 89.3605 122.393 92.6938V176.342H97.501V92.5023C97.496 90.8787 97.8112 89.2701 98.4287 87.7688C99.0461 86.2674 99.9536 84.9027 101.099 83.7529C102.245 82.6031 103.606 81.6908 105.104 81.0684C106.603 80.4459 108.21 80.1255 109.832 80.1255Z" fill="white" stroke="#2843CE" stroke-width="2.35253" stroke-miterlimit="10"/>
<path d="M156.858 80.1255C160.19 80.1255 163.385 81.4497 165.74 83.8067C168.096 86.1637 169.419 89.3605 169.419 92.6938V176.342H144.527V92.5023C144.522 90.8787 144.838 89.2701 145.455 87.7688C146.072 86.2674 146.98 84.9027 148.126 83.7529C149.271 82.6031 150.632 81.6908 152.131 81.0684C153.629 80.4459 155.236 80.1255 156.858 80.1255Z" fill="white" stroke="#2843CE" stroke-width="2.35253" stroke-miterlimit="10"/>
<path d="M203.846 80.1255C207.178 80.1255 210.372 81.4497 212.728 83.8067C215.084 86.1637 216.407 89.3605 216.407 92.6938V176.342H191.515V92.5023C191.51 90.8787 191.825 89.2701 192.443 87.7688C193.06 86.2674 193.968 84.9027 195.113 83.7529C196.259 82.6031 197.62 81.6908 199.118 81.0684C200.617 80.4459 202.224 80.1255 203.846 80.1255V80.1255Z" fill="white" stroke="#2843CE" stroke-width="2.35253" stroke-miterlimit="10"/>
<path d="M250.835 80.1255C254.166 80.1255 257.361 81.4497 259.716 83.8067C262.072 86.1637 263.395 89.3605 263.395 92.6938V176.342H238.503V92.5023C238.498 90.8787 238.814 89.2701 239.431 87.7688C240.049 86.2674 240.956 84.9027 242.102 83.7529C243.247 82.6031 244.608 81.6908 246.107 81.0684C247.605 80.4459 249.212 80.1255 250.835 80.1255V80.1255Z" fill="white" stroke="#2843CE" stroke-width="2.35253" stroke-miterlimit="10"/>
<path d="M297.823 80.1255C301.155 80.1255 304.35 81.4497 306.705 83.8067C309.061 86.1637 310.384 89.3605 310.384 92.6938V176.342H285.492V92.5023C285.487 90.8787 285.802 89.2701 286.42 87.7688C287.037 86.2674 287.945 84.9027 289.09 83.7529C290.236 82.6031 291.597 81.6908 293.096 81.0684C294.594 80.4459 296.201 80.1255 297.823 80.1255V80.1255Z" fill="white" stroke="#2843CE" stroke-width="2.35253" stroke-miterlimit="10"/>
<path d="M344.812 80.1255C348.143 80.1255 351.338 81.4497 353.693 83.8067C356.049 86.1637 357.372 89.3605 357.372 92.6938V176.342H332.481V92.5023C332.475 90.8787 332.791 89.2701 333.408 87.7688C334.026 86.2674 334.933 84.9027 336.079 83.7529C337.224 82.6031 338.585 81.6908 340.084 81.0684C341.582 80.4459 343.189 80.1255 344.812 80.1255V80.1255Z" fill="white" stroke="#2843CE" stroke-width="2.35253" stroke-miterlimit="10"/>
<path d="M391.838 80.1255C395.169 80.1255 398.364 81.4497 400.72 83.8067C403.075 86.1637 404.399 89.3605 404.399 92.6938V176.342H379.507V92.5023C379.507 89.2299 380.806 86.0916 383.119 83.7777C385.431 81.4638 388.568 80.1638 391.838 80.1638V80.1255Z" fill="white" stroke="#2843CE" stroke-width="2.35253" stroke-miterlimit="10"/>
<path d="M438.826 80.1255C442.157 80.1255 445.352 81.4497 447.708 83.8067C450.063 86.1637 451.387 89.3605 451.387 92.6938V176.342H426.571V92.5023C426.561 89.2365 427.845 86.0999 430.142 83.7799C432.439 81.4599 435.562 80.1458 438.826 80.1255Z" fill="white" stroke="#2843CE" stroke-width="2.35253" stroke-miterlimit="10"/>
<path d="M484.206 56.7133V-124.876H475.704V51.3487" stroke="#2843CE" stroke-width="2.35253" stroke-miterlimit="10"/>
<path d="M510.859 166.265V110.781" stroke="#2843CE" stroke-width="2.35253" stroke-miterlimit="10"/>
<path d="M510.859 68.4012V33.4551H519.322V68.4012" stroke="#2843CE" stroke-width="2.35253" stroke-miterlimit="10"/>
<path d="M519.323 166.304V110.781" stroke="#2843CE" stroke-width="2.35253" stroke-miterlimit="10"/>
<path d="M528.59 166.303H501.554V209.717H528.59V166.303Z" stroke="#2843CE" stroke-width="2.35253" stroke-miterlimit="10"/>
<path d="M536.824 89.5902C536.813 94.5927 535.072 99.4371 531.895 103.3C528.719 107.163 524.303 109.806 519.399 110.78C518.017 111.091 516.604 111.245 515.187 111.24C513.757 111.243 512.332 111.089 510.936 110.78C506.042 109.799 501.639 107.151 498.475 103.288C495.311 99.4249 493.583 94.5847 493.583 89.5902C493.583 84.5958 495.311 79.7555 498.475 75.8924C501.639 72.0293 506.042 69.3819 510.936 68.4003C512.332 68.0919 513.757 67.9377 515.187 67.9406C516.604 67.9355 518.017 68.0897 519.399 68.4003C524.303 69.3743 528.719 72.0173 531.895 75.8802C535.072 79.7432 536.813 84.5878 536.824 89.5902V89.5902Z" stroke="#2843CE" stroke-width="2.35253" stroke-miterlimit="10"/>
<path d="M15.0893 721.072C11.758 721.072 8.56312 719.748 6.2075 717.391C3.85189 715.034 2.52851 711.837 2.52851 708.504L2.52851 696.166H27.4204L27.4204 708.734C27.4204 712.006 26.1213 715.145 23.8087 717.458C21.4962 719.772 18.3597 721.072 15.0893 721.072V721.072Z" stroke="#2843CE" stroke-width="2.35253" stroke-miterlimit="10"/>
<path d="M62.1919 721.072C58.8605 721.072 55.6657 719.748 53.31 717.391C50.9544 715.034 49.631 711.837 49.631 708.504V696.166H74.5229V708.734C74.5229 712.006 73.2238 715.145 70.9113 717.458C68.5987 719.772 65.4623 721.072 62.1919 721.072V721.072Z" stroke="#2843CE" stroke-width="2.35253" stroke-miterlimit="10"/>
<path d="M109.296 721.072C105.965 721.072 102.77 719.748 100.414 717.391C98.0584 715.034 96.735 711.837 96.735 708.504V696.166H121.627V708.734C121.627 712.006 120.328 715.145 118.015 717.458C115.703 719.772 112.566 721.072 109.296 721.072V721.072Z" stroke="#2843CE" stroke-width="2.35253" stroke-miterlimit="10"/>
<path d="M156.399 721.072C153.068 721.072 149.873 719.748 147.517 717.391C145.161 715.034 143.838 711.837 143.838 708.504V696.166H168.73V708.734C168.73 710.354 168.411 711.959 167.791 713.456C167.172 714.953 166.263 716.313 165.118 717.458C163.973 718.604 162.614 719.513 161.118 720.133C159.622 720.753 158.018 721.072 156.399 721.072Z" stroke="#2843CE" stroke-width="2.35253" stroke-miterlimit="10"/>
<path d="M203.502 721.072C200.171 721.072 196.976 719.748 194.62 717.391C192.264 715.034 190.941 711.837 190.941 708.504V696.166H215.833V708.734C215.833 712.006 214.534 715.145 212.221 717.458C209.909 719.772 206.772 721.072 203.502 721.072V721.072Z" stroke="#2843CE" stroke-width="2.35253" stroke-miterlimit="10"/>
<path d="M250.605 721.072C247.274 721.072 244.079 719.748 241.724 717.391C239.368 715.034 238.045 711.837 238.045 708.504V696.166H262.86V708.734C262.86 711.993 261.571 715.12 259.275 717.431C256.979 719.743 253.862 721.052 250.605 721.072Z" stroke="#2843CE" stroke-width="2.35253" stroke-miterlimit="10"/>
<path d="M297.669 721.072C294.338 721.072 291.143 719.748 288.788 717.391C286.432 715.034 285.109 711.837 285.109 708.504V696.166H310V708.734C310 712.006 308.701 715.145 306.389 717.458C304.076 719.772 300.94 721.072 297.669 721.072V721.072Z" stroke="#2843CE" stroke-width="2.35253" stroke-miterlimit="10"/>
<path d="M344.773 721.072C341.442 721.072 338.247 719.748 335.891 717.391C333.535 715.034 332.212 711.837 332.212 708.504V696.166H357.104V708.734C357.104 712.006 355.805 715.145 353.492 717.458C351.18 719.772 348.043 721.072 344.773 721.072V721.072Z" stroke="#2843CE" stroke-width="2.35253" stroke-miterlimit="10"/>
<path d="M391.876 721.072C388.545 721.072 385.35 719.748 382.994 717.391C380.639 715.034 379.315 711.837 379.315 708.504V696.166H404.207V708.734C404.207 710.354 403.888 711.959 403.268 713.456C402.649 714.953 401.74 716.313 400.595 717.458C399.45 718.604 398.091 719.513 396.595 720.133C395.099 720.753 393.495 721.072 391.876 721.072Z" stroke="#2843CE" stroke-width="2.35253" stroke-miterlimit="10"/>
<path d="M438.979 721.072C435.648 721.072 432.453 719.748 430.098 717.391C427.742 715.034 426.419 711.837 426.419 708.504V696.166H451.311V708.734C451.311 712.006 450.011 715.145 447.699 717.458C445.386 719.772 442.25 721.072 438.979 721.072V721.072Z" stroke="#2843CE" stroke-width="2.35253" stroke-miterlimit="10"/>
<path d="M426.036 728.353V2295.18" stroke="#2843CE" stroke-width="2.35253" stroke-miterlimit="10"/>
<path d="M28.8374 727.395V2294.26" stroke="#2843CE" stroke-width="2.35253" stroke-miterlimit="10"/>
<path d="M35.6538 954.812H411.522" stroke="#2843CE" stroke-width="2.35253" stroke-miterlimit="10"/>
<path d="M35.6538 1233.35H411.522" stroke="#2843CE" stroke-width="2.35253" stroke-miterlimit="10"/>
<path d="M35.6538 1511.92H411.522" stroke="#2843CE" stroke-width="2.35253" stroke-miterlimit="10"/>
<path d="M35.6538 1790.45H411.522" stroke="#2843CE" stroke-width="2.35253" stroke-miterlimit="10"/>
<path d="M35.6538 2069.02H411.522" stroke="#2843CE" stroke-width="2.35253" stroke-miterlimit="10"/>
<path d="M55.1074 746.4C56.757 746.4 58.3903 746.725 59.9143 747.357C61.4382 747.989 62.8229 748.915 63.9893 750.082C65.1557 751.249 66.0809 752.634 66.7121 754.159C67.3434 755.684 67.6683 757.318 67.6683 758.969V940.788H42.7764V758.739C42.7764 755.466 44.0755 752.328 46.3881 750.014C48.7006 747.7 51.837 746.4 55.1074 746.4V746.4Z" stroke="#2843CE" stroke-width="2.35253" stroke-miterlimit="10"/>
<path d="M98.1906 746.4C99.8401 746.4 101.473 746.725 102.997 747.357C104.521 747.988 105.906 748.914 107.072 750.081C108.239 751.248 109.164 752.634 109.795 754.159C110.427 755.683 110.751 757.318 110.751 758.968V940.787H85.7446V758.738C85.7446 757.108 86.0673 755.495 86.6942 753.99C87.321 752.485 88.2396 751.12 89.3968 749.973C90.5541 748.826 91.927 747.919 93.4364 747.306C94.9458 746.693 96.5616 746.385 98.1906 746.4Z" stroke="#2843CE" stroke-width="2.35253" stroke-miterlimit="10"/>
<path d="M141.234 746.4C144.566 746.4 147.761 747.725 150.116 750.082C152.472 752.439 153.795 755.635 153.795 758.969V940.788H128.903V758.739C128.903 755.466 130.202 752.328 132.515 750.014C134.828 747.7 137.964 746.4 141.234 746.4V746.4Z" stroke="#2843CE" stroke-width="2.35253" stroke-miterlimit="10"/>
<path d="M184.277 746.399C187.602 746.41 190.787 747.738 193.134 750.094C195.482 752.45 196.8 755.641 196.8 758.968V940.787H171.908V758.738C171.908 757.114 172.228 755.507 172.85 754.007C173.472 752.508 174.384 751.146 175.533 750C176.682 748.854 178.046 747.945 179.546 747.328C181.047 746.71 182.655 746.394 184.277 746.399V746.399Z" stroke="#2843CE" stroke-width="2.35253" stroke-miterlimit="10"/>
<path d="M227.436 746.4C230.767 746.4 233.962 747.725 236.318 750.082C238.674 752.439 239.997 755.635 239.997 758.969V940.788H215.105V758.739C215.105 755.466 216.404 752.328 218.717 750.014C221.029 747.7 224.166 746.4 227.436 746.4Z" stroke="#2843CE" stroke-width="2.35253" stroke-miterlimit="10"/>
<path d="M270.366 746.4C273.697 746.4 276.892 747.725 279.247 750.082C281.603 752.439 282.926 755.635 282.926 758.969V940.788H258.073V758.739C258.073 755.473 259.367 752.341 261.671 750.028C263.975 747.715 267.102 746.411 270.366 746.4V746.4Z" stroke="#2843CE" stroke-width="2.35253" stroke-miterlimit="10"/>
<path d="M313.409 746.4C316.741 746.4 319.935 747.725 322.291 750.082C324.647 752.439 325.97 755.635 325.97 758.969V940.788H301.078V758.739C301.078 755.466 302.377 752.328 304.69 750.014C307.002 747.7 310.139 746.4 313.409 746.4Z" stroke="#2843CE" stroke-width="2.35253" stroke-miterlimit="10"/>
<path d="M356.453 746.4C359.784 746.4 362.979 747.725 365.335 750.082C367.691 752.439 369.014 755.635 369.014 758.969V940.788H344.122V758.739C344.122 755.466 345.421 752.328 347.734 750.014C350.046 747.7 353.183 746.4 356.453 746.4Z" stroke="#2843CE" stroke-width="2.35253" stroke-miterlimit="10"/>
<path d="M399.497 746.4C402.828 746.4 406.023 747.725 408.379 750.082C410.735 752.439 412.058 755.635 412.058 758.969V940.788H387.166V758.739C387.166 755.466 388.465 752.328 390.778 750.014C393.09 747.7 396.227 746.4 399.497 746.4Z" stroke="#2843CE" stroke-width="2.35253" stroke-miterlimit="10"/>
<path d="M55.1084 979.221C58.42 979.21 61.6017 980.509 63.9613 982.834C66.3208 985.159 67.6672 988.322 67.7076 991.636V1220.7H42.8157V991.636C42.8056 990.012 43.1158 988.403 43.7286 986.899C44.3414 985.396 45.2447 984.029 46.3867 982.875C47.5286 981.722 48.8869 980.805 50.3836 980.178C51.8802 979.551 53.4859 979.226 55.1084 979.221V979.221Z" stroke="#2843CE" stroke-width="2.35253" stroke-miterlimit="10"/>
<path d="M98.1898 979.221C101.495 979.221 104.667 980.524 107.018 982.848C109.369 985.172 110.71 988.329 110.751 991.636V1220.7H85.7439V991.636C85.7337 989.999 86.0489 988.377 86.6712 986.864C87.2935 985.35 88.2105 983.976 89.3688 982.821C90.527 981.665 91.9035 980.752 93.4179 980.134C94.9323 979.516 96.5544 979.205 98.1898 979.221V979.221Z" stroke="#2843CE" stroke-width="2.35253" stroke-miterlimit="10"/>
<path d="M141.234 979.221C144.539 979.22 147.711 980.524 150.062 982.848C152.413 985.171 153.754 988.329 153.794 991.636V1220.7H128.903V991.636C128.892 990.009 129.204 988.396 129.819 986.891C130.434 985.385 131.341 984.015 132.487 982.862C133.633 981.708 134.996 980.792 136.497 980.167C137.998 979.542 139.608 979.221 141.234 979.221V979.221Z" stroke="#2843CE" stroke-width="2.35253" stroke-miterlimit="10"/>
<path d="M184.277 979.221C187.576 979.231 190.738 980.538 193.081 982.861C195.424 985.184 196.76 988.336 196.8 991.636V1220.7H171.908V991.636C171.898 990.006 172.211 988.39 172.828 986.882C173.446 985.373 174.356 984.002 175.506 982.848C176.656 981.694 178.023 980.779 179.529 980.156C181.034 979.534 182.648 979.216 184.277 979.221V979.221Z" stroke="#2843CE" stroke-width="2.35253" stroke-miterlimit="10"/>
<path d="M227.436 979.221C230.721 979.251 233.864 980.567 236.191 982.888C238.517 985.208 239.842 988.349 239.882 991.636V1220.7H214.99V991.636C214.98 989.999 215.295 988.377 215.918 986.864C216.54 985.35 217.457 983.976 218.615 982.821C219.774 981.665 221.15 980.752 222.664 980.134C224.179 979.516 225.801 979.205 227.436 979.221V979.221Z" stroke="#2843CE" stroke-width="2.35253" stroke-miterlimit="10"/>
<path d="M270.366 979.221C273.671 979.22 276.843 980.524 279.194 982.848C281.545 985.171 282.886 988.329 282.927 991.636V1220.7H258.073V991.636C258.063 990.012 258.373 988.403 258.986 986.899C259.599 985.396 260.502 984.028 261.644 982.875C262.786 981.722 264.144 980.805 265.641 980.178C267.138 979.551 268.743 979.226 270.366 979.221V979.221Z" stroke="#2843CE" stroke-width="2.35253" stroke-miterlimit="10"/>
<path d="M313.409 979.221C316.741 979.221 319.936 980.545 322.291 982.902C324.647 985.259 325.97 988.456 325.97 991.789V1220.85H301.078V991.636C301.068 990.009 301.38 988.396 301.995 986.891C302.61 985.385 303.517 984.015 304.663 982.862C305.809 981.708 307.172 980.792 308.673 980.167C310.174 979.542 311.784 979.221 313.409 979.221V979.221Z" stroke="#2843CE" stroke-width="2.35253" stroke-miterlimit="10"/>
<path d="M356.453 979.221C359.778 979.19 362.979 980.48 365.355 982.807C367.731 985.134 369.088 988.309 369.129 991.636V1220.7H344.237V991.636C344.237 988.363 345.536 985.225 347.848 982.911C350.161 980.597 353.297 979.297 356.568 979.297L356.453 979.221Z" stroke="#2843CE" stroke-width="2.35253" stroke-miterlimit="10"/>
<path d="M399.497 979.221C402.829 979.221 406.024 980.545 408.379 982.902C410.735 985.259 412.058 988.456 412.058 991.789V1220.85H387.166V991.636C387.156 990.009 387.468 988.396 388.083 986.891C388.698 985.385 389.605 984.015 390.751 982.862C391.897 981.708 393.26 980.792 394.761 980.167C396.262 979.542 397.872 979.221 399.497 979.221V979.221Z" stroke="#2843CE" stroke-width="2.35253" stroke-miterlimit="10"/>
<path d="M55.1074 1256.03C56.757 1256.03 58.3903 1256.36 59.9143 1256.99C61.4382 1257.62 62.8229 1258.55 63.9893 1259.71C65.1557 1260.88 66.0809 1262.26 66.7121 1263.79C67.3434 1265.31 67.6683 1266.95 67.6683 1268.6V1497.43H42.7764V1268.25C42.8067 1265 44.1192 1261.89 46.4284 1259.6C48.7377 1257.32 51.8568 1256.03 55.1074 1256.03Z" stroke="#2843CE" stroke-width="2.35253" stroke-miterlimit="10"/>
<path d="M98.1906 1256.03C99.8401 1256.03 101.473 1256.36 102.997 1256.99C104.521 1257.62 105.906 1258.54 107.072 1259.71C108.239 1260.88 109.164 1262.26 109.795 1263.79C110.427 1265.31 110.751 1266.95 110.751 1268.6V1497.43H85.7446V1268.25C85.7596 1266.63 86.0935 1265.03 86.7271 1263.54C87.3607 1262.05 88.2817 1260.7 89.4374 1259.56C90.5931 1258.43 91.961 1257.53 93.4629 1256.93C94.9647 1256.32 96.5712 1256.02 98.1906 1256.03Z" stroke="#2843CE" stroke-width="2.35253" stroke-miterlimit="10"/>
<path d="M141.234 1256.03C144.566 1256.03 147.761 1257.36 150.116 1259.71C152.472 1262.07 153.795 1265.27 153.795 1268.6V1497.43H128.903V1268.25C128.934 1265 130.246 1261.89 132.555 1259.6C134.865 1257.32 137.984 1256.03 141.234 1256.03Z" stroke="#2843CE" stroke-width="2.35253" stroke-miterlimit="10"/>
<path d="M184.277 1256.03C187.582 1256.04 190.75 1257.35 193.094 1259.69C195.438 1262.02 196.769 1265.18 196.8 1268.48V1497.43H171.908V1268.25C171.938 1265 173.256 1261.88 175.573 1259.59C177.891 1257.3 181.02 1256.02 184.277 1256.03V1256.03Z" stroke="#2843CE" stroke-width="2.35253" stroke-miterlimit="10"/>
<path d="M227.436 1256.03C230.767 1256.03 233.962 1257.36 236.318 1259.71C238.674 1262.07 239.997 1265.27 239.997 1268.6V1497.43H215.105V1268.25C215.135 1265 216.448 1261.89 218.757 1259.6C221.066 1257.32 224.185 1256.03 227.436 1256.03V1256.03Z" stroke="#2843CE" stroke-width="2.35253" stroke-miterlimit="10"/>
<path d="M270.366 1256.03C273.697 1256.03 276.892 1257.36 279.247 1259.71C281.603 1262.07 282.926 1265.27 282.926 1268.6V1497.43H258.073V1268.25C258.103 1265.01 259.41 1261.91 261.711 1259.62C264.012 1257.33 267.122 1256.04 270.366 1256.03V1256.03Z" stroke="#2843CE" stroke-width="2.35253" stroke-miterlimit="10"/>
<path d="M313.409 1256.03C316.741 1256.03 319.935 1257.36 322.291 1259.71C324.647 1262.07 325.97 1265.27 325.97 1268.6V1497.43H301.078V1268.25C301.108 1265 302.421 1261.89 304.73 1259.6C307.039 1257.32 310.159 1256.03 313.409 1256.03V1256.03Z" stroke="#2843CE" stroke-width="2.35253" stroke-miterlimit="10"/>
<path d="M356.453 1256.03C359.784 1256.03 362.979 1257.36 365.335 1259.71C367.691 1262.07 369.014 1265.27 369.014 1268.6V1497.43H344.122V1268.25C344.152 1265 345.465 1261.89 347.774 1259.6C350.083 1257.32 353.203 1256.03 356.453 1256.03Z" stroke="#2843CE" stroke-width="2.35253" stroke-miterlimit="10"/>
<path d="M399.497 1256.03C402.828 1256.03 406.023 1257.36 408.379 1259.71C410.735 1262.07 412.058 1265.27 412.058 1268.6V1497.43H387.166V1268.25C387.196 1265 388.509 1261.89 390.818 1259.6C393.127 1257.32 396.246 1256.03 399.497 1256.03V1256.03Z" stroke="#2843CE" stroke-width="2.35253" stroke-miterlimit="10"/>
<path d="M55.1082 1534.72C56.7577 1534.71 58.3921 1535.03 59.918 1535.66C61.4439 1536.29 62.8314 1537.21 64.0013 1538.37C65.1712 1539.54 66.1007 1540.92 66.7366 1542.44C67.3725 1543.96 67.7023 1545.6 67.7074 1547.25V1776.31H42.8155V1547.25C42.7901 1545.61 43.0891 1543.99 43.695 1542.48C44.3009 1540.96 45.2018 1539.58 46.3453 1538.41C47.4888 1537.25 48.8522 1536.32 50.3565 1535.69C51.8607 1535.05 53.4759 1534.72 55.1082 1534.72V1534.72Z" stroke="#2843CE" stroke-width="2.35253" stroke-miterlimit="10"/>
<path d="M98.1901 1534.72C101.515 1534.72 104.704 1536.04 107.058 1538.39C109.413 1540.73 110.741 1543.92 110.751 1547.25V1776.31H85.7442V1547.25C85.7185 1545.6 86.0224 1543.97 86.6378 1542.44C87.2533 1540.91 88.1678 1539.53 89.3277 1538.36C90.4875 1537.19 91.8691 1536.27 93.3912 1535.64C94.9132 1535.02 96.5449 1534.7 98.1901 1534.72Z" stroke="#2843CE" stroke-width="2.35253" stroke-miterlimit="10"/>
<path d="M141.234 1534.72C144.559 1534.72 147.748 1536.04 150.102 1538.39C152.457 1540.73 153.785 1543.92 153.795 1547.25V1776.31H128.903V1547.25C128.877 1545.61 129.178 1543.99 129.786 1542.47C130.394 1540.95 131.299 1539.57 132.446 1538.4C133.594 1537.23 134.962 1536.31 136.47 1535.68C137.979 1535.04 139.598 1534.72 141.234 1534.72V1534.72Z" stroke="#2843CE" stroke-width="2.35253" stroke-miterlimit="10"/>
<path d="M184.277 1534.72C187.595 1534.73 190.774 1536.05 193.121 1538.4C195.467 1540.75 196.79 1543.93 196.8 1547.25V1776.31H171.908V1547.25C171.908 1543.98 173.207 1540.84 175.519 1538.52C177.832 1536.21 180.968 1534.91 184.239 1534.91L184.277 1534.72Z" stroke="#2843CE" stroke-width="2.35253" stroke-miterlimit="10"/>
<path d="M227.437 1534.72C230.741 1534.75 233.901 1536.08 236.231 1538.43C238.561 1540.77 239.873 1543.94 239.883 1547.25V1776.31H214.991V1547.25C214.965 1545.6 215.269 1543.97 215.884 1542.44C216.5 1540.91 217.414 1539.53 218.574 1538.36C219.734 1537.19 221.116 1536.27 222.638 1535.64C224.16 1535.02 225.791 1534.7 227.437 1534.72Z" stroke="#2843CE" stroke-width="2.35253" stroke-miterlimit="10"/>
<path d="M270.366 1534.72C273.69 1534.72 276.879 1536.04 279.234 1538.39C281.588 1540.73 282.916 1543.92 282.926 1547.25V1776.31H258.073V1547.25C258.073 1543.98 259.372 1540.84 261.684 1538.52C263.997 1536.21 267.133 1534.91 270.404 1534.91L270.366 1534.72Z" stroke="#2843CE" stroke-width="2.35253" stroke-miterlimit="10"/>
<path d="M313.409 1534.72C316.74 1534.72 319.935 1536.04 322.291 1538.4C324.646 1540.76 325.97 1543.95 325.97 1547.29V1776.35H301.078V1547.25C301.052 1545.61 301.352 1543.99 301.961 1542.47C302.569 1540.95 303.473 1539.57 304.621 1538.4C305.769 1537.23 307.136 1536.31 308.645 1535.68C310.154 1535.04 311.773 1534.72 313.409 1534.72Z" stroke="#2843CE" stroke-width="2.35253" stroke-miterlimit="10"/>
<path d="M356.453 1534.72C358.109 1534.7 359.752 1535.02 361.286 1535.64C362.821 1536.26 364.218 1537.18 365.396 1538.35C366.574 1539.51 367.51 1540.9 368.151 1542.42C368.791 1543.95 369.124 1545.59 369.129 1547.25V1776.31H344.237V1547.25C344.237 1543.98 345.536 1540.84 347.848 1538.52C350.161 1536.21 353.297 1534.91 356.568 1534.91L356.453 1534.72Z" stroke="#2843CE" stroke-width="2.35253" stroke-miterlimit="10"/>
<path d="M399.497 1534.72C402.828 1534.72 406.023 1536.04 408.378 1538.4C410.734 1540.76 412.057 1543.95 412.057 1547.29V1776.35H387.166V1547.25C387.14 1545.61 387.44 1543.99 388.049 1542.47C388.657 1540.95 389.561 1539.57 390.709 1538.4C391.856 1537.23 393.224 1536.31 394.733 1535.68C396.242 1535.04 397.861 1534.72 399.497 1534.72V1534.72Z" stroke="#2843CE" stroke-width="2.35253" stroke-miterlimit="10"/>
<path d="M55.1074 1814.9C58.4388 1814.9 61.6337 1816.22 63.9893 1818.58C66.3449 1820.94 67.6683 1824.13 67.6683 1827.47V2056.49H42.7764V1827.24C42.7764 1823.97 44.0755 1820.83 46.3881 1818.51C48.7006 1816.2 51.837 1814.9 55.1074 1814.9V1814.9Z" stroke="#2843CE" stroke-width="2.35253" stroke-miterlimit="10"/>
<path d="M98.1906 1814.9C101.522 1814.9 104.717 1816.22 107.072 1818.58C109.428 1820.94 110.751 1824.13 110.751 1827.47V2056.49H85.7446V1827.24C85.7446 1825.61 86.0673 1823.99 86.6942 1822.49C87.321 1820.98 88.2396 1819.62 89.3968 1818.47C90.5541 1817.32 91.927 1816.42 93.4364 1815.8C94.9458 1815.19 96.5616 1814.88 98.1906 1814.9Z" stroke="#2843CE" stroke-width="2.35253" stroke-miterlimit="10"/>
<path d="M141.234 1814.9C144.566 1814.9 147.761 1816.22 150.116 1818.58C152.472 1820.94 153.795 1824.13 153.795 1827.47V2056.49H128.903V1827.24C128.903 1823.97 130.202 1820.83 132.515 1818.51C134.828 1816.2 137.964 1814.9 141.234 1814.9V1814.9Z" stroke="#2843CE" stroke-width="2.35253" stroke-miterlimit="10"/>
<path d="M184.277 1814.9C187.595 1814.91 190.774 1816.23 193.121 1818.58C195.467 1820.93 196.79 1824.11 196.8 1827.43V2056.49H171.908V1827.24C171.908 1825.61 172.228 1824.01 172.85 1822.51C173.472 1821.01 174.384 1819.65 175.533 1818.5C176.682 1817.35 178.046 1816.45 179.546 1815.83C181.047 1815.21 182.655 1814.89 184.277 1814.9V1814.9Z" stroke="#2843CE" stroke-width="2.35253" stroke-miterlimit="10"/>
<path d="M227.436 1814.9C230.767 1814.9 233.962 1816.22 236.318 1818.58C238.674 1820.94 239.997 1824.13 239.997 1827.47V2056.49H215.105V1827.24C215.105 1823.97 216.404 1820.83 218.717 1818.51C221.029 1816.2 224.166 1814.9 227.436 1814.9Z" stroke="#2843CE" stroke-width="2.35253" stroke-miterlimit="10"/>
<path d="M270.366 1814.9C273.697 1814.9 276.892 1816.22 279.247 1818.58C281.603 1820.94 282.926 1824.13 282.926 1827.47V2056.49H258.073V1827.24C258.073 1823.97 259.367 1820.84 261.671 1818.53C263.975 1816.21 267.102 1814.91 270.366 1814.9V1814.9Z" stroke="#2843CE" stroke-width="2.35253" stroke-miterlimit="10"/>
<path d="M313.409 1814.9C316.741 1814.9 319.935 1816.22 322.291 1818.58C324.647 1820.94 325.97 1824.13 325.97 1827.47V2056.49H301.078V1827.24C301.078 1823.97 302.377 1820.83 304.69 1818.51C307.002 1816.2 310.139 1814.9 313.409 1814.9Z" stroke="#2843CE" stroke-width="2.35253" stroke-miterlimit="10"/>
<path d="M356.453 1814.9C359.784 1814.9 362.979 1816.22 365.335 1818.58C367.691 1820.94 369.014 1824.13 369.014 1827.47V2056.49H344.122V1827.24C344.122 1823.97 345.421 1820.83 347.734 1818.51C350.046 1816.2 353.183 1814.9 356.453 1814.9Z" stroke="#2843CE" stroke-width="2.35253" stroke-miterlimit="10"/>
<path d="M399.497 1814.9C402.828 1814.9 406.023 1816.22 408.379 1818.58C410.735 1820.94 412.058 1824.13 412.058 1827.47V2056.49H387.166V1827.24C387.166 1823.97 388.465 1820.83 390.778 1818.51C393.09 1816.2 396.227 1814.9 399.497 1814.9Z" stroke="#2843CE" stroke-width="2.35253" stroke-miterlimit="10"/>
<path d="M55.1074 2093.01C56.757 2093.01 58.3903 2093.34 59.9143 2093.97C61.4382 2094.6 62.8229 2095.53 63.9893 2096.69C65.1557 2097.86 66.0809 2099.25 66.7121 2100.77C67.3434 2102.3 67.6683 2103.93 67.6683 2105.58V2334.65H42.7764V2105.35C42.7764 2102.08 44.0755 2098.94 46.3881 2096.63C48.7006 2094.31 51.837 2093.01 55.1074 2093.01V2093.01Z" stroke="#2843CE" stroke-width="2.35253" stroke-miterlimit="10"/>
<path d="M98.1906 2093.01C99.8401 2093.01 101.473 2093.34 102.997 2093.97C104.521 2094.6 105.906 2095.52 107.072 2096.69C108.239 2097.86 109.164 2099.24 109.795 2100.77C110.427 2102.29 110.751 2103.93 110.751 2105.58V2334.64H85.7446V2105.35C85.7446 2103.72 86.0673 2102.1 86.6942 2100.6C87.321 2099.1 88.2396 2097.73 89.3968 2096.58C90.5541 2095.44 91.927 2094.53 93.4364 2093.92C94.9458 2093.3 96.5616 2093 98.1906 2093.01Z" stroke="#2843CE" stroke-width="2.35253" stroke-miterlimit="10"/>
<path d="M141.234 2093.01C144.566 2093.01 147.761 2094.34 150.116 2096.69C152.472 2099.05 153.795 2102.25 153.795 2105.58V2334.65H128.903V2105.35C128.903 2102.08 130.202 2098.94 132.515 2096.63C134.828 2094.31 137.964 2093.01 141.234 2093.01V2093.01Z" stroke="#2843CE" stroke-width="2.35253" stroke-miterlimit="10"/>
<path d="M184.277 2093.01C187.602 2093.02 190.787 2094.35 193.134 2096.71C195.482 2099.06 196.8 2102.25 196.8 2105.58V2334.65H171.908V2105.35C171.908 2102.08 173.207 2098.94 175.519 2096.63C177.832 2094.31 180.968 2093.01 184.239 2093.01H184.277Z" stroke="#2843CE" stroke-width="2.35253" stroke-miterlimit="10"/>
<path d="M227.436 2093.01C230.767 2093.01 233.962 2094.34 236.318 2096.69C238.674 2099.05 239.997 2102.25 239.997 2105.58V2334.65H215.105V2105.35C215.105 2102.08 216.404 2098.94 218.717 2096.63C221.029 2094.31 224.166 2093.01 227.436 2093.01Z" stroke="#2843CE" stroke-width="2.35253" stroke-miterlimit="10"/>
<path d="M270.366 2093.01C273.697 2093.01 276.892 2094.34 279.247 2096.69C281.603 2099.05 282.926 2102.25 282.926 2105.58V2334.65H258.073V2105.35C258.073 2102.08 259.367 2098.95 261.671 2096.64C263.975 2094.33 267.102 2093.02 270.366 2093.01V2093.01Z" stroke="#2843CE" stroke-width="2.35253" stroke-miterlimit="10"/>
<path d="M313.409 2093.01C316.741 2093.01 319.935 2094.34 322.291 2096.69C324.647 2099.05 325.97 2102.25 325.97 2105.58V2334.65H301.078V2105.35C301.078 2102.08 302.377 2098.94 304.69 2096.63C307.002 2094.31 310.139 2093.01 313.409 2093.01Z" stroke="#2843CE" stroke-width="2.35253" stroke-miterlimit="10"/>
<path d="M356.453 2093.01C359.784 2093.01 362.979 2094.34 365.335 2096.69C367.691 2099.05 369.014 2102.25 369.014 2105.58V2334.65H344.122V2105.35C344.122 2102.08 345.421 2098.94 347.734 2096.63C350.046 2094.31 353.183 2093.01 356.453 2093.01Z" stroke="#2843CE" stroke-width="2.35253" stroke-miterlimit="10"/>
<path d="M399.497 2093.01C402.828 2093.01 406.023 2094.34 408.379 2096.69C410.735 2099.05 412.058 2102.25 412.058 2105.58V2334.65H387.166V2105.35C387.166 2102.08 388.465 2098.94 390.778 2096.63C393.09 2094.31 396.227 2093.01 399.497 2093.01Z" stroke="#2843CE" stroke-width="2.35253" stroke-miterlimit="10"/>
<path d="M426.391 448.217C426.391 556.408 337.293 644.138 227.354 644.138C117.415 644.138 28.3168 556.408 28.3168 448.217C28.3168 340.027 117.415 252.297 227.354 252.297C337.293 252.297 426.391 340.027 426.391 448.217Z" fill="white" stroke="#2843CE" stroke-width="1.86603"/>
<mask id="mask0_128_7358" style="mask-type:alpha" maskUnits="userSpaceOnUse" x="27" y="251" width="401" height="394">
<path d="M426.934 448.217C426.934 556.719 337.581 644.681 227.353 644.681C117.126 644.681 27.7729 556.719 27.7729 448.217C27.7729 339.715 117.126 251.753 227.353 251.753C337.581 251.753 426.934 339.715 426.934 448.217Z" fill="white" stroke="black" stroke-width="0.259701"/>
</mask>
<g mask="url(#mask0_128_7358)">
<rect x="227.354" y="251.623" width="5.71343" height="17.9194" fill="#2843CE"/>
<rect x="323.977" y="273.958" width="5.71343" height="28.9466" transform="rotate(29.6 323.977 273.958)" fill="#2843CE"/>
<rect x="403.309" y="348.493" width="5.71343" height="28.9466" transform="rotate(60 403.309 348.493)" fill="#2843CE"/>
<rect width="5.71343" height="28.9466" transform="matrix(-0.869495 0.493942 0.493942 0.869495 125.154 273.958)" fill="#2843CE"/>
<rect width="1.93407" height="28.9466" transform="matrix(-0.928971 0.370152 0.370152 0.928971 141.922 262.776)" fill="#2843CE"/>
<rect width="1.93407" height="28.9466" transform="matrix(-0.954627 0.297804 0.297804 0.954627 164.999 257.082)" fill="#2843CE"/>
<rect width="1.93407" height="28.9466" transform="matrix(-0.970122 0.242617 0.242617 0.970122 187.494 249.949)" fill="#2843CE"/>
<rect width="1.93407" height="28.9466" transform="matrix(-0.994962 0.100252 0.100252 0.994962 210.874 249.468)" fill="#2843CE"/>
<rect x="310.492" y="265.932" width="1.93407" height="28.9466" transform="rotate(23.3977 310.492 265.932)" fill="#2843CE"/>
<rect x="287.591" y="259.567" width="1.93407" height="28.9466" transform="rotate(18.9984 287.591 259.567)" fill="#2843CE"/>
<rect x="267.291" y="249.952" width="1.93407" height="28.9466" transform="rotate(11.8258 267.291 249.952)" fill="#2843CE"/>
<rect x="246.953" y="250.13" width="1.93407" height="28.9466" transform="rotate(5.35005 246.953 250.13)" fill="#2843CE"/>
<rect x="395.067" y="333.984" width="1.93407" height="28.9466" transform="rotate(56.4831 395.067 333.984)" fill="#2843CE"/>
<rect x="379.355" y="316.149" width="1.93407" height="28.9466" transform="rotate(52.0838 379.355 316.149)" fill="#2843CE"/>
<rect x="363.175" y="296.026" width="1.93407" height="28.9466" transform="rotate(40.7549 363.175 296.026)" fill="#2843CE"/>
<rect x="343.34" y="285.579" width="1.93407" height="28.9466" transform="rotate(36.2928 343.34 285.579)" fill="#2843CE"/>
<rect x="431.033" y="429.493" width="1.93407" height="28.9466" transform="rotate(85.3206 431.033 429.493)" fill="#2843CE"/>
<rect x="414.531" y="531.15" width="1.93407" height="28.9466" transform="rotate(112.972 414.531 531.15)" fill="#2843CE"/>
<rect x="347.586" y="614.192" width="1.93407" height="28.9466" transform="rotate(143.507 347.586 614.192)" fill="#2843CE"/>
<rect x="246.549" y="650.918" width="1.93407" height="28.9466" transform="rotate(176.749 246.549 650.918)" fill="#2843CE"/>
<rect x="425.872" y="406.29" width="1.93407" height="28.9466" transform="rotate(80.9213 425.872 406.29)" fill="#2843CE"/>
<rect x="420.727" y="508.203" width="1.93407" height="28.9466" transform="rotate(108.573 420.727 508.203)" fill="#2843CE"/>
<rect x="364.582" y="597.575" width="1.93407" height="28.9466" transform="rotate(139.108 364.582 597.575)" fill="#2843CE"/>
<rect x="269.873" y="646.336" width="1.93407" height="28.9466" transform="rotate(172.35 269.873 646.336)" fill="#2843CE"/>
<rect x="422.116" y="385.317" width="1.93407" height="28.9466" transform="rotate(76.5691 422.116 385.317)" fill="#2843CE"/>
<rect x="430.189" y="487.007" width="1.93407" height="28.9466" transform="rotate(100.297 430.189 487.007)" fill="#2843CE"/>
<rect x="384.035" y="582.208" width="1.93407" height="28.9466" transform="rotate(131.257 384.035 582.208)" fill="#2843CE"/>
<rect x="292.598" y="642.576" width="1.93407" height="28.9466" transform="rotate(165.417 292.598 642.576)" fill="#2843CE"/>
<rect x="411.286" y="363.447" width="1.93407" height="28.9466" transform="rotate(64.2564 411.286 363.447)" fill="#2843CE"/>
<rect x="429.075" y="462.629" width="1.93407" height="28.9466" transform="rotate(87.984 429.075 462.629)" fill="#2843CE"/>
<rect x="397.524" y="562.47" width="1.93407" height="28.9466" transform="rotate(120.922 397.524 562.47)" fill="#2843CE"/>
<path d="M311.648 631.309L309.923 632.183L296.829 606.368L298.554 605.493L311.648 631.309Z" fill="#2843CE"/>
<rect x="141.562" y="630.777" width="1.93407" height="28.9466" transform="rotate(-153.353 141.562 630.777)" fill="#2843CE"/>
<rect x="165.466" y="638.82" width="1.93407" height="28.9466" transform="rotate(-163.493 165.466 638.82)" fill="#2843CE"/>
<rect x="188.251" y="644.617" width="1.93407" height="28.9466" transform="rotate(-166.545 188.251 644.617)" fill="#2843CE"/>
<rect x="208.29" y="644.84" width="1.93407" height="28.9466" transform="rotate(-172.9 208.29 644.84)" fill="#2843CE"/>
<rect width="1.93407" height="28.9466" transform="matrix(0.00998476 0.99995 0.99995 -0.00998476 24.4258 428.919)" fill="#2843CE"/>
<rect width="1.93407" height="28.9466" transform="matrix(0.407126 0.913372 0.913372 -0.407126 41.8726 527.812)" fill="#2843CE"/>
<rect width="1.93407" height="28.9466" transform="matrix(0.807533 0.589823 0.589823 -0.807533 107.063 614.196)" fill="#2843CE"/>
<rect width="1.93407" height="28.9466" transform="matrix(-0.0667465 0.99777 0.99777 0.0667465 27.4419 407.939)" fill="#2843CE"/>
<rect width="1.93407" height="28.9466" transform="matrix(0.279949 0.960015 0.960015 -0.279949 32.5576 509.081)" fill="#2843CE"/>
<rect width="1.93407" height="28.9466" transform="matrix(0.759911 0.650027 0.650027 -0.759911 89.9673 597.684)" fill="#2843CE"/>
<rect width="1.93407" height="28.9466" transform="matrix(-0.144203 0.989548 0.989548 0.144203 33 389.526)" fill="#2843CE"/>
<rect width="1.93407" height="28.9466" transform="matrix(0.136059 0.990701 0.990701 -0.136059 25.3276 485.829)" fill="#2843CE"/>
<rect width="1.93407" height="28.9466" transform="matrix(0.685109 0.728441 0.728441 -0.685109 70.813 582.603)" fill="#2843CE"/>
<rect width="1.93407" height="28.9466" transform="matrix(-0.351904 0.936036 0.936036 0.351904 42.0034 369.106)" fill="#2843CE"/>
<rect width="1.93407" height="28.9466" transform="matrix(0.078317 0.996928 0.996928 -0.078317 24.0073 463.729)" fill="#2843CE"/>
<rect width="1.93407" height="28.9466" transform="matrix(0.582622 0.812743 0.812743 -0.582622 57.5972 563.508)" fill="#2843CE"/>
<rect width="1.93407" height="28.9466" transform="matrix(-0.517268 0.855823 0.855823 0.517268 57.9302 336.147)" fill="#2843CE"/>
<rect width="1.93407" height="28.9466" transform="matrix(-0.581391 0.813624 0.813624 0.581391 72.8931 317.68)" fill="#2843CE"/>
<rect width="1.93407" height="28.9466" transform="matrix(-0.635739 0.771904 0.771904 0.635739 89.0913 300.41)" fill="#2843CE"/>
<rect width="1.93407" height="28.9466" transform="matrix(-0.785722 0.61858 0.61858 0.785722 108.424 285.517)" fill="#2843CE"/>
<rect width="5.71343" height="28.9466" transform="matrix(-0.5 0.866025 0.866025 0.5 45.8218 348.493)" fill="#2843CE"/>
<rect width="5.71343" height="28.9466" transform="matrix(0.854685 -0.519148 -0.519148 -0.854685 324.904 625.134)" fill="#2843CE"/>
<rect width="5.71343" height="28.9466" transform="matrix(0.5 -0.866025 -0.866025 -0.5 403.827 550.742)" fill="#2843CE"/>
<rect x="125.674" y="625.277" width="5.71343" height="28.9466" transform="rotate(-150.4 125.674 625.277)" fill="#2843CE"/>
<rect x="46.3418" y="550.742" width="5.71343" height="28.9466" transform="rotate(-120 46.3418 550.742)" fill="#2843CE"/>
<rect x="429.921" y="445.359" width="5.71343" height="23.6328" transform="rotate(90 429.921 445.359)" fill="#2843CE"/>
<rect x="48.1592" y="445.359" width="5.71343" height="23.1134" transform="rotate(90 48.1592 445.359)" fill="#2843CE"/>
<rect x="224.497" y="626.112" width="5.71343" height="19.7373" fill="#2843CE"/>
</g>
<circle cx="227.224" cy="448.348" r="178.131" fill="white" stroke="#2843CE" stroke-width="1.86603"/>
<path d="M241.874 494.457C241.977 494.384 242.072 494.301 242.16 494.21C243.546 494.922 245.102 495.237 246.656 495.121C248.21 495.005 249.702 494.462 250.967 493.551L252.645 493.082C252.645 493.082 252.692 496.568 255.217 498.84C257.743 501.111 261.66 500.706 266.995 506.039C270.62 509.663 274.896 513.938 277.27 516.306C275.775 513.305 273.075 507.895 270.789 503.307C267.418 496.552 269.035 492.962 267.69 489.856C266.346 486.75 263.047 485.59 263.047 485.59L264.024 484.147C265.288 483.236 266.277 481.994 266.88 480.556C267.482 479.119 267.676 477.543 267.439 476.003C267.554 475.949 267.664 475.884 267.767 475.809C268.175 475.505 268.461 475.065 268.571 474.568C268.682 474.071 268.609 473.551 268.367 473.103C268.125 472.655 267.73 472.309 267.253 472.129C266.777 471.949 266.252 471.947 265.774 472.123C264.784 470.841 263.446 469.87 261.92 469.327C260.394 468.783 258.744 468.69 257.166 469.058L257.282 468.974C257.022 468.279 256.531 467.693 255.892 467.315C255.297 467.002 254.622 466.876 253.954 466.954C252.402 467.042 251.324 467.888 250.721 468.339C249.715 469.127 248.911 470.145 248.378 471.306C248.062 471.094 247.767 470.852 247.496 470.584C245.041 468.163 245.281 464.278 245.447 461.572C245.585 459.362 246.028 457.181 246.762 455.092L243.09 457.202C242.19 455.833 240.795 454.868 239.197 454.507C240.574 452.05 241.072 449.196 240.607 446.417C240.143 443.638 238.744 441.101 236.642 439.225C234.541 437.349 231.862 436.247 229.049 436.099C226.235 435.952 223.456 436.769 221.17 438.416C218.884 440.062 217.228 442.439 216.476 445.154C215.724 447.869 215.921 450.76 217.034 453.348C218.148 455.935 220.111 458.066 222.599 459.387C225.087 460.708 227.952 461.141 230.719 460.613C230.558 462.238 231.03 463.863 232.037 465.149L228.856 467.949C231.071 467.92 233.279 468.196 235.419 468.769C238.038 469.469 241.797 470.474 243.318 473.568C243.484 473.91 243.62 474.267 243.723 474.633C242.452 474.771 241.233 475.211 240.166 475.915C239.541 476.336 238.401 477.1 237.828 478.543C237.542 479.152 237.447 479.832 237.557 480.496C237.709 481.223 238.11 481.874 238.689 482.339L238.805 482.256C237.956 483.636 237.522 485.231 237.553 486.85C237.585 488.47 238.082 490.047 238.984 491.392C238.666 491.79 238.502 492.289 238.522 492.798C238.542 493.307 238.745 493.791 239.093 494.163C239.442 494.534 239.912 494.767 240.419 494.82C240.926 494.872 241.434 494.74 241.851 494.448L241.874 494.457ZM266.848 496.765C267.757 500.911 269.243 503.201 268.621 503.671C268.025 504.123 266.585 502.177 262.439 500.023C262.439 500.023 261.984 499.788 257.01 497.587L257.758 496.728C258.131 496.758 258.507 496.701 258.854 496.561C259.202 496.421 259.512 496.201 259.76 495.921C260.008 495.64 260.187 495.305 260.283 494.943C260.38 494.581 260.39 494.201 260.314 493.834L260.842 493.233L261.443 492.98C261.769 493.176 262.137 493.292 262.517 493.319C262.897 493.346 263.278 493.282 263.628 493.134C263.979 492.985 264.29 492.756 264.534 492.464C264.779 492.173 264.952 491.827 265.038 491.456L266.183 490.971C266.207 492.92 266.43 494.861 266.848 496.765V496.765ZM265.115 488.258L264.1 488.96C263.696 488.668 263.211 488.509 262.712 488.505C262.214 488.5 261.726 488.65 261.316 488.934C260.906 489.218 260.594 489.622 260.424 490.09C260.253 490.559 260.231 491.069 260.362 491.55L259.267 492.309C258.866 492.048 258.396 491.913 257.917 491.92C257.438 491.927 256.973 492.076 256.579 492.349C256.185 492.621 255.882 493.005 255.707 493.45C255.532 493.896 255.493 494.383 255.596 494.851L254.378 495.697C253.952 495.075 253.681 494.36 253.587 493.613C253.401 491.967 254.313 491.394 254.63 489.194C254.915 487.222 254.337 486.371 254.935 485.912C255.532 485.453 256.191 486.159 258.18 486.503C260.496 486.902 261.198 486.249 262.912 486.852C263.738 487.158 264.49 487.637 265.115 488.258V488.258ZM257.866 476.491C258.247 476.215 258.558 475.854 258.773 475.436C258.989 475.018 259.103 474.556 259.107 474.086C259.112 473.616 259.005 473.151 258.796 472.73C258.588 472.308 258.283 471.942 257.907 471.66C259.302 471.448 260.727 471.711 261.954 472.407C263.181 473.104 264.138 474.192 264.671 475.498C265.204 476.804 265.282 478.252 264.893 479.607C264.504 480.963 263.67 482.149 262.525 482.973C261.381 483.797 259.992 484.213 258.583 484.152C257.173 484.092 255.825 483.559 254.756 482.64C253.686 481.72 252.957 480.467 252.685 479.083C252.413 477.699 252.615 476.264 253.258 475.008C253.407 475.454 253.658 475.859 253.992 476.19C254.326 476.52 254.732 476.768 255.179 476.914C255.626 477.059 256.101 477.097 256.566 477.025C257.03 476.953 257.471 476.773 257.853 476.5L257.866 476.491ZM223.818 451.773C223.163 450.864 222.793 449.781 222.753 448.661C222.714 447.541 223.007 446.434 223.597 445.481C224.187 444.528 225.046 443.771 226.065 443.306C227.085 442.841 228.22 442.689 229.326 442.868C230.432 443.048 231.46 443.552 232.28 444.316C233.1 445.081 233.675 446.071 233.932 447.162C234.189 448.252 234.117 449.395 233.725 450.445C233.332 451.495 232.638 452.405 231.728 453.06C230.509 453.938 228.99 454.296 227.507 454.055C226.023 453.814 224.696 452.993 223.818 451.773V451.773ZM236.876 465.46C235.999 464.873 235.086 464.237 234.828 463.127C234.513 461.801 235.254 460.218 236.508 459.398C237.596 458.688 239.159 458.503 240.267 459.187C241.251 459.794 241.563 460.881 241.833 461.868C242.652 464.872 244.455 469.34 243.905 469.736C243.355 470.132 238.606 466.627 236.876 465.46ZM246.204 473.176L250.485 473.872L249.789 478.154L245.514 477.453L246.204 473.176ZM241.054 483.801C241.204 484.247 241.455 484.651 241.79 484.982C242.124 485.313 242.531 485.56 242.979 485.704C243.426 485.848 243.901 485.885 244.365 485.812C244.83 485.739 245.27 485.558 245.652 485.283C246.033 485.008 246.345 484.648 246.561 484.231C246.778 483.813 246.893 483.351 246.898 482.881C246.903 482.411 246.798 481.946 246.59 481.525C246.382 481.103 246.079 480.736 245.703 480.453C247.098 480.241 248.523 480.504 249.75 481.2C250.977 481.897 251.934 482.985 252.467 484.291C253 485.597 253.078 487.045 252.689 488.4C252.3 489.756 251.466 490.942 250.321 491.766C249.176 492.591 247.788 493.006 246.378 492.945C244.969 492.885 243.621 492.352 242.551 491.433C241.482 490.513 240.752 489.26 240.481 487.876C240.209 486.492 240.411 485.057 241.054 483.801V483.801Z" fill="#2843CE"/>
<path d="M222.894 449.768C223.612 452.815 226.663 454.702 229.709 453.984C232.756 453.266 234.643 450.215 233.925 447.168C233.207 444.122 230.156 442.235 227.109 442.953C224.063 443.671 222.176 446.722 222.894 449.768Z" stroke="#2843CE" stroke-width="0.259701" stroke-miterlimit="10"/>
<path d="M257.006 497.591L257.754 496.732C258.127 496.762 258.503 496.705 258.85 496.565C259.198 496.425 259.508 496.205 259.756 495.924C260.004 495.644 260.183 495.309 260.279 494.947C260.375 494.585 260.386 494.205 260.31 493.838L260.837 493.237L261.439 492.983C261.765 493.18 262.133 493.296 262.513 493.323C262.893 493.35 263.274 493.286 263.624 493.138C263.975 492.989 264.285 492.76 264.53 492.468C264.775 492.177 264.948 491.831 265.033 491.46L266.179 490.975C266.199 492.923 266.417 494.864 266.831 496.768C267.74 500.914 269.226 503.204 268.604 503.675C268.008 504.126 266.568 502.181 262.422 500.027C262.435 500.027 261.98 499.792 257.006 497.591Z" stroke="#2843CE" stroke-width="0.259701" stroke-miterlimit="10"/>
<path d="M254.378 495.698C253.953 495.076 253.682 494.362 253.588 493.614C253.401 491.969 254.313 491.395 254.63 489.195C254.915 487.223 254.337 486.372 254.935 485.913C255.532 485.454 256.191 486.16 258.18 486.504C260.497 486.903 261.198 486.251 262.912 486.853C263.74 487.157 264.493 487.636 265.12 488.256L264.105 488.958C263.7 488.666 263.216 488.507 262.717 488.503C262.218 488.498 261.731 488.648 261.321 488.932C260.911 489.216 260.599 489.62 260.428 490.089C260.257 490.557 260.236 491.067 260.366 491.548L259.272 492.308C258.87 492.047 258.4 491.911 257.922 491.918C257.443 491.925 256.977 492.074 256.584 492.347C256.19 492.619 255.886 493.003 255.711 493.448C255.536 493.894 255.498 494.382 255.601 494.849L254.378 495.698Z" stroke="#2843CE" stroke-width="0.259701" stroke-miterlimit="10"/>
<path d="M241.55 490.341C240.873 489.402 240.469 488.294 240.382 487.14C240.294 485.986 240.527 484.831 241.054 483.8C241.204 484.246 241.456 484.651 241.79 484.981C242.124 485.312 242.531 485.559 242.979 485.703C243.426 485.848 243.901 485.885 244.365 485.811C244.83 485.738 245.271 485.557 245.652 485.282C246.033 485.008 246.345 484.647 246.561 484.23C246.778 483.813 246.893 483.35 246.898 482.88C246.903 482.41 246.798 481.946 246.59 481.524C246.383 481.102 246.079 480.735 245.703 480.452C246.807 480.284 247.936 480.414 248.973 480.827C250.01 481.24 250.919 481.921 251.605 482.802C252.292 483.683 252.731 484.73 252.878 485.837C253.025 486.944 252.875 488.07 252.443 489.099C252.01 490.129 251.311 491.024 250.418 491.694C249.525 492.364 248.469 492.783 247.36 492.91C246.25 493.036 245.127 492.865 244.106 492.413C243.085 491.962 242.203 491.246 241.55 490.341V490.341Z" stroke="#2843CE" stroke-width="0.259701" stroke-miterlimit="10"/>
<path d="M253.76 481.548C253.083 480.609 252.678 479.501 252.591 478.347C252.504 477.192 252.738 476.036 253.267 475.007C253.416 475.452 253.668 475.857 254.002 476.187C254.336 476.518 254.744 476.765 255.191 476.909C255.638 477.054 256.113 477.091 256.578 477.018C257.042 476.944 257.483 476.763 257.864 476.488C258.246 476.214 258.557 475.853 258.774 475.436C258.99 475.019 259.106 474.556 259.111 474.086C259.116 473.616 259.01 473.152 258.803 472.73C258.595 472.308 258.291 471.941 257.916 471.658C259.019 471.491 260.148 471.621 261.185 472.034C262.222 472.448 263.13 473.13 263.816 474.011C264.502 474.892 264.941 475.939 265.088 477.046C265.235 478.153 265.084 479.279 264.651 480.308C264.219 481.337 263.519 482.232 262.626 482.902C261.733 483.571 260.677 483.991 259.568 484.117C258.458 484.243 257.335 484.071 256.314 483.619C255.293 483.168 254.411 482.452 253.759 481.546L253.76 481.548Z" stroke="#2843CE" stroke-width="0.259701" stroke-miterlimit="10"/>
<path d="M249.789 478.151L250.485 473.871L246.205 473.174L245.508 477.455L249.789 478.151Z" stroke="#2843CE" stroke-width="0.259701" stroke-miterlimit="10"/>
<path d="M234.834 463.136C234.52 461.811 235.261 460.227 236.514 459.407C237.603 458.697 239.166 458.512 240.273 459.196C241.258 459.803 241.57 460.89 241.839 461.877C242.659 464.881 244.462 469.349 243.912 469.746C243.362 470.142 238.607 466.628 236.877 465.461C236.005 464.882 235.093 464.246 234.834 463.136Z" stroke="#2843CE" stroke-width="0.259701" stroke-miterlimit="10"/>
<path d="M359.648 448.218C359.648 520.995 300.708 579.992 228.003 579.992C155.299 579.992 96.3588 520.995 96.3588 448.218C96.3588 375.44 155.299 316.443 228.003 316.443C300.708 316.443 359.648 375.44 359.648 448.218Z" stroke="#2843CE" stroke-width="1.86603"/>
<path d="M202.621 316.542V315.922L207.773 314.742V275.453H201.814V274.522L213.421 272.66L214.228 273.529V314.742L219.442 315.922V316.542H202.621ZM224 316.542V314.184C230.166 308.515 234.366 304.418 236.6 301.894C242.435 295.274 245.352 288.901 245.352 282.777C245.352 279.839 244.648 277.605 243.241 276.074C241.835 274.543 239.828 273.777 237.221 273.777C235.276 273.777 233.476 274.377 231.821 275.577V281.722C231.821 282.963 231.448 283.956 230.704 284.701C230 285.446 229.069 285.819 227.91 285.819C226.793 285.819 225.883 285.487 225.179 284.825C224.476 284.122 224.124 283.15 224.124 281.908C224.124 279.343 225.386 277.191 227.91 275.453C230.476 273.715 233.766 272.846 237.779 272.846C242.248 272.846 245.724 273.777 248.207 275.639C250.69 277.501 251.931 280.232 251.931 283.832C251.931 285.984 251.435 288.177 250.441 290.412C249.49 292.605 248.331 294.57 246.966 296.308C245.641 298.046 243.821 299.97 241.504 302.08C239.228 304.149 237.2 305.867 235.421 307.232C233.641 308.598 231.366 310.274 228.593 312.26H249.262L251.372 306.549H252.428V316.542H224Z" fill="#2843CE"/>
<path d="M286.182 329.871L286.485 329.33L291.556 330.82L310.77 296.55L305.573 293.636L306.028 292.824L317.063 296.876L317.342 298.028L297.186 333.977L301.157 337.556L300.854 338.097L286.182 329.871Z" fill="#B11818"/>
<path d="M306.907 597.933L309.517 602.589C311.559 602.678 313.374 602.277 314.962 601.387C317.453 599.99 318.876 597.959 319.231 595.293C319.602 592.571 318.877 589.585 317.056 586.337C315.133 582.908 312.788 580.713 310.019 579.751C307.266 578.733 304.301 579.114 301.125 580.895C298.418 582.413 296.555 584.335 295.535 586.662L294.575 586.346L286.529 568.442C294.073 564.213 300.109 560.425 304.637 557.08L307.248 561.736L290.356 571.206L295.114 585.404C296.666 582.588 299.139 580.229 302.532 578.327C306.935 575.858 310.871 575.051 314.339 575.906C317.806 576.76 320.542 578.974 322.545 582.548C324.609 586.229 325.029 589.812 323.805 593.298C322.617 596.763 319.893 599.689 315.634 602.077C312.458 603.858 309.389 604.772 306.427 604.82C303.445 604.832 301.347 603.755 300.133 601.589C299.505 600.47 299.337 599.45 299.626 598.529C299.896 597.571 300.518 596.819 301.492 596.273C302.539 595.686 303.551 595.545 304.529 595.851C305.487 596.12 306.279 596.815 306.907 597.933Z" fill="#B11818"/>
<path d="M333.664 367.211L335.722 366.058C343.681 368.667 349.307 370.33 352.601 371.046C361.229 372.901 368.214 372.332 373.557 369.34C376.12 367.904 377.726 366.198 378.375 364.223C379.023 362.247 378.71 360.122 377.436 357.847C376.486 356.151 375.083 354.873 373.227 354.016L367.866 357.019C366.783 357.625 365.734 357.786 364.72 357.5C363.727 357.25 362.947 356.62 362.381 355.609C361.835 354.634 361.679 353.678 361.913 352.741C362.183 351.783 362.859 351.001 363.942 350.395C366.18 349.141 368.675 349.191 371.424 350.543C374.194 351.933 376.56 354.378 378.521 357.88C380.705 361.779 381.591 365.266 381.18 368.342C380.769 371.419 378.993 373.836 375.852 375.595C373.974 376.647 371.818 377.285 369.384 377.511C367.005 377.752 364.724 377.702 362.541 377.36C360.377 377.054 357.809 376.405 354.835 375.415C351.918 374.44 349.429 373.511 347.368 372.626C345.307 371.74 342.733 370.574 339.645 369.126L349.745 387.158L355.759 386.209L356.274 387.13L347.556 392.013L333.664 367.211Z" fill="#2843CE"/>
<path d="M141.366 346.657L141.041 346.128L144.811 342.425L124.225 308.96L119.15 312.082L118.662 311.289L127.573 303.622L128.715 303.939L150.309 339.043L155.368 337.315L155.693 337.844L141.366 346.657ZM160.21 335.065L159.885 334.536L163.655 330.833L143.069 297.368L137.994 300.49L137.506 299.697L146.417 292.03L147.559 292.347L169.153 327.45L174.212 325.723L174.537 326.252L160.21 335.065Z" fill="#B11818"/>
<path d="M100.18 409.969L99.6236 409.695L100.845 404.553L65.6085 387.173L62.9727 392.517L62.1377 392.105L65.6021 380.872L66.7383 380.533L103.7 398.764L107.064 394.61L107.621 394.884L100.18 409.969ZM90.5389 380.407C84.527 377.441 80.4259 373.642 78.2357 369.009C76.0637 364.339 76.1126 359.703 78.3823 355.101C80.652 350.5 84.2915 347.658 89.3006 346.576C94.3281 345.457 99.8477 346.38 105.86 349.345C111.909 352.329 116.019 356.156 118.191 360.826C120.344 365.441 120.286 370.049 118.016 374.65C115.728 379.289 112.098 382.159 107.126 383.259C102.117 384.341 96.5879 383.39 90.5389 380.407ZM93.5591 374.283C99.6823 377.304 104.798 378.766 108.906 378.669C113.013 378.573 115.772 377.096 117.181 374.239C118.572 371.418 118.056 368.349 115.632 365.031C113.227 361.676 108.963 358.489 102.839 355.468C96.7533 352.467 91.6472 351.032 87.5212 351.166C83.3764 351.244 80.6084 352.693 79.2173 355.513C77.8079 358.371 78.3336 361.468 80.7944 364.804C83.2181 368.122 87.473 371.282 93.5591 374.283Z" fill="#2843CE"/>
<path d="M381.121 536.532L380.606 536.185L381.712 532.438L375.487 528.237L364.654 544.288L363.882 543.768C360.534 537.115 357.249 531.628 354.025 527.306C350.825 522.949 346.961 519.243 342.434 516.188L346.045 510.837C350.881 514.101 354.656 518.271 357.37 523.348C360.05 528.402 362.401 534.756 364.423 542.411L374.458 527.542L361.802 519.001L360.245 511.211L361.452 510.976L378.069 522.192L380.569 518.487L381.598 519.182L379.098 522.886L385.323 527.087L388.384 524.66L388.899 525.008L381.121 536.532Z" fill="#2843CE"/>
<path d="M140.252 601.585L134.653 598.373C136.485 595.178 138.81 592.29 141.627 589.708C144.48 587.147 147.17 585.16 149.698 583.748C152.246 582.3 155.36 580.532 159.038 578.444C162.773 576.341 165.848 574.432 168.263 572.717L149.582 561.999L144.586 565.717L143.725 565.222L148.791 556.393L172.694 570.107L172.231 570.915C170.278 572.656 166.624 575.617 161.268 579.795C155.949 583.995 151.667 587.716 148.423 590.959C145.179 594.203 142.455 597.745 140.252 601.585Z" fill="#B11818"/>
<path d="M96.0933 506.196C92.1582 508.4 90.4653 512.193 91.0144 517.577C88.435 515.512 86.011 514.19 83.7422 513.611C81.4734 513.032 79.0213 513.481 76.3858 514.957C73.1366 516.777 71.1461 519.362 70.4142 522.713C69.6981 526.007 70.6444 529.982 73.2528 534.64C75.5984 538.827 78.188 541.503 81.0215 542.667C83.8911 543.811 86.7519 543.584 89.604 541.986C92.095 540.591 93.6762 538.757 94.3475 536.484C95.055 534.19 95.2266 531.533 94.8625 528.512C96.9783 530.173 99.0276 531.206 101.01 531.613C103.009 531.964 105.236 531.452 107.691 530.077C110.76 528.358 112.705 525.988 113.526 522.967C114.384 519.926 113.66 516.347 111.355 512.232C109.312 508.585 106.935 506.289 104.223 505.341C101.547 504.374 98.8371 504.659 96.0933 506.196ZM90.6901 524.873C92.2946 526.298 93.2522 527.161 93.5627 527.461C93.5498 529.555 93.1341 531.353 92.3153 532.855C91.4966 534.357 89.932 535.755 87.6215 537.05C81.5925 540.426 77.0007 539.299 73.8463 533.667C72.2893 530.887 71.78 528.327 72.3185 525.986C72.8931 523.624 74.462 521.726 77.0253 520.29C79.4441 518.936 81.5612 518.651 83.3765 519.436C85.228 520.202 87.6658 522.014 90.6901 524.873ZM94.5759 520.633C94.3059 520.405 93.6971 519.869 92.7497 519.024C92.9402 517.163 93.4491 515.573 94.2765 514.256C95.1039 512.939 96.4382 511.765 98.2794 510.734C100.987 509.217 103.417 508.686 105.569 509.141C107.736 509.539 109.457 510.876 110.731 513.15C112.005 515.425 112.33 517.614 111.706 519.718C111.083 521.822 109.67 523.491 107.467 524.724C105.301 525.938 103.313 526.198 101.502 525.505C99.7268 524.791 97.4182 523.168 94.5759 520.633Z" fill="#2843CE"/>
<path d="M401.094 442.324L395.57 442.324C394.287 442.324 393.274 441.972 392.529 441.269C391.784 440.565 391.412 439.634 391.412 438.476C391.412 437.358 391.763 436.427 392.467 435.683C393.17 434.979 394.143 434.627 395.384 434.627C397.991 434.627 400.06 436.096 401.591 439.034C403.122 441.972 403.887 445.262 403.887 448.903C403.887 453.083 402.894 456.393 400.908 458.834C398.922 461.276 396.232 462.496 392.839 462.496C390.067 462.496 387.77 461.627 385.95 459.889C384.17 458.151 382.97 455.71 382.35 452.565C381.729 456.207 380.467 459.062 378.563 461.131C376.66 463.2 374.219 464.234 371.239 464.234C367.722 464.234 364.908 462.827 362.798 460.014C360.729 457.241 359.694 453.579 359.694 449.027C359.694 445.138 360.439 441.703 361.929 438.724C363.46 435.786 365.55 434.317 368.198 434.317C369.439 434.317 370.391 434.669 371.053 435.372C371.756 436.076 372.108 436.986 372.108 438.103C372.108 439.262 371.736 440.193 370.991 440.896C370.246 441.641 369.253 442.014 368.012 442.014L362.488 442.014C361.412 443.669 360.874 445.614 360.874 447.848C360.874 450.786 361.763 453.145 363.543 454.924C365.363 456.745 367.908 457.655 371.177 457.655C374.694 457.655 377.322 456.579 379.06 454.427C380.798 452.317 381.667 449.42 381.667 445.738L381.667 443.069L382.908 443.069L382.908 445.676C382.908 448.862 383.736 451.365 385.391 453.186C387.046 455.007 389.57 455.917 392.963 455.917C396.067 455.917 398.446 455.172 400.101 453.683C401.798 452.234 402.646 450.289 402.646 447.848C402.646 445.696 402.129 443.855 401.094 442.324Z" fill="#2843CE"/>
<path d="M75.5919 440.425C77.8264 442.742 78.9437 445.846 78.9437 449.735C78.9437 454.039 77.785 457.515 75.4678 460.163C73.1506 462.77 69.9851 464.073 65.9713 464.073C61.8748 464.073 58.6058 462.708 56.1645 459.977C53.6817 457.204 52.4403 453.583 52.4403 449.115C52.4403 444.025 54.0955 440.177 57.4058 437.57C60.6748 434.963 65.3506 433.659 71.4333 433.659C86.9505 433.659 95.2884 442.349 96.447 459.728L95.8263 460.349C95.2884 456.749 94.4401 453.687 93.2815 451.163C92.0815 448.639 90.5919 446.652 88.8126 445.204C86.9919 443.715 85.0471 442.618 82.9781 441.915C80.8678 441.17 78.4057 440.673 75.5919 440.425ZM72.6747 440.239C66.7575 440.239 62.061 440.942 58.5851 442.349C55.1093 443.756 53.3714 445.949 53.3714 448.928C53.3714 451.577 54.53 453.708 56.8472 455.321C59.1644 456.894 62.2472 457.68 66.0954 457.68C69.7782 457.68 72.6333 456.832 74.6609 455.135C76.6885 453.439 77.7023 451.287 77.7023 448.68C77.7023 446.777 77.2471 445.08 76.3368 443.59C75.4264 442.101 74.2057 440.984 72.6747 440.239Z" fill="#B11818"/>
<path d="M219.346 601.965C221.621 599.69 224.808 598.552 228.904 598.552C233.207 598.552 236.683 599.752 239.332 602.152C241.98 604.552 243.304 607.758 243.304 611.772C243.304 615.869 241.959 619.117 239.27 621.517C236.621 623.917 233.083 625.117 228.656 625.117C223.483 625.117 219.532 623.4 216.801 619.965C214.07 616.531 212.704 611.772 212.704 605.69C212.704 598.076 214.877 592.241 219.221 588.186C223.566 584.131 229.773 581.752 237.842 581.048L238.463 581.669C232.049 582.952 227.373 585.31 224.435 588.745C221.497 592.138 219.801 596.545 219.346 601.965ZM219.283 604.883C219.283 610.676 220.028 615.352 221.518 618.91C223.049 622.427 225.304 624.186 228.283 624.186C230.849 624.186 232.897 623.069 234.428 620.834C235.959 618.6 236.725 615.579 236.725 611.772C236.725 608.007 235.876 605.069 234.18 602.958C232.483 600.848 230.311 599.793 227.663 599.793C225.801 599.793 224.104 600.269 222.573 601.221C221.083 602.131 219.987 603.352 219.283 604.883Z" fill="#2843CE"/>
<path d="M232.77 439.331V435.984H236.945V431.996H233.722L235.27 429.085C235.392 428.948 235.501 428.799 235.593 428.642C235.995 427.935 236.198 427.141 236.183 426.338C236.183 425.016 235.69 423.862 234.972 423.315C234.739 423.123 234.451 423.001 234.145 422.964C234.092 422.96 234.039 422.96 233.986 422.964C232.775 422.964 231.791 424.479 231.791 426.348C231.791 427.679 232.292 428.823 233.018 429.382C233.274 429.591 233.596 429.713 233.934 429.729C233.348 430.011 232.727 430.222 232.086 430.355C231.502 430.481 230.905 430.544 230.307 430.543C226.082 430.543 222.658 427.496 222.658 423.736C222.658 419.976 226.082 416.931 230.307 416.931C231.012 416.931 231.713 417.02 232.394 417.194L232.418 417.156L232.478 417.216C232.451 417.206 232.423 417.198 232.394 417.194C231.977 417.913 231.766 418.722 231.781 419.543C231.781 421.412 232.765 422.927 233.975 422.927C234.028 422.93 234.082 422.93 234.135 422.927C234.421 422.892 234.692 422.782 234.917 422.61C235.658 422.068 236.172 420.902 236.172 419.553C236.172 419.498 236.172 419.444 236.172 419.389C236.136 418.223 235.718 417.213 235.108 416.652L234.492 415.458L236.345 413.953L234.5 411.451L236.979 410.213L232.845 409.817C232.845 409.817 234.075 403.515 232.347 400.658C232.334 400.633 232.316 400.604 232.3 400.579L235.011 398.643L234.792 397.779L236.861 396.653C231.619 396.373 227.452 391.868 227.452 386.351C227.452 381.345 230.878 377.174 235.424 376.231V374.85H233.438V372.835H230.656V355.968H234.309C234.309 355.968 230.283 350.604 230.184 344.561C230.085 338.519 230.184 324.857 230.184 324.857H228.668C228.668 324.857 228.767 338.521 228.668 344.561C228.569 350.601 224.542 355.968 224.542 355.968H228.141V365.444C228.141 369.124 227.473 370.862 227.019 371.615C226.916 371.803 226.782 371.975 226.622 372.122C224.472 374.998 223.076 379.647 223.076 384.89C223.049 387.663 223.464 390.425 224.305 393.081L221.228 392.673L222.648 396.158L218.765 398.099L221.145 399.445C220.226 402.534 223.566 406.059 223.566 406.059L218.264 416.436L220.678 416.156L221.789 419.124C221.056 420.516 220.679 422.052 220.688 423.607C220.673 425.365 221.158 427.094 222.092 428.612L223.827 431.996H220.871V435.977H225.046V439.323C222.952 440.168 221.229 441.674 220.171 443.585C219.112 445.496 218.782 447.695 219.237 449.811C219.691 451.926 220.902 453.828 222.665 455.193C224.427 456.559 226.633 457.305 228.909 457.305C231.185 457.305 233.391 456.559 235.154 455.193C236.916 453.828 238.127 451.926 238.582 449.811C239.036 447.695 238.706 445.496 237.648 443.585C236.589 441.674 234.867 440.168 232.772 439.323L232.77 439.331ZM222.457 412.193L225.39 406.213L225.912 405.158C225.558 404.917 225.264 404.604 225.051 404.243C224.839 403.881 224.713 403.48 224.683 403.067C224.62 402.341 224.863 401.621 225.358 401.065C225.852 400.508 226.559 400.16 227.324 400.096C227.772 400.067 228.221 400.138 228.634 400.305C229.048 400.472 229.413 400.73 229.701 401.057C231.4 402.567 231.817 405.386 230.536 408.05C228.955 411.337 225.336 413.223 222.517 412.223L222.457 412.193ZM228.905 452.232C228.011 452.23 227.137 451.977 226.395 451.504C225.653 451.031 225.075 450.36 224.734 449.576C224.394 448.791 224.306 447.929 224.482 447.097C224.659 446.265 225.091 445.502 225.725 444.903C226.358 444.305 227.165 443.898 228.042 443.734C228.92 443.57 229.829 443.656 230.654 443.982C231.48 444.309 232.185 444.86 232.68 445.566C233.176 446.272 233.439 447.102 233.438 447.95C233.438 448.514 233.321 449.073 233.093 449.594C232.865 450.115 232.531 450.588 232.11 450.987C231.689 451.385 231.189 451.701 230.639 451.915C230.089 452.13 229.5 452.239 228.905 452.237V452.232Z" fill="#2843CE"/>
<circle cx="228.133" cy="448.218" r="5.97313" fill="white"/>
<rect x="273.299" y="299.159" width="6.75224" height="6.75224" transform="rotate(57.3088 273.299 299.159)" fill="#2843CE"/>
<rect width="6.75224" height="6.75224" transform="matrix(-0.540111 0.841594 0.841594 0.540111 181.148 299.159)" fill="#2843CE"/>
<rect x="330.803" y="335.604" width="6.75224" height="6.75224" transform="rotate(87.312 330.803 335.604)" fill="#2843CE"/>
<rect width="6.75224" height="6.75224" transform="matrix(-0.0468978 0.9989 0.9989 0.0468978 118.691 335.862)" fill="#2843CE"/>
<rect width="6.75224" height="6.75224" transform="matrix(0.707107 0.707107 0.707107 -0.707107 76.4536 416.878)" fill="#2843CE"/>
<rect width="6.75224" height="6.75224" transform="matrix(0.854729 0.519075 0.519075 -0.854729 76.6035 490.223)" fill="#2843CE"/>
<rect x="379.725" y="416.878" width="6.75224" height="6.75224" transform="rotate(135 379.725 416.878)" fill="#2843CE"/>
<rect x="379.576" y="490.223" width="6.75224" height="6.75224" transform="rotate(148.73 379.576 490.223)" fill="#2843CE"/>
<rect width="6.75224" height="6.75224" transform="matrix(0.540111 -0.841594 -0.841594 -0.540111 273.299 597.43)" fill="#2843CE"/>
<rect x="181.148" y="597.43" width="6.75224" height="6.75224" transform="rotate(-122.691 181.148 597.43)" fill="#2843CE"/>
<rect width="6.75224" height="6.75224" transform="matrix(0.0468978 -0.9989 -0.9989 -0.0468978 330.803 560.988)" fill="#2843CE"/>
<rect x="118.691" y="560.728" width="6.75224" height="6.75224" transform="rotate(-92.688 118.691 560.728)" fill="#2843CE"/>
</svg>
