<svg width="296" height="377" viewBox="0 0 296 377" fill="none" xmlns="http://www.w3.org/2000/svg">
<path d="M126.249 353.992L123.687 365.841C124.327 366.481 125.395 366.801 126.889 366.801C130.519 366.801 138.418 361.784 150.587 351.75C162.757 341.929 174.712 330.507 186.455 317.484L152.829 174.016C151.121 166.543 147.385 162.807 141.621 162.807C136.07 162.807 129.238 166.33 121.125 173.375L119.204 170.813C136.283 156.936 151.228 149.997 164.038 149.997C175.139 149.997 182.291 157.47 185.494 172.414L211.433 293.146C216.344 287.168 222.428 279.589 229.687 270.408C237.16 261.228 247.407 247.031 260.43 227.816C273.667 208.602 281.139 194.938 282.847 186.825H270.998C265.448 186.825 261.178 185.117 258.189 181.701C255.413 178.285 254.559 173.909 255.627 168.571C256.694 163.448 259.256 159.178 263.313 155.762C267.369 152.346 272.066 150.638 277.403 150.638C283.381 150.638 287.971 152.986 291.174 157.683C294.376 162.167 295.23 168.251 293.736 175.937C290.106 192.59 276.336 217.142 252.424 249.593C228.513 281.83 202.467 310.972 174.285 337.019C146.317 363.279 125.608 376.409 112.158 376.409C106.607 376.409 101.59 374.594 97.1069 370.965C92.837 367.335 91.4493 361.678 92.9438 353.992C94.0112 348.441 96.2529 344.064 99.6688 340.862C103.298 337.873 107.568 336.378 112.479 336.378C117.602 336.378 121.445 337.98 124.007 341.182C126.569 344.384 127.316 348.654 126.249 353.992Z" fill="#2843CE"/>
<mask id="mask0_128_7904" style="mask-type:alpha" maskUnits="userSpaceOnUse" x="31" y="31" width="152" height="153">
<ellipse cx="107.119" cy="107.344" rx="76.8172" ry="74.4894" transform="rotate(-46.9003 107.119 107.344)" fill="#D9D9D9"/>
</mask>
<g mask="url(#mask0_128_7904)">
<path d="M126.249 353.971L123.687 365.82C124.327 366.461 125.395 366.781 126.889 366.781C130.519 366.781 138.418 361.764 150.587 351.73C162.757 341.909 174.712 330.487 186.455 317.464L152.829 173.995C151.121 166.523 147.385 162.787 141.621 162.787C136.07 162.787 129.238 166.309 121.125 173.355L119.204 170.793C136.283 156.916 151.228 149.977 164.038 149.977C175.139 149.977 182.291 157.449 185.494 172.394L211.433 293.125C216.344 287.148 222.428 279.568 229.687 270.388C237.16 261.208 247.407 247.011 260.43 227.796C273.667 208.581 281.139 194.918 282.847 186.805H270.998C265.448 186.805 261.178 185.097 258.189 181.681C255.413 178.265 254.559 173.889 255.627 168.551C256.694 163.427 259.256 159.157 263.313 155.741C267.369 152.326 272.066 150.618 277.403 150.618C283.381 150.618 287.971 152.966 291.174 157.663C294.376 162.146 295.23 168.231 293.736 175.917C290.106 192.569 276.336 217.121 252.424 249.572C228.513 281.81 202.467 310.952 174.285 336.999C146.317 363.258 125.608 376.388 112.158 376.388C106.607 376.388 101.59 374.574 97.1069 370.944C92.837 367.315 91.4493 361.657 92.9438 353.971C94.0112 348.421 96.2529 344.044 99.6688 340.842C103.298 337.853 107.568 336.358 112.479 336.358C117.602 336.358 121.445 337.959 124.007 341.162C126.569 344.364 127.316 348.634 126.249 353.971Z" fill="#B11818"/>
</g>
</svg>
