<svg width="642" height="1215" viewBox="0 0 642 1215" fill="none" xmlns="http://www.w3.org/2000/svg">
<path d="M89.9998 127.834H85.3918V159.082L90.1918 159.994V160.474H77.0878V159.994L80.2078 159.082V128.026L77.0878 127.306V126.874H90.6238C94.4638 126.874 97.5678 127.738 99.9358 129.466C102.304 131.194 103.488 133.53 103.488 136.474C103.488 139.418 102.304 141.754 99.9358 143.482C97.5678 145.21 94.4638 146.074 90.6238 146.074H86.7358L86.1118 145.45V145.114H89.9998C92.4958 145.114 94.4798 144.378 95.9518 142.906C97.4558 141.402 98.2078 139.258 98.2078 136.474C98.2078 133.69 97.4558 131.562 95.9518 130.09C94.4798 128.586 92.4958 127.834 89.9998 127.834ZM114.538 140.938V159.082L117.082 159.994V160.474H106.666V159.994L109.546 159.082V127.498L106.666 126.874V126.346L113.914 125.578L114.538 126.25V136.474L114.394 139.738L114.538 139.882C115.754 138.73 117.21 137.85 118.906 137.242C120.634 136.602 122.314 136.282 123.946 136.282C126.41 136.282 128.234 137.018 129.418 138.49C130.634 139.93 131.242 141.946 131.242 144.538V159.082L134.122 159.994V160.474H123.706V159.994L126.25 159.082V145.354C126.25 140.426 124.666 137.962 121.498 137.962C120.378 137.962 119.162 138.234 117.85 138.778C116.538 139.322 115.434 140.042 114.538 140.938ZM139.58 157.402C137.34 155.194 136.22 152.234 136.22 148.522C136.22 144.81 137.34 141.85 139.58 139.642C141.82 137.402 144.748 136.282 148.364 136.282C151.948 136.282 154.86 137.402 157.1 139.642C159.34 141.882 160.46 144.842 160.46 148.522C160.46 152.234 159.34 155.194 157.1 157.402C154.892 159.61 151.98 160.714 148.364 160.714C144.748 160.714 141.82 159.61 139.58 157.402ZM141.356 148.522C141.356 152.202 141.996 155.034 143.276 157.018C144.556 159.002 146.252 159.994 148.364 159.994C150.508 159.994 152.204 159.002 153.452 157.018C154.732 155.034 155.372 152.202 155.372 148.522C155.372 144.81 154.732 141.962 153.452 139.978C152.204 137.994 150.508 137.002 148.364 137.002C146.252 137.002 144.556 137.994 143.276 139.978C141.996 141.962 141.356 144.81 141.356 148.522ZM171.116 140.938V159.082L173.66 159.994V160.474H163.244V159.994L166.124 159.082V138.058L163.244 137.434V136.906L170.492 136.138L171.116 136.81L170.972 139.738L171.116 139.882C172.3 138.762 173.756 137.882 175.484 137.242C177.212 136.602 178.892 136.282 180.524 136.282C182.988 136.282 184.812 137.018 185.996 138.49C187.212 139.93 187.82 141.946 187.82 144.538V159.082L190.7 159.994V160.474H180.284V159.994L182.828 159.082V145.354C182.828 143.114 182.428 141.322 181.628 139.978C180.828 138.634 179.58 137.962 177.884 137.962C176.7 137.962 175.484 138.234 174.236 138.778C172.988 139.322 171.948 140.042 171.116 140.938ZM214.686 148.474H197.934C197.934 151.898 198.718 154.554 200.286 156.442C201.854 158.298 204.174 159.226 207.246 159.226C210.062 159.226 212.414 158.282 214.302 156.394L214.83 156.97C212.334 159.466 209.118 160.714 205.182 160.714C201.15 160.714 198.078 159.61 195.966 157.402C193.854 155.194 192.798 152.314 192.798 148.762C192.798 144.986 193.918 141.962 196.158 139.69C198.43 137.418 201.326 136.282 204.846 136.282C207.982 136.282 210.558 137.178 212.574 138.97C214.59 140.762 215.598 143.082 215.598 145.93C215.598 146.698 215.518 147.338 215.358 147.85L214.686 148.474ZM205.038 137.002C203.15 137.002 201.518 137.93 200.142 139.786C198.766 141.61 198.03 144.266 197.934 147.754L210.702 147.034C210.702 143.738 210.206 141.242 209.214 139.546C208.222 137.85 206.83 137.002 205.038 137.002ZM231.937 159.13V127.498L229.057 126.874V126.346L236.305 125.578L236.929 126.25V136.474L236.785 139.45L236.929 139.594C239.041 137.386 241.665 136.282 244.801 136.282C247.905 136.282 250.241 137.338 251.809 139.45C253.409 141.562 254.209 144.394 254.209 147.946C254.209 152.106 253.105 155.274 250.897 157.45C248.721 159.626 245.489 160.714 241.201 160.714C237.713 160.714 234.625 160.186 231.937 159.13ZM236.929 140.65V159.082C238.753 159.69 240.273 159.994 241.489 159.994C243.953 159.994 245.841 159.018 247.153 157.066C248.465 155.114 249.121 152.33 249.121 148.714C249.121 145.482 248.497 142.89 247.249 140.938C246.033 138.954 244.417 137.962 242.401 137.962C240.225 137.962 238.401 138.858 236.929 140.65ZM261.314 157.402C259.074 155.194 257.954 152.234 257.954 148.522C257.954 144.81 259.074 141.85 261.314 139.642C263.554 137.402 266.482 136.282 270.098 136.282C273.682 136.282 276.594 137.402 278.834 139.642C281.074 141.882 282.194 144.842 282.194 148.522C282.194 152.234 281.074 155.194 278.834 157.402C276.626 159.61 273.714 160.714 270.098 160.714C266.482 160.714 263.554 159.61 261.314 157.402ZM263.09 148.522C263.09 152.202 263.73 155.034 265.01 157.018C266.29 159.002 267.986 159.994 270.098 159.994C272.242 159.994 273.938 159.002 275.186 157.018C276.466 155.034 277.106 152.202 277.106 148.522C277.106 144.81 276.466 141.962 275.186 139.978C273.938 137.994 272.242 137.002 270.098 137.002C267.986 137.002 266.29 137.994 265.01 139.978C263.73 141.962 263.09 144.81 263.09 148.522ZM289.298 157.402C287.058 155.194 285.938 152.234 285.938 148.522C285.938 144.81 287.058 141.85 289.298 139.642C291.538 137.402 294.466 136.282 298.082 136.282C301.666 136.282 304.578 137.402 306.818 139.642C309.058 141.882 310.178 144.842 310.178 148.522C310.178 152.234 309.058 155.194 306.818 157.402C304.61 159.61 301.698 160.714 298.082 160.714C294.466 160.714 291.538 159.61 289.298 157.402ZM291.074 148.522C291.074 152.202 291.714 155.034 292.994 157.018C294.274 159.002 295.97 159.994 298.082 159.994C300.226 159.994 301.922 159.002 303.17 157.018C304.45 155.034 305.09 152.202 305.09 148.522C305.09 144.81 304.45 141.962 303.17 139.978C301.922 137.994 300.226 137.002 298.082 137.002C295.97 137.002 294.274 137.994 292.994 139.978C291.714 141.962 291.074 144.81 291.074 148.522ZM312.915 137.434V137.05C316.019 136.314 318.451 134.282 320.211 130.954L320.835 131.578V136.474H328.707V137.434H320.835V154.282C320.835 155.818 321.171 157.034 321.843 157.93C322.515 158.794 323.507 159.226 324.819 159.226C326.259 159.226 327.539 158.666 328.659 157.546L329.187 158.074C327.491 159.834 325.315 160.714 322.659 160.714C320.451 160.714 318.755 160.122 317.571 158.938C316.419 157.754 315.843 156.202 315.843 154.282V137.434H312.915ZM339.257 140.938V159.082L341.801 159.994V160.474H331.385V159.994L334.265 159.082V127.498L331.385 126.874V126.346L338.633 125.578L339.257 126.25V136.474L339.113 139.738L339.257 139.882C340.473 138.73 341.929 137.85 343.625 137.242C345.353 136.602 347.033 136.282 348.665 136.282C351.129 136.282 352.953 137.018 354.137 138.49C355.353 139.93 355.961 141.946 355.961 144.538V159.082L358.841 159.994V160.474H348.425V159.994L350.969 159.082V145.354C350.969 140.426 349.385 137.962 346.217 137.962C345.097 137.962 343.881 138.234 342.569 138.778C341.257 139.322 340.153 140.042 339.257 140.938Z" fill="#2843CE"/>
<path d="M144.603 1059.51H157.899L160.155 1054.62H160.923V1060.47H136.299V1060.09L139.419 1059.32V1028.27L136.299 1027.35V1026.87H147.723V1027.35L144.603 1028.27V1059.51ZM167.9 1057.4C165.66 1055.19 164.54 1052.23 164.54 1048.52C164.54 1044.81 165.66 1041.85 167.9 1039.64C170.14 1037.4 173.068 1036.28 176.684 1036.28C180.268 1036.28 183.18 1037.4 185.42 1039.64C187.66 1041.88 188.78 1044.84 188.78 1048.52C188.78 1052.23 187.66 1055.19 185.42 1057.4C183.212 1059.61 180.3 1060.71 176.684 1060.71C173.068 1060.71 170.14 1059.61 167.9 1057.4ZM169.676 1048.52C169.676 1052.2 170.316 1055.03 171.596 1057.02C172.876 1059 174.572 1059.99 176.684 1059.99C178.828 1059.99 180.524 1059 181.772 1057.02C183.052 1055.03 183.692 1052.2 183.692 1048.52C183.692 1044.81 183.052 1041.96 181.772 1039.98C180.524 1037.99 178.828 1037 176.684 1037C174.572 1037 172.876 1037.99 171.596 1039.98C170.316 1041.96 169.676 1044.81 169.676 1048.52ZM199.436 1040.94V1059.08L201.98 1059.99V1060.47H191.564V1059.99L194.444 1059.08V1038.06L191.564 1037.43V1036.91L198.812 1036.14L199.436 1036.81L199.292 1039.74L199.436 1039.88C200.62 1038.76 202.076 1037.88 203.804 1037.24C205.532 1036.6 207.212 1036.28 208.844 1036.28C211.308 1036.28 213.132 1037.02 214.316 1038.49C215.532 1039.93 216.14 1041.95 216.14 1044.54V1059.08L219.02 1059.99V1060.47H208.604V1059.99L211.148 1059.08V1045.35C211.148 1043.11 210.748 1041.32 209.948 1039.98C209.148 1038.63 207.9 1037.96 206.204 1037.96C205.02 1037.96 203.804 1038.23 202.556 1038.78C201.308 1039.32 200.268 1040.04 199.436 1040.94ZM243.438 1058.89L246.318 1059.51V1060.04L239.118 1060.62L238.494 1059.99L238.638 1057.59L238.494 1057.45C236.414 1059.63 233.79 1060.71 230.622 1060.71C227.486 1060.71 225.118 1059.67 223.518 1057.59C221.918 1055.48 221.118 1052.63 221.118 1049.05C221.118 1044.99 222.142 1041.85 224.19 1039.64C226.27 1037.4 229.166 1036.28 232.878 1036.28C234.83 1036.28 236.702 1036.71 238.494 1037.58V1027.5L235.614 1026.87V1026.35L242.814 1025.58L243.438 1026.25V1058.89ZM238.494 1056.35V1038.25C236.766 1037.42 235.182 1037 233.742 1037C231.342 1037 229.486 1037.99 228.174 1039.98C226.894 1041.93 226.254 1044.7 226.254 1048.28C226.254 1051.51 226.862 1054.12 228.078 1056.11C229.326 1058.09 230.974 1059.08 233.022 1059.08C235.166 1059.08 236.99 1058.17 238.494 1056.35ZM252.509 1057.4C250.269 1055.19 249.149 1052.23 249.149 1048.52C249.149 1044.81 250.269 1041.85 252.509 1039.64C254.749 1037.4 257.677 1036.28 261.293 1036.28C264.877 1036.28 267.789 1037.4 270.029 1039.64C272.269 1041.88 273.389 1044.84 273.389 1048.52C273.389 1052.23 272.269 1055.19 270.029 1057.4C267.821 1059.61 264.909 1060.71 261.293 1060.71C257.677 1060.71 254.749 1059.61 252.509 1057.4ZM254.285 1048.52C254.285 1052.2 254.925 1055.03 256.205 1057.02C257.485 1059 259.181 1059.99 261.293 1059.99C263.437 1059.99 265.133 1059 266.381 1057.02C267.661 1055.03 268.301 1052.2 268.301 1048.52C268.301 1044.81 267.661 1041.96 266.381 1039.98C265.133 1037.99 263.437 1037 261.293 1037C259.181 1037 257.485 1037.99 256.205 1039.98C254.925 1041.96 254.285 1044.81 254.285 1048.52ZM284.046 1040.94V1059.08L286.59 1059.99V1060.47H276.174V1059.99L279.054 1059.08V1038.06L276.174 1037.43V1036.91L283.422 1036.14L284.046 1036.81L283.902 1039.74L284.046 1039.88C285.23 1038.76 286.686 1037.88 288.414 1037.24C290.142 1036.6 291.822 1036.28 293.454 1036.28C295.918 1036.28 297.742 1037.02 298.926 1038.49C300.142 1039.93 300.75 1041.95 300.75 1044.54V1059.08L303.63 1059.99V1060.47H293.214V1059.99L295.758 1059.08V1045.35C295.758 1043.11 295.358 1041.32 294.558 1039.98C293.758 1038.63 292.51 1037.96 290.814 1037.96C289.63 1037.96 288.414 1038.23 287.166 1038.78C285.918 1039.32 284.878 1040.04 284.046 1040.94Z" fill="#2843CE"/>
<path d="M493.332 1161.4C497.791 1164.27 505.092 1166.69 517.844 1167.49C533.366 1168.44 545.988 1168.21 564.614 1164.2C582.585 1160.32 592.462 1156.67 608.635 1147.91C626.901 1138.02 630.629 1129.08 631.232 1124.62C631.96 1119.29 630.719 1115.03 628.641 1110.25C627.444 1107.56 626.002 1104.99 624.334 1102.57C624.168 1102.32 624.016 1102.09 623.881 1101.89C623.078 1100.65 621.86 1098.78 619.161 1098.2C617.363 1097.81 615.354 1098.09 612.044 1098.79C605.259 1100.21 593.72 1105.67 588.746 1108.8C585.399 1110.91 583.187 1112.31 581.747 1114.54C580.064 1117.15 580.081 1120.02 580.277 1123.22C580.313 1123.82 580.359 1124.41 580.402 1124.97C580.671 1128.37 580.627 1129.28 579.617 1130.3C577.583 1132.34 569.246 1136.94 558.994 1139.15C548.742 1141.36 539.603 1140.51 536.899 1139.49C535.501 1138.96 535.083 1138.13 533.884 1134.81C533.712 1134.33 533.537 1133.84 533.346 1133.34C532.077 1129.96 530.978 1127.44 528.424 1125.8L528.41 1125.79C526.188 1124.36 523.665 1124.1 519.489 1123.66C514.042 1123.09 501.048 1122.64 494.256 1124.14C490.953 1124.87 489.007 1125.44 487.53 1126.53C485.307 1128.18 484.983 1130.39 484.753 1131.85C484.715 1132.1 484.675 1132.36 484.625 1132.66C484.12 1135.56 483.882 1138.49 483.916 1141.43C484.006 1146.63 484.657 1151.02 487.533 1155.58C489 1157.93 490.983 1159.93 493.332 1161.4Z" fill="#2843CE"/>
<path d="M508.5 1139C521.479 1139 532 1135.42 532 1131C532 1126.58 521.479 1123 508.5 1123C495.521 1123 485 1126.58 485 1131C485 1135.42 495.521 1139 508.5 1139Z" stroke="white" stroke-width="2" stroke-miterlimit="10"/>
<path d="M604.712 1117.46C616.8 1112.73 625.296 1105.57 623.687 1101.45C622.078 1097.34 610.975 1097.83 598.887 1102.56C586.799 1107.28 578.304 1114.45 579.913 1118.56C581.521 1122.68 592.624 1122.18 604.712 1117.46Z" stroke="white" stroke-width="2" stroke-miterlimit="10"/>
<path d="M484 1146.3C487.627 1148.13 498.788 1149.5 507.5 1149.5C518 1149.5 526.881 1146.21 532.5 1143.5C532.612 1144.15 530.944 1148.03 535 1151C539.431 1154.24 550.564 1153.64 558.5 1152C569.36 1149.76 584.642 1144.52 587 1139.5C589.156 1134.91 587.288 1130.6 587 1130C594.017 1129.42 604.277 1129.17 613.533 1123.95C620.618 1119.96 624.927 1115.72 629 1110" stroke="white" stroke-width="2" stroke-miterlimit="10"/>
<path d="M613.532 1107.1C613.877 1106.75 614.008 1106.33 613.825 1106.14C613.642 1105.96 613.214 1106.09 612.869 1106.44C612.524 1106.78 612.393 1107.21 612.576 1107.39C612.759 1107.57 613.187 1107.44 613.532 1107.1Z" fill="#2843CE"/>
<path d="M610.598 1109.18C610.943 1108.84 611.074 1108.41 610.891 1108.23C610.708 1108.05 610.28 1108.18 609.935 1108.52C609.59 1108.87 609.459 1109.29 609.642 1109.48C609.825 1109.66 610.253 1109.53 610.598 1109.18Z" fill="#2843CE"/>
<path d="M610.217 1106.69C610.562 1106.34 610.693 1105.92 610.51 1105.73C610.327 1105.55 609.899 1105.68 609.554 1106.03C609.209 1106.37 609.078 1106.8 609.261 1106.98C609.444 1107.16 609.872 1107.03 610.217 1106.69Z" fill="#2843CE"/>
<path d="M613.53 1104.88C613.875 1104.54 614.006 1104.11 613.823 1103.93C613.64 1103.74 613.212 1103.88 612.867 1104.22C612.522 1104.56 612.391 1104.99 612.574 1105.17C612.757 1105.36 613.185 1105.23 613.53 1104.88Z" fill="#2843CE"/>
<path d="M607.368 1111.03C607.713 1110.69 607.844 1110.26 607.661 1110.08C607.478 1109.89 607.05 1110.02 606.705 1110.37C606.36 1110.71 606.229 1111.14 606.412 1111.32C606.595 1111.51 607.023 1111.37 607.368 1111.03Z" fill="#2843CE"/>
<path d="M607.77 1108.47C608.115 1108.13 608.246 1107.7 608.063 1107.52C607.88 1107.34 607.452 1107.47 607.107 1107.81C606.762 1108.16 606.631 1108.58 606.814 1108.77C606.997 1108.95 607.425 1108.82 607.77 1108.47Z" fill="#2843CE"/>
<path d="M604.707 1112.68C605.051 1112.34 605.183 1111.91 605 1111.73C604.816 1111.54 604.388 1111.68 604.044 1112.02C603.699 1112.36 603.567 1112.79 603.75 1112.97C603.934 1113.16 604.362 1113.03 604.707 1112.68Z" fill="#2843CE"/>
<path d="M601.777 1114.76C602.122 1114.42 602.253 1113.99 602.07 1113.81C601.887 1113.63 601.459 1113.76 601.114 1114.1C600.769 1114.45 600.638 1114.87 600.821 1115.06C601.004 1115.24 601.432 1115.11 601.777 1114.76Z" fill="#2843CE"/>
<path d="M601.394 1112.28C601.739 1111.93 601.87 1111.5 601.687 1111.32C601.504 1111.14 601.076 1111.27 600.731 1111.61C600.386 1111.96 600.255 1112.39 600.438 1112.57C600.621 1112.75 601.049 1112.62 601.394 1112.28Z" fill="#2843CE"/>
<path d="M604.706 1110.46C605.05 1110.12 605.182 1109.69 604.999 1109.51C604.815 1109.33 604.387 1109.46 604.043 1109.8C603.698 1110.15 603.566 1110.57 603.749 1110.76C603.933 1110.94 604.361 1110.81 604.706 1110.46Z" fill="#2843CE"/>
<path d="M598.547 1116.61C598.892 1116.27 599.023 1115.84 598.84 1115.66C598.657 1115.47 598.229 1115.61 597.884 1115.95C597.539 1116.29 597.408 1116.72 597.591 1116.9C597.774 1117.09 598.202 1116.96 598.547 1116.61Z" fill="#2843CE"/>
<path d="M598.945 1114.06C599.29 1113.72 599.421 1113.29 599.238 1113.11C599.055 1112.92 598.627 1113.06 598.282 1113.4C597.937 1113.74 597.806 1114.17 597.989 1114.35C598.172 1114.54 598.6 1114.41 598.945 1114.06Z" fill="#2843CE"/>
<path d="M610.97 1103.51C611.315 1103.16 611.446 1102.74 611.263 1102.55C611.08 1102.37 610.652 1102.5 610.307 1102.85C609.962 1103.19 609.831 1103.62 610.014 1103.8C610.197 1103.98 610.625 1103.85 610.97 1103.51Z" fill="#2843CE"/>
<path d="M608.036 1105.59C608.381 1105.24 608.512 1104.82 608.329 1104.63C608.146 1104.45 607.718 1104.58 607.373 1104.93C607.028 1105.27 606.896 1105.7 607.08 1105.88C607.263 1106.06 607.691 1105.93 608.036 1105.59Z" fill="#2843CE"/>
<path d="M607.657 1103.1C608.002 1102.75 608.133 1102.33 607.95 1102.14C607.767 1101.96 607.339 1102.09 606.994 1102.44C606.649 1102.78 606.518 1103.21 606.701 1103.39C606.884 1103.57 607.312 1103.44 607.657 1103.1Z" fill="#2843CE"/>
<path d="M610.967 1101.29C611.312 1100.94 611.443 1100.51 611.26 1100.33C611.077 1100.15 610.649 1100.28 610.304 1100.62C609.959 1100.97 609.828 1101.4 610.011 1101.58C610.194 1101.76 610.622 1101.63 610.967 1101.29Z" fill="#2843CE"/>
<path d="M604.806 1107.44C605.151 1107.1 605.282 1106.67 605.099 1106.49C604.916 1106.3 604.488 1106.43 604.143 1106.78C603.798 1107.12 603.667 1107.55 603.85 1107.73C604.033 1107.91 604.461 1107.78 604.806 1107.44Z" fill="#2843CE"/>
<path d="M605.205 1104.88C605.549 1104.54 605.681 1104.11 605.498 1103.93C605.315 1103.74 604.886 1103.87 604.542 1104.22C604.197 1104.56 604.065 1104.99 604.249 1105.17C604.432 1105.36 604.86 1105.22 605.205 1104.88Z" fill="#2843CE"/>
<path d="M602.027 1108.97C602.372 1108.63 602.503 1108.2 602.32 1108.02C602.137 1107.84 601.709 1107.97 601.364 1108.31C601.019 1108.66 600.888 1109.08 601.071 1109.27C601.254 1109.45 601.682 1109.32 602.027 1108.97Z" fill="#2843CE"/>
<path d="M599.519 1111.05C599.863 1110.71 599.995 1110.28 599.812 1110.1C599.628 1109.92 599.2 1110.05 598.856 1110.39C598.511 1110.74 598.379 1111.16 598.562 1111.35C598.746 1111.53 599.174 1111.4 599.519 1111.05Z" fill="#2843CE"/>
<path d="M599.135 1108.57C599.48 1108.22 599.611 1107.79 599.428 1107.61C599.245 1107.43 598.817 1107.56 598.472 1107.9C598.127 1108.25 597.996 1108.68 598.179 1108.86C598.362 1109.04 598.79 1108.91 599.135 1108.57Z" fill="#2843CE"/>
<path d="M602.025 1106.75C602.37 1106.41 602.502 1105.98 602.318 1105.8C602.135 1105.62 601.707 1105.75 601.362 1106.09C601.017 1106.44 600.886 1106.86 601.069 1107.05C601.252 1107.23 601.68 1107.1 602.025 1106.75Z" fill="#2843CE"/>
<path d="M596.288 1112.9C596.633 1112.56 596.764 1112.13 596.581 1111.95C596.398 1111.76 595.969 1111.89 595.625 1112.24C595.28 1112.58 595.148 1113.01 595.332 1113.19C595.515 1113.38 595.943 1113.25 596.288 1112.9Z" fill="#2843CE"/>
<path d="M596.686 1110.35C597.031 1110.01 597.162 1109.58 596.979 1109.4C596.796 1109.21 596.368 1109.35 596.023 1109.69C595.678 1110.03 595.547 1110.46 595.73 1110.64C595.913 1110.83 596.341 1110.7 596.686 1110.35Z" fill="#2843CE"/>
<path d="M510.887 1135.15C511.549 1135.03 512.036 1134.66 511.975 1134.3C511.915 1133.95 511.33 1133.76 510.668 1133.88C510.007 1133.99 509.519 1134.37 509.58 1134.72C509.64 1135.07 510.226 1135.26 510.887 1135.15Z" fill="#2843CE"/>
<path d="M513.64 1131.92C514.301 1131.81 514.788 1131.43 514.728 1131.08C514.667 1130.73 514.082 1130.54 513.42 1130.66C512.759 1130.77 512.272 1131.15 512.332 1131.5C512.393 1131.85 512.978 1132.04 513.64 1131.92Z" fill="#2843CE"/>
<path d="M505.781 1134.67C506.443 1134.55 506.93 1134.18 506.87 1133.83C506.809 1133.48 506.224 1133.28 505.562 1133.4C504.901 1133.51 504.413 1133.89 504.474 1134.24C504.534 1134.59 505.12 1134.78 505.781 1134.67Z" fill="#2843CE"/>
<path d="M508.141 1131.4C508.802 1131.29 509.289 1130.91 509.229 1130.56C509.168 1130.21 508.583 1130.02 507.921 1130.13C507.26 1130.25 506.773 1130.62 506.833 1130.98C506.894 1131.33 507.479 1131.52 508.141 1131.4Z" fill="#2843CE"/>
<path d="M501.475 1134.42C502.137 1134.3 502.624 1133.93 502.563 1133.58C502.503 1133.23 501.917 1133.03 501.256 1133.15C500.594 1133.26 500.107 1133.64 500.168 1133.99C500.228 1134.34 500.814 1134.53 501.475 1134.42Z" fill="#2843CE"/>
<path d="M496.527 1134.44C497.189 1134.33 497.676 1133.95 497.616 1133.6C497.555 1133.25 496.97 1133.06 496.308 1133.17C495.647 1133.28 495.159 1133.66 495.22 1134.01C495.28 1134.36 495.866 1134.55 496.527 1134.44Z" fill="#2843CE"/>
<path d="M498.557 1131.34C499.228 1131.34 499.772 1131.05 499.772 1130.7C499.772 1130.34 499.228 1130.05 498.557 1130.05C497.886 1130.05 497.341 1130.34 497.341 1130.7C497.341 1131.05 497.886 1131.34 498.557 1131.34Z" fill="#2843CE"/>
<path d="M503.143 1131.35C503.814 1131.35 504.358 1131.06 504.358 1130.71C504.358 1130.35 503.814 1130.06 503.143 1130.06C502.471 1130.06 501.927 1130.35 501.927 1130.71C501.927 1131.06 502.471 1131.35 503.143 1131.35Z" fill="#2843CE"/>
<path d="M493.846 1131.4C494.517 1131.38 495.051 1131.07 495.038 1130.71C495.025 1130.36 494.471 1130.09 493.8 1130.11C493.129 1130.14 492.596 1130.45 492.609 1130.8C492.621 1131.16 493.175 1131.43 493.846 1131.4Z" fill="#2843CE"/>
<path d="M510.864 1129.08C511.525 1128.97 512.013 1128.59 511.952 1128.24C511.892 1127.89 511.306 1127.7 510.645 1127.81C509.983 1127.92 509.496 1128.3 509.556 1128.65C509.617 1129 510.202 1129.19 510.864 1129.08Z" fill="#2843CE"/>
<path d="M505.757 1128.6C506.419 1128.49 506.906 1128.11 506.846 1127.76C506.785 1127.41 506.2 1127.22 505.538 1127.33C504.877 1127.44 504.389 1127.82 504.45 1128.17C504.51 1128.52 505.096 1128.71 505.757 1128.6Z" fill="#2843CE"/>
<path d="M501.525 1128.76C502.186 1128.64 502.674 1128.27 502.613 1127.92C502.553 1127.57 501.967 1127.37 501.306 1127.49C500.644 1127.6 500.157 1127.98 500.218 1128.33C500.278 1128.68 500.863 1128.87 501.525 1128.76Z" fill="#2843CE"/>
<path d="M496.941 1128.48C497.603 1128.36 498.09 1127.99 498.029 1127.64C497.969 1127.29 497.383 1127.09 496.722 1127.21C496.06 1127.32 495.573 1127.7 495.634 1128.05C495.694 1128.4 496.279 1128.59 496.941 1128.48Z" fill="#2843CE"/>
<path d="M14.3529 1119.79H421.592C425.907 1119.79 430.045 1121.5 433.096 1124.54C436.147 1127.59 437.861 1131.72 437.861 1136.03V1164.93H-1.99999V1136.05C-2.0028 1133.91 -1.58127 1131.78 -0.759679 1129.81C0.0619164 1127.83 1.26736 1126.03 2.78725 1124.52C4.30715 1123.01 6.11149 1121.81 8.0964 1121C10.0813 1120.19 12.2076 1119.77 14.3529 1119.79Z" fill="white" stroke="#2843CE" stroke-width="2" stroke-miterlimit="10"/>
<path d="M419.271 104.362V193.022H426.509V1119.85H9.54236V193.022H16.6743V104.362H-0.796875V70.175H16.6743C16.6743 70.175 50.625 1 217.319 1C384.013 1 419.271 70.175 419.271 70.175H436.743V104.362H419.271Z" fill="white" stroke="#2843CE" stroke-width="2" stroke-miterlimit="10"/>
<path d="M12.9395 78.2003H24.7346C24.7346 78.2003 54.7606 13.1328 218.986 13.1328C383.211 13.1328 410.198 78.2003 410.198 78.2003H423.112" stroke="#2843CE" stroke-width="2" stroke-miterlimit="10"/>
<path d="M388.435 109.629H48V179.078H388.435V109.629Z" stroke="#2843CE" stroke-width="2" stroke-miterlimit="10"/>
<path d="M379.302 118.623H56V170.041H379.302V118.623Z" fill="white" stroke="#2843CE" stroke-width="2" stroke-miterlimit="10"/>
<path d="M53.1571 213.771H22.1816V244.693H53.1571V213.771Z" stroke="#2843CE" stroke-width="2" stroke-miterlimit="10"/>
<path d="M37.6687 237.067C42.0038 237.067 45.5181 233.559 45.5181 229.231C45.5181 224.904 42.0038 221.396 37.6687 221.396C33.3336 221.396 29.8193 224.904 29.8193 229.231C29.8193 233.559 33.3336 237.067 37.6687 237.067Z" fill="#2843CE" stroke="#2843CE" stroke-width="2" stroke-miterlimit="10"/>
<path d="M53.1571 1077.21H22.1816V1108.14H53.1571V1077.21Z" stroke="#2843CE" stroke-width="2" stroke-miterlimit="10"/>
<path d="M37.6687 1100.51C42.0038 1100.51 45.5181 1097 45.5181 1092.68C45.5181 1088.35 42.0038 1084.84 37.6687 1084.84C33.3336 1084.84 29.8193 1088.35 29.8193 1092.68C29.8193 1097 33.3336 1100.51 37.6687 1100.51Z" fill="#2843CE" stroke="#2843CE" stroke-width="2" stroke-miterlimit="10"/>
<path d="M413.047 1077.21H382.071V1108.14H413.047V1077.21Z" stroke="#2843CE" stroke-width="2" stroke-miterlimit="10"/>
<path d="M397.58 1100.51C401.915 1100.51 405.429 1097 405.429 1092.68C405.429 1088.35 401.915 1084.84 397.58 1084.84C393.245 1084.84 389.73 1088.35 389.73 1092.68C389.73 1097 393.245 1100.51 397.58 1100.51Z" fill="#2843CE" stroke="#2843CE" stroke-width="2" stroke-miterlimit="10"/>
<path d="M413.047 213.686H382.071V244.608H413.047V213.686Z" stroke="#2843CE" stroke-width="2" stroke-miterlimit="10"/>
<path d="M397.58 236.983C401.915 236.983 405.429 233.475 405.429 229.147C405.429 224.82 401.915 221.312 397.58 221.312C393.245 221.312 389.73 224.82 389.73 229.147C389.73 233.475 393.245 236.983 397.58 236.983Z" fill="#2843CE" stroke="#2843CE" stroke-width="2" stroke-miterlimit="10"/>
<path d="M53.1567 213.771H382.071" stroke="#2843CE" stroke-width="2" stroke-miterlimit="10"/>
<path d="M53.1567 218.552H382.071" stroke="#2843CE" stroke-width="2" stroke-miterlimit="10"/>
<path d="M53.1567 223.354H382.071" stroke="#2843CE" stroke-width="2" stroke-miterlimit="10"/>
<path d="M53.1567 227.567H382.071" stroke="#2843CE" stroke-width="2" stroke-miterlimit="10"/>
<path d="M53.1567 244.692H382.071" stroke="#2843CE" stroke-width="2" stroke-miterlimit="10"/>
<path d="M22.1816 1077.21V244.608" stroke="#2843CE" stroke-width="2" stroke-miterlimit="10"/>
<path d="M26.9712 1077.21V244.608" stroke="#2843CE" stroke-width="2" stroke-miterlimit="10"/>
<path d="M31.7822 1077.21V244.608" stroke="#2843CE" stroke-width="2" stroke-miterlimit="10"/>
<path d="M36.002 1077.21V244.608" stroke="#2843CE" stroke-width="2" stroke-miterlimit="10"/>
<path d="M53.1567 290.128V244.692" stroke="#2843CE" stroke-width="2" stroke-miterlimit="10"/>
<path d="M53.1567 1077.3V692.455" stroke="#2843CE" stroke-width="2" stroke-miterlimit="10"/>
<path d="M53.1567 609.989V372.595" stroke="#2843CE" stroke-width="2" stroke-miterlimit="10"/>
<path d="M398.276 1077.3V244.692" stroke="#2843CE" stroke-width="2" stroke-miterlimit="10"/>
<path d="M382.071 1077.3V244.692" stroke="#2843CE" stroke-width="2" stroke-miterlimit="10"/>
<path d="M403.087 1077.3V244.692" stroke="#2843CE" stroke-width="2" stroke-miterlimit="10"/>
<path d="M407.898 1077.3V244.692" stroke="#2843CE" stroke-width="2" stroke-miterlimit="10"/>
<path d="M412.118 1077.3V244.692" stroke="#2843CE" stroke-width="2" stroke-miterlimit="10"/>
<path d="M57.5671 290.128H48.7471V306.916H57.5671V290.128Z" fill="#2843CE" stroke="#2843CE" stroke-width="2" stroke-miterlimit="10"/>
<path d="M57.5671 306.916H48.7471V323.388H57.5671V306.916Z" stroke="#2843CE" stroke-width="2" stroke-miterlimit="10"/>
<path d="M57.5671 323.389H48.7471V338.471H57.5671V323.389Z" fill="#2843CE" stroke="#2843CE" stroke-width="2" stroke-miterlimit="10"/>
<path d="M57.5671 338.471H48.7471V355.554H57.5671V338.471Z" stroke="#2843CE" stroke-width="2" stroke-miterlimit="10"/>
<path d="M57.5671 355.554H48.7471V372.595H57.5671V355.554Z" fill="#2843CE" stroke="#2843CE" stroke-width="2" stroke-miterlimit="10"/>
<path d="M57.5671 609.988H48.7471V626.776H57.5671V609.988Z" fill="#2843CE" stroke="#2843CE" stroke-width="2" stroke-miterlimit="10"/>
<path d="M57.5671 626.776H48.7471V643.27H57.5671V626.776Z" stroke="#2843CE" stroke-width="2" stroke-miterlimit="10"/>
<path d="M57.5671 643.271H48.7471V658.331H57.5671V643.271Z" fill="#2843CE" stroke="#2843CE" stroke-width="2" stroke-miterlimit="10"/>
<path d="M57.5671 658.331H48.7471V675.414H57.5671V658.331Z" stroke="#2843CE" stroke-width="2" stroke-miterlimit="10"/>
<path d="M57.5671 675.414H48.7471V692.455H57.5671V675.414Z" fill="#2843CE" stroke="#2843CE" stroke-width="2" stroke-miterlimit="10"/>
<path d="M358.228 1002.12H81.4736V1089.45H358.228V1002.12Z" stroke="#2843CE" stroke-width="2" stroke-miterlimit="10"/>
<path d="M342.676 1015.64H97.0244V1075.93H342.676V1015.64Z" fill="white" stroke="#2843CE" stroke-width="2" stroke-miterlimit="10"/>
<rect x="83.4727" y="279.474" width="274" height="690" stroke="#2843CE" stroke-width="2"/>
<path d="M83.4727 480.474H91.4727C95.8909 480.474 99.4727 484.055 99.4727 488.474V617.474C99.4727 621.892 95.8909 625.474 91.4727 625.474H83.4727V480.474Z" fill="#2843CE" stroke="#2843CE" stroke-width="2"/>
<path d="M96.4727 623.474C119.473 633.974 165.773 667.274 166.973 716.474C168.473 777.974 125.473 798.974 110.973 771.474C96.4727 743.974 135.473 710.474 190.473 731.974C245.473 753.474 264.973 845.974 245.473 903.474C225.973 960.974 158.973 911.474 198.473 892.974C230.073 878.174 307.473 921.974 331.973 942.474C356.473 962.974 388.373 1004.57 353.973 1016.97C310.973 1032.47 274.473 989.474 331.973 976.474C377.973 966.074 433.973 1013.47 450.973 1066.47C457.385 1086.46 466.373 1124.67 433.973 1117.47C393.473 1108.47 468.973 1073.47 472.973 1099.47C476.173 1120.27 481.639 1133.81 483.973 1137.97" stroke="#2843CE" stroke-width="2"/>
</svg>
