<svg width="1440" height="1355" viewBox="0 0 1440 1355" fill="none" xmlns="http://www.w3.org/2000/svg">
<path d="M177.298 224.317L175.93 225.685C171.522 221.277 168.482 217.857 166.81 215.425C165.138 212.917 164.302 210.713 164.302 208.813C164.302 207.065 165.29 204.519 167.266 201.175C169.166 197.755 170.116 195.019 170.116 192.967C170.116 188.711 168.14 184.607 164.188 180.655L165.442 179.287C173.422 187.115 177.412 192.967 177.412 196.843C177.412 198.439 176.462 200.985 174.562 204.481C172.586 207.977 171.598 210.789 171.598 212.917C171.598 216.717 173.498 220.517 177.298 224.317Z" fill="#2843CE"/>
<path d="M201.298 170.317L199.93 171.685C195.522 167.277 192.482 163.857 190.81 161.425C189.138 158.917 188.302 156.713 188.302 154.813C188.302 153.065 189.29 150.519 191.266 147.175C193.166 143.755 194.116 141.019 194.116 138.967C194.116 134.711 192.14 130.607 188.188 126.655L189.442 125.287C197.422 133.115 201.412 138.967 201.412 142.843C201.412 144.439 200.462 146.985 198.562 150.481C196.586 153.977 195.598 156.789 195.598 158.917C195.598 162.717 197.498 166.517 201.298 170.317Z" fill="#2843CE"/>
<path d="M237.298 225.317L235.93 226.685C231.522 222.277 228.482 218.857 226.81 216.425C225.138 213.917 224.302 211.713 224.302 209.813C224.302 208.065 225.29 205.519 227.266 202.175C229.166 198.755 230.116 196.019 230.116 193.967C230.116 189.711 228.14 185.607 224.188 181.655L225.442 180.287C233.422 188.115 237.412 193.967 237.412 197.843C237.412 199.439 236.462 201.985 234.562 205.481C232.586 208.977 231.598 211.789 231.598 213.917C231.598 217.717 233.498 221.517 237.298 225.317Z" fill="#2843CE"/>
<path d="M1096.3 228.317L1094.93 229.685C1090.52 225.277 1087.48 221.857 1085.81 219.425C1084.14 216.917 1083.3 214.713 1083.3 212.813C1083.3 211.065 1084.29 208.519 1086.27 205.175C1088.17 201.755 1089.12 199.019 1089.12 196.967C1089.12 192.711 1087.14 188.607 1083.19 184.655L1084.44 183.287C1092.42 191.115 1096.41 196.967 1096.41 200.843C1096.41 202.439 1095.46 204.985 1093.56 208.481C1091.59 211.977 1090.6 214.789 1090.6 216.917C1090.6 220.717 1092.5 224.517 1096.3 228.317Z" fill="#B11818"/>
<path d="M1120.3 174.317L1118.93 175.685C1114.52 171.277 1111.48 167.857 1109.81 165.425C1108.14 162.917 1107.3 160.713 1107.3 158.813C1107.3 157.065 1108.29 154.519 1110.27 151.175C1112.17 147.755 1113.12 145.019 1113.12 142.967C1113.12 138.711 1111.14 134.607 1107.19 130.655L1108.44 129.287C1116.42 137.115 1120.41 142.967 1120.41 146.843C1120.41 148.439 1119.46 150.985 1117.56 154.481C1115.59 157.977 1114.6 160.789 1114.6 162.917C1114.6 166.717 1116.5 170.517 1120.3 174.317Z" fill="#B11818"/>
<path d="M1156.3 229.317L1154.93 230.685C1150.52 226.277 1147.48 222.857 1145.81 220.425C1144.14 217.917 1143.3 215.713 1143.3 213.813C1143.3 212.065 1144.29 209.519 1146.27 206.175C1148.17 202.755 1149.12 200.019 1149.12 197.967C1149.12 193.711 1147.14 189.607 1143.19 185.655L1144.44 184.287C1152.42 192.115 1156.41 197.967 1156.41 201.843C1156.41 203.439 1155.46 205.985 1153.56 209.481C1151.59 212.977 1150.6 215.789 1150.6 217.917C1150.6 221.717 1152.5 225.517 1156.3 229.317Z" fill="#B11818"/>
<path d="M1473.83 342.202C1473.83 435.843 1389.93 521.005 1253.38 582.823C1116.94 644.594 928.36 682.83 720 682.83C511.64 682.83 323.061 644.594 186.617 582.823C50.0655 521.005 -33.8295 435.843 -33.8295 342.202C-33.8295 248.561 50.0655 163.399 186.617 101.58C323.061 39.81 511.64 1.57386 720 1.57386C928.36 1.57386 1116.94 39.81 1253.38 101.58C1389.93 163.399 1473.83 248.561 1473.83 342.202Z" stroke="#2843CE" stroke-width="2.34109"/>
<path d="M265.648 269.712C265.648 270.404 265.347 271.19 264.551 272.08C263.747 272.978 262.499 273.908 260.779 274.837C257.342 276.695 252.28 278.41 245.909 279.866C233.189 282.773 215.55 284.584 196.02 284.584C176.49 284.584 158.851 282.773 146.131 279.866C139.76 278.41 134.698 276.695 131.261 274.837C129.541 273.908 128.293 272.978 127.489 272.08C126.693 271.19 126.392 270.404 126.392 269.712C126.392 269.02 126.693 268.234 127.489 267.344C128.293 266.446 129.541 265.515 131.261 264.586C134.698 262.729 139.76 261.014 146.131 259.558C158.851 256.65 176.49 254.84 196.02 254.84C215.55 254.84 233.189 256.65 245.909 259.558C252.28 261.014 257.342 262.729 260.779 264.586C262.499 265.515 263.747 266.446 264.551 267.344C265.347 268.234 265.648 269.02 265.648 269.712Z" stroke="#2843CE" stroke-width="2.704"/>
<path d="M126.392 271.064C137.53 295.949 128.196 306.439 146.091 338.957C163.986 371.475 226.923 370.55 245.264 338.957C263.604 307.363 253.535 295.604 265.648 271.064" stroke="#2843CE" stroke-width="2.704"/>
<path d="M133.152 296.752C122.685 292.795 107.085 290.31 116.758 310.732C126.431 331.155 137.2 330.917 141.94 327.848M130.435 285.299C119.968 281.342 91.504 281.453 101.254 311.9C111.005 342.348 138.939 338.212 143.679 335.143" stroke="#2843CE" stroke-width="2.704"/>
<path d="M1051.35 275.224C1051.35 275.916 1051.65 276.702 1052.45 277.592C1053.25 278.49 1054.5 279.421 1056.22 280.35C1059.66 282.207 1064.72 283.922 1071.09 285.378C1083.81 288.285 1101.45 290.096 1120.98 290.096C1140.51 290.096 1158.15 288.285 1170.87 285.378C1177.24 283.922 1182.3 282.207 1185.74 280.35C1187.46 279.421 1188.71 278.49 1189.51 277.592C1190.31 276.702 1190.61 275.916 1190.61 275.224C1190.61 274.532 1190.31 273.746 1189.51 272.856C1188.71 271.958 1187.46 271.027 1185.74 270.098C1182.3 268.241 1177.24 266.526 1170.87 265.07C1158.15 262.163 1140.51 260.352 1120.98 260.352C1101.45 260.352 1083.81 262.163 1071.09 265.07C1064.72 266.526 1059.66 268.241 1056.22 270.098C1054.5 271.027 1053.25 271.958 1052.45 272.856C1051.65 273.746 1051.35 274.532 1051.35 275.224Z" stroke="#B11818" stroke-width="2.704"/>
<path d="M1190.61 276.576C1179.47 301.461 1188.8 311.951 1170.91 344.469C1153.01 376.987 1090.08 376.063 1071.74 344.469C1053.4 312.875 1063.46 301.117 1051.35 276.576" stroke="#B11818" stroke-width="2.704"/>
<path d="M1183.85 302.264C1194.31 298.307 1209.92 295.822 1200.24 316.245C1190.57 336.667 1179.8 336.429 1175.06 333.36M1186.57 290.811C1197.03 286.854 1225.5 286.965 1215.75 317.412C1206 347.86 1178.06 343.724 1173.32 340.656" stroke="#B11818" stroke-width="2.704"/>
<path d="M132.9 199.812C99.31 183.892 41.04 196.242 16.54 202.362V288.972C20.97 289.342 37.54 290.212 61.54 285.222C67.69 283.942 72.91 282.682 77.34 281.342C77.34 281.342 68.34 268.402 84.34 262.012C97.42 256.752 98.11 265.112 97.93 268.262C99.461 265.461 100.496 262.416 100.99 259.262C103.55 244.612 46.36 248.472 46.36 248.472C67.51 236.772 112.27 240.132 112.27 240.132C112.27 240.132 122.52 247.862 132.38 248.442C142.24 249.022 140.96 239.112 140.96 239.112C147.62 239.112 150.59 236.712 151.8 235.462C152.7 234.522 153.73 232.682 155.74 229.032C156.56 227.542 157.22 226.362 157.74 225.422C158.242 224.567 158.677 223.674 159.04 222.752C160.86 216.672 142.98 204.612 132.9 199.812ZM122.79 229.422C115.17 222.202 124.06 219.662 124.06 219.662C129.721 222.468 134.496 226.784 137.86 232.132C138.82 233.72 139.63 235.394 140.28 237.132C135.4 242.612 130.4 236.612 122.79 229.422Z" fill="white" stroke="#2843CE" stroke-width="2" stroke-miterlimit="10"/>
<path d="M97.8501 268.262C94.4801 274.182 88.3801 278.002 77.3101 281.342C77.3101 281.342 68.3101 268.402 84.3101 262.012C97.3401 256.752 98.0301 265.112 97.8501 268.262Z" fill="white" stroke="#2843CE" stroke-width="2" stroke-miterlimit="10"/>
<path d="M140.28 237.112C135.4 242.632 130.4 236.652 122.79 229.422C115.18 222.192 124.06 219.662 124.06 219.662C129.721 222.468 134.496 226.784 137.86 232.132C138.819 233.713 139.629 235.381 140.28 237.112Z" fill="white" stroke="#2843CE" stroke-width="2" stroke-miterlimit="10"/>
<path d="M140.96 239.112C140.75 238.422 140.52 237.762 140.28 237.112L140.96 239.112Z" fill="white"/>
<path d="M140.96 239.112C140.75 238.422 140.52 237.762 140.28 237.112" stroke="#2843CE" stroke-width="2" stroke-miterlimit="10"/>
<path d="M54.5498 214.162C60.7198 213.162 100.15 207.062 124.09 219.662L54.5498 214.162Z" fill="white"/>
<path d="M54.5498 214.162C60.7198 213.162 100.15 207.062 124.09 219.662" stroke="#2843CE" stroke-width="2" stroke-miterlimit="10"/>
<path d="M143.45 206.412C143.45 206.412 141.96 218.672 157.79 225.412L143.45 206.412Z" fill="white"/>
<path d="M143.45 206.412C143.45 206.412 141.96 218.672 157.79 225.412" stroke="#2843CE" stroke-width="2" stroke-miterlimit="10"/>
<path d="M138.86 211.802C138.49 212.672 135.62 219.802 139.5 226.082C141.59 229.472 146.5 233.932 151.21 232.592C153.093 231.977 154.698 230.716 155.74 229.032C151.467 223.485 146.635 218.391 141.32 213.832C134.22 207.752 127.78 202.242 117.95 199.442C113.88 198.282 109.05 197.952 99.3902 197.282C92.1102 196.782 86.0702 196.652 81.9102 196.632" fill="white"/>
<path d="M138.86 211.802C138.49 212.672 135.62 219.802 139.5 226.082C141.59 229.472 146.5 233.932 151.21 232.592C153.093 231.977 154.698 230.716 155.74 229.032C151.467 223.485 146.635 218.391 141.32 213.832C134.22 207.752 127.78 202.242 117.95 199.442C113.88 198.282 109.05 197.952 99.3902 197.282C92.1102 196.782 86.0702 196.652 81.9102 196.632" stroke="#2843CE" stroke-width="2" stroke-miterlimit="10"/>
<path d="M97.8502 268.262C97.8368 268.641 97.8001 269.018 97.7402 269.392L97.8502 268.262Z" fill="white"/>
<path d="M97.8502 268.262C97.8368 268.641 97.8001 269.018 97.7402 269.392" stroke="#2843CE" stroke-width="2" stroke-miterlimit="10"/>
<path d="M16.54 199.902H-15V294.182H16.54V199.902Z" fill="#2843CE" stroke="#2843CE" stroke-width="2" stroke-miterlimit="10"/>
<path d="M1224.25 242.593C1234.66 235.643 1242.04 230.713 1253.93 226.887C1266.8 222.757 1280.39 221.353 1293.83 222.765" fill="white"/>
<path d="M1224.25 242.593C1234.66 235.643 1242.04 230.713 1253.93 226.887C1266.8 222.757 1280.39 221.353 1293.83 222.765" stroke="#B11818" stroke-width="2" stroke-miterlimit="10"/>
<path d="M1225.41 250.764C1224.69 254.161 1216.75 268.671 1205.42 260.765C1206.44 257.673 1209.84 252.677 1221.23 244.663C1221.23 244.663 1226.14 247.367 1225.41 250.764Z" fill="white" stroke="#B11818" stroke-width="2" stroke-miterlimit="10"/>
<path d="M1249.58 289.061C1248.81 288.665 1248.1 288.286 1247.46 287.931H1247.41C1239.82 283.677 1235.53 280.14 1234.22 276.43C1234.22 276.43 1250.29 273.132 1252.01 283.067C1253.08 288.92 1251.23 289.531 1249.58 289.061Z" fill="white" stroke="#B11818" stroke-width="2" stroke-miterlimit="10"/>
<path d="M1241.38 259.33C1240.98 260.006 1240.56 260.658 1240.17 261.292C1234.1 270.724 1227.32 274.847 1223.44 276.792C1220.29 278.342 1214.72 281.08 1211.58 278.623C1209.93 277.337 1209.52 275.069 1209.44 273.42" fill="white"/>
<path d="M1241.38 259.33C1240.98 260.006 1240.56 260.658 1240.17 261.292C1234.1 270.724 1227.32 274.847 1223.44 276.792C1220.29 278.342 1214.72 281.08 1211.58 278.623C1209.93 277.337 1209.52 275.069 1209.44 273.42" stroke="#B11818" stroke-width="2" stroke-miterlimit="10"/>
<path d="M1268.87 250.764C1268.87 250.764 1262.84 257.714 1260.08 257.714C1256.3 257.554 1252.58 258.625 1249.47 260.765C1245.2 263.634 1240.16 261.292 1240.16 261.292" fill="white"/>
<path d="M1268.87 250.764C1268.87 250.764 1262.84 257.714 1260.08 257.714C1256.3 257.554 1252.58 258.625 1249.47 260.765C1245.2 263.634 1240.16 261.292 1240.16 261.292" stroke="#B11818" stroke-width="2" stroke-miterlimit="10"/>
<path d="M1247.49 287.931C1248.13 288.424 1248.85 288.806 1249.61 289.061L1247.49 287.931Z" fill="white"/>
<path d="M1247.49 287.931C1248.13 288.424 1248.85 288.806 1249.61 289.061" stroke="#B11818" stroke-width="2" stroke-miterlimit="10"/>
<path d="M1332.64 217.307V301.139C1330.31 302.029 1326.21 303.332 1319.05 305.212C1300.4 310.117 1264.29 296.629 1249.61 289.061C1251.26 289.53 1253.08 288.92 1252.09 283.034C1250.36 273.14 1234.29 276.397 1234.29 276.397C1233.37 273.783 1233.92 271.087 1235.84 267.987C1240.49 260.493 1261.18 268.251 1263.76 272.645C1266.34 277.04 1313.89 276.496 1293.8 257.912C1286.8 251.415 1277.72 249.931 1268.87 250.764C1257.88 251.786 1247.25 256.379 1241.38 259.322C1238.43 260.798 1236.68 261.861 1236.68 261.861C1226.89 273.561 1215.25 277.279 1209.48 273.404C1206.28 271.268 1204.88 266.808 1205.01 263.222C1205.04 262.38 1205.19 261.547 1205.45 260.748C1216.78 268.655 1224.72 254.153 1225.45 250.747C1226.17 247.342 1221.27 244.646 1221.27 244.646C1222.21 243.976 1223.22 243.286 1224.28 242.577C1249.13 208.526 1315.59 215.015 1332.64 217.307Z" fill="white" stroke="#B11818" stroke-width="2" stroke-miterlimit="10"/>
<path d="M1440 211L1334.18 214.322L1333 304.832L1440 306" fill="#B11818"/>
<path d="M1440 211L1334.18 214.322L1333 304.832L1440 306" stroke="#B11818" stroke-width="2" stroke-miterlimit="10"/>
<mask id="mask0_270_18" style="mask-type:alpha" maskUnits="userSpaceOnUse" x="-4" y="431" width="1449" height="879">
<path d="M73 1308C19.8 1308 0.833333 1281.33 -2 1268V436C50.6667 522.667 268.9 692.6 720.5 679C1172.1 665.4 1390.33 511.333 1443 436V1268C1442 1281.33 1426.7 1308 1373.5 1308C1320.3 1308 1301.33 1281.33 1298.5 1268C1297.5 1281.33 1282.2 1308 1229 1308C1175.8 1308 1156.83 1281.33 1154 1268C1153 1281.33 1137.7 1308 1084.5 1308C1031.3 1308 1012.33 1281.33 1009.5 1268C1008.5 1281.33 993.2 1308 940 1308C886.8 1308 867.833 1281.33 865 1268C864 1281.33 848.7 1308 795.5 1308C742.3 1308 723.333 1281.33 720.5 1268C719.5 1281.33 704.2 1308 651 1308C597.8 1308 578.833 1281.33 576 1268C575 1281.33 559.7 1308 506.5 1308C453.3 1308 434.333 1281.33 431.5 1268C430.5 1281.33 415.2 1308 362 1308C308.8 1308 289.833 1281.33 287 1268C286 1281.33 270.7 1308 217.5 1308C164.3 1308 145.333 1281.33 142.5 1268C141.5 1281.33 126.2 1308 73 1308Z" fill="#D9D9D9" stroke="#2843CE" stroke-width="2.35"/>
</mask>
<g mask="url(#mask0_270_18)">
<path d="M414.154 1028.16L422.228 1031.69C403.942 1093.24 378.859 1134.91 346.98 1156.7C332.069 1166.89 317.945 1170.51 304.608 1167.56C291.434 1163.74 281.536 1152.02 274.915 1132.4L267.416 1111.5L264.292 1110.24C251.031 1187.96 216.635 1245.81 161.104 1283.77C115.856 1314.7 73.4054 1318.83 33.7517 1296.14C-5.90189 1273.45 -39.1488 1229.79 -65.9891 1165.14C-98.3171 1089.16 -105.351 1019.27 -87.0912 955.485C-69.1828 891.183 -27.3211 836.535 38.494 791.541C72.4299 768.341 109.041 752.366 148.329 743.616L178.826 692.21L194.692 697.208L349.572 1067.78C358.978 1089.27 370.366 1095.44 383.735 1086.3C395.047 1078.57 405.186 1059.19 414.154 1028.16ZM253.101 1083.94L125.426 779.644C92.7971 781.579 64.6565 790.631 41.0042 806.801C3.46899 832.461 -18.0275 870.546 -23.4852 921.056C-28.7803 970.699 -17.9133 1028.53 9.11581 1094.56C34.335 1153.52 63.2404 1195.25 95.832 1219.75C128.424 1244.25 159.374 1246.48 188.682 1226.44C225.703 1201.13 247.176 1153.63 253.101 1083.94Z" fill="#2843CE"/>
<path d="M680.533 1348.81L682.328 1353.34C651.16 1370.4 625.068 1376.99 604.05 1373.13C594.219 1371.33 587.429 1367.27 583.68 1360.98C579.993 1354.34 580.332 1345.82 584.698 1335.41L634.96 1210.6C655.06 1160.33 649.855 1132.39 619.345 1126.78C608.159 1124.73 594.329 1126.57 577.856 1132.3C561.384 1138.04 545.907 1146.93 531.427 1158.99L457.055 1343.5L410.783 1335L406.404 1327.36L540.046 997.621L512.785 985.78L514.829 980.373L594.123 986.53L597.9 994.583L556.138 1098.87L536.45 1143.09L537.187 1144.8C555.029 1131.61 574.391 1122.55 595.27 1117.63C616.551 1112.43 635.327 1111.32 651.599 1114.31C676.345 1118.86 691.693 1129.74 697.642 1146.95C703.993 1163.88 701.764 1185.55 690.957 1211.95L639.719 1339.21C635.042 1351.32 637.11 1358.18 645.924 1359.8C653.382 1361.17 664.918 1357.5 680.533 1348.81Z" fill="#B11818"/>
<path d="M1149.23 1213.32C1158.4 1208.54 1162.68 1196.99 1162.06 1178.65C1161.75 1160.16 1156.68 1133.27 1146.83 1097.97L1079.98 862.304L1046.05 879.986L1045.06 875.84L1075.82 848.731L1066.23 814.668C1059.5 790.578 1060.83 768.51 1070.21 748.466C1079.73 727.957 1097.63 710.853 1123.92 697.154C1141.65 687.915 1157.76 683.79 1172.27 684.78C1186.78 685.769 1196.08 693.552 1200.18 708.129C1202.48 716.261 1202.22 723.973 1199.41 731.266C1196.91 738.399 1192.3 743.718 1185.57 747.223C1177.93 751.205 1170.62 751.713 1163.63 748.747C1156.79 745.317 1151.83 738.771 1148.73 729.111L1140.87 701.725C1135.32 701.51 1130.56 702.438 1126.58 704.508C1116.5 709.765 1110.43 720.119 1108.38 735.569C1106.16 750.714 1108.01 768.797 1113.91 789.818L1124.72 827.329L1198.07 789.099L1201.02 799.224L1127.66 837.455L1194.52 1073.12C1204.53 1109.49 1205.52 1140.85 1197.48 1167.19C1189.45 1193.53 1172.59 1213.39 1146.92 1226.77C1131.94 1234.58 1119.88 1237.17 1110.74 1234.55C1101.3 1232.09 1095.1 1225.79 1092.16 1215.67C1089.7 1207.23 1090.1 1199.05 1093.36 1191.14C1096.47 1183.69 1101.55 1178.13 1108.58 1174.46C1115.91 1170.64 1122.69 1170.22 1128.9 1173.2C1135.28 1176.48 1139.85 1182.65 1142.63 1191.7L1149.23 1213.32Z" fill="#B11818"/>
<path d="M815.281 1182.36L812.115 1180.73C822.44 1158.55 834.218 1144.25 847.45 1137.81C853.64 1134.8 859.111 1134.38 863.864 1136.56C868.513 1138.52 871.858 1143.22 873.9 1150.68L898.02 1245.83C901.152 1260.41 906.288 1271.24 913.429 1278.32C920.783 1285.3 929.262 1286.45 938.866 1281.78C946.549 1278.04 953.52 1271.49 959.778 1262.11C966.25 1252.62 971.099 1241.16 974.323 1227.72L940.427 1094.56L969.238 1080.54L974.94 1083.31L1011.88 1229.24C1014.23 1237.86 1018.28 1240.77 1024.05 1237.97C1028.96 1235.58 1033.75 1228.89 1038.44 1217.91L1041.28 1219.69C1031.38 1241.66 1019.6 1255.97 1005.95 1262.61C999.97 1265.52 994.551 1266.04 989.689 1264.18C984.936 1262.01 981.645 1257.14 979.817 1249.59L978.026 1238.58L976.919 1237.93C972.298 1252.85 965.523 1265.78 956.594 1276.72C947.665 1287.66 937.972 1295.68 927.514 1300.76C912.361 1308.14 899.458 1308.74 888.805 1302.57C878.151 1296.41 870.687 1284.86 866.414 1267.94L841.835 1171.02C839.487 1162.4 835.539 1159.44 829.99 1162.14C824.868 1164.63 819.965 1171.37 815.281 1182.36Z" fill="#2843CE"/>
<path d="M1346.13 1135.65L1322.96 1114.77C1312.6 1120.72 1304.25 1129.18 1297.92 1140.15C1289.42 1154.87 1285.95 1169.22 1287.5 1183.2C1289.05 1197.19 1294.93 1208.66 1305.14 1217.64C1310.25 1222.13 1315.3 1225.05 1320.3 1226.39C1325.29 1227.74 1330.63 1227.16 1336.31 1224.66C1341.86 1221.71 1346.9 1218.65 1351.42 1215.49C1355.65 1212.16 1361.54 1207.29 1369.09 1200.87C1392.83 1181.09 1410.35 1169.07 1421.66 1164.82C1442.28 1157.1 1461.53 1161.09 1479.41 1176.8C1496.13 1191.84 1505.45 1210.7 1507.37 1233.36C1509.01 1255.86 1501.41 1281.69 1484.58 1310.85C1470.75 1334.81 1456.58 1350.68 1442.07 1358.47C1427.44 1365.81 1414.18 1364.12 1402.28 1353.4C1395.77 1347.33 1391.91 1340.68 1390.71 1333.44C1389.5 1326.2 1390.64 1319.54 1394.14 1313.48C1398.14 1306.55 1403.37 1302.84 1409.82 1302.33C1416.27 1301.82 1423.13 1304.62 1430.38 1310.73L1453.54 1331.61C1463.74 1325.95 1472.33 1317.06 1479.33 1304.93C1488.67 1288.77 1492.83 1272.89 1491.82 1257.29C1490.7 1241.25 1484.59 1228.49 1473.51 1219.01C1463.18 1209.58 1452.59 1206.93 1441.73 1211.05C1431.05 1214.89 1417.51 1224.01 1401.11 1238.41C1390.07 1248.2 1381.42 1255.52 1375.16 1260.37C1368.77 1264.77 1361.12 1269.01 1352.21 1273.11C1343.31 1277.2 1334.81 1278.26 1326.71 1276.28C1318.49 1273.85 1310.06 1268.79 1301.41 1261.1C1285.1 1246.68 1275.65 1228.71 1273.06 1207.2C1270.64 1185.4 1277.42 1160.65 1293.42 1132.93C1306.26 1110.71 1319.84 1095.84 1334.18 1088.34C1348.69 1080.55 1362.04 1082.1 1374.23 1092.98C1380.73 1099.05 1384.59 1105.7 1385.8 1112.94C1387 1120.18 1385.78 1126.98 1382.11 1133.33C1378.11 1140.26 1372.88 1143.98 1366.43 1144.48C1359.69 1144.83 1352.92 1141.88 1346.13 1135.65Z" fill="#B11818"/>
</g>
<path d="M-2 1268C0.833333 1281.33 19.8 1308 73 1308C126.2 1308 141.5 1281.33 142.5 1268C145.333 1281.33 164.3 1308 217.5 1308C270.7 1308 286 1281.33 287 1268C289.833 1281.33 308.8 1308 362 1308C415.2 1308 430.5 1281.33 431.5 1268C434.333 1281.33 453.3 1308 506.5 1308C559.7 1308 575 1281.33 576 1268C578.833 1281.33 597.8 1308 651 1308C704.2 1308 719.5 1281.33 720.5 1268C723.333 1281.33 742.3 1308 795.5 1308C848.7 1308 864 1281.33 865 1268C867.833 1281.33 886.8 1308 940 1308C993.2 1308 1008.5 1281.33 1009.5 1268C1012.33 1281.33 1031.3 1308 1084.5 1308C1137.7 1308 1153 1281.33 1154 1268C1156.83 1281.33 1175.8 1308 1229 1308C1282.2 1308 1297.5 1281.33 1298.5 1268C1301.33 1281.33 1320.3 1308 1373.5 1308C1426.7 1308 1442 1281.33 1443 1268" stroke="#2843CE" stroke-width="2.35"/>
<path d="M1266.43 958.622C1260.97 939.249 1261.77 920.958 1268.84 903.75C1276.06 886.463 1288.1 873.425 1304.97 864.636C1321.83 855.846 1337.14 854.631 1350.89 860.991C1364.71 867.119 1374.46 879.907 1380.15 899.353C1385.69 918.878 1384.89 937.168 1377.74 954.224C1370.59 971.28 1358.51 984.243 1341.49 993.111C1324.48 1001.98 1309.06 1003.35 1295.24 997.221C1281.57 991.014 1271.97 978.147 1266.43 958.622ZM1286.88 896.665C1283.89 910.203 1285.2 926.619 1290.81 945.913C1296.43 965.207 1303.66 978.535 1312.52 985.896C1321.38 993.257 1330.67 994.404 1340.4 989.336C1350.42 984.11 1356.93 974.728 1359.93 961.191C1362.92 947.653 1361.61 931.237 1355.99 911.943C1350.3 892.497 1343.03 879.093 1334.17 871.732C1325.31 864.371 1315.94 863.263 1306.06 868.41C1296.19 873.557 1289.79 882.976 1286.88 896.665Z" fill="#2843CE"/>
<path d="M699.886 943.523C683.043 937.205 669.363 936.22 658.844 940.566C648.488 944.937 642.108 954.768 639.702 970.059C637.449 984.373 640.226 997.979 648.032 1010.88L644.758 1012.61C634.476 995.324 630.896 976.758 634.019 956.913C637.193 936.742 645.044 923.392 657.573 916.862C670.239 910.52 685.469 910.666 703.261 917.3C721.842 924.224 735.682 935.319 744.781 950.587C754.018 966.042 757.05 983.855 753.876 1004.03C751.777 1017.36 747.494 1027.11 741.025 1033.26C734.531 1039.57 726.014 1040.73 715.474 1036.74C711.235 1035.07 707.75 1032.86 705.017 1030.09C702.448 1027.36 700.078 1022.82 697.909 1016.47C695.74 1010.13 694.789 1000.81 695.056 988.52C695.46 976.415 697.07 961.416 699.886 943.523ZM750.792 999.79C752.276 990.355 749.142 980.611 741.389 970.556C733.611 960.664 720.958 952.089 703.43 944.83C700.154 965.652 699.769 981.343 702.275 991.906C704.754 1002.63 710.883 1009.76 720.661 1013.3C728.051 1016.13 734.591 1016.41 740.283 1014.14C746.111 1012.06 749.614 1007.27 750.792 999.79Z" fill="#2843CE"/>
<path d="M1004.37 783.182L1008.58 783.349C1011.15 813.89 1007.25 836.776 996.863 852.009C992.007 859.134 986.441 863.077 980.166 863.837C973.644 864.43 967.039 861.187 960.349 854.108L879.434 770.89C846.79 737.485 822.931 731.838 807.86 753.95C802.333 762.058 798.957 773.61 797.731 788.607C796.505 803.604 798.121 818.919 802.579 834.551L922.175 957.628L899.316 991.165L891.762 991.953L678.285 771.423L659.427 788.795L655.876 785.295L688.412 724.89L696.083 724.722L763.78 794.073L791.791 825.039L793.399 825.056C789.219 806.374 788.831 787.938 792.234 769.748C795.559 751.144 801.241 735.945 809.279 724.152C821.504 706.216 835.444 697.906 851.1 699.222C866.677 700.124 882.993 709.445 900.047 727.187L982.553 812.029C990.471 819.945 996.607 820.709 1000.96 814.321C1004.65 808.916 1005.78 798.536 1004.37 783.182Z" fill="#B11818"/>
<path d="M43.9941 677.334L41.5418 677.629C38.8591 660.869 40.0701 648.068 45.1748 639.227C47.5624 635.091 50.5448 632.725 54.1217 632.128C57.5561 631.449 61.3079 632.854 65.3773 636.345L74.7715 645.761L75.6603 645.704C75.1942 644.865 74.5966 643.759 73.8675 642.387C73.1383 641.016 72.0063 638.366 70.4715 634.437C68.8765 630.284 67.7092 626.378 66.9698 622.718C66.1701 618.834 65.9137 614.503 66.2005 609.725C66.4873 604.947 67.701 600.704 69.8417 596.996C73.876 590.008 79.1438 585.824 85.6449 584.444C92.1461 583.064 98.4075 585.063 104.429 590.441C112.831 597.953 114.562 605.988 109.622 614.544C107.234 618.68 104.181 621.005 100.461 621.519C96.824 621.891 93.042 620.373 89.1153 616.965L74.7107 604.371C73.7287 604.754 72.8671 605.588 72.1261 606.871C69.4914 611.435 69.0863 617.571 70.9106 625.279C72.8172 632.844 75.4538 639.31 78.8204 644.676L83.6564 652.602L148.382 709.936L137.143 729.402L133.004 730.15L54.8532 660.501C50.1531 656.456 46.7328 656.288 44.5921 659.996C42.6161 663.418 42.4168 669.198 43.9941 677.334Z" fill="#2843CE"/>
<path d="M529.622 783.532L517.402 781.804C528.537 791.882 531.248 804.825 525.533 820.636C520.735 834.063 511.495 844.061 497.813 850.628C484.13 857.195 468.48 859.233 450.861 856.741C436.463 854.704 425.2 850.309 417.073 843.556C409.532 849.059 404.642 854.938 402.405 861.192C400.708 866.362 401.187 870.488 403.843 873.569C406.526 876.461 411.656 878.442 419.234 879.514L466.406 886.186C481.941 888.383 492.216 892.928 497.232 899.821C502.463 906.552 503.139 915.44 499.257 926.485C494.109 941.023 483.584 951.225 467.682 957.092C451.942 963.175 431.19 964.394 405.425 960.75C387.238 958.177 373.811 954.056 365.145 948.386C356.641 942.932 353.831 936.157 356.715 928.063C360.515 917.586 372.788 908.694 393.532 901.386C381.753 895.855 378.29 886.187 383.141 872.38C385.405 865.937 388.875 860.534 393.55 856.171C398.252 851.619 405.158 846.509 414.269 840.841C404.487 830.761 402.359 818.48 407.886 803.996C412.711 790.378 421.964 780.286 435.647 773.719C449.546 766.989 465.304 764.87 482.923 767.362C485.386 767.711 488.674 768.369 492.789 769.337L551.612 777.657L550.642 780.419L529.622 783.532ZM436.059 807.691C431.478 820.956 430.667 831.469 433.627 839.231C436.804 846.83 443.033 851.286 452.316 852.599C461.599 853.912 470.255 851.465 478.282 845.257C486.5 839.076 492.886 829.448 497.44 816.372C502.158 803.513 502.942 793.189 499.792 785.4C496.859 777.449 490.751 772.817 481.468 771.504C472.185 770.191 463.435 772.625 455.217 778.806C447.19 785.013 440.804 794.642 436.059 807.691ZM409.732 905.706C407.648 905.412 404.928 904.834 401.572 903.973C391.083 911.185 384.748 918.405 382.566 925.632C379.115 934.999 380.045 942.087 385.355 946.897C390.855 951.732 400.141 955.075 413.213 956.924C429.695 959.255 443.71 958.532 455.259 954.755C466.808 950.977 474.199 944.487 477.433 935.282C479.563 929.786 479.286 924.916 476.601 920.672C473.89 916.617 468.366 914 460.031 912.821L409.732 905.706Z" fill="#2843CE"/>
<path d="M1473.41 863.316L1486.62 874.382C1490.49 867.518 1488.42 858.359 1480.4 846.904C1472.51 835.221 1458.09 820.154 1437.13 801.705L1312.18 692.811C1304.61 686.437 1299.15 686.224 1295.8 692.173C1292.7 697.664 1292.48 706.886 1295.13 719.838L1291.22 720.349C1286.67 693.659 1288.46 673.107 1296.58 658.692C1300.2 652.285 1304.85 648.577 1310.55 647.567C1316.01 646.427 1322.02 648.608 1328.57 654.109L1457.26 766.011C1478.77 785.076 1492.44 804.692 1498.26 824.858C1504.07 845.024 1501.57 864.717 1490.73 883.937C1484.41 895.149 1477.79 901.817 1470.86 903.942C1463.8 906.296 1457.23 904.852 1451.14 899.609C1446.06 895.24 1442.92 889.85 1441.71 883.439C1440.6 877.385 1441.53 871.727 1444.5 866.465C1447.59 860.973 1451.74 857.887 1456.95 857.205C1462.39 856.652 1467.88 858.689 1473.41 863.316ZM1262.34 652.048C1255.7 653.129 1249.22 650.984 1242.9 645.612C1236.58 640.24 1232.68 633.519 1231.2 625.447C1229.85 617.147 1231.11 609.565 1234.98 602.701C1238.98 595.608 1244.3 591.521 1250.94 590.44C1257.58 589.359 1264.05 591.504 1270.37 596.876C1276.56 602.476 1280.4 609.312 1281.88 617.384C1283.36 625.455 1282.1 633.037 1278.1 640.13C1274.23 646.995 1268.98 650.967 1262.34 652.048Z" fill="#2843CE"/>
</svg>
