<svg width="1286" height="755" viewBox="0 0 1286 755" fill="none" xmlns="http://www.w3.org/2000/svg">
<path d="M1030 599C1030 557.891 1018.52 518.467 998.075 489.398C977.633 460.33 949.909 444 921 444C892.091 444 864.367 460.33 843.925 489.398C823.484 518.467 812 557.891 812 599L921 599H1030Z" fill="#2843CE"/>
<path d="M232 600C232 558.891 222.044 519.467 204.322 490.398C186.599 461.33 162.563 445 137.5 445C112.437 445 88.4006 461.33 70.6784 490.398C52.9562 519.467 43 558.891 43 600L137.5 600H232Z" fill="#2843CE"/>
<circle cx="914" cy="568" r="83" fill="white"/>
<rect x="19" y="471" width="78" height="107" fill="#2843CE"/>
<ellipse cx="112" cy="568" rx="81" ry="83" fill="white"/>
<path d="M62.34 291.466V426.751C62.34 426.751 16.6986 436.889 13.3511 448.737C10.0036 460.584 8.20289 488.759 8.20289 488.759C8.20289 488.759 1 496.564 1 512.222C1 527.88 7.00241 529.658 7.00241 529.658L11.2041 577.786H31.6815C31.6815 577.786 12.4277 474.302 109.851 474.302C207.275 474.302 197.579 599.448 197.579 599.448H831.064C831.064 599.448 792.556 468.944 913.227 468.944C1033.9 468.944 1004.49 599.402 1004.49 599.402H1281.31L1284.66 590.904L1261.85 576.678V285.231L1276.37 276.871L1259.68 109.901C1259.68 109.901 1253.15 66.6923 1230.64 42.0047C1220.09 30.4577 1199.08 1.86731 1169.32 1.35924H1167.66C1166.23 1.35924 153.092 0.550949 104.888 1.35924C91.267 1.59018 77.4383 15.0078 76.4226 16.024C65.1616 27.7679 56.5976 41.8281 51.3279 57.2237C44.1019 88.239 37.4762 121.448 31.8431 156.736C24.2709 204.356 19.6767 249.112 17.0911 290.473L62.34 291.466Z" fill="white" stroke="#2843CE" stroke-width="2" stroke-miterlimit="10"/>
<path d="M19.0996 262.137H1274.92" stroke="#2843CE" stroke-width="2" stroke-miterlimit="10"/>
<path d="M17.9917 276.386H1276.37" stroke="#2843CE" stroke-width="2" stroke-miterlimit="10"/>
<path d="M1249.55 286.917V577.256L1265.41 589.357H1077.21V326.986C1077.21 326.986 1074.18 286.917 1108.19 286.917H1249.55Z" fill="#2843CE" stroke="#2843CE" stroke-width="2" stroke-miterlimit="10"/>
<path d="M1178.49 286.917H1167.91V589.357H1178.49V286.917Z" fill="white" stroke="#2843CE" stroke-width="2" stroke-miterlimit="10"/>
<path d="M111.837 643.836C153.887 643.836 187.975 609.736 187.975 567.671C187.975 525.607 153.887 491.507 111.837 491.507C69.787 491.507 35.6987 525.607 35.6987 567.671C35.6987 609.736 69.787 643.836 111.837 643.836Z" fill="#2843CE" stroke="#2843CE" stroke-width="2" stroke-miterlimit="10"/>
<path d="M914.138 643.836C956.188 643.836 990.277 609.736 990.277 567.671C990.277 525.607 956.188 491.507 914.138 491.507C872.088 491.507 838 525.607 838 567.671C838 609.736 872.088 643.836 914.138 643.836Z" fill="#2843CE" stroke="#2843CE" stroke-width="2" stroke-miterlimit="10"/>
<path d="M181.049 599.425H190.168L200.857 628.108H220.088L209.722 599.425" stroke="#2843CE" stroke-width="2" stroke-miterlimit="10"/>
<path d="M831.11 599.425H844.293" stroke="#2843CE" stroke-width="2" stroke-miterlimit="10"/>
<path d="M1004.51 599.425H982.694" stroke="#2843CE" stroke-width="2" stroke-miterlimit="10"/>
<path d="M111.837 620.094C140.78 620.094 164.243 596.624 164.243 567.671C164.243 538.718 140.78 515.248 111.837 515.248C82.8944 515.248 59.4316 538.718 59.4316 567.671C59.4316 596.624 82.8944 620.094 111.837 620.094Z" fill="white" stroke="white" stroke-width="2" stroke-miterlimit="10"/>
<path d="M913.505 620.094C942.448 620.094 965.911 596.624 965.911 567.671C965.911 538.718 942.448 515.248 913.505 515.248C884.562 515.248 861.1 538.718 861.1 567.671C861.1 596.624 884.562 620.094 913.505 620.094Z" fill="white" stroke="#2843CE" stroke-width="2" stroke-miterlimit="10"/>
<path d="M111.837 613.466C137.121 613.466 157.617 592.963 157.617 567.671C157.617 542.379 137.121 521.875 111.837 521.875C86.5535 521.875 66.0571 542.379 66.0571 567.671C66.0571 592.963 86.5535 613.466 111.837 613.466Z" fill="white" stroke="#2843CE" stroke-width="2" stroke-miterlimit="10"/>
<path d="M111.837 582.775C120.176 582.775 126.935 576.013 126.935 567.671C126.935 559.33 120.176 552.568 111.837 552.568C103.499 552.568 96.7388 559.33 96.7388 567.671C96.7388 576.013 103.499 582.775 111.837 582.775Z" fill="#2843CE" stroke="#2843CE" stroke-width="2" stroke-miterlimit="10"/>
<path d="M913.504 613.466C938.788 613.466 959.284 592.963 959.284 567.671C959.284 542.379 938.788 521.875 913.504 521.875C888.221 521.875 867.725 542.379 867.725 567.671C867.725 592.963 888.221 613.466 913.504 613.466Z" fill="white" stroke="#2843CE" stroke-width="2" stroke-miterlimit="10"/>
<path d="M913.505 582.775C921.843 582.775 928.603 576.013 928.603 567.671C928.603 559.33 921.843 552.568 913.505 552.568C905.166 552.568 898.406 559.33 898.406 567.671C898.406 576.013 905.166 582.775 913.505 582.775Z" fill="#2843CE" stroke="#2843CE" stroke-width="2" stroke-miterlimit="10"/>
<path d="M402.515 49.418H259.565C250.27 49.418 242.735 56.9555 242.735 66.2535V111.564C242.735 120.862 250.27 128.4 259.565 128.4H402.515C411.81 128.4 419.345 120.862 419.345 111.564V66.2535C419.345 56.9555 411.81 49.418 402.515 49.418Z" stroke="#2843CE" stroke-width="2" stroke-miterlimit="10"/>
<path d="M206.744 49.418H75.2917C65.9969 49.418 58.4619 56.9555 58.4619 66.2535V111.564C58.4619 120.862 65.9969 128.4 75.2917 128.4H206.744C216.039 128.4 223.574 120.862 223.574 111.564V66.2535C223.574 56.9555 216.039 49.418 206.744 49.418Z" stroke="#2843CE" stroke-width="2" stroke-miterlimit="10"/>
<path d="M68.5967 291.397H168.375C180.29 291.397 191.717 296.132 200.142 304.56C208.568 312.988 213.301 324.419 213.301 336.338V393.473H68.5967V291.397Z" stroke="#2843CE" stroke-width="2" stroke-miterlimit="10"/>
<path d="M397.229 314.63H254.279C244.984 314.63 237.449 322.168 237.449 331.466V376.776C237.449 386.074 244.984 393.612 254.279 393.612H397.229C406.524 393.612 414.059 386.074 414.059 376.776V331.466C414.059 322.168 406.524 314.63 397.229 314.63Z" stroke="#2843CE" stroke-width="2" stroke-miterlimit="10"/>
<path d="M592.491 314.63H449.542C440.247 314.63 432.712 322.168 432.712 331.466V376.776C432.712 386.074 440.247 393.612 449.542 393.612H592.491C601.786 393.612 609.321 386.074 609.321 376.776V331.466C609.321 322.168 601.786 314.63 592.491 314.63Z" stroke="#2843CE" stroke-width="2" stroke-miterlimit="10"/>
<path d="M787.754 314.63H644.804C635.51 314.63 627.975 322.168 627.975 331.466V376.776C627.975 386.074 635.51 393.612 644.804 393.612H787.754C797.049 393.612 804.584 386.074 804.584 376.776V331.466C804.584 322.168 797.049 314.63 787.754 314.63Z" stroke="#2843CE" stroke-width="2" stroke-miterlimit="10"/>
<path d="M982.994 314.63H840.045C830.75 314.63 823.215 322.168 823.215 331.466V376.776C823.215 386.074 830.75 393.612 840.045 393.612H982.994C992.289 393.612 999.824 386.074 999.824 376.776V331.466C999.824 322.168 992.289 314.63 982.994 314.63Z" stroke="#2843CE" stroke-width="2" stroke-miterlimit="10"/>
<path d="M598.286 49.418H455.336C446.041 49.418 438.506 56.9555 438.506 66.2535V111.564C438.506 120.862 446.041 128.4 455.336 128.4H598.286C607.581 128.4 615.116 120.862 615.116 111.564V66.2535C615.116 56.9555 607.581 49.418 598.286 49.418Z" stroke="#2843CE" stroke-width="2" stroke-miterlimit="10"/>
<path d="M794.08 49.418H651.131C641.836 49.418 634.301 56.9555 634.301 66.2535V111.564C634.301 120.862 641.836 128.4 651.131 128.4H794.08C803.375 128.4 810.91 120.862 810.91 111.564V66.2535C810.91 56.9555 803.375 49.418 794.08 49.418Z" stroke="#2843CE" stroke-width="2" stroke-miterlimit="10"/>
<path d="M989.851 49.418H846.901C837.606 49.418 830.071 56.9555 830.071 66.2535V111.564C830.071 120.862 837.606 128.4 846.901 128.4H989.851C999.146 128.4 1006.68 120.862 1006.68 111.564V66.2535C1006.68 56.9555 999.146 49.418 989.851 49.418Z" stroke="#2843CE" stroke-width="2" stroke-miterlimit="10"/>
<path d="M1185.62 49.418H1042.67C1033.38 49.418 1025.84 56.9555 1025.84 66.2535V111.564C1025.84 120.862 1033.38 128.4 1042.67 128.4H1185.62C1194.92 128.4 1202.45 120.862 1202.45 111.564V66.2535C1202.45 56.9555 1194.92 49.418 1185.62 49.418Z" stroke="#2843CE" stroke-width="2" stroke-miterlimit="10"/>
<mask id="mask0_128_7712" style="mask-type:alpha" maskUnits="userSpaceOnUse" x="68" y="291" width="146" height="103">
<path d="M68.5967 291.397H168.375C180.29 291.397 191.717 296.132 200.142 304.56C208.568 312.988 213.301 324.419 213.301 336.338V393.473H68.5967V291.397Z" fill="#D9D9D9" stroke="#231F20" stroke-width="0.5" stroke-miterlimit="10"/>
</mask>
<g mask="url(#mask0_128_7712)">
<path d="M148.913 381.533L149.681 380.765C151.025 381.725 152.369 382.205 153.713 382.205C155.441 382.205 156.785 381.373 157.745 379.709C158.705 378.045 159.665 375.293 160.625 371.453L162.257 364.541C163.153 360.765 164.561 357.853 166.481 355.805C168.465 353.757 171.185 352.349 174.641 351.581C168.753 350.877 164.145 349.021 160.817 346.013C157.489 343.005 155.825 339.165 155.825 334.493C155.825 329.117 158.001 324.893 162.353 321.821C166.769 318.749 172.593 317.213 179.825 317.213H208.817V318.077L202.577 319.517V381.629L208.817 383.453V384.413H185.489V383.453L192.305 381.629V352.349H186.065C181.777 352.349 178.609 353.373 176.561 355.421C174.577 357.469 173.105 360.637 172.145 364.925L170.513 372.029C169.553 376.317 168.081 379.549 166.097 381.725C164.177 383.901 161.457 384.989 157.937 384.989C154.161 384.989 151.153 383.837 148.913 381.533ZM192.305 319.133H181.073C176.657 319.133 173.105 320.477 170.417 323.165C167.729 325.789 166.385 329.661 166.385 334.781C166.385 339.901 167.697 343.805 170.321 346.493C173.009 349.117 176.593 350.429 181.073 350.429H192.305V319.133Z" fill="#2843CE"/>
<path d="M66.6211 332.234C71.8144 327.672 77.2751 325.517 83.0032 325.767C88.7313 326.017 93.7211 328.563 97.9726 333.403C102.196 338.212 104.062 343.473 103.571 349.185C103.108 354.93 100.28 360.083 95.0866 364.644C89.8612 369.233 84.3704 371.387 78.6142 371.105C72.9181 370.826 67.9584 368.283 63.735 363.474C59.4835 358.633 57.5873 353.371 58.0463 347.686C58.5374 341.974 61.3957 336.823 66.6211 332.234ZM71.3454 337.71C66.0879 342.327 62.9074 346.853 61.8039 351.286C60.7284 355.751 61.6126 359.603 64.4563 362.84C67.3001 366.078 70.9912 367.436 75.5298 366.914C80.0684 366.392 84.9664 363.822 90.2239 359.204C95.5134 354.559 98.7099 350.019 99.8135 345.586C100.949 341.124 100.095 337.275 97.2513 334.037C94.4076 330.799 90.6863 329.439 86.0875 329.958C81.5489 330.48 76.6349 333.064 71.3454 337.71Z" fill="#2843CE"/>
<path d="M132.612 386.351L116.792 386.573L121.334 401.89L125.325 398.46L125.843 398.836L119.49 407.59L118.972 407.214L120.469 403.081L115.475 386.645L97.4252 386.672L94.2983 388.91L93.7803 388.534L102.239 376.88L102.757 377.256L101.485 381.078L116.269 380.975L111.974 366.627L107.982 370.057L107.464 369.681L113.818 360.927L114.335 361.303L112.876 365.384L117.587 380.903L136.672 380.757L139.799 378.519L140.317 378.895L131.821 390.601L131.303 390.225L132.612 386.351Z" fill="#B11818"/>
</g>
<mask id="mask1_128_7712" style="mask-type:alpha" maskUnits="userSpaceOnUse" x="237" y="314" width="178" height="80">
<path d="M397.229 314.63H254.279C244.984 314.63 237.449 322.168 237.449 331.466V376.776C237.449 386.074 244.984 393.612 254.279 393.612H397.229C406.524 393.612 414.059 386.074 414.059 376.776V331.466C414.059 322.168 406.524 314.63 397.229 314.63Z" fill="#D9D9D9" stroke="#231F20" stroke-width="0.5" stroke-miterlimit="10"/>
</mask>
<g mask="url(#mask1_128_7712)">
<path d="M333.62 365.887L334.004 369.611C334.195 371.458 333.84 373.006 332.94 374.257C332.033 375.445 330.688 376.13 328.905 376.314C327.187 376.492 325.765 376.124 324.642 375.21C323.511 374.233 322.851 372.822 322.66 370.975C322.41 368.556 323.083 366.653 324.677 365.266C326.271 363.879 328.373 363.051 330.983 362.782C334.548 362.414 337.308 363.287 339.264 365.401C341.276 367.445 343.156 370.693 344.902 375.146L347.522 381.824C350.488 389.367 355.854 392.738 363.621 391.936L360.644 363.098L354.25 361.924L354.151 360.969L376.878 358.623L376.977 359.578L370.957 362.033L373.934 390.872C381.701 390.07 386.266 385.674 387.628 377.684L388.924 370.602C389.654 365.829 390.795 362.237 392.348 359.825C393.9 357.413 396.427 356.026 399.929 355.665C402.475 355.402 404.67 355.787 406.514 356.819C408.421 357.844 409.5 359.567 409.749 361.986C409.94 363.832 409.582 365.349 408.675 366.536C407.762 367.66 406.445 368.31 404.727 368.488C402.944 368.672 401.488 368.275 400.357 367.298C399.22 366.257 398.557 364.814 398.366 362.968L397.982 359.244C397.51 359.035 397.019 358.957 396.51 359.009C393.9 359.279 392.004 363.045 390.824 370.309L389.634 377.477C388.533 383.639 386.072 387.85 382.252 390.11L384.162 389.913C390.464 389.262 395.284 389.826 398.62 391.605C401.95 393.32 404.428 396.764 406.056 401.936L408.237 409.046C409.415 412.978 410.609 415.814 411.818 417.555C413.027 419.296 414.555 420.071 416.401 419.881C417.738 419.743 419.026 419.127 420.264 418.034L421.107 418.719C419.179 421.235 416.305 422.689 412.485 423.084C408.92 423.452 406.068 422.62 403.928 420.589C401.782 418.495 400.061 415.23 398.767 410.795L396.651 403.389C395.364 399.019 393.596 395.92 391.349 394.093C389.095 392.202 385.676 391.494 381.092 391.967L374.121 392.686L377.286 423.339L383.68 424.513L383.778 425.468L361.051 427.814L360.953 426.859L366.972 424.404L363.808 393.751L356.837 394.47C352.317 394.937 349.144 396.294 347.317 398.541C345.49 400.789 344.364 404.219 343.94 408.831L343.381 416.512C343.02 421.118 342.003 424.665 340.33 427.154C338.65 429.579 336.028 430.976 332.462 431.344C328.706 431.732 325.596 430.895 323.131 428.833L323.816 427.99C325.252 428.807 326.638 429.146 327.975 429.008C329.821 428.818 331.13 427.782 331.901 425.901C332.729 423.95 333.346 420.894 333.753 416.734L334.532 409.319C335.012 403.994 336.703 400.12 339.605 397.697C342.508 395.274 347.142 393.734 353.509 393.077L355.323 392.889C351.058 391.464 347.821 387.841 345.612 382.021L342.982 375.247C340.343 368.378 337.686 365.081 335.013 365.357C334.503 365.41 334.039 365.587 333.62 365.887Z" fill="#B11818"/>
<path d="M303.913 346.327L303.686 342.512C303.577 340.62 303.96 338.96 304.837 337.532C305.729 336.167 307.072 335.244 308.865 334.763C310.472 334.333 311.81 334.504 312.879 335.278C313.964 336.114 314.531 337.486 314.578 339.394C314.713 341.876 314.011 343.953 312.471 345.624C310.931 347.296 308.925 348.463 306.452 349.125C303.052 350.036 300.436 349.545 298.603 347.651C296.787 345.818 295.128 342.718 293.626 338.35L291.281 331.822C288.765 324.413 283.798 321.702 276.38 323.69L278.042 353.259L284.17 353.505L284.233 354.482L262.349 360.346L262.286 359.369L268.12 355.918L266.402 325.767L266.365 326.373C259.009 328.344 254.487 333.598 252.798 342.134L251.342 349.68C250.387 354.772 249.149 358.682 247.627 361.409C246.043 364.152 243.582 365.971 240.244 366.866C237.771 367.528 235.666 367.463 233.93 366.669C232.131 365.892 231.165 364.263 231.03 361.781C230.868 357.717 232.58 355.204 236.166 354.243C237.835 353.796 239.212 353.99 240.297 354.826C241.337 355.74 241.912 357.143 242.021 359.035L242.249 362.85C242.748 362.981 243.182 362.997 243.553 362.898C246.212 362.186 248.229 357.968 249.605 350.245L250.944 342.631C252.185 336.136 254.69 331.39 258.459 328.392L256.511 328.914C250.453 330.538 245.883 330.669 242.802 329.308C239.676 328.025 237.456 324.81 236.143 319.663L234.347 312.591C233.365 308.679 232.356 305.902 231.319 304.258C230.221 302.631 228.775 302.058 226.982 302.538C225.684 302.886 224.418 303.722 223.182 305.047L222.427 304.454C224.304 301.566 227.096 299.625 230.806 298.632C234.268 297.704 236.999 298.131 239.001 299.914C240.957 301.775 242.462 304.917 243.514 309.339L245.291 316.714C246.327 321.075 247.914 324.029 250.051 325.576C252.143 327.202 255.322 327.444 259.588 326.301L266.264 324.512L264.409 293.106L258.373 292.835L258.217 291.883L280.194 285.994L280.257 286.971L274.423 290.423L276.279 321.829L282.955 320.04C287.221 318.897 290.286 316.982 292.15 314.296C294.031 311.672 295.226 307.972 295.736 303.198L296.555 295.127C297.11 290.274 298.264 286.42 300.016 283.565C301.724 280.788 304.278 278.945 307.678 278.034C311.263 277.073 314.189 277.482 316.454 279.26L315.726 280.25C314.365 279.621 313.066 279.472 311.829 279.803C310.098 280.267 308.785 281.547 307.889 283.642C307.009 285.799 306.327 289.063 305.841 293.434L304.855 301.251C304.173 306.867 302.406 311.151 299.552 314.102C296.699 317.053 292.212 319.348 286.092 320.988L284.33 321.46C288.412 322.354 291.378 325.634 293.228 331.301L295.505 337.946C297.715 344.708 300.087 347.75 302.622 347.071C303.116 346.938 303.547 346.69 303.913 346.327Z" fill="#2843CE"/>
</g>
<mask id="mask2_128_7712" style="mask-type:alpha" maskUnits="userSpaceOnUse" x="58" y="49" width="166" height="80">
<path d="M206.744 49.418H75.2917C65.9969 49.418 58.4619 56.9555 58.4619 66.2535V111.564C58.4619 120.862 65.9969 128.4 75.2917 128.4H206.744C216.039 128.4 223.574 120.862 223.574 111.564V66.2535C223.574 56.9555 216.039 49.418 206.744 49.418Z" fill="#D9D9D9" stroke="#231F20" stroke-width="0.5" stroke-miterlimit="10"/>
</mask>
<g mask="url(#mask2_128_7712)">
<path d="M102.693 133.652L102.626 133.514C100.408 134.502 98.1072 134.586 95.7245 133.765C94.1814 133.234 93.1452 132.484 92.6159 131.515C92.1092 130.553 92.0669 129.46 92.4888 128.234C92.9186 126.986 93.7389 126.152 94.9498 125.731C96.1834 125.318 97.3992 125.179 98.5971 125.312C99.8028 125.422 101.845 125.72 104.725 126.203C104.778 126.196 104.816 126.197 104.839 126.204C104.884 126.22 104.929 126.236 104.975 126.251C105.028 126.244 105.077 126.249 105.123 126.264L106.224 123.064C106.638 121.862 106.653 120.788 106.267 119.843C105.905 118.906 105.167 118.246 104.055 117.863C103.148 117.551 102.218 117.522 101.267 117.779L100.318 120.536C100.083 121.217 99.7029 121.695 99.1765 121.97C98.65 122.246 98.0805 122.278 97.4678 122.067C96.8778 121.864 96.4524 121.515 96.1916 121.019C95.9387 120.5 95.9294 119.901 96.1638 119.22C96.6014 117.949 97.6072 117.166 99.1812 116.87C100.786 116.56 102.496 116.717 104.311 117.342C106.512 118.1 108.058 119.178 108.947 120.575C109.867 121.958 110.065 123.41 109.542 124.93L105.967 135.312C105.772 135.879 105.946 136.257 106.491 136.444C106.99 136.616 107.408 136.62 107.743 136.457L107.899 136.777C107.076 137.179 105.938 137.129 104.485 136.629C102.965 136.106 102.368 135.113 102.693 133.652ZM102.896 132.732L104.947 126.775L104.913 126.763L104.879 126.751L104.845 126.74L104.799 126.762L104.765 126.75L104.731 126.738L104.697 126.727L104.663 126.715L104.629 126.703C101.856 126.205 100.024 126.032 99.135 126.182C97.7894 126.404 96.8275 127.355 96.2493 129.034C95.8899 130.078 95.866 130.958 96.1777 131.675C96.4894 132.391 97.0878 132.902 97.9728 133.207C99.584 133.761 101.225 133.603 102.896 132.732ZM107.492 114.516C107.754 114.199 107.982 113.758 108.177 113.19C108.373 112.623 108.688 112.224 109.123 111.993C109.58 111.77 110.07 111.748 110.592 111.928C111.114 112.107 111.475 112.422 111.675 112.872C111.884 113.299 111.902 113.762 111.73 114.261C111.386 115.26 110.531 115.828 109.163 115.967C107.818 116.113 106.465 115.951 105.104 115.483C103.719 115.006 102.531 114.292 101.538 113.341C100.569 112.398 100.26 111.416 100.611 110.395C100.783 109.896 101.083 109.542 101.51 109.334C101.937 109.125 102.411 109.111 102.933 109.291C103.478 109.478 103.85 109.797 104.051 110.247C104.274 110.704 104.288 111.217 104.093 111.784C103.897 112.351 103.805 112.84 103.816 113.25C103.827 113.66 103.934 113.976 104.137 114.198C104.34 114.42 104.513 114.581 104.656 114.681C104.83 114.766 105.041 114.852 105.291 114.938C105.541 115.024 105.749 115.083 105.915 115.115C106.113 115.132 106.359 115.115 106.656 115.065C106.952 115.015 107.231 114.832 107.492 114.516Z" fill="#2843CE"/>
<path d="M79.2966 70.3403L89.3505 139.449L94.8452 142.748L94.6057 143.678L72.2012 137.906L72.4407 136.977L79.0314 136.791L76.0838 115.907L48.0084 108.675L34.966 125.439L42.6919 129.313L42.4524 130.243L25.9046 125.98L26.1441 125.05L32.9208 124.913L76.2288 69.55L79.2966 70.3403ZM70.9915 79.1056L49.348 106.938L75.7501 113.74L70.9915 79.1056Z" fill="#2843CE"/>
<path d="M224.211 130.174L223.963 130.064C222.068 133.942 219.029 136.683 214.846 138.286C212.137 139.324 209.868 139.485 208.04 138.769C206.252 138.038 204.946 136.596 204.121 134.445C203.282 132.254 203.447 130.18 204.616 128.224C205.826 126.253 207.323 124.674 209.107 123.488C210.876 122.262 213.999 120.334 218.474 117.705C218.539 117.635 218.591 117.592 218.631 117.577C218.71 117.546 218.79 117.516 218.87 117.485C218.934 117.415 219.006 117.365 219.086 117.334L216.933 111.716C216.124 109.605 214.918 108.125 213.314 107.278C211.749 106.415 209.991 106.357 208.039 107.105C206.445 107.716 205.147 108.739 204.143 110.175L205.998 115.015C206.456 116.211 206.484 117.297 206.081 118.273C205.679 119.25 204.939 119.944 203.864 120.357C202.828 120.753 201.849 120.763 200.927 120.385C199.991 119.967 199.293 119.161 198.835 117.965C197.98 115.734 198.456 113.519 200.263 111.318C202.095 109.063 204.605 107.325 207.792 106.103C211.657 104.623 214.993 104.327 217.801 105.216C220.633 106.049 222.561 107.801 223.584 110.47L230.568 128.698C230.95 129.694 231.619 130.009 232.575 129.643C233.451 129.307 234.025 128.836 234.295 128.23L234.874 128.488C234.21 129.975 232.603 131.208 230.054 132.185C227.384 133.208 225.437 132.538 224.211 130.174ZM223.437 128.689L219.429 118.23L219.37 118.253L219.31 118.276L219.25 118.299L219.213 118.382L219.153 118.405L219.094 118.428L219.034 118.451L218.974 118.473L218.914 118.496C214.568 120.984 211.874 122.839 210.834 124.06C209.254 125.899 209.029 128.292 210.159 131.241C210.861 133.074 211.834 134.3 213.076 134.92C214.319 135.541 215.718 135.553 217.272 134.958C220.1 133.874 222.155 131.784 223.437 128.689Z" fill="#2843CE"/>
</g>
<mask id="mask3_128_7712" style="mask-type:alpha" maskUnits="userSpaceOnUse" x="242" y="49" width="178" height="80">
<path d="M402.515 49.418H259.565C250.27 49.418 242.735 56.9555 242.735 66.2535V111.564C242.735 120.862 250.27 128.4 259.565 128.4H402.515C411.81 128.4 419.345 120.862 419.345 111.564V66.2535C419.345 56.9555 411.81 49.418 402.515 49.418Z" fill="#D9D9D9" stroke="#231F20" stroke-width="0.5" stroke-miterlimit="10"/>
</mask>
<g mask="url(#mask3_128_7712)">
<path d="M373.814 74.8116L373.109 102.555L386.142 100.181C393.509 98.8397 399.417 99.4878 403.865 102.125C408.314 104.763 410.467 109.087 410.326 115.098C410.185 121.108 407.81 126.29 403.204 130.641C398.648 134.919 392.687 137.728 385.32 139.07L356.136 144.384L356.093 143.612L362.146 140.948L363.682 77.0469L357.663 76.6794L357.602 75.8121L405.865 67.0233L405.619 79.0702L404.014 79.3626L399.975 70.0474L373.814 74.8116ZM372.32 139.486L383.465 137.456C388.376 136.562 392.331 134.345 395.33 130.807C398.328 127.268 399.864 122.663 399.937 116.99C400.073 111.305 398.718 107.259 395.872 104.85C393.015 102.378 389.131 101.589 384.219 102.483L373.075 104.513L372.32 139.486Z" fill="#2843CE"/>
<path d="M348.64 127.057C348.568 129.759 347.335 132.152 344.939 134.236C342.535 136.278 339.423 137.647 335.603 138.343C330.608 139.253 326.889 138.477 324.446 136.016C322.045 133.548 320.914 129.721 321.054 124.534C321.186 119.306 322.524 114.986 325.069 111.573C327.613 108.161 331.341 106.007 336.252 105.113C339.778 104.471 342.599 104.716 344.713 105.849C346.82 106.94 347.839 108.728 347.771 111.212C347.703 113.219 346.969 115.023 345.569 116.622C344.169 118.221 342.269 119.457 339.869 120.327C342.624 120.216 344.782 120.755 346.343 121.946C347.904 123.136 348.67 124.839 348.64 127.057ZM335.305 137.421C337.404 137.039 339.108 136.035 340.416 134.409C341.767 132.775 342.465 130.653 342.51 128.043C342.588 122.998 340.13 120.93 335.135 121.84L327.579 123.216C327.42 128.536 327.965 132.361 329.214 134.693C330.462 137.024 332.493 137.934 335.305 137.421ZM335.795 106.172C330.716 107.097 327.971 112.389 327.562 122.048L335.118 120.672C339.273 119.915 341.434 117.137 341.601 112.336C341.65 109.985 341.169 108.294 340.157 107.264C339.138 106.192 337.684 105.828 335.795 106.172Z" fill="#B11818"/>
<path d="M304.495 87.725L299.644 129.985L305.489 130.686L305.418 131.335L288.525 132.837L288.532 132.194L292.759 130.597L297.633 88.5924L293.659 87.9821L293.672 87.4026L326.12 84.5166L325.223 92.4994L324.14 92.5957L322.026 86.1657L304.495 87.725Z" fill="#B11818"/>
<path d="M266.572 102.256L266.825 102.292C267.68 99.9135 267.979 97.6504 267.724 95.5026C267.517 93.3185 266.915 91.4877 265.918 90.0103C264.927 88.4906 263.635 87.1221 262.04 85.9046C260.495 84.651 258.91 83.6719 257.286 82.9674C255.71 82.2266 254.09 81.6519 252.424 81.243L253.844 80.3457C255.257 80.7185 256.479 81.0644 257.511 81.3833C258.543 81.7021 259.732 82.1295 261.078 82.6653C262.466 83.2071 263.635 83.7823 264.582 84.3908C265.536 84.9572 266.533 85.6803 267.571 86.5604C268.658 87.4041 269.519 88.3235 270.153 89.3186C270.788 90.3136 271.353 91.4927 271.849 92.856C272.345 94.2192 272.612 95.6792 272.649 97.2359C272.687 98.7926 272.517 100.6 272.138 102.658C271.808 104.68 271.222 106.837 270.379 109.131C268.062 115.74 264.95 120.513 261.043 123.449C257.178 126.391 252.731 127.505 247.705 126.792C242.931 126.114 239.608 124.177 237.734 120.981C235.909 117.749 235.848 113.775 237.551 109.061C239.267 104.263 242.066 100.631 245.95 98.1652C249.834 95.6998 254.099 94.7969 258.745 95.4564C261.111 95.7922 262.958 96.593 264.287 97.8589C265.664 99.0886 266.425 100.554 266.572 102.256ZM262.028 112.406C263.695 107.644 264.166 103.875 263.439 101.1C262.755 98.331 261.061 96.7546 258.357 96.3709C255.696 95.9932 253.102 96.961 250.576 99.2743C248.092 101.594 245.995 105.131 244.286 109.888C242.625 114.608 242.115 118.349 242.758 121.112C243.442 123.881 245.136 125.458 247.839 125.841C250.543 126.225 253.158 125.26 255.684 122.947C258.252 120.64 260.367 117.126 262.028 112.406Z" fill="#2843CE"/>
</g>
<mask id="mask4_128_7712" style="mask-type:alpha" maskUnits="userSpaceOnUse" x="822" y="313" width="179" height="82">
<path d="M982.994 314.63H840.045C830.75 314.63 823.215 322.168 823.215 331.466V376.776C823.215 386.074 830.75 393.612 840.045 393.612H982.994C992.289 393.612 999.824 386.074 999.824 376.776V331.466C999.824 322.168 992.289 314.63 982.994 314.63Z" fill="#D9D9D9" stroke="#231F20" stroke-width="2" stroke-miterlimit="10"/>
</mask>
<g mask="url(#mask4_128_7712)">
<path d="M988.562 410.345L990.883 404.272L941.415 366.711L936.495 370.81L935.807 370.287L976.387 316.844L977.075 317.366L974.448 323.207L1023.92 360.768L1029.14 356.901L1029.91 357.481L1016.15 375.602L1015.38 375.021L1017.7 368.949L967.93 331.155L947.379 358.221L997.153 396.014L1002.38 392.148L1003.14 392.728L989.327 410.925L988.562 410.345Z" fill="#2843CE"/>
<path d="M878.897 382.413H845.393C845.393 389.261 846.961 394.573 850.097 398.349C853.233 402.061 857.873 403.917 864.017 403.917C869.649 403.917 874.353 402.029 878.129 398.253L879.185 399.405C874.193 404.397 867.761 406.893 859.889 406.893C851.825 406.893 845.681 404.685 841.457 400.269C837.233 395.853 835.121 390.093 835.121 382.989C835.121 375.437 837.361 369.389 841.841 364.845C846.385 360.301 852.177 358.029 859.217 358.029C865.489 358.029 870.641 359.821 874.673 363.405C878.705 366.989 880.721 371.629 880.721 377.325C880.721 378.861 880.561 380.141 880.241 381.165L878.897 382.413ZM859.601 359.469C855.825 359.469 852.561 361.325 849.809 365.037C847.057 368.685 845.585 373.997 845.393 380.973L870.929 379.533C870.929 372.941 869.937 367.949 867.953 364.557C865.969 361.165 863.185 359.469 859.601 359.469ZM854.417 349.581C853.201 348.301 852.593 346.765 852.593 344.973C852.593 343.181 853.201 341.677 854.417 340.461C855.697 339.181 857.233 338.541 859.025 338.541C860.817 338.541 862.321 339.181 863.537 340.461C864.817 341.677 865.457 343.181 865.457 344.973C865.457 346.765 864.817 348.301 863.537 349.581C862.321 350.797 860.817 351.405 859.025 351.405C857.233 351.405 855.697 350.797 854.417 349.581Z" fill="#2843CE"/>
<path d="M889.857 382.413H923.361C923.361 389.261 921.793 394.573 918.657 398.349C915.521 402.061 910.881 403.917 904.737 403.917C899.105 403.917 894.401 402.029 890.625 398.253L889.569 399.405C894.561 404.397 900.993 406.893 908.865 406.893C916.929 406.893 923.073 404.685 927.297 400.269C931.521 395.853 933.633 390.093 933.633 382.989C933.633 375.437 931.393 369.389 926.913 364.845C922.369 360.301 916.577 358.029 909.537 358.029C903.265 358.029 898.113 359.821 894.081 363.405C890.049 366.989 888.033 371.629 888.033 377.325C888.033 378.861 888.193 380.141 888.513 381.165L889.857 382.413ZM909.153 359.469C912.929 359.469 916.193 361.325 918.945 365.037C921.697 368.685 923.169 373.997 923.361 380.973L897.825 379.533C897.825 372.941 898.817 367.949 900.801 364.557C902.785 361.165 905.569 359.469 909.153 359.469ZM914.337 349.581C915.553 348.301 916.161 346.765 916.161 344.973C916.161 343.181 915.553 341.677 914.337 340.461C913.057 339.181 911.521 338.541 909.729 338.541C907.937 338.541 906.433 339.181 905.217 340.461C903.937 341.677 903.297 343.181 903.297 344.973C903.297 346.765 903.937 348.301 905.217 349.581C906.433 350.797 907.937 351.405 909.729 351.405C911.521 351.405 913.057 350.797 914.337 349.581Z" fill="#2843CE"/>
</g>
<mask id="mask5_128_7712" style="mask-type:alpha" maskUnits="userSpaceOnUse" x="627" y="314" width="178" height="81">
<path d="M787.754 315H644.804C635.51 315 627.975 322.538 627.975 331.836V377.146C627.975 386.444 635.51 393.982 644.804 393.982H787.754C797.049 393.982 804.584 386.444 804.584 377.146V331.836C804.584 322.538 797.049 315 787.754 315Z" fill="#D9D9D9" stroke="#231F20" stroke-width="0.5" stroke-miterlimit="10"/>
</mask>
<g mask="url(#mask5_128_7712)">
<path d="M629.393 375.014L635.921 373.19L648.689 311.366L642.833 309.542L643.025 308.582H659.729L684.977 368.486L696.881 311.174L691.025 309.446L691.217 308.582H705.425L705.329 309.446L698.801 311.174L685.841 374.246C684.881 378.854 682.801 382.822 679.601 386.15C676.401 389.478 671.985 392.582 666.353 395.462L665.489 394.406C670.545 388.774 673.873 382.054 675.473 374.246L675.857 372.23L650.417 312.23L637.841 373.19L643.601 375.014L643.505 375.782H629.297L629.393 375.014Z" fill="#2843CE"/>
<path d="M696.633 351.31L696.057 350.542C701.177 346.382 705.721 344.302 709.689 344.302C711.545 344.302 712.921 344.846 713.817 345.934C714.713 346.958 714.969 348.494 714.585 350.542L709.209 376.462C708.249 380.366 708.217 383.598 709.113 386.158C710.073 388.718 711.993 389.998 714.873 389.998C717.177 389.998 719.641 389.23 722.265 387.694C724.953 386.158 727.481 383.95 729.849 381.07L737.337 344.782H745.977L747.033 346.126L738.777 385.87C738.329 388.238 738.969 389.422 740.697 389.422C742.169 389.422 744.121 388.366 746.553 386.254L747.033 387.022C742.041 391.182 737.497 393.262 733.401 393.262C731.609 393.262 730.233 392.75 729.273 391.726C728.377 390.638 728.153 389.07 728.601 387.022L729.465 384.142L729.273 383.854C726.393 386.926 723.225 389.262 719.769 390.862C716.313 392.462 713.017 393.262 709.881 393.262C705.337 393.262 702.137 391.886 700.281 389.134C698.425 386.382 697.977 382.702 698.937 378.094L704.409 351.694C704.857 349.326 704.249 348.142 702.585 348.142C701.049 348.142 699.065 349.198 696.633 351.31Z" fill="#B11818"/>
<path d="M785.713 354.214L786.545 350.374C786.716 349.308 787.185 348.454 787.953 347.814C788.721 347.174 789.596 346.854 790.577 346.854C791.558 346.854 792.284 347.174 792.753 347.814C793.222 348.412 793.372 349.18 793.201 350.118C792.774 351.996 791.366 353.446 788.977 354.47C786.588 355.494 784.113 356.006 781.553 356.006C779.974 356.006 778.46 355.814 777.009 355.43C775.601 355.046 774.406 354.385 773.425 353.446C772.486 352.465 772.145 351.334 772.401 350.054C772.614 349.116 773.084 348.348 773.809 347.75C774.534 347.153 775.388 346.854 776.369 346.854C777.35 346.854 778.076 347.174 778.545 347.814C779.014 348.454 779.164 349.308 778.993 350.374L778.161 354.214C779.185 354.726 780.38 354.982 781.745 354.982C783.153 354.982 784.476 354.726 785.713 354.214ZM760.881 364.134L760.497 363.622C763.91 360.849 766.94 359.462 769.585 359.462C770.822 359.462 771.74 359.825 772.337 360.55C772.934 361.233 773.105 362.257 772.849 363.622L769.265 380.902C768.625 383.505 768.604 385.66 769.201 387.366C769.841 389.073 771.121 389.926 773.041 389.926C774.577 389.926 776.22 389.414 777.969 388.39C779.761 387.366 781.446 385.894 783.025 383.974L788.017 359.782H793.777L794.481 360.678L788.977 387.174C788.678 388.753 789.105 389.542 790.257 389.542C791.238 389.542 792.54 388.838 794.161 387.43L794.481 387.942C791.153 390.716 788.124 392.102 785.393 392.102C784.198 392.102 783.281 391.761 782.641 391.078C782.044 390.353 781.894 389.308 782.193 387.942L782.769 386.022L782.641 385.83C780.721 387.878 778.609 389.436 776.305 390.502C774.001 391.569 771.804 392.102 769.713 392.102C766.684 392.102 764.55 391.185 763.313 389.35C762.076 387.516 761.777 385.062 762.417 381.99L766.065 364.39C766.364 362.812 765.958 362.022 764.849 362.022C763.825 362.022 762.502 362.726 760.881 364.134Z" fill="#B11818"/>
</g>
<mask id="mask6_128_7712" style="mask-type:alpha" maskUnits="userSpaceOnUse" x="438" y="49" width="178" height="80">
<path d="M598.286 49.418H455.336C446.041 49.418 438.506 56.9555 438.506 66.2535V111.564C438.506 120.862 446.041 128.4 455.336 128.4H598.286C607.581 128.4 615.116 120.862 615.116 111.564V66.2535C615.116 56.9555 607.581 49.418 598.286 49.418Z" fill="#D9D9D9" stroke="#231F20" stroke-width="0.5" stroke-miterlimit="10"/>
</mask>
<g mask="url(#mask6_128_7712)">
<path d="M433.625 105.752C436.993 99.03 441.818 94.1833 448.099 91.2119C454.443 88.2569 461.048 87.6883 467.916 89.5063C474.783 91.3243 479.314 94.8409 481.509 100.056C483.781 105.226 483.256 111.211 479.933 118.011C476.549 124.795 471.724 129.641 465.458 132.551C459.193 135.46 452.596 135.998 445.667 134.164C438.737 132.329 434.136 128.827 431.864 123.657C429.653 118.504 430.24 112.535 433.625 105.752ZM454.863 93.7969C450.63 96.7811 446.861 101.642 443.554 108.381C440.248 115.119 438.891 120.619 439.484 124.88C440.078 129.142 442.354 131.797 446.314 132.845C450.397 133.926 454.555 132.975 458.788 129.99C463.02 127.006 466.79 122.145 470.096 115.407C473.419 108.607 474.784 103.076 474.191 98.8141C473.598 94.5524 471.29 91.8893 467.269 90.8247C463.247 89.7601 459.112 90.7508 454.863 93.7969ZM460.5 78.5062L461.794 75.8695L484.623 81.9131L483.329 84.5498L460.5 78.5062Z" fill="#2843CE"/>
<path d="M580.299 131.024C576.523 124.523 575.113 117.831 576.071 110.948C577.076 104.023 580.22 98.186 585.505 93.4383C590.789 88.6906 596.214 86.8282 601.779 87.8511C607.349 88.7836 612.067 92.503 615.934 99.0093C619.753 105.558 621.162 112.25 620.162 119.086C619.161 125.921 615.995 131.733 610.663 136.524C605.331 141.314 599.88 143.243 594.31 142.311C588.788 141.335 584.118 137.573 580.299 131.024ZM581.94 106.707C582.116 111.883 584.116 117.701 587.94 124.159C591.764 130.618 595.62 134.767 599.51 136.607C603.4 138.446 606.868 137.998 609.915 135.26C613.057 132.437 614.54 128.438 614.364 123.262C614.188 118.086 612.188 112.269 608.364 105.81C604.497 99.3037 600.619 95.1308 596.729 93.2911C592.84 91.4515 589.348 91.9218 586.253 94.7019C583.159 97.4821 581.721 101.484 581.94 106.707ZM582.686 77.5162C581.855 76.1122 581.523 74.6895 581.691 73.2483C581.906 71.7642 582.561 70.5303 583.656 69.5466C584.751 68.5628 585.881 68.1928 587.047 68.4364C588.169 68.6324 589.106 69.3397 589.856 70.5581C591.262 73.0806 591.145 76.1108 589.506 79.6486C587.914 83.1437 585.69 86.1744 582.833 88.7407C581.072 90.3233 579.189 91.6274 577.186 92.6532C575.229 93.6362 573.233 94.0959 571.198 94.0323C569.166 93.8783 567.652 92.9588 566.655 91.274C565.904 90.0555 565.634 88.7494 565.845 87.3558C566.103 85.9194 566.755 84.7307 567.803 83.7897C568.898 82.8059 570.028 82.4359 571.193 82.6795C572.406 82.8804 573.428 83.6828 574.259 85.0869C574.824 86.3861 575.501 87.2834 576.291 87.7788C577.08 88.2742 577.693 88.6696 578.131 88.9649C578.573 89.1699 579.118 89.1537 579.765 88.9164C580.369 88.6315 580.812 88.4059 581.093 88.2397C581.331 88.0258 581.64 87.7478 582.021 87.4056C582.735 86.764 583.287 86.1818 583.678 85.6589C584.116 85.0931 584.329 84.0848 584.316 82.6339C584.307 81.0926 583.764 79.3867 582.686 77.5162Z" fill="#B11818"/>
<path d="M553.473 52.8404C552.566 60.3041 549.656 66.493 544.743 71.407C539.766 76.3265 533.738 79.0872 526.66 79.6892C519.581 80.2912 514.131 78.5067 510.307 74.3357C506.426 70.2338 504.904 64.4219 505.741 56.8999C506.643 49.3724 509.553 43.1835 514.471 38.3333C519.39 33.483 525.421 30.7542 532.563 30.1468C539.705 29.5393 545.217 31.2865 549.098 35.3884C552.916 39.4956 554.374 45.313 553.473 52.8404ZM537.504 71.2519C540.484 67.0162 542.395 61.1692 543.238 53.7109C544.081 46.2526 543.505 40.6171 541.511 36.8044C539.517 32.9917 536.479 31.2589 532.398 31.606C528.189 31.9639 524.595 34.2608 521.615 38.4965C518.635 42.7323 516.724 48.5793 515.881 56.0375C515.043 63.5596 515.622 69.2269 517.616 73.0397C519.61 76.8524 522.68 78.5825 526.825 78.23C530.97 77.8774 534.529 75.5514 537.504 71.2519ZM542.158 84.0556L528.191 98.8283L523.319 93.6545L541.303 83.0685L542.158 84.0556ZM525.705 85.4548L511.739 100.228L506.962 95.0456L524.85 84.4677L525.705 85.4548Z" fill="#2843CE"/>
</g>
<mask id="mask7_128_7712" style="mask-type:alpha" maskUnits="userSpaceOnUse" x="432" y="314" width="178" height="80">
<path d="M592.491 314.63H449.542C440.247 314.63 432.712 322.168 432.712 331.466V376.776C432.712 386.074 440.247 393.612 449.542 393.612H592.491C601.786 393.612 609.321 386.074 609.321 376.776V331.466C609.321 322.168 601.786 314.63 592.491 314.63Z" fill="#D9D9D9" stroke="#231F20" stroke-width="0.5" stroke-miterlimit="10"/>
</mask>
<g mask="url(#mask7_128_7712)">
<path d="M459.205 367.474C461.719 366.506 464.565 366.582 467.743 367.703C471.606 369.066 473.995 371.401 474.909 374.71C475.878 377.992 475.574 381.867 473.999 386.333C472.182 391.483 469.597 395.028 466.244 396.967C462.905 398.866 459.083 399.056 454.778 397.537C452.967 396.899 451.264 395.891 449.668 394.514L445.688 405.8L448.904 408.224L448.692 408.828L435.172 404.06L435.385 403.456L439.411 403.586L443.008 393.386L443.828 391.64L443.711 391.395C441.335 392.231 438.517 392.074 435.258 390.924C431.395 389.562 428.979 387.239 428.011 383.957C427.056 380.634 427.367 376.74 428.942 372.273C430.758 367.123 433.343 363.578 436.697 361.639C440.09 359.714 443.96 359.518 448.305 361.051C450.116 361.69 451.799 362.691 453.354 364.053L457.676 351.801L454.331 349.739L454.565 349.075L463.959 351.303L464.506 352.446L460.014 365.181L459.088 367.23L459.205 367.474ZM438.648 390.355C440.499 391.008 442.321 390.972 444.115 390.248L453.035 364.959C451.787 363.75 450.479 362.904 449.111 362.421C446.416 361.47 443.91 361.967 441.596 363.91C439.282 365.854 437.309 369.139 435.677 373.767C434.172 378.032 433.664 381.653 434.152 384.63C434.695 387.581 436.194 389.49 438.648 390.355ZM464.35 368.475C462.458 367.808 460.616 367.836 458.822 368.561L449.988 393.609C451.316 394.846 452.623 395.692 453.911 396.146C456.607 397.097 459.085 396.614 461.345 394.696C463.659 392.752 465.639 389.447 467.285 384.779C468.79 380.514 469.277 376.953 468.746 374.097C468.229 371.2 466.764 369.326 464.35 368.475Z" fill="#2843CE"/>
<path d="M504.441 379.88L478.204 336.278L472.363 338.905L471.841 338.217L512.21 307.563L512.732 308.251L508.633 313.172L546.196 362.639L552.268 360.318L552.849 361.082L534.729 374.842L534.148 374.077L538.015 368.851L500.22 319.078L479.883 334.521L506.255 378.141C511.516 386.763 511.751 392.892 506.96 396.531C505.176 397.885 503.222 398.646 501.098 398.812C498.987 398.888 497.176 397.933 495.667 395.945C494.544 394.467 494.081 393.01 494.277 391.576C494.486 390.051 495.253 388.786 496.578 387.779C497.954 386.734 499.379 386.336 500.852 386.583C502.377 386.791 503.72 387.66 504.881 389.189L506.855 391.789C507.238 391.658 507.506 391.535 507.659 391.419C508.424 390.839 508.512 389.526 507.924 387.481C507.386 385.398 506.226 382.864 504.441 379.88Z" fill="#2843CE"/>
<path d="M558.509 390.997L557.547 392.833C560.152 393.496 566.011 386.171 575.126 370.858C576.47 368.69 577.564 366.988 578.408 365.749C579.313 364.527 580.436 363.228 581.777 361.852C583.18 360.492 584.612 359.536 586.074 358.983C587.551 358.369 589.353 357.903 591.481 357.586C593.609 357.269 596.077 357.303 598.885 357.687C601.709 358.01 604.919 358.629 608.517 359.545L590.102 397.255C589.021 399.424 589.349 400.729 591.086 401.171C592.451 401.519 594.634 400.985 597.636 399.569L597.911 400.432C591.923 403.201 587.007 404.095 583.161 403.117C581.363 402.659 580.155 401.823 579.54 400.61C578.94 399.334 579.11 397.76 580.049 395.885L597.784 359.289C595.179 358.626 592.813 358.453 590.685 358.77C588.635 359.041 586.784 359.825 585.133 361.121C583.482 362.418 582.072 363.809 580.901 365.294C579.731 366.78 578.395 368.784 576.894 371.308C575.081 374.28 573.627 376.618 572.533 378.321C571.501 380.039 570.197 382.052 568.619 384.358C567.104 386.68 565.761 388.451 564.592 389.673C563.438 390.832 562.153 391.991 560.735 393.149C559.38 394.323 558.003 395.062 556.604 395.366C555.268 395.687 553.918 395.673 552.553 395.326C550.569 394.821 549.206 393.946 548.467 392.701C547.743 391.394 547.749 389.942 548.485 388.347C549.174 386.937 550.195 385.909 551.548 385.263C552.979 384.571 554.408 384.406 555.835 384.769C557.261 385.132 558.22 385.905 558.712 387.086C559.219 388.206 559.152 389.51 558.509 390.997Z" fill="#2843CE"/>
</g>
<mask id="mask8_128_7712" style="mask-type:alpha" maskUnits="userSpaceOnUse" x="634" y="49" width="178" height="80">
<path d="M794.08 49.418H651.131C641.836 49.418 634.301 56.9555 634.301 66.2535V111.564C634.301 120.862 641.836 128.4 651.131 128.4H794.08C803.375 128.4 810.91 120.862 810.91 111.564V66.2535C810.91 56.9555 803.375 49.418 794.08 49.418Z" fill="#D9D9D9" stroke="#231F20" stroke-width="0.5" stroke-miterlimit="10"/>
</mask>
<g mask="url(#mask8_128_7712)">
<path d="M673.193 129.413H655.593V128.901L659.433 127.877V99.2686L655.593 98.0526V97.4126H669.929V98.0526L666.089 99.2686V111.173H673.193C676.862 111.173 679.849 112.005 682.153 113.669C684.457 115.333 685.609 117.551 685.609 120.325C685.609 123.098 684.457 125.317 682.153 126.981C679.892 128.602 676.905 129.413 673.193 129.413ZM671.209 112.389H666.089V128.261H671.209C673.513 128.261 675.348 127.578 676.713 126.213C678.078 124.847 678.761 122.885 678.761 120.325C678.761 117.765 678.078 115.802 676.713 114.437C675.348 113.071 673.513 112.389 671.209 112.389Z" fill="#2843CE"/>
<path d="M705.665 86.4686V104.645H714.177C719.212 104.645 723.286 105.754 726.401 107.973C729.516 110.191 731.073 113.199 731.073 116.997C731.073 120.794 729.516 123.823 726.401 126.085C723.286 128.303 719.212 129.413 714.177 129.413H694.593V128.901L698.753 127.877V86.4686L694.593 85.2526V84.6126H709.825V85.2526L705.665 86.4686ZM705.665 128.133H712.833C716.204 128.133 718.913 127.173 720.961 125.253C723.009 123.333 724.033 120.581 724.033 116.997C724.033 113.413 723.009 110.682 720.961 108.805C718.913 106.927 716.204 105.989 712.833 105.989H705.665V128.133ZM744.641 86.4686V127.557L748.609 128.773V129.413H733.633V128.773L737.793 127.557V86.4686L733.633 85.2526V84.6126L748.609 84.6126V85.2526L744.641 86.4686Z" fill="#B11818"/>
<path d="M781.801 97.4126V98.0526L777.961 99.2686V111.173H785.065C788.734 111.173 791.7 112.005 793.961 113.669C796.265 115.333 797.417 117.551 797.417 120.325C797.417 123.098 796.286 125.317 794.025 126.981C791.764 128.602 788.777 129.413 785.065 129.413H767.465V128.901L771.305 127.877V98.6926H763.497L761.513 104.389H760.489V97.4126H781.801ZM783.017 112.389H777.961V128.261H783.017C785.364 128.261 787.22 127.578 788.585 126.213C789.95 124.847 790.633 122.885 790.633 120.325C790.633 117.765 789.95 115.802 788.585 114.437C787.22 113.071 785.364 112.389 783.017 112.389Z" fill="#2843CE"/>
</g>
<mask id="mask9_128_7712" style="mask-type:alpha" maskUnits="userSpaceOnUse" x="1025" y="49" width="178" height="80">
<path d="M1185.62 49.418H1042.67C1033.38 49.418 1025.84 56.9555 1025.84 66.2535V111.564C1025.84 120.862 1033.38 128.4 1042.67 128.4H1185.62C1194.92 128.4 1202.45 120.862 1202.45 111.564V66.2535C1202.45 56.9555 1194.92 49.418 1185.62 49.418Z" fill="#D9D9D9" stroke="#231F20" stroke-width="0.5" stroke-miterlimit="10"/>
</mask>
<g mask="url(#mask9_128_7712)">
<path d="M1188.49 67.2575L1172.4 75.203L1200.06 131.245L1206.46 130.118L1206.88 130.979L1186.4 141.092L1185.97 140.231L1190.76 135.833L1163.1 79.7918L1147.09 87.6947L1147.42 98.5585L1146.04 99.2383L1140.81 88.6498L1193.07 62.859L1198.29 73.4475L1196.83 74.1698L1188.49 67.2575Z" fill="#B11818"/>
<path d="M1125.24 89.2506L1125.48 88.8018C1129.59 89.9332 1133.73 89.1188 1137.92 86.3583L1138.25 87.488L1135.11 93.2104L1144.31 98.2615L1143.7 99.3835L1134.5 94.3325L1123.68 114.024C1122.7 115.819 1122.31 117.456 1122.52 118.935C1122.75 120.376 1123.64 121.517 1125.17 122.359C1126.85 123.283 1128.71 123.45 1130.74 122.859L1131.01 123.815C1127.9 124.784 1124.79 124.416 1121.69 122.712C1119.11 121.295 1117.51 119.515 1116.88 117.372C1116.3 115.249 1116.62 113.065 1117.85 110.821L1128.66 91.1294L1125.24 89.2506ZM1111.62 135.071L1111.28 134.085C1112.39 133.764 1113.43 133.288 1114.4 132.658C1115.42 132.048 1116.06 131.499 1116.33 131.013C1116.45 130.789 1116.48 130.561 1116.41 130.329C1115.59 129.877 1115.04 129.236 1114.77 128.404C1114.53 127.593 1114.64 126.776 1115.09 125.953C1115.54 125.13 1116.19 124.582 1117.02 124.308C1117.87 124.093 1118.7 124.211 1119.52 124.663C1120.35 125.114 1120.89 125.756 1121.17 126.588C1121.42 127.457 1121.25 128.433 1120.65 129.518C1119.44 131.725 1116.43 133.576 1111.62 135.071Z" fill="#B11818"/>
<path d="M1072.11 106.141L1072.25 105.645L1076.42 105.521L1079.96 96.1646L1076.1 95.5597L1076.3 95.0737C1080.67 94.7654 1084.82 92.6739 1088.76 88.7993L1089.26 89.7204L1086.98 95.9712L1097.16 97.568L1096.71 98.7928L1086.53 97.1961L1082.93 106.543L1093.17 108.149L1092.72 109.374L1082.48 107.767L1078.43 118.665C1077.7 120.622 1077.55 122.24 1078 123.52C1078.45 124.757 1079.52 125.508 1081.21 125.772C1083.1 126.07 1085.03 125.616 1086.99 124.412L1087.45 125.197C1084.35 127.085 1081.09 127.762 1077.67 127.226C1074.77 126.77 1072.82 125.666 1071.85 123.915C1070.91 122.17 1070.91 120.076 1071.86 117.633L1075.96 106.746L1072.11 106.141Z" fill="#B11818"/>
<path d="M1030.13 107.606L1029.86 107.171C1032.86 104.159 1034.19 100.149 1033.86 95.1411L1035 95.4112L1038.44 100.963L1047.36 95.4429L1048.04 96.5315L1039.11 102.052L1050.92 121.158C1052 122.9 1053.23 124.043 1054.62 124.588C1055.99 125.096 1057.42 124.891 1058.91 123.971C1060.54 122.961 1061.6 121.428 1062.08 119.373L1063.05 119.601C1062.36 122.786 1060.51 125.31 1057.5 127.173C1055 128.721 1052.66 129.239 1050.49 128.727C1048.35 128.192 1046.61 126.836 1045.26 124.659L1033.45 105.553L1030.13 107.606ZM1042.61 94.6943L1041.64 94.4659C1041.87 93.3724 1041.95 92.2444 1041.88 91.0818C1041.85 89.8967 1041.69 89.0682 1041.4 88.5965C1041.24 88.3425 1041.07 88.1947 1040.9 88.1531C1040.1 88.6468 1039.27 88.808 1038.41 88.6365C1037.59 88.4427 1036.93 87.9466 1036.44 87.1482C1035.94 86.3499 1035.79 85.5396 1035.99 84.7174C1036.2 83.8364 1036.7 83.1491 1037.5 82.6554C1038.3 82.1617 1039.14 82.0187 1040.02 82.2265C1040.88 82.3979 1041.63 83.0098 1042.28 84.0622C1043.65 86.2758 1043.76 89.8198 1042.61 94.6943Z" fill="#B11818"/>
</g>
<mask id="mask10_128_7712" style="mask-type:alpha" maskUnits="userSpaceOnUse" x="829" y="49" width="178" height="80">
<path d="M989.851 49.418H846.901C837.606 49.418 830.071 56.9555 830.071 66.2535V111.564C830.071 120.862 837.606 128.4 846.901 128.4H989.851C999.146 128.4 1006.68 120.862 1006.68 111.564V66.2535C1006.68 56.9555 999.146 49.418 989.851 49.418Z" fill="#D9D9D9" stroke="#231F20" stroke-width="0.5" stroke-miterlimit="10"/>
</mask>
<g mask="url(#mask10_128_7712)">
<path d="M980.058 107.617L980.209 105.318C982.559 105.665 984.629 105.897 986.417 106.014C993.25 106.462 996.891 103.27 997.339 96.4367C997.574 92.8604 996.888 90.1216 995.281 88.2203C993.742 86.2593 991.44 85.1782 988.375 84.977C985.373 84.78 982.404 85.5473 979.469 87.2787C976.537 88.9463 974.574 91.9922 973.578 96.4165L971.566 96.2845L972.339 84.5018L973.36 83.6068L975.354 85.4694C979.695 83.8301 984.643 83.1928 990.199 83.5575C995.819 83.9263 1000.19 85.3033 1003.3 87.6884C1006.42 90.0735 1007.85 93.0861 1007.61 96.7263C1007.42 99.664 1006.2 102.085 1003.96 103.991C1001.72 105.896 998.727 107.046 994.982 107.442C999.223 108.298 1002.49 109.891 1004.77 112.221C1007.12 114.492 1008.19 117.288 1007.97 120.609C1007.71 124.632 1005.65 127.704 1001.79 129.824C997.995 131.884 992.843 132.7 986.329 132.273C981.092 131.929 976.582 130.767 972.8 128.787C969.086 126.747 967.331 124.163 967.536 121.034C967.637 119.501 968.198 118.287 969.219 117.392C970.239 116.497 971.484 116.098 972.953 116.194C974.486 116.295 975.695 116.919 976.582 118.068C977.533 119.221 977.945 120.755 977.819 122.671L977.455 128.227C979.989 129.676 982.693 130.495 985.567 130.683C989.144 130.918 991.987 130.11 994.096 128.261C996.274 126.351 997.489 123.481 997.74 119.649C998.226 112.241 994.478 108.275 986.495 107.751C984.643 107.629 982.497 107.585 980.058 107.617Z" fill="#2843CE"/>
<path d="M871.201 104.658L838.181 110.331C839.34 117.08 841.785 122.05 845.515 125.24C849.234 128.368 854.122 129.411 860.177 128.371C865.727 127.417 870.044 124.76 873.126 120.399L874.362 121.356C870.287 127.121 864.371 130.67 856.612 132.003C848.665 133.368 842.236 132.232 837.325 128.595C832.414 124.958 829.357 119.639 828.154 112.638C826.876 105.195 828.059 98.8548 831.705 93.6179C835.414 88.3701 840.738 85.1502 847.676 83.9581C853.858 82.8961 859.239 83.7899 863.819 86.6395C868.4 89.489 871.173 93.7206 872.137 99.3344C872.397 100.848 872.456 102.137 872.314 103.2L871.201 104.658ZM848.299 85.3123C844.577 85.9517 841.674 88.3336 839.591 92.4579C837.496 96.5192 836.945 102.004 837.937 108.912L862.86 103.169C861.744 96.6717 859.921 91.9198 857.391 88.9127C854.862 85.9056 851.831 84.7055 848.299 85.3123Z" fill="#B11818"/>
</g>
<path d="M183 597.5L187.5 598L187 601L181 602L183 597.5Z" fill="white"/>
<path d="M836.5 597.5H843L845.5 603L837 604L836.5 597.5Z" fill="white"/>
<path d="M191 600H210L219.5 627.5H201L191 600Z" fill="#2843CE"/>
</svg>
