<svg width="800" height="1720" viewBox="0 0 800 1720" fill="none" xmlns="http://www.w3.org/2000/svg">
<path d="M583.824 557.946C588.554 561.934 591.893 567.322 593.362 573.33C578.833 586.638 565.26 600.954 552.745 616.172V616.172C540.163 631.393 528.671 647.486 518.358 664.328C512.18 664.034 506.254 661.784 501.436 657.904C487.423 646.354 487.1 622.431 499 599.246L498.649 598.957C486.58 589.009 482.763 573.672 490.125 564.739C497.488 555.807 513.272 556.626 525.341 566.573L525.692 566.862C546.245 550.674 569.785 546.374 583.824 557.946Z" stroke="#2843CE" stroke-width="2" stroke-miterlimit="10"/>
<path d="M803.358 462.08C798.751 466.35 793.824 471.172 788.47 476.457C788.47 476.457 868.325 474.523 671.117 713.784C473.91 953.045 460.584 874.263 460.584 874.263C457.156 879.413 454.038 884.186 451.165 888.661C452.272 893.057 454.828 896.952 458.421 899.717C491.113 922.766 609.84 817.229 686.345 726.335C759.482 639.418 847.835 501.913 816.609 468.833C813.011 465.246 808.374 462.884 803.358 462.08Z" stroke="#2843CE" stroke-width="2" stroke-miterlimit="10"/>
<path d="M1088.81 149.533C1015.85 153.885 972.255 236.647 967.931 245.138C950.225 279.988 957.448 296.365 935.738 340.967C920.851 371.227 901.258 398.934 877.691 423.055C875.232 426.946 871.929 430.233 868.027 432.672C864.124 435.112 859.722 436.642 855.147 437.149C836.459 435.342 822.74 444.065 803.18 462.296C808.196 463.099 812.832 465.461 816.431 469.048C847.657 502.128 759.37 639.552 686.167 726.55C609.595 817.525 490.935 922.981 458.242 899.933C454.649 897.167 452.093 893.272 450.987 888.876C435.581 913.069 428.83 928.85 434.409 947.497C441.091 969.592 454.463 989.95 450.157 999.906C445.85 1009.86 383.982 1068.86 384.106 1087.63C384.246 1110.95 399.75 1132.8 404.388 1138.61C413.297 1149.81 423.546 1157.12 437.522 1167.01C447.53 1174.13 457.999 1180.58 468.859 1186.31C468.859 1186.31 427.252 1214.79 355.302 1195.14C283.352 1175.49 193 1188 194.5 1210.5C196 1233 197.5 1263 197.5 1278C197.5 1293 200.34 1323.22 202.5 1325C204.66 1326.78 205.068 1328.83 216.5 1316.5C227.933 1304.17 234.378 1301.14 242.5 1297.5C250.623 1293.86 266.277 1288.13 321.295 1311.54C376.313 1334.96 461.962 1372.42 526.003 1374C590.044 1375.57 685.229 1373.35 770.55 1274.68C811.437 1277.24 852.47 1273.36 892.149 1263.19C901.022 1260.9 909.68 1258.43 917.923 1255.52C1024.78 1219.56 1089.38 1144.05 1130.31 1096.21C1174.81 1044.15 1240.56 967.283 1261.14 851.771C1262.82 842.465 1264.18 832.843 1265.24 822.975C1272.27 752.493 1262.03 681.351 1235.4 615.697C1235.4 615.697 1234.77 613.77 1233.38 610.176C1238.37 597.843 1319.02 393.887 1257.98 278.317C1247.42 259.055 1234.76 241.021 1220.23 224.544C1195.03 196.974 1148.58 145.951 1088.81 149.533ZM1214.62 308.252C1236.48 356.992 1230.29 406.912 1229.5 412.827C1229.32 414.087 1228.92 417.108 1227.58 424.343C1220.39 461.781 1210.36 498.615 1197.57 534.524C1165.42 476.845 1125.58 423.803 1079.14 376.859C1076.3 373.976 1073.36 371.103 1070.42 368.229C1060.36 358.437 1050.17 349.676 1050.17 349.676C1038.53 339.674 1026.39 330.283 1013.78 321.54C1015.15 295.243 1024.51 269.993 1040.61 249.162C1049.37 237.983 1067.12 215.404 1093.42 210.664C1144.42 201.44 1195.26 264.963 1214.62 308.252Z" stroke="#2843CE" stroke-width="2" stroke-miterlimit="10"/>
<path d="M671.117 713.783C473.932 953.017 460.584 874.262 460.584 874.262C482.485 841.419 474.362 779.705 474.362 779.705C474.362 779.705 478.506 729.734 518.359 664.329C528.666 647.496 540.15 631.413 552.724 616.199V616.199C565.239 600.982 578.811 586.666 593.34 573.358C650.022 521.642 698.283 508.034 698.283 508.034C698.283 508.034 760.386 504.203 788.448 476.483C788.47 476.456 868.325 474.522 671.117 713.783Z" stroke="#2843CE" stroke-width="2" stroke-miterlimit="10"/>
<path d="M404.755 1138.55C404.755 1138.55 566.885 1074.59 787.07 807.453C1007.25 540.315 1070.45 368.252 1070.45 368.252" stroke="#2843CE" stroke-width="2" stroke-miterlimit="10"/>
<path d="M413.096 1147.47C413.096 1147.47 575.293 1083.42 795.655 816.07C1016.02 548.716 1079.3 376.545 1079.3 376.545" stroke="#2843CE" stroke-width="2" stroke-miterlimit="10"/>
<path d="M469.226 1186.25C557.665 1247.09 663.246 1278.04 770.513 1274.56" stroke="#2843CE" stroke-width="2" stroke-miterlimit="10"/>
</svg>
