<svg width="718" height="839" viewBox="0 0 718 839" fill="none" xmlns="http://www.w3.org/2000/svg">
<path d="M574.326 430.234C570.52 435.528 565.854 440.148 560.522 443.902C505.22 483.198 369.911 446.483 241.002 353.983C102.936 254.893 23.246 128.256 59.1136 67.0156C60.1325 65.419 61.162 63.8744 62.1916 62.3298C105.046 3.48011 254.032 37.7374 395.203 139.014C524.928 231.954 603.082 349.272 582.516 413.83C580.897 418.945 578.581 423.813 575.634 428.297C575.176 429.084 574.764 429.613 574.326 430.234Z" stroke="#2843CE" stroke-width="2" stroke-miterlimit="10"/>
<path d="M519.176 711.781C444.15 737.642 337.751 668.65 306.056 646.271C314.84 642.328 323.654 638.09 332.499 633.557C376.087 610.739 417.061 583.242 454.697 551.555C464.985 543.046 475.174 534.141 485.264 524.84C536.607 526.63 586.752 547.931 598.565 584.341C612.782 628.212 571.415 693.808 519.176 711.781Z" stroke="#2843CE" stroke-width="2" stroke-miterlimit="10"/>
<path d="M332.499 633.557C412.628 680.493 481.605 688.465 502.293 680.876C518.765 674.459 532.811 663.038 542.451 648.221C555.206 628.194 555.644 604.543 553.853 595.352C549.104 570.95 508.023 545.216 454.726 551.538" stroke="#2843CE" stroke-width="2" stroke-miterlimit="10"/>
<path d="M567.844 437.795C542.283 468.613 514.695 497.693 485.265 524.84C475.144 534.132 464.954 543.037 454.697 551.554C417.061 583.242 376.087 610.738 332.499 633.557C323.651 638.105 314.836 642.343 306.056 646.27C247.908 672.328 191.204 684.65 140.264 681.27C102.038 678.742 67.0414 667.386 37.0821 646.333C6.56457 624.885 -16.2585 595.117 -31.5768 559.022C-82.8966 438.445 -50.2535 248.049 59.192 66.8145C23.3244 128.055 103.015 254.692 241.081 353.782C369.989 446.282 505.329 482.882 560.6 443.701C563.169 441.929 565.591 439.954 567.844 437.795V437.795Z" stroke="#2843CE" stroke-width="2" stroke-miterlimit="10"/>
<path d="M575.609 428.388C573.118 431.559 570.53 434.695 567.844 437.796C565.574 440.028 563.125 442.07 560.522 443.902C505.22 483.198 369.911 446.483 241.002 353.983C102.936 254.893 23.246 128.256 59.1136 67.0156C60.1325 65.419 61.162 63.8744 62.1916 62.3298C105.046 3.48011 254.032 37.7374 395.203 139.014C524.928 231.954 603.082 349.272 582.516 413.83C580.897 418.978 578.573 423.878 575.609 428.388V428.388Z" stroke="#2843CE" stroke-width="2" stroke-miterlimit="10"/>
<path d="M125.67 714.485C100.398 750.444 -83.9283 624.379 -56.9798 586.113C-47.4313 572.534 -38.8153 564.265 -31.6386 559.251C-16.3203 595.347 6.53359 625 37.0203 646.563C66.9796 667.616 101.976 678.972 140.202 681.5C137.617 693.358 132.675 704.575 125.67 714.485V714.485Z" stroke="#2843CE" stroke-width="2" stroke-miterlimit="10"/>
</svg>
