<svg width="388" height="153" viewBox="0 0 388 153" fill="none" xmlns="http://www.w3.org/2000/svg">
<path fill-rule="evenodd" clip-rule="evenodd" d="M46.0362 0.0848737C40.7398 0.635288 37.0047 3.42085 35.444 7.98421C34.7967 9.87609 34.5794 11.4606 34.4964 14.891C34.3753 19.8998 34.8209 23.8574 35.8376 26.8012C36.4857 28.6776 38.0601 31.6884 39.3481 33.5147C39.9872 34.4206 42.1674 37.2619 44.1934 39.8287C50.6864 48.0553 51.4792 49.2672 52.1587 52.0067C52.6577 54.0192 52.8149 59.0614 52.4527 61.4472C52.1313 63.5637 51.6509 64.4419 50.5295 64.962C49.1828 65.5864 47.3183 65.3131 46.383 64.3542C45.2371 63.1792 45.0714 61.7877 45.0714 53.3343V47.0348H39.4892H33.9069L33.9112 55.442C33.9135 60.0661 33.9755 64.3125 34.0491 64.8787C34.3707 67.3543 35.2017 69.63 36.4106 71.3465C38.1241 73.7789 41.3826 75.4995 45.2092 75.9925C46.6164 76.1738 50.9253 76.1674 52.4455 75.9818C58.9569 75.1873 63.0653 71.0013 64.2861 63.9179C64.6946 61.5484 64.8366 58.1017 64.6686 54.6417C64.4277 49.6817 63.8478 47.0885 62.2767 43.9465C61.1787 41.7508 59.6021 39.5121 54.9465 33.5376C48.676 25.491 47.7465 24.1524 46.9318 21.9973C46.3672 20.5032 46.1546 19.2575 46.0741 16.9688C45.9892 14.5552 46.1861 12.4249 46.5753 11.5486C47.0641 10.4482 48.3648 9.86016 49.8954 10.0474C51.2116 10.2084 51.9407 10.7805 52.3386 11.9648C52.5373 12.5561 52.5763 13.5109 52.6195 18.8621L52.6699 25.0732H58.1054H63.541L63.5402 17.8326C63.5394 10.13 63.4696 9.04415 62.8456 7.02339C62.3443 5.39932 61.6552 4.24099 60.5147 3.10543C59.0159 1.61273 57.296 0.794373 54.578 0.280744C53.2547 0.0306555 47.7688 -0.0952121 46.0362 0.0848737ZM0 37.907V75.1733H5.65116H11.3023V58.7707V42.368H15.1616H19.021V58.7707V75.1733H24.6032H30.1855V37.907V0.640779H24.6032H19.021V15.5335V30.4263H15.1616H11.3023V15.5335V0.640779H5.65116H0V37.907ZM68.3651 37.907V75.1733H81.4594H94.5535V69.5455V63.9179H87.1104H79.6675V53.0743V42.2308H85.3186H90.9698V36.6031V30.9753H85.3186H79.6675V21.1613V11.3471H86.8349H94.0022V5.99394V0.640779H81.1837H68.3651V37.907ZM114.401 0.794511C114.401 0.879201 113.131 11.1479 111.579 23.614C110.027 36.0803 107.981 52.5492 107.033 60.2119C106.084 67.8745 105.271 74.3754 105.225 74.6585L105.142 75.1733H110.323H115.504L115.511 74.8644C115.515 74.6946 115.843 71.5599 116.24 67.8985L116.961 61.2413L121.171 61.205L125.38 61.1688L125.697 64.1561C125.871 65.7992 126.208 68.9348 126.445 71.124L126.876 75.1046L132.423 75.1404C135.474 75.1602 137.971 75.1285 137.971 75.0699C137.971 75.0115 136.58 64.4949 134.881 51.6998C133.181 38.9048 130.964 22.1822 129.953 14.5385L128.116 0.641053L121.259 0.640915C116.288 0.640779 114.401 0.683055 114.401 0.794511ZM139.625 37.907V75.1733H145.345H151.065V58.4748V41.776L153.304 41.8616C156.025 41.9653 156.764 42.1521 157.45 42.9081C157.719 43.2043 158.017 43.6827 158.113 43.9711C158.247 44.3731 158.307 47.7308 158.374 58.3588C158.467 73.2725 158.463 73.1906 159.19 74.6097L159.479 75.1733H165.196C169.855 75.1733 170.912 75.1397 170.912 74.991C170.912 74.8907 170.752 74.4155 170.557 73.935C169.753 71.9675 169.776 72.4441 169.681 55.8194C169.585 38.7895 169.657 40.0035 168.636 38.1816C167.949 36.9519 166.426 35.6072 165.141 35.0944L164.677 34.9089L165.349 34.5697C166.324 34.0771 167.862 32.4701 168.462 31.3159C168.739 30.7859 169.108 29.8286 169.284 29.1884L169.603 28.0242V18.5532V9.08231L169.28 7.7996C168.555 4.94253 167.069 2.96378 164.848 1.90427C162.305 0.69033 161.709 0.640779 149.656 0.640779H139.625V37.907ZM171.601 5.99394V11.3471H176.357H181.112V43.2601V75.1733H186.695H192.277V43.2601V11.3471H197.032H201.788V5.99394V0.640779H186.695H171.601V5.99394ZM216.564 14.2639C215.632 21.7566 213.571 38.3565 211.984 51.1526C210.398 63.9488 209.069 74.5881 209.031 74.7957L208.962 75.1733H214.113H219.266L219.351 74.5212C219.397 74.1628 219.713 71.2441 220.054 68.0357C220.393 64.8273 220.708 61.9705 220.752 61.6875L220.833 61.1726H225.025C227.33 61.1726 229.216 61.219 229.216 61.2756C229.216 61.3323 229.559 64.467 229.974 68.2417C230.391 72.0163 230.732 75.1199 230.733 75.1389C230.733 75.1579 233.246 75.1733 236.318 75.1733H241.903L241.831 74.8644C241.77 74.5948 239.515 57.7012 233.562 12.9036C232.688 6.32364 231.974 0.872612 231.974 0.790393C231.974 0.684427 229.972 0.640779 225.116 0.640779H218.259L216.564 14.2639ZM243.826 37.907V75.1733H248.926H254.025L254.061 53.834L254.096 32.4946L259.471 53.8327L264.847 75.171L269.429 75.1721L274.012 75.1733V37.907V0.640779H268.911H263.812V20.6351C263.812 31.6318 263.783 40.6004 263.748 40.5647C263.683 40.4999 259.913 25.0459 256.167 9.49408C255.058 4.88899 254.119 1.01303 254.079 0.880985C254.013 0.657799 253.647 0.640779 248.917 0.640779H243.826V37.907ZM278.699 37.9071V75.188L288.657 75.1363C297.486 75.0906 298.733 75.0577 299.649 74.8471C304.936 73.6329 307.682 70.3754 308.636 64.1924C308.778 63.2647 308.814 57.7922 308.814 37.4953C308.814 13.3599 308.801 11.886 308.562 10.5235C308.026 7.46236 307.059 5.39741 305.377 3.72064C304.07 2.41748 302.742 1.69769 300.544 1.10019L299.166 0.725469L288.933 0.675917L278.699 0.626229V37.9071ZM156.107 10.9939C157.019 11.2711 157.722 11.9567 158.047 12.8852C158.281 13.5559 158.301 14.1677 158.301 20.8181V28.0242L157.973 28.8478C157.566 29.8659 156.721 30.7167 155.813 31.0252C155.318 31.1935 154.638 31.2499 153.107 31.2499H151.065V20.9348V10.6198L153.236 10.7002C154.583 10.7502 155.674 10.8616 156.107 10.9939ZM295.152 11.1158C296.03 11.5161 296.467 12.0887 296.848 13.3374C297.087 14.1202 297.1 15.3214 297.1 37.6325V61.1041L296.768 61.9277C296.577 62.4052 296.2 62.9899 295.871 63.3194C295.063 64.1307 294.281 64.3296 291.906 64.3296H290.001V37.4747V10.6198L292.199 10.6958C294.159 10.7635 294.48 10.809 295.152 11.1158ZM122.183 32.1421C122.752 37.3511 123.423 43.5123 123.675 45.8337L124.133 50.0546H121.128C119.475 50.0546 118.123 50.0247 118.123 49.9883C118.123 49.9517 118.4 47.3422 118.739 44.189C119.533 36.8089 121.014 22.827 121.028 22.5839C121.061 22.0201 121.242 23.5147 122.183 32.1421ZM225.506 27.4967C226.876 39.9162 227.976 49.9394 227.976 49.9943C227.976 50.0275 226.61 50.0546 224.942 50.0546H221.909L221.983 49.5399C222.057 49.0474 223.68 33.8301 224.481 26.1422C224.69 24.1255 224.884 22.4983 224.913 22.5262C224.941 22.554 225.208 24.7907 225.506 27.4967ZM75.0404 76.9556C71.4491 77.4588 68.5707 78.8753 66.8031 81.0094C65.4006 82.7026 64.547 84.6534 64.0108 87.3895C63.7967 88.4828 63.7566 89.3367 63.7631 92.6739C63.7712 96.8787 63.9274 98.987 64.3874 101.103C65.1137 104.443 66.6973 107.79 69.1028 111.067C69.4908 111.595 71.4837 114.159 73.5317 116.765C79.3237 124.132 80.0832 125.224 80.9174 127.378C81.6254 129.206 81.7447 130.01 81.8287 133.509C81.9373 138.032 81.6555 139.9 80.6808 141.117C80.1629 141.764 79.5142 142.06 78.456 142.131C76.324 142.274 74.9262 141.115 74.5624 138.904C74.4903 138.466 74.4311 134.911 74.4306 131.004L74.4299 123.901H68.7786H63.1276L63.1287 132.102C63.1296 140.531 63.1882 141.762 63.6849 143.79C64.04 145.241 65.2471 147.746 66.0475 148.694C67.7425 150.7 69.9671 151.946 73.0075 152.591C74.7569 152.963 79.404 153.119 81.3737 152.872C86.5356 152.225 89.8837 149.963 91.9717 145.713C93.6557 142.285 94.2408 137.705 93.8812 130.764C93.5425 124.232 92.2756 120.993 87.6782 114.91C87.1075 114.155 85.27 111.777 83.5946 109.626C78.3291 102.864 77.6741 101.952 76.7409 100.086C75.731 98.0666 75.4219 96.6477 75.3055 93.4975C75.1726 89.9014 75.5977 88.079 76.7458 87.3225C77.8244 86.6116 79.9133 86.7343 80.7596 87.5581C81.8069 88.5778 81.8729 89.0858 81.8729 96.1308V101.939H87.399H92.9251L92.8591 94.4241C92.789 86.4341 92.7409 85.7972 92.0548 83.7852C91.0781 80.9203 89.1514 78.8362 86.572 77.8547C84.6051 77.1063 83.365 76.9373 79.4607 76.8857C77.4897 76.8597 75.5007 76.8911 75.0404 76.9556ZM124.482 76.9769C121.058 77.3335 118.404 78.5589 116.373 80.7217C115.048 82.1316 114.252 83.49 113.572 85.5036C112.472 88.7551 112.551 86.5796 112.502 114.979C112.471 132.738 112.503 140.699 112.609 141.628C113.221 146.991 116.114 151.131 120.19 152.48C120.926 152.723 121.5 152.786 123.389 152.831C126.063 152.894 126.576 152.792 128.493 151.808C130.669 150.691 133.109 148.044 134.232 145.581L134.628 144.711L134.843 145.458C135.033 146.117 136.108 150.127 136.47 151.524L136.603 152.039H139.837H143.071V129.391V106.743H135.076H127.082V112.44V118.136H129.632H132.182V128.004C132.182 137.476 132.171 137.908 131.907 138.759C131.242 140.902 129.071 142.041 126.865 141.405C125.759 141.086 125.027 140.33 124.583 139.048L124.257 138.107V114.361V90.615L124.566 89.8601C125.155 88.4198 126.218 87.6725 127.686 87.667C129.663 87.6595 130.785 88.5708 131.2 90.5189C131.298 90.9799 131.355 93.0535 131.355 96.1808V101.116H136.937H142.519L142.518 95.7967C142.516 87.7293 142.147 85.294 140.462 82.1985C139.503 80.4361 137.478 78.6917 135.495 77.9185C133.088 76.9801 128.345 76.5745 124.482 76.9769ZM202.822 76.9677C196.297 77.843 192.561 81.6451 191.729 88.2539C191.545 89.7146 191.547 96.2215 191.733 97.9295C192.28 102.986 193.644 106.508 196.678 110.699C197.261 111.505 199.226 114.049 201.042 116.351C206.48 123.245 207.429 124.556 208.347 126.458C209.386 128.606 209.644 130.223 209.639 134.538C209.633 138.813 209.321 140.394 208.292 141.376C206.995 142.613 204.192 142.338 203.181 140.873C202.285 139.578 202.284 139.556 202.234 131.347L202.188 123.901H196.543H190.899L190.901 131.896C190.901 141.447 190.995 142.593 192.011 145.37C193.534 149.542 197.057 152.13 202.105 152.788C204.138 153.054 207.884 153.058 209.716 152.799C216.345 151.86 220.204 147.728 221.446 140.235C221.734 138.499 221.864 131.402 221.649 129.205C221.122 123.824 219.62 120.319 215.531 114.925C214.837 114.011 212.771 111.339 210.939 108.988C205.968 102.612 204.901 101.068 204.14 99.1717C203.289 97.0519 203.236 96.6874 203.236 93.0171C203.234 89.1813 203.373 88.4218 204.222 87.6008C205.301 86.5573 207.556 86.5822 208.68 87.6499C209.613 88.5368 209.644 88.7911 209.644 95.7873V101.939H215.157H220.671L220.668 95.1103C220.667 91.3546 220.604 87.6949 220.528 86.9777C219.941 81.4107 217.3 78.3287 212.17 77.2254C211.037 76.9815 210.241 76.9261 207.3 76.886C205.368 76.8597 203.352 76.8964 202.822 76.9677ZM235.626 77.0217C229.951 77.9182 226.609 81.1686 225.177 87.1825C224.884 88.4176 224.884 88.4443 224.838 113.881C224.797 137.097 224.814 139.488 225.023 140.99C225.422 143.831 226.396 146.521 227.64 148.208C228.326 149.137 229.898 150.569 230.825 151.106C233.128 152.443 235.805 153 239.918 153C243.436 153 245.763 152.582 247.793 151.585C251.325 149.852 253.477 146.473 254.317 141.346C254.555 139.888 254.577 138.909 254.577 129.7V119.646H249.07H243.562L243.522 129.288C243.482 138.736 243.476 138.945 243.192 139.635C242.518 141.265 241.568 141.92 239.873 141.925C238.599 141.928 237.769 141.534 237.143 140.628C236.277 139.377 236.315 140.58 236.315 114.43C236.315 91.7047 236.326 90.5777 236.568 89.7977C236.872 88.816 237.586 88.038 238.385 87.817C238.687 87.7337 239.372 87.6652 239.908 87.6649C241.171 87.6636 242.194 88.1416 242.764 88.9981C243.491 90.0899 243.546 90.7576 243.548 98.5419L243.551 105.645H249.064H254.577L254.575 97.4439C254.572 88.7942 254.511 87.7014 253.896 85.3305C253.164 82.5117 251.328 79.9864 249.014 78.6186C247.859 77.9356 245.774 77.2771 243.994 77.0334C242.098 76.7739 237.238 76.767 235.626 77.0217ZM305.299 76.9159C298.833 77.6056 294.914 81.0928 293.452 87.4566C292.813 90.2366 292.827 89.6829 292.827 114.773C292.827 137.192 292.841 138.607 293.081 140.098C293.875 145.033 295.514 148.238 298.311 150.332C301.019 152.36 304.114 153.098 309.318 152.961C314.075 152.835 316.539 152.086 319.032 150.007C321.437 148.002 322.917 144.967 323.665 140.509L323.977 138.656V114.773C323.977 92.6112 323.959 90.7819 323.734 89.3971C322.776 83.5176 320.78 80.2751 316.947 78.3683C315.513 77.6548 313.877 77.2085 311.782 76.9593C310.692 76.8296 306.379 76.8006 305.299 76.9159ZM339.069 77.0147C335.327 77.5887 332.902 78.8325 330.875 81.2165C329.447 82.8975 328.492 85.0415 327.805 88.1191L327.431 89.7916L327.383 113.743C327.351 130.628 327.382 138.141 327.49 139.205C327.768 141.942 328.311 143.941 329.354 146.068C330.144 147.679 330.956 148.737 332.276 149.878C334.815 152.073 338.017 153.003 343.015 152.998C348.523 152.991 351.785 151.904 354.385 149.205C356.68 146.821 357.922 143.477 358.375 138.459C358.468 137.413 358.501 128.932 358.472 113.606L358.426 90.3405L358.124 88.6935C357.42 84.8723 356.274 82.3426 354.374 80.42C352.782 78.8104 350.486 77.6807 347.743 77.1571C346.162 76.8553 340.693 76.7654 339.069 77.0147ZM0 114.773V152.039L8.71793 152.037C13.5129 152.036 18.1802 151.973 19.0899 151.899C25.1781 151.397 28.5389 148.334 29.7992 142.138L30.1166 140.578V114.567C30.1166 89.7149 30.105 88.4949 29.8581 87.1835C28.7861 81.4895 25.983 78.6149 20.6225 77.7127C19.6142 77.543 17.6881 77.5067 9.69917 77.5067H0V114.773ZM34.4582 114.773V152.039H47.6213H60.7843V146.343V140.646H53.2724H45.7606V129.872V119.097H51.4117H57.0629V113.469V107.841H51.4117H45.7606V98.0271V88.2131H52.9968H60.233V82.8599V77.5067H47.3456H34.4582V114.773ZM97.0345 114.773V152.039H102.754H108.475V114.773V77.5067H102.754H97.0345V114.773ZM146.93 114.773V152.039H152.029H157.129L157.164 130.753L157.198 109.468L162.563 130.753L167.926 152.039H172.521H177.116V114.773V77.5067H171.939H166.764L166.843 97.5124C166.897 111.03 166.877 117.429 166.782 117.244C166.652 116.988 164.159 106.788 159.207 86.2585C158.064 81.5221 157.129 77.6152 157.129 77.5768C157.129 77.5383 154.835 77.5067 152.03 77.5067H146.93V114.773ZM258.3 114.773V152.039H263.95H269.602V135.636V119.234H273.392H277.182V135.636V152.039H282.834H288.484V114.773V77.5067H282.834H277.182V92.3995V107.292H273.392H269.602V92.3995V77.5067H263.95H258.3V114.773ZM362.777 114.773V152.039H375.388H388V146.274V140.509H381.039H374.079V109.008V77.5067H368.427H362.777V114.773ZM16.1953 87.8064C16.9722 88.033 17.8482 88.9782 18.1257 89.8899C18.2473 90.2888 18.4039 91.3254 18.4737 92.1935C18.6472 94.3473 18.6434 134.656 18.4696 136.611C18.2507 139.074 17.7417 140.101 16.4188 140.748C15.6899 141.105 15.516 141.13 13.4732 141.173L11.3023 141.22V114.354V87.4877L13.4732 87.5668C14.6671 87.6101 15.8921 87.7181 16.1953 87.8064ZM309.731 87.8234C310.406 88.025 311.3 88.7804 311.628 89.4286C312.357 90.8698 312.329 89.8714 312.329 114.722C312.329 130.573 312.283 137.962 312.181 138.514C311.837 140.364 311.02 141.42 309.618 141.826C307.835 142.342 305.923 141.581 305.131 140.038C304.377 138.569 304.42 139.919 304.369 116.008C304.34 102.358 304.375 93.304 304.458 92.326C304.635 90.2545 304.959 89.3817 305.848 88.5849C306.218 88.2545 306.726 87.9185 306.978 87.8382C307.606 87.6381 309.083 87.6301 309.731 87.8234ZM344.72 88.0455C345.422 88.3948 346.131 89.2532 346.443 90.1311C346.913 91.4623 346.941 92.9723 346.898 115.802L346.857 138.382L346.536 139.267C346.191 140.22 345.699 140.989 345.189 141.372C345.013 141.504 344.468 141.717 343.977 141.845C341.845 142.402 339.908 141.299 339.237 139.145C339.017 138.435 339 136.727 339 114.636V90.8896L339.329 90.066C339.729 89.0614 340.716 88.0425 341.497 87.827C342.389 87.581 344.008 87.6909 344.72 88.0455Z" fill="#2843CE"/>
</svg>
